<?xml version="1.0" encoding="utf-8" standalone="no"?>
<!DOCTYPE svg PUBLIC "-//W3C//DTD SVG 1.1//EN"
  "http://www.w3.org/Graphics/SVG/1.1/DTD/svg11.dtd">
<!-- Created with matplotlib (http://matplotlib.org/) -->
<svg height="432pt" version="1.1" viewBox="0 0 576 432" width="576pt" xmlns="http://www.w3.org/2000/svg" xmlns:xlink="http://www.w3.org/1999/xlink">
 <defs>
  <style type="text/css">
*{stroke-linecap:butt;stroke-linejoin:round;}
  </style>
 </defs>
 <g id="figure_1">
  <g id="patch_1">
   <path d="
M0 432
L576 432
L576 0
L0 0
z
" style="fill:#ffffff;"/>
  </g>
  <g id="axes_1">
   <g id="patch_2">
    <path d="
M72 378
L518.4 378
L518.4 43.2
L72 43.2
z
" style="fill:none;"/>
   </g>
   <g id="line2d_1">
    <path clip-path="url(#p332b41defa)" d="
M72 337.111
L72.5952 336.839
L73.7856 331.286
L74.3808 330.559
L74.976 329.611
L75.5712 329.095
L76.7616 328.931
L78.5472 329.134
L79.1424 330.036
L80.3328 324.136
L80.928 322.65
L82.1184 322.481
L85.6896 322.479
L86.2848 321.132
L86.88 319.457
L87.4752 319.729
L89.2608 321.248
L90.4512 322.789
L91.6416 324.263
L93.4272 326.072
L94.0224 326.449
L94.6176 326.654
L95.2128 319.554
L98.784 319.8
L100.57 320.036
L101.165 319.742
L104.141 320.912
L104.736 321.008
L105.331 318.821
L105.926 318.175
L107.117 318.165
L107.712 314.598
L108.307 301.555
L108.902 273.175
L109.498 257.844
L110.093 254.92
L111.283 267.925
L112.474 277.063
L113.069 280.316
L113.664 282.743
L114.259 284.363
L114.854 285.18
L115.45 238.545
L116.045 215.809
L116.64 197.951
L117.235 194.196
L117.83 187.806
L118.426 310.022
L119.021 304.524
L120.211 263.362
L120.806 250.886
L121.402 244.605
L121.997 247.417
L122.592 249.107
L123.187 249.672
L123.782 249.096
L124.378 247.345
L124.973 244.367
L125.568 240.086
L126.163 242.868
L126.758 244.26
L127.354 225.382
L127.949 210.413
L128.544 207.886
L129.139 207.911
L129.734 210.188
L130.33 209.792
L130.925 206.655
L131.52 205.284
L132.115 205.533
L132.71 195.406
L133.306 190.36
L133.901 192.438
L134.496 192.406
L135.091 190.201
L135.686 194.17
L136.282 195.981
L136.877 195.674
L137.472 197.775
L138.067 192.053
L138.662 195.78
L139.258 197.357
L139.853 196.816
L140.448 198.929
L141.043 310.571
L141.638 311.741
L143.424 312.398
L144.019 312.511
L144.614 311.833
L145.805 312.099
L146.4 312.176
L146.995 312.081
L147.59 312.545
L150.566 318.182
L151.757 319.724
L152.947 320.741
L153.542 321.193
L154.138 321.435
L154.733 313.737
L155.923 317.097
L157.709 321.552
L158.899 324.931
L160.09 327.649
L161.28 329.669
L161.875 330.511
L162.47 331.099
L163.066 331.408
L163.661 312.463
L164.256 313.024
L167.232 317.056
L167.827 317.88
L168.422 319.072
L169.613 320.667
L170.208 321.195
L170.803 312.835
L171.398 313.107
L173.184 315.489
L174.97 317.897
L176.755 321.122
L177.35 322.178
L177.946 322.903
L178.541 323.279
L179.136 313.077
L179.731 313.493
L181.517 318.519
L182.707 321.879
L183.898 323.675
L185.088 324.893
L185.683 325.418
L186.278 325.692
L186.874 321.887
L188.064 323.713
L189.85 325.626
L190.445 325.909
L191.04 313.356
L191.635 313.709
L194.611 321.705
L195.802 323.949
L196.992 325.661
L198.182 326.857
L198.778 327.268
L199.373 327.482
L199.968 319.063
L201.754 323.917
L202.349 324.642
L203.539 324.793
L204.134 325.199
L205.325 327.49
L206.515 329.045
L207.11 329.518
L207.706 329.764
L208.301 320.073
L209.491 321.025
L210.086 321.315
L210.682 321.467
L211.277 313.425
L212.467 313.188
L213.062 313.271
L214.253 316.265
L215.443 319.113
L216.038 320.276
L217.229 322.99
L217.824 323.895
L218.419 324.546
L219.014 324.942
L219.61 312.998
L220.205 313.184
L221.99 317.637
L223.181 321.771
L223.776 323.344
L224.371 324.599
L224.966 325.534
L225.562 326.17
L226.157 326.622
L226.752 312.172
L227.942 309.503
L228.538 308.912
L229.133 310.086
L229.728 310.68
L230.323 308.388
L230.918 309.808
L232.704 322.16
L233.299 325.971
L233.894 328.329
L235.68 331.94
L236.87 335.281
L238.061 337.857
L240.442 341.809
L241.037 342.396
L241.632 342.775
L242.227 342.998
L242.822 328.937
L244.013 333.651
L245.203 337.434
L246.394 339.914
L247.584 343.007
L248.774 346.775
L249.965 349.845
L251.155 352.237
L252.346 353.918
L252.941 354.476
L253.536 354.873
L254.131 355.094
L254.726 338.667
L255.917 340.88
L257.107 343.17
L257.702 343.976
L258.893 345.069
L260.083 346.177
L260.678 346.523
L261.274 346.702
L261.869 343.918
L263.059 345.515
L264.25 346.669
L265.44 347.513
L266.035 347.762
L266.63 347.886
L267.226 306.46
L267.821 304.448
L268.416 305.644
L269.011 306.247
L269.606 302.07
L270.202 296.276
L271.392 278.672
L272.582 259.659
L273.773 232.562
L274.368 227.532
L276.749 269.312
L277.344 277.363
L277.939 283.69
L279.13 292.394
L279.725 295.05
L280.32 296.355
L280.915 217.013
L281.51 206.352
L282.106 202.907
L282.701 204.61
L283.296 210.395
L283.891 213.58
L284.486 219.316
L285.082 228.081
L286.272 241.326
L286.867 245.965
L287.462 248.656
L288.058 200.372
L289.248 180.25
L289.843 175.738
L290.438 179.76
L291.034 179.37
L291.629 179.373
L292.224 257.07
L292.819 220.65
L293.414 203.199
L294.01 195.211
L294.605 243.598
L295.2 243.529
L295.795 241.269
L296.39 236.486
L296.986 227.403
L297.581 211.768
L298.176 199.658
L298.771 189.998
L299.366 186.934
L299.962 180.745
L300.557 179.222
L301.152 182.894
L301.747 226.844
L302.342 237.253
L302.938 245.714
L303.533 252.329
L304.128 257.174
L304.723 260.309
L305.318 262.028
L305.914 327.346
L306.509 305.507
L307.104 290.69
L307.699 291.592
L310.08 296.752
L311.27 298.456
L311.866 298.978
L312.461 299.253
L313.056 291.638
L315.437 296.431
L316.627 298.688
L317.818 300.215
L318.413 300.68
L319.008 300.924
L319.603 275.361
L320.198 272.631
L321.389 277.836
L322.579 281.948
L323.174 283.433
L324.365 285.421
L324.96 285.878
L325.555 266.35
L327.341 218.589
L327.936 221.822
L328.531 223.964
L329.126 225.035
L329.722 298.769
L330.317 274.919
L331.507 257.452
L332.102 247.532
L332.698 242.078
L333.293 244.948
L333.888 246.391
L334.483 254.383
L335.078 229.048
L335.674 223.747
L336.269 216.863
L336.864 208.169
L337.459 197.101
L338.054 202.197
L338.65 204.587
L339.245 204.345
L339.84 201.409
L340.435 222.523
L341.626 207.321
L342.221 203.725
L342.816 208.878
L343.411 212.607
L344.006 215.216
L344.602 216.651
L345.197 220.88
L345.792 222.943
L346.387 223.669
L346.982 222.877
L347.578 227.31
L348.173 230.245
L348.768 231.713
L349.363 335.24
L349.958 334.445
L350.554 334.207
L351.149 333.538
L351.744 333.048
L352.339 332.924
L355.315 334.01
L355.91 333.212
L356.506 333.453
L358.886 335.858
L360.077 337.105
L361.267 337.949
L361.862 338.148
L362.458 333.967
L364.243 335.104
L366.029 337.064
L367.219 338.053
L367.814 338.439
L368.41 338.652
L369.005 335.102
L370.195 336.823
L370.79 337.717
L372.576 339.478
L373.766 340.386
L374.362 340.69
L374.957 340.857
L375.552 338.425
L377.338 340.632
L378.528 341.595
L379.123 341.821
L379.718 337.736
L381.504 340.071
L382.694 341.323
L383.885 342.281
L384.48 342.505
L385.075 333.984
L388.051 333.951
L388.646 334.498
L391.027 340.367
L391.622 341.346
L392.813 342.36
L393.408 342.696
L394.003 342.881
L394.598 341.337
L396.384 342.967
L397.574 343.635
L398.17 343.785
L398.765 334.304
L399.36 334.275
L399.955 334.464
L400.55 334.787
L401.146 335.287
L405.312 340.218
L406.502 341.088
L407.098 341.317
L407.693 337.984
L409.478 339.199
L410.669 339.711
L411.264 339.827
L411.859 334.75
L412.454 335.054
L415.43 338.551
L416.621 339.449
L417.216 339.691
L417.811 335.011
L420.192 335.928
L421.978 336.258
L422.573 335.89
L424.358 336.97
L426.144 337.752
L426.739 337.867
L427.334 337.045
L428.525 337.899
L429.12 338.193
L429.715 338.358
L430.31 334.138
L430.906 333.422
L431.501 333.085
L432.096 335.918
L433.286 335.458
L435.072 335.007
L435.667 335.418
L436.262 336.008
L436.858 336.985
L437.453 337.665
L438.048 337.79
L441.024 339.004
L441.619 338.427
L442.214 339.561
L446.381 343.369
L447.571 343.749
L448.166 343.384
L448.762 343.675
L449.357 343.838
L449.952 339.693
L451.142 341.386
L452.333 343.227
L453.523 344.082
L454.118 344.387
L454.714 344.56
L455.309 343.479
L457.094 346.271
L458.285 347.759
L458.88 348.319
L459.475 348.721
L460.07 348.939
L460.666 342.175
L463.046 345.318
L464.237 346.457
L464.832 346.828
L465.427 347.029
L466.022 335.488
L467.213 334.208
L467.808 333.79
L468.403 333.648
L469.594 334.048
L471.974 335.278
L473.165 336.052
L473.76 336.238
L474.355 334.773
L474.95 334.541
L476.736 334.428
L477.331 334.49
L478.522 335.042
L480.902 336.343
L482.093 336.69
L482.688 334.435
L483.878 334.612
L486.259 335.103
L486.854 334.635
L488.045 336.179
L490.426 339.797
L491.616 341.83
L492.806 343.796
L493.997 345.344
L494.592 345.914
L495.187 346.319
L495.782 346.536
L496.378 340.452
L497.568 341.217
L498.758 341.613
L499.354 334.485
L499.949 334.59
L500.544 335.05
L501.734 336.434
L502.33 337.235
L502.925 337.717
L504.71 338.164
L505.306 338.228
L505.901 337.93
L507.091 338.985
L507.686 339.35
L508.282 339.556
L508.877 335.302
L510.067 335.347
L510.662 340.193
L511.258 347.449
L511.853 352.64
L512.448 356.059
L513.043 357.774
L513.043 357.774" style="fill:none;stroke:#000000;stroke-linecap:square;stroke-width:8;"/>
   </g>
   <g id="line2d_2">
    <path clip-path="url(#p332b41defa)" d="
M72.5305 -1
L72.5952 56.0002
L73.1904 128.521
L73.7856 142.417
L74.976 182.545
L76.1664 216.405
L76.7616 229.708
L77.3568 239.991
L77.952 247.015
L78.5472 250.618
L79.1424 173.022
L80.3328 276.088
L80.928 288.624
L81.5232 293.432
L82.1184 296.723
L82.7136 298.39
L83.3088 296.986
L83.904 303.818
L84.4992 309.002
L85.0944 312.489
L85.6896 314.244
L86.2848 314.713
L86.88 332.412
L88.0704 345.625
L89.2608 355.598
L90.4512 362.915
L91.0464 365.677
L91.6416 367.909
L92.2368 369.679
L92.832 371.045
L93.4272 372.033
L94.0224 372.674
L94.6176 372.99
L95.2128 344.015
L95.808 346.554
L96.4032 348.237
L96.9984 349.082
L98.784 358.324
L99.3792 360.323
L99.9744 361.645
L100.57 362.304
L101.165 356.3
L101.76 359.725
L102.355 362.495
L102.95 364.652
L103.546 366.235
L104.141 367.274
L104.736 367.789
L105.331 335.36
L106.522 339.167
L107.117 340.023
L107.712 352.394
L108.307 355.886
L108.902 356.451
L109.498 360.592
L110.093 363.091
L110.688 366.232
L111.283 368.695
L111.878 370.606
L112.474 372.061
L113.069 373.139
L113.664 373.899
L114.259 374.383
L114.854 374.618
L115.45 361.4
L116.045 361.644
L116.64 362.026
L117.235 363.084
L117.83 363.271
L118.426 361.826
L119.021 365.907
L119.616 368.075
L120.211 370.983
L120.806 371.716
L123.187 375.283
L124.378 376.211
L125.568 376.692
L126.758 376.953
L127.354 372.082
L127.949 372.714
L129.139 374.336
L129.734 374.957
L130.33 375.371
L131.52 375.717
L132.115 372.977
L133.306 375.185
L134.496 376.22
L135.686 376.835
L136.877 377.149
L137.472 377.216
L138.067 375.703
L139.258 376.407
L140.448 376.679
L141.043 367.249
L141.638 368.772
L142.234 369.867
L142.829 370.679
L143.424 371.223
L144.019 371.494
L144.614 371.083
L145.21 371.722
L145.805 372.144
L146.4 372.356
L146.995 373.932
L147.59 375.122
L148.781 376.176
L149.971 376.869
L151.162 377.303
L152.947 377.635
L154.138 377.709
L154.733 375.694
L155.923 376.573
L157.114 377.134
L158.304 377.494
L160.09 377.782
L162.47 377.916
L163.066 377.924
L163.661 375.474
L164.851 376.374
L166.042 376.977
L167.232 377.366
L169.018 377.67
L170.208 377.739
L170.803 376.443
L171.994 377.013
L173.779 377.53
L175.565 377.786
L178.541 377.922
L179.136 377.038
L180.922 377.577
L182.707 377.852
L186.278 377.958
L186.874 377.852
L190.445 377.958
L191.04 377.387
L192.826 377.81
L195.802 377.954
L199.373 377.989
L199.968 377.878
L203.539 377.975
L210.682 377.951
L211.277 377.549
L213.062 377.852
L216.634 377.974
L219.014 377.989
L219.61 377.879
L223.776 377.984
L242.227 378
L275.558 378
L305.318 378
L305.914 194.274
L306.509 223.585
L307.104 234.822
L308.294 271.267
L309.485 298.811
L310.08 309.077
L310.675 317.124
L311.27 323.065
L311.866 326.985
L312.461 328.936
L313.056 254.994
L314.246 288.736
L315.437 313.967
L316.032 323.65
L316.627 331.458
L317.222 337.533
L317.818 341.99
L318.413 344.916
L319.008 346.367
L319.603 217.843
L320.198 234.448
L321.389 273.795
L321.984 288.777
L322.579 300.825
L323.174 310.177
L323.77 317.019
L324.365 321.589
L324.96 323.857
L325.555 229.956
L326.15 233.351
L326.746 235.339
L327.341 234.927
L327.936 249.036
L328.531 258.231
L329.126 262.769
L329.722 218.402
L330.317 198.739
L330.912 206.78
L331.507 212.43
L332.102 214.75
L332.698 219.749
L333.293 230.674
L333.888 236.066
L334.483 222.308
L335.078 220.147
L335.674 238.8
L336.269 253.81
L336.864 265.277
L337.459 273.007
L338.054 287.24
L338.65 296.882
L339.245 302.388
L339.84 303.951
L340.435 230.906
L341.626 256.88
L342.221 268.911
L342.816 283.24
L343.411 293.532
L344.006 300.272
L344.602 303.647
L345.197 248.633
L345.792 266.327
L346.387 279.99
L347.578 299.879
L348.173 306.342
L348.768 309.513
L349.363 140.039
L349.958 223.271
L350.554 277.056
L351.149 297.549
L352.339 314.281
L352.934 321.414
L353.53 327.162
L354.125 331.497
L354.72 334.441
L355.315 335.929
L355.91 307.996
L357.101 327.238
L358.291 341.916
L359.482 352.148
L360.077 355.745
L360.672 358.388
L361.267 360.126
L361.862 360.991
L362.458 307.897
L363.053 326.67
L364.243 340.463
L365.434 350.929
L366.029 354.803
L366.624 357.837
L367.219 360.078
L367.814 361.579
L368.41 362.327
L369.005 337.889
L370.195 357.527
L370.79 363.061
L371.981 367.721
L372.576 369.401
L373.171 370.697
L373.766 371.642
L374.362 372.259
L374.957 372.564
L375.552 365.63
L376.147 367.763
L376.742 369.466
L377.338 370.779
L377.933 371.734
L378.528 372.357
L379.123 372.666
L379.718 361.11
L380.909 366.555
L381.504 368.565
L382.099 370.162
L382.694 371.386
L383.29 372.287
L383.885 372.874
L384.48 373.165
L385.075 319.825
L386.266 340.582
L386.861 343.309
L387.456 345.07
L388.051 345.996
L388.646 347.216
L389.837 359.16
L391.027 368.052
L391.622 369.824
L392.218 371.119
L392.813 372.059
L393.408 372.671
L394.003 372.974
L394.598 370.037
L395.194 371.563
L395.789 372.764
L396.384 373.675
L396.979 374.329
L397.574 374.751
L398.17 374.958
L398.765 253.707
L399.955 311.842
L401.146 332.507
L402.336 349.882
L402.931 357.289
L404.122 363.676
L404.717 366.002
L405.312 367.798
L405.907 369.108
L406.502 369.971
L407.098 370.402
L407.693 360.741
L408.288 363.569
L408.883 365.85
L409.478 367.619
L410.074 368.913
L410.669 369.76
L411.264 370.18
L411.859 329.219
L413.05 342.565
L414.24 352.621
L414.835 356.349
L415.43 359.268
L416.026 361.418
L416.621 362.846
L417.216 363.567
L417.811 338.941
L419.002 355.88
L419.597 358.808
L420.192 361.105
L420.787 362.815
L421.382 363.949
L421.978 364.515
L422.573 360.506
L423.763 368.164
L424.358 369.782
L424.954 371.033
L425.549 371.947
L426.144 372.545
L426.739 372.84
L427.334 369.789
L427.93 371.06
L428.525 371.986
L429.12 372.591
L429.715 372.89
L430.31 140.098
L431.501 140.765
L432.096 98.9226
L433.286 189.548
L433.882 195.99
L434.477 199.842
L435.072 201.715
L435.667 225.929
L436.858 297.594
L437.453 308.849
L438.643 325.011
L439.238 330.994
L439.834 335.489
L440.429 338.522
L441.024 340.057
L441.619 321.434
L442.214 331.539
L443.405 346.716
L444.595 357.955
L445.786 366.016
L446.381 367.604
L446.976 368.632
L447.571 369.14
L448.166 367.607
L448.762 368.646
L449.357 369.161
L449.952 334.629
L451.142 356.336
L451.738 362.346
L452.333 364.949
L452.928 366.863
L453.523 368.269
L454.118 369.193
L454.714 369.652
L455.309 365.46
L456.499 370.013
L457.094 371.629
L457.69 372.885
L458.285 373.829
L458.88 374.502
L459.475 374.934
L460.07 375.146
L460.666 360.312
L461.856 366.372
L462.451 368.576
L463.046 370.31
L463.642 371.63
L464.237 372.579
L464.832 373.194
L465.427 373.496
L466.022 145.675
L467.808 213.581
L468.998 253.236
L470.189 285.194
L471.379 308.287
L471.974 316.668
L472.57 323.096
L473.165 327.361
L473.76 329.496
L474.355 211.757
L474.95 252.148
L476.141 295.143
L476.736 314.507
L477.926 332.274
L479.117 345.344
L479.712 350.188
L480.307 353.982
L480.902 356.779
L481.498 358.621
L482.093 359.538
L482.688 323.139
L483.878 336.594
L484.474 341.451
L485.069 345.076
L485.664 347.487
L486.259 348.694
L486.854 269.466
L488.045 302.174
L489.235 328.714
L490.426 349.85
L491.616 359.442
L492.211 363.031
L492.806 365.907
L493.402 368.16
L493.997 369.868
L494.592 371.093
L495.187 371.884
L495.782 372.273
L496.378 354.056
L496.973 357.25
L497.568 359.606
L498.163 361.158
L498.758 361.931
L499.354 237.167
L500.544 286.088
L501.734 318.807
L502.33 332.734
L502.925 339.088
L503.52 343.856
L504.115 347.388
L504.71 349.721
L505.306 350.882
L505.901 339.201
L506.496 344.223
L507.091 347.937
L507.686 350.394
L508.282 351.621
L508.877 291.853
L509.472 295.395
L510.067 297.218
L510.324 -1
L510.324 -1" style="fill:none;stroke:#0000ff;stroke-linecap:square;stroke-width:4;"/>
   </g>
   <g id="line2d_3">
    <path clip-path="url(#p332b41defa)" d="
M72 217.693
L72.5952 251.089
L73.1904 240.004
L73.7856 213.326
L74.976 177.592
L75.5712 164.289
L76.1664 154.841
L76.7616 147.811
L77.3568 143.074
L77.952 140.26
L78.5472 139.045
L79.1424 247.618
L79.7376 260.725
L80.3328 276.79
L80.928 266.196
L81.5232 262.893
L82.1184 260.75
L82.7136 259.694
L83.3088 262.288
L83.904 259.416
L84.4992 257.399
L85.0944 256.131
L85.6896 255.527
L86.2848 302.836
L86.88 311.726
L91.0464 344.37
L92.2368 350.943
L92.832 353.45
L93.4272 355.352
L94.0224 356.635
L94.6176 357.283
L95.2128 318.58
L96.4032 319.088
L96.9984 319.204
L97.5936 325.078
L98.784 329.475
L99.3792 331.09
L99.9744 332.212
L100.57 332.789
L101.165 329.064
L102.355 336.074
L102.95 338.805
L103.546 340.919
L104.141 342.362
L104.736 343.097
L105.331 320.601
L105.926 318.921
L106.522 318.208
L107.117 317.849
L107.712 339.057
L108.307 340.026
L108.902 335.555
L109.498 337.853
L110.093 340.827
L111.283 350.954
L111.878 354.757
L112.474 357.815
L113.069 360.189
L113.664 361.927
L114.259 363.067
L114.854 363.632
L115.45 335.363
L116.045 331.832
L116.64 329.393
L117.235 330.121
L117.83 329.357
L118.426 350.476
L119.021 355.971
L119.616 358.243
L120.211 362.024
L120.806 362.491
L121.402 363.706
L122.592 367.471
L123.782 370.068
L124.378 370.977
L124.973 371.639
L126.758 372.832
L127.354 362.671
L127.949 363.077
L129.734 367.055
L130.33 367.86
L130.925 368.237
L131.52 368.442
L132.115 363.963
L133.306 368.452
L133.901 369.907
L134.496 371.049
L135.686 372.766
L136.282 373.36
L137.472 373.939
L138.067 369.606
L138.662 370.619
L139.258 371.317
L140.448 372.005
L141.043 356.993
L141.638 358.039
L142.829 359.242
L143.424 359.634
L144.019 359.835
L144.614 362.91
L145.805 363.477
L146.4 363.6
L146.995 368.155
L147.59 370.24
L148.781 372.332
L149.971 373.953
L151.162 375.123
L152.352 375.893
L153.542 376.308
L154.138 376.392
L154.733 371.333
L155.923 373.272
L157.114 374.729
L158.304 375.828
L159.494 376.59
L160.685 377.08
L161.875 377.363
L163.066 377.477
L163.661 371.293
L164.851 373.016
L166.042 374.385
L167.232 375.411
L168.422 376.11
L169.613 376.494
L170.208 376.574
L170.803 373.493
L172.589 375.255
L173.779 376.104
L174.97 376.716
L176.16 377.137
L177.35 377.391
L178.541 377.494
L179.136 374.988
L180.922 376.42
L182.112 377.15
L183.898 377.541
L185.683 377.71
L186.278 377.728
L186.874 377.314
L188.659 377.618
L190.445 377.729
L191.04 375.942
L192.826 377.224
L194.611 377.6
L196.992 377.841
L199.373 377.914
L199.968 377.457
L201.754 377.781
L206.515 377.931
L207.706 377.946
L208.301 377.548
L210.682 377.713
L211.277 376.408
L212.467 377.23
L214.848 377.674
L217.229 377.87
L219.014 377.914
L219.61 377.472
L221.99 377.784
L224.966 377.934
L226.157 377.948
L226.752 377.598
L228.538 377.831
L237.466 377.998
L266.63 378
L267.821 377.927
L279.13 378
L305.318 378
L305.914 264.448
L306.509 234.9
L307.104 214.672
L307.699 219.266
L310.08 241.829
L310.675 246.251
L311.27 249.742
L311.866 252.167
L312.461 253.42
L313.056 222.233
L316.032 262.803
L317.222 274.815
L317.818 279.04
L318.413 281.93
L319.008 283.403
L319.603 185.695
L320.198 185.615
L321.984 214.134
L323.174 228.05
L323.77 232.871
L324.365 236.359
L324.96 238.145
L325.555 173.015
L327.341 99.875
L327.936 108.514
L328.531 114.322
L329.126 117.247
L329.722 230.423
L330.317 180.154
L332.102 116.124
L332.698 103.363
L333.293 108.064
L333.888 110.463
L334.483 185.211
L335.078 158.077
L335.674 161.536
L336.269 162.753
L336.864 161.273
L337.459 156.193
L338.054 169.647
L338.65 178.123
L339.245 181.749
L339.84 180.447
L340.435 156.053
L341.626 153.337
L342.221 156.357
L342.816 169.204
L343.411 178.691
L344.006 185.17
L344.602 188.565
L345.197 162.115
L345.792 172.594
L346.387 180.338
L346.982 185.029
L347.578 194.875
L348.173 201.4
L348.768 204.659
L349.363 255.365
L349.958 274.1
L350.554 286.677
L351.149 285.513
L351.744 282.878
L352.339 281.598
L352.934 281.532
L353.53 281.822
L355.315 283.111
L358.291 305.143
L359.482 313.93
L360.077 317.55
L360.672 320.409
L361.267 322.397
L361.862 323.427
L362.458 300.058
L363.053 310.565
L364.243 315.853
L366.029 325.01
L366.624 327.453
L367.219 329.414
L367.814 330.851
L368.41 331.602
L369.005 320.041
L370.195 339.052
L370.79 345.226
L371.981 351.039
L373.171 355.334
L373.766 356.818
L374.362 357.826
L374.957 358.339
L375.552 348.331
L376.742 353.615
L377.338 355.621
L377.933 357.159
L378.528 358.205
L379.123 358.739
L379.718 342.89
L380.909 349.557
L382.099 354.764
L382.694 356.718
L383.29 358.251
L383.885 359.295
L384.48 359.826
L385.075 304.598
L386.266 314.928
L387.456 314.16
L388.051 314.069
L391.027 350.43
L391.622 353.269
L392.218 355.394
L392.813 357.022
L393.408 358.127
L394.003 358.689
L394.598 354.045
L395.789 359.446
L396.384 361.434
L396.979 362.928
L397.574 363.928
L398.17 364.43
L398.765 283.045
L399.955 305.489
L401.146 316.297
L402.931 335.682
L404.122 342.299
L405.312 347.428
L405.907 349.229
L406.502 350.486
L407.098 351.144
L407.693 338.997
L408.883 344.613
L409.478 346.812
L410.074 348.518
L410.669 349.686
L411.264 350.281
L411.859 313.671
L412.454 315.743
L415.43 329.909
L416.026 331.841
L416.621 333.235
L417.216 333.99
L417.811 320.53
L419.002 334.675
L420.192 337.592
L420.787 338.682
L421.382 339.452
L422.573 340.293
L423.763 350.802
L424.954 355.234
L425.549 356.776
L426.144 357.821
L426.739 358.351
L427.334 353.262
L427.93 355.338
L428.525 356.928
L429.12 358.008
L429.715 358.556
L430.31 242.576
L430.906 233.644
L431.501 229.103
L432.096 240.677
L432.691 234.934
L433.286 232.117
L433.882 221.804
L434.477 214.207
L435.072 210.243
L435.667 242.429
L436.858 273.769
L437.453 274.833
L438.048 275.174
L438.643 276.29
L440.429 280.277
L441.024 280.967
L441.619 293.009
L442.81 307.831
L444.595 328.319
L445.786 339.824
L446.381 342.324
L446.976 343.998
L447.571 344.85
L448.166 342.336
L448.762 344.053
L449.357 344.931
L449.952 306.373
L451.142 331.213
L451.738 339.167
L452.333 342.47
L452.928 344.937
L453.523 346.874
L454.118 348.212
L454.714 348.901
L455.309 344.299
L456.499 352.802
L457.69 359.054
L458.285 361.315
L458.88 363.004
L459.475 364.13
L460.07 364.695
L460.666 336.301
L461.856 345.359
L463.046 352.349
L463.642 354.949
L464.237 356.918
L464.832 358.244
L465.427 358.914
L466.022 245.58
L466.618 235.473
L467.213 227.874
L467.808 222.68
L468.403 220.256
L468.998 220.502
L469.594 222.275
L470.189 225.133
L473.165 242.308
L473.76 243.734
L474.95 260.512
L476.141 273.515
L476.736 281.2
L479.712 307.368
L480.307 311.339
L480.902 314.465
L481.498 316.631
L482.093 317.748
L482.688 284.016
L484.474 292.51
L485.069 294.688
L485.664 296.252
L486.259 297.078
L486.854 265.016
L488.045 280.472
L491.021 324.166
L492.211 336.087
L493.402 345.153
L493.997 348.503
L494.592 351.036
L495.187 352.737
L495.782 353.596
L496.378 321.092
L496.973 323.811
L497.568 325.972
L498.163 327.48
L498.758 328.262
L499.354 251.888
L499.949 254.376
L500.544 258.974
L502.33 285.888
L502.925 290.521
L503.52 293.98
L504.115 296.739
L504.71 298.662
L505.306 299.654
L505.901 290.878
L506.496 295.061
L507.091 298.416
L507.686 300.778
L508.282 302.016
L508.877 256.97
L509.472 255.172
L510.067 254.335
L510.662 201
L511.853 224.846
L512.448 234.471
L513.043 240.063
L513.043 240.063" style="fill:none;stroke:#ff0000;stroke-linecap:square;stroke-width:2;"/>
   </g>
   <g id="patch_3">
    <path d="
M72 43.2
L518.4 43.2" style="fill:none;stroke:#000000;stroke-linecap:square;stroke-linejoin:miter;"/>
   </g>
   <g id="patch_4">
    <path d="
M518.4 378
L518.4 43.2" style="fill:none;stroke:#000000;stroke-linecap:square;stroke-linejoin:miter;"/>
   </g>
   <g id="patch_5">
    <path d="
M72 378
L518.4 378" style="fill:none;stroke:#000000;stroke-linecap:square;stroke-linejoin:miter;"/>
   </g>
   <g id="patch_6">
    <path d="
M72 378
L72 43.2" style="fill:none;stroke:#000000;stroke-linecap:square;stroke-linejoin:miter;"/>
   </g>
   <g id="matplotlib.axis_1">
    <g id="xtick_1">
     <g id="line2d_4">
      <defs>
       <path d="
M0 0
L0 -4" id="m93b0483c22" style="stroke:#000000;stroke-width:0.5;"/>
      </defs>
      <g>
       <use style="stroke:#000000;stroke-width:0.5;" x="72.0" xlink:href="#m93b0483c22" y="378.0"/>
      </g>
     </g>
     <g id="line2d_5">
      <defs>
       <path d="
M0 0
L0 4" id="m741efc42ff" style="stroke:#000000;stroke-width:0.5;"/>
      </defs>
      <g>
       <use style="stroke:#000000;stroke-width:0.5;" x="72.0" xlink:href="#m741efc42ff" y="43.2"/>
      </g>
     </g>
     <g id="text_1">
      <!-- 0 -->
      <defs>
       <path d="
M31.7812 66.4062
Q24.1719 66.4062 20.3281 58.9062
Q16.5 51.4219 16.5 36.375
Q16.5 21.3906 20.3281 13.8906
Q24.1719 6.39062 31.7812 6.39062
Q39.4531 6.39062 43.2812 13.8906
Q47.125 21.3906 47.125 36.375
Q47.125 51.4219 43.2812 58.9062
Q39.4531 66.4062 31.7812 66.4062
M31.7812 74.2188
Q44.0469 74.2188 50.5156 64.5156
Q56.9844 54.8281 56.9844 36.375
Q56.9844 17.9688 50.5156 8.26562
Q44.0469 -1.42188 31.7812 -1.42188
Q19.5312 -1.42188 13.0625 8.26562
Q6.59375 17.9688 6.59375 36.375
Q6.59375 54.8281 13.0625 64.5156
Q19.5312 74.2188 31.7812 74.2188" id="BitstreamVeraSans-Roman-30"/>
      </defs>
      <g transform="translate(68.47265625 392.6378125)scale(0.14 -0.14)">
       <use xlink:href="#BitstreamVeraSans-Roman-30"/>
      </g>
     </g>
    </g>
    <g id="xtick_2">
     <g id="line2d_6">
      <g>
       <use style="stroke:#000000;stroke-width:0.5;" x="220.8" xlink:href="#m93b0483c22" y="378.0"/>
      </g>
     </g>
     <g id="line2d_7">
      <g>
       <use style="stroke:#000000;stroke-width:0.5;" x="220.8" xlink:href="#m741efc42ff" y="43.2"/>
      </g>
     </g>
     <g id="text_2">
      <!-- 250 -->
      <defs>
       <path d="
M19.1875 8.29688
L53.6094 8.29688
L53.6094 0
L7.32812 0
L7.32812 8.29688
Q12.9375 14.1094 22.625 23.8906
Q32.3281 33.6875 34.8125 36.5312
Q39.5469 41.8438 41.4219 45.5312
Q43.3125 49.2188 43.3125 52.7812
Q43.3125 58.5938 39.2344 62.25
Q35.1562 65.9219 28.6094 65.9219
Q23.9688 65.9219 18.8125 64.3125
Q13.6719 62.7031 7.8125 59.4219
L7.8125 69.3906
Q13.7656 71.7812 18.9375 73
Q24.125 74.2188 28.4219 74.2188
Q39.75 74.2188 46.4844 68.5469
Q53.2188 62.8906 53.2188 53.4219
Q53.2188 48.9219 51.5312 44.8906
Q49.8594 40.875 45.4062 35.4062
Q44.1875 33.9844 37.6406 27.2188
Q31.1094 20.4531 19.1875 8.29688" id="BitstreamVeraSans-Roman-32"/>
       <path d="
M10.7969 72.9062
L49.5156 72.9062
L49.5156 64.5938
L19.8281 64.5938
L19.8281 46.7344
Q21.9688 47.4688 24.1094 47.8281
Q26.2656 48.1875 28.4219 48.1875
Q40.625 48.1875 47.75 41.5
Q54.8906 34.8125 54.8906 23.3906
Q54.8906 11.625 47.5625 5.09375
Q40.2344 -1.42188 26.9062 -1.42188
Q22.3125 -1.42188 17.5469 -0.640625
Q12.7969 0.140625 7.71875 1.70312
L7.71875 11.625
Q12.1094 9.23438 16.7969 8.0625
Q21.4844 6.89062 26.7031 6.89062
Q35.1562 6.89062 40.0781 11.3281
Q45.0156 15.7656 45.0156 23.3906
Q45.0156 31 40.0781 35.4375
Q35.1562 39.8906 26.7031 39.8906
Q22.75 39.8906 18.8125 39.0156
Q14.8906 38.1406 10.7969 36.2812
z
" id="BitstreamVeraSans-Roman-35"/>
      </defs>
      <g transform="translate(208.4165625 392.6378125)scale(0.14 -0.14)">
       <use xlink:href="#BitstreamVeraSans-Roman-32"/>
       <use x="63.623046875" xlink:href="#BitstreamVeraSans-Roman-35"/>
       <use x="127.24609375" xlink:href="#BitstreamVeraSans-Roman-30"/>
      </g>
     </g>
    </g>
    <g id="xtick_3">
     <g id="line2d_8">
      <g>
       <use style="stroke:#000000;stroke-width:0.5;" x="369.6" xlink:href="#m93b0483c22" y="378.0"/>
      </g>
     </g>
     <g id="line2d_9">
      <g>
       <use style="stroke:#000000;stroke-width:0.5;" x="369.6" xlink:href="#m741efc42ff" y="43.2"/>
      </g>
     </g>
     <g id="text_3">
      <!-- 500 -->
      <g transform="translate(357.24390625 392.6378125)scale(0.14 -0.14)">
       <use xlink:href="#BitstreamVeraSans-Roman-35"/>
       <use x="63.623046875" xlink:href="#BitstreamVeraSans-Roman-30"/>
       <use x="127.24609375" xlink:href="#BitstreamVeraSans-Roman-30"/>
      </g>
     </g>
    </g>
    <g id="xtick_4">
     <g id="line2d_10">
      <g>
       <use style="stroke:#000000;stroke-width:0.5;" x="518.4" xlink:href="#m93b0483c22" y="378.0"/>
      </g>
     </g>
     <g id="line2d_11">
      <g>
       <use style="stroke:#000000;stroke-width:0.5;" x="518.4" xlink:href="#m741efc42ff" y="43.2"/>
      </g>
     </g>
     <g id="text_4">
      <!-- 750 -->
      <defs>
       <path d="
M8.20312 72.9062
L55.0781 72.9062
L55.0781 68.7031
L28.6094 0
L18.3125 0
L43.2188 64.5938
L8.20312 64.5938
z
" id="BitstreamVeraSans-Roman-37"/>
      </defs>
      <g transform="translate(506.0778125 392.6378125)scale(0.14 -0.14)">
       <use xlink:href="#BitstreamVeraSans-Roman-37"/>
       <use x="63.623046875" xlink:href="#BitstreamVeraSans-Roman-35"/>
       <use x="127.24609375" xlink:href="#BitstreamVeraSans-Roman-30"/>
      </g>
     </g>
    </g>
    <g id="text_5">
     <!-- compartment number -->
     <defs>
      <path d="
M32.9062 24.6094
Q27.4375 24.6094 24.6719 22.75
Q21.9219 20.9062 21.9219 17.2812
Q21.9219 13.9688 24.1406 12.0781
Q26.375 10.2031 30.3281 10.2031
Q35.25 10.2031 38.625 13.7344
Q42 17.2812 42 22.6094
L42 24.6094
z

M59.625 31.2031
L59.625 0
L42 0
L42 8.10938
Q38.4844 3.125 34.0781 0.84375
Q29.6875 -1.42188 23.3906 -1.42188
Q14.8906 -1.42188 9.59375 3.53125
Q4.29688 8.5 4.29688 16.4062
Q4.29688 26.0312 10.9062 30.5156
Q17.5312 35.0156 31.6875 35.0156
L42 35.0156
L42 36.375
Q42 40.5312 38.7188 42.4531
Q35.4531 44.3906 28.5156 44.3906
Q22.9062 44.3906 18.0625 43.2656
Q13.2344 42.1406 9.07812 39.8906
L9.07812 53.2188
Q14.7031 54.5938 20.3594 55.2969
Q26.0312 56 31.6875 56
Q46.4844 56 53.0469 50.1719
Q59.625 44.3438 59.625 31.2031" id="BitstreamVeraSans-Bold-61"/>
      <path id="BitstreamVeraSans-Bold-20"/>
      <path d="
M37.5 11.2812
Q43.1094 11.2812 46.0625 15.375
Q49.0312 19.4844 49.0312 27.2969
Q49.0312 35.1094 46.0625 39.2031
Q43.1094 43.3125 37.5 43.3125
Q31.8906 43.3125 28.875 39.1875
Q25.875 35.0625 25.875 27.2969
Q25.875 19.5312 28.875 15.4062
Q31.8906 11.2812 37.5 11.2812
M25.875 46.6875
Q29.5 51.4688 33.8906 53.7344
Q38.2812 56 44 56
Q54.1094 56 60.5938 47.9688
Q67.0938 39.9375 67.0938 27.2969
Q67.0938 14.6562 60.5938 6.60938
Q54.1094 -1.42188 44 -1.42188
Q38.2812 -1.42188 33.8906 0.84375
Q29.5 3.125 25.875 7.90625
L25.875 0
L8.40625 0
L8.40625 75.9844
L25.875 75.9844
z
" id="BitstreamVeraSans-Bold-62"/>
      <path d="
M52.5938 52.9844
L52.5938 38.7188
Q49.0312 41.1562 45.4375 42.3281
Q41.8438 43.5 37.9844 43.5
Q30.6719 43.5 26.5938 39.2344
Q22.5156 34.9688 22.5156 27.2969
Q22.5156 19.625 26.5938 15.3438
Q30.6719 11.0781 37.9844 11.0781
Q42.0938 11.0781 45.7812 12.2969
Q49.4688 13.5312 52.5938 15.9219
L52.5938 1.60938
Q48.4844 0.09375 44.2656 -0.65625
Q40.0469 -1.42188 35.7969 -1.42188
Q21 -1.42188 12.6406 6.17188
Q4.29688 13.7656 4.29688 27.2969
Q4.29688 40.8281 12.6406 48.4062
Q21 56 35.7969 56
Q40.0938 56 44.2656 55.25
Q48.4375 54.5 52.5938 52.9844" id="BitstreamVeraSans-Bold-63"/>
      <path d="
M49.0312 39.7969
Q46.7344 40.875 44.4531 41.375
Q42.1875 41.8906 39.8906 41.8906
Q33.1562 41.8906 29.5156 37.5625
Q25.875 33.25 25.875 25.2031
L25.875 0
L8.40625 0
L8.40625 54.6875
L25.875 54.6875
L25.875 45.7031
Q29.25 51.0781 33.6094 53.5312
Q37.9844 56 44.0938 56
Q44.9688 56 45.9844 55.9219
Q47.0156 55.8594 48.9688 55.6094
z
" id="BitstreamVeraSans-Bold-72"/>
      <path d="
M7.8125 21.2969
L7.8125 54.6875
L25.3906 54.6875
L25.3906 49.2188
Q25.3906 44.7812 25.3438 38.0625
Q25.2969 31.3438 25.2969 29.1094
Q25.2969 22.5156 25.6406 19.6094
Q25.9844 16.7031 26.8125 15.375
Q27.875 13.6719 29.6094 12.7344
Q31.3438 11.8125 33.5938 11.8125
Q39.0625 11.8125 42.1875 16.0156
Q45.3125 20.2188 45.3125 27.6875
L45.3125 54.6875
L62.7969 54.6875
L62.7969 0
L45.3125 0
L45.3125 7.90625
Q41.3594 3.125 36.9375 0.84375
Q32.5156 -1.42188 27.2031 -1.42188
Q17.7188 -1.42188 12.7656 4.39062
Q7.8125 10.2031 7.8125 21.2969" id="BitstreamVeraSans-Bold-75"/>
      <path d="
M27.4844 70.2188
L27.4844 54.6875
L45.5156 54.6875
L45.5156 42.1875
L27.4844 42.1875
L27.4844 19
Q27.4844 15.1875 29 13.8438
Q30.5156 12.5 35.0156 12.5
L44 12.5
L44 0
L29 0
Q18.6562 0 14.3281 4.3125
Q10.0156 8.64062 10.0156 19
L10.0156 42.1875
L1.3125 42.1875
L1.3125 54.6875
L10.0156 54.6875
L10.0156 70.2188
z
" id="BitstreamVeraSans-Bold-74"/>
      <path d="
M62.9844 27.4844
L62.9844 22.5156
L22.125 22.5156
Q22.75 16.3594 26.5625 13.2812
Q30.375 10.2031 37.2031 10.2031
Q42.7188 10.2031 48.5 11.8438
Q54.2969 13.4844 60.4062 16.7969
L60.4062 3.32812
Q54.2031 0.984375 48 -0.21875
Q41.7969 -1.42188 35.5938 -1.42188
Q20.75 -1.42188 12.5156 6.125
Q4.29688 13.6719 4.29688 27.2969
Q4.29688 40.6719 12.375 48.3281
Q20.4531 56 34.625 56
Q47.5156 56 55.25 48.2344
Q62.9844 40.4844 62.9844 27.4844
M45.0156 33.2969
Q45.0156 38.2812 42.1094 41.3281
Q39.2031 44.3906 34.5156 44.3906
Q29.4375 44.3906 26.2656 41.5312
Q23.0938 38.6719 22.3125 33.2969
z
" id="BitstreamVeraSans-Bold-65"/>
      <path d="
M25.875 7.90625
L25.875 -20.7969
L8.40625 -20.7969
L8.40625 54.6875
L25.875 54.6875
L25.875 46.6875
Q29.5 51.4688 33.8906 53.7344
Q38.2812 56 44 56
Q54.1094 56 60.5938 47.9688
Q67.0938 39.9375 67.0938 27.2969
Q67.0938 14.6562 60.5938 6.60938
Q54.1094 -1.42188 44 -1.42188
Q38.2812 -1.42188 33.8906 0.84375
Q29.5 3.125 25.875 7.90625
M37.5 43.3125
Q31.8906 43.3125 28.875 39.1875
Q25.875 35.0625 25.875 27.2969
Q25.875 19.5312 28.875 15.4062
Q31.8906 11.2812 37.5 11.2812
Q43.1094 11.2812 46.0625 15.375
Q49.0312 19.4844 49.0312 27.2969
Q49.0312 35.1094 46.0625 39.2031
Q43.1094 43.3125 37.5 43.3125" id="BitstreamVeraSans-Bold-70"/>
      <path d="
M34.4219 43.5
Q28.6094 43.5 25.5625 39.3281
Q22.5156 35.1562 22.5156 27.2969
Q22.5156 19.4375 25.5625 15.25
Q28.6094 11.0781 34.4219 11.0781
Q40.1406 11.0781 43.1562 15.25
Q46.1875 19.4375 46.1875 27.2969
Q46.1875 35.1562 43.1562 39.3281
Q40.1406 43.5 34.4219 43.5
M34.4219 56
Q48.5312 56 56.4688 48.375
Q64.4062 40.7656 64.4062 27.2969
Q64.4062 13.8125 56.4688 6.1875
Q48.5312 -1.42188 34.4219 -1.42188
Q20.2656 -1.42188 12.2812 6.1875
Q4.29688 13.8125 4.29688 27.2969
Q4.29688 40.7656 12.2812 48.375
Q20.2656 56 34.4219 56" id="BitstreamVeraSans-Bold-6f"/>
      <path d="
M59.0781 45.6094
Q62.4062 50.6875 66.9688 53.3438
Q71.5312 56 77 56
Q86.4219 56 91.3594 50.1875
Q96.2969 44.3906 96.2969 33.2969
L96.2969 0
L78.7188 0
L78.7188 28.5156
Q78.7656 29.1562 78.7812 29.8281
Q78.8125 30.5156 78.8125 31.7812
Q78.8125 37.5938 77.0938 40.2031
Q75.3906 42.8281 71.5781 42.8281
Q66.6094 42.8281 63.8906 38.7188
Q61.1875 34.625 61.0781 26.8594
L61.0781 0
L43.5 0
L43.5 28.5156
Q43.5 37.5938 41.9375 40.2031
Q40.375 42.8281 36.375 42.8281
Q31.3438 42.8281 28.6094 38.7031
Q25.875 34.5781 25.875 26.9062
L25.875 0
L8.29688 0
L8.29688 54.6875
L25.875 54.6875
L25.875 46.6875
Q29.1094 51.3125 33.2812 53.6562
Q37.4531 56 42.4844 56
Q48.1406 56 52.4844 53.2656
Q56.8438 50.5312 59.0781 45.6094" id="BitstreamVeraSans-Bold-6d"/>
      <path d="
M63.375 33.2969
L63.375 0
L45.7969 0
L45.7969 5.42188
L45.7969 25.4844
Q45.7969 32.5625 45.4844 35.25
Q45.1719 37.9375 44.3906 39.2031
Q43.3594 40.9219 41.5938 41.875
Q39.8438 42.8281 37.5938 42.8281
Q32.125 42.8281 29 38.5938
Q25.875 34.375 25.875 26.9062
L25.875 0
L8.40625 0
L8.40625 54.6875
L25.875 54.6875
L25.875 46.6875
Q29.8281 51.4688 34.2656 53.7344
Q38.7188 56 44.0938 56
Q53.5625 56 58.4688 50.1875
Q63.375 44.3906 63.375 33.2969" id="BitstreamVeraSans-Bold-6e"/>
     </defs>
     <g transform="translate(196.86375 412.706875)scale(0.16 -0.16)">
      <use xlink:href="#BitstreamVeraSans-Bold-63"/>
      <use x="59.27734375" xlink:href="#BitstreamVeraSans-Bold-6f"/>
      <use x="127.978515625" xlink:href="#BitstreamVeraSans-Bold-6d"/>
      <use x="232.177734375" xlink:href="#BitstreamVeraSans-Bold-70"/>
      <use x="303.759765625" xlink:href="#BitstreamVeraSans-Bold-61"/>
      <use x="371.240234375" xlink:href="#BitstreamVeraSans-Bold-72"/>
      <use x="420.556640625" xlink:href="#BitstreamVeraSans-Bold-74"/>
      <use x="468.359375" xlink:href="#BitstreamVeraSans-Bold-6d"/>
      <use x="572.55859375" xlink:href="#BitstreamVeraSans-Bold-65"/>
      <use x="640.380859375" xlink:href="#BitstreamVeraSans-Bold-6e"/>
      <use x="711.572265625" xlink:href="#BitstreamVeraSans-Bold-74"/>
      <use x="759.375" xlink:href="#BitstreamVeraSans-Bold-20"/>
      <use x="794.189453125" xlink:href="#BitstreamVeraSans-Bold-6e"/>
      <use x="865.380859375" xlink:href="#BitstreamVeraSans-Bold-75"/>
      <use x="936.572265625" xlink:href="#BitstreamVeraSans-Bold-6d"/>
      <use x="1040.77148438" xlink:href="#BitstreamVeraSans-Bold-62"/>
      <use x="1112.35351562" xlink:href="#BitstreamVeraSans-Bold-65"/>
      <use x="1180.17578125" xlink:href="#BitstreamVeraSans-Bold-72"/>
     </g>
    </g>
   </g>
   <g id="matplotlib.axis_2">
    <g id="ytick_1">
     <g id="line2d_12">
      <defs>
       <path d="
M0 0
L4 0" id="m728421d6d4" style="stroke:#000000;stroke-width:0.5;"/>
      </defs>
      <g>
       <use style="stroke:#000000;stroke-width:0.5;" x="72.0" xlink:href="#m728421d6d4" y="266.4"/>
      </g>
     </g>
     <g id="line2d_13">
      <defs>
       <path d="
M0 0
L-4 0" id="mcb0005524f" style="stroke:#000000;stroke-width:0.5;"/>
      </defs>
      <g>
       <use style="stroke:#000000;stroke-width:0.5;" x="518.4" xlink:href="#mcb0005524f" y="266.4"/>
      </g>
     </g>
     <g id="text_6">
      <!-- 0.05 -->
      <defs>
       <path d="
M10.6875 12.4062
L21 12.4062
L21 0
L10.6875 0
z
" id="BitstreamVeraSans-Roman-2e"/>
      </defs>
      <g transform="translate(38.9740625 270.263125)scale(0.14 -0.14)">
       <use xlink:href="#BitstreamVeraSans-Roman-30"/>
       <use x="63.623046875" xlink:href="#BitstreamVeraSans-Roman-2e"/>
       <use x="95.41015625" xlink:href="#BitstreamVeraSans-Roman-30"/>
       <use x="159.033203125" xlink:href="#BitstreamVeraSans-Roman-35"/>
      </g>
     </g>
    </g>
    <g id="ytick_2">
     <g id="line2d_14">
      <g>
       <use style="stroke:#000000;stroke-width:0.5;" x="72.0" xlink:href="#m728421d6d4" y="154.8"/>
      </g>
     </g>
     <g id="line2d_15">
      <g>
       <use style="stroke:#000000;stroke-width:0.5;" x="518.4" xlink:href="#mcb0005524f" y="154.8"/>
      </g>
     </g>
     <g id="text_7">
      <!-- 0.10 -->
      <defs>
       <path d="
M12.4062 8.29688
L28.5156 8.29688
L28.5156 63.9219
L10.9844 60.4062
L10.9844 69.3906
L28.4219 72.9062
L38.2812 72.9062
L38.2812 8.29688
L54.3906 8.29688
L54.3906 0
L12.4062 0
z
" id="BitstreamVeraSans-Roman-31"/>
      </defs>
      <g transform="translate(38.6809375 158.663125)scale(0.14 -0.14)">
       <use xlink:href="#BitstreamVeraSans-Roman-30"/>
       <use x="63.623046875" xlink:href="#BitstreamVeraSans-Roman-2e"/>
       <use x="95.41015625" xlink:href="#BitstreamVeraSans-Roman-31"/>
       <use x="159.033203125" xlink:href="#BitstreamVeraSans-Roman-30"/>
      </g>
     </g>
    </g>
    <g id="ytick_3">
     <g id="line2d_16">
      <g>
       <use style="stroke:#000000;stroke-width:0.5;" x="72.0" xlink:href="#m728421d6d4" y="43.2"/>
      </g>
     </g>
     <g id="line2d_17">
      <g>
       <use style="stroke:#000000;stroke-width:0.5;" x="518.4" xlink:href="#mcb0005524f" y="43.2"/>
      </g>
     </g>
     <g id="text_8">
      <!-- 0.15 -->
      <g transform="translate(38.9740625 47.063125)scale(0.14 -0.14)">
       <use xlink:href="#BitstreamVeraSans-Roman-30"/>
       <use x="63.623046875" xlink:href="#BitstreamVeraSans-Roman-2e"/>
       <use x="95.41015625" xlink:href="#BitstreamVeraSans-Roman-31"/>
       <use x="159.033203125" xlink:href="#BitstreamVeraSans-Roman-35"/>
      </g>
     </g>
    </g>
    <g id="text_9">
     <!-- normalized concentration -->
     <defs>
      <path d="
M5.71875 54.6875
L53.4219 54.6875
L53.4219 42.4844
L24.6094 12.5
L53.4219 12.5
L53.4219 0
L4.5 0
L4.5 12.2031
L33.2969 42.1875
L5.71875 42.1875
z
" id="BitstreamVeraSans-Bold-7a"/>
      <path d="
M8.40625 75.9844
L25.875 75.9844
L25.875 0
L8.40625 0
z
" id="BitstreamVeraSans-Bold-6c"/>
      <path d="
M8.40625 54.6875
L25.875 54.6875
L25.875 0
L8.40625 0
z

M8.40625 75.9844
L25.875 75.9844
L25.875 61.7188
L8.40625 61.7188
z
" id="BitstreamVeraSans-Bold-69"/>
      <path d="
M45.6094 46.6875
L45.6094 75.9844
L63.1875 75.9844
L63.1875 0
L45.6094 0
L45.6094 7.90625
Q42 3.07812 37.6406 0.828125
Q33.2969 -1.42188 27.5938 -1.42188
Q17.4844 -1.42188 10.9844 6.60938
Q4.5 14.6562 4.5 27.2969
Q4.5 39.9375 10.9844 47.9688
Q17.4844 56 27.5938 56
Q33.25 56 37.625 53.7344
Q42 51.4688 45.6094 46.6875
M34.0781 11.2812
Q39.7031 11.2812 42.6562 15.375
Q45.6094 19.4844 45.6094 27.2969
Q45.6094 35.1094 42.6562 39.2031
Q39.7031 43.3125 34.0781 43.3125
Q28.5156 43.3125 25.5625 39.2031
Q22.6094 35.1094 22.6094 27.2969
Q22.6094 19.4844 25.5625 15.375
Q28.5156 11.2812 34.0781 11.2812" id="BitstreamVeraSans-Bold-64"/>
     </defs>
     <g transform="translate(30.3534375 325.6475)rotate(-90.0)scale(0.16 -0.16)">
      <use xlink:href="#BitstreamVeraSans-Bold-6e"/>
      <use x="71.19140625" xlink:href="#BitstreamVeraSans-Bold-6f"/>
      <use x="139.892578125" xlink:href="#BitstreamVeraSans-Bold-72"/>
      <use x="189.208984375" xlink:href="#BitstreamVeraSans-Bold-6d"/>
      <use x="293.408203125" xlink:href="#BitstreamVeraSans-Bold-61"/>
      <use x="360.888671875" xlink:href="#BitstreamVeraSans-Bold-6c"/>
      <use x="395.166015625" xlink:href="#BitstreamVeraSans-Bold-69"/>
      <use x="429.443359375" xlink:href="#BitstreamVeraSans-Bold-7a"/>
      <use x="487.646484375" xlink:href="#BitstreamVeraSans-Bold-65"/>
      <use x="555.46875" xlink:href="#BitstreamVeraSans-Bold-64"/>
      <use x="627.05078125" xlink:href="#BitstreamVeraSans-Bold-20"/>
      <use x="661.865234375" xlink:href="#BitstreamVeraSans-Bold-63"/>
      <use x="721.142578125" xlink:href="#BitstreamVeraSans-Bold-6f"/>
      <use x="789.84375" xlink:href="#BitstreamVeraSans-Bold-6e"/>
      <use x="861.03515625" xlink:href="#BitstreamVeraSans-Bold-63"/>
      <use x="920.3125" xlink:href="#BitstreamVeraSans-Bold-65"/>
      <use x="988.134765625" xlink:href="#BitstreamVeraSans-Bold-6e"/>
      <use x="1059.32617188" xlink:href="#BitstreamVeraSans-Bold-74"/>
      <use x="1107.12890625" xlink:href="#BitstreamVeraSans-Bold-72"/>
      <use x="1156.4453125" xlink:href="#BitstreamVeraSans-Bold-61"/>
      <use x="1223.92578125" xlink:href="#BitstreamVeraSans-Bold-74"/>
      <use x="1271.72851562" xlink:href="#BitstreamVeraSans-Bold-69"/>
      <use x="1306.00585938" xlink:href="#BitstreamVeraSans-Bold-6f"/>
      <use x="1374.70703125" xlink:href="#BitstreamVeraSans-Bold-6e"/>
     </g>
    </g>
   </g>
  </g>
 </g>
 <defs>
  <clipPath id="p332b41defa">
   <rect height="334.8" width="446.4" x="72.0" y="43.2"/>
  </clipPath>
 </defs>
</svg>
