<?xml version="1.0" encoding="utf-8" standalone="no"?>
<!DOCTYPE svg PUBLIC "-//W3C//DTD SVG 1.1//EN"
  "http://www.w3.org/Graphics/SVG/1.1/DTD/svg11.dtd">
<!-- Created with matplotlib (http://matplotlib.org/) -->
<svg height="432pt" version="1.1" viewBox="0 0 576 432" width="576pt" xmlns="http://www.w3.org/2000/svg" xmlns:xlink="http://www.w3.org/1999/xlink">
 <defs>
  <style type="text/css">
*{stroke-linecap:butt;stroke-linejoin:round;}
  </style>
 </defs>
 <g id="figure_1">
  <g id="patch_1">
   <path d="
M0 432
L576 432
L576 0
L0 0
z
" style="fill:#ffffff;"/>
  </g>
  <g id="axes_1">
   <g id="patch_2">
    <path d="
M72 378
L518.4 378
L518.4 43.2
L72 43.2
z
" style="fill:none;"/>
   </g>
   <g id="line2d_1">
    <path clip-path="url(#p332b41defa)" d="
M72 337.111
L72.5952 336.839
L73.7856 331.286
L74.3808 330.559
L74.976 329.611
L75.5712 329.095
L76.7616 328.931
L78.5472 329.134
L79.1424 330.036
L80.3328 324.136
L80.928 322.65
L82.1184 322.481
L85.6896 322.479
L86.2848 321.132
L86.88 319.457
L87.4752 319.729
L89.2608 321.248
L90.4512 322.789
L91.6416 324.263
L93.4272 326.072
L94.0224 326.449
L94.6176 326.654
L95.2128 319.554
L98.784 319.8
L100.57 320.036
L101.165 319.742
L104.141 320.912
L104.736 321.008
L105.331 318.821
L105.926 318.175
L107.117 318.165
L107.712 314.598
L108.307 301.555
L108.902 273.175
L109.498 257.844
L110.093 254.92
L111.283 267.925
L112.474 277.063
L113.069 280.316
L113.664 282.743
L114.259 284.363
L114.854 285.18
L115.45 238.545
L116.045 215.809
L116.64 197.951
L117.235 194.196
L117.83 187.806
L118.426 310.022
L119.021 304.524
L120.211 263.362
L120.806 250.886
L121.402 244.605
L121.997 247.417
L122.592 249.107
L123.187 249.672
L123.782 249.096
L124.378 247.345
L124.973 244.367
L125.568 240.086
L126.163 242.868
L126.758 244.26
L127.354 225.382
L127.949 210.413
L128.544 207.886
L129.139 207.911
L129.734 210.188
L130.33 209.792
L130.925 206.655
L131.52 205.284
L132.115 205.533
L132.71 195.406
L133.306 190.36
L133.901 192.438
L134.496 192.406
L135.091 190.201
L135.686 194.17
L136.282 195.981
L136.877 195.674
L137.472 197.775
L138.067 192.053
L138.662 195.78
L139.258 197.357
L139.853 196.816
L140.448 198.929
L141.043 310.571
L141.638 311.741
L143.424 312.398
L144.019 312.511
L144.614 311.833
L145.805 312.099
L146.4 312.176
L146.995 312.081
L147.59 312.545
L150.566 318.182
L151.757 319.724
L152.947 320.741
L153.542 321.193
L154.138 321.435
L154.733 313.737
L155.923 317.097
L157.709 321.552
L158.899 324.931
L160.09 327.649
L161.28 329.669
L161.875 330.511
L162.47 331.099
L163.066 331.408
L163.661 312.463
L164.256 313.024
L167.232 317.056
L167.827 317.88
L168.422 319.072
L169.613 320.667
L170.208 321.195
L170.803 312.835
L171.398 313.107
L173.184 315.489
L174.97 317.897
L176.755 321.122
L177.35 322.178
L177.946 322.903
L178.541 323.279
L179.136 313.077
L179.731 313.493
L181.517 318.519
L182.707 321.879
L183.898 323.675
L185.088 324.893
L185.683 325.418
L186.278 325.692
L186.874 321.887
L188.064 323.713
L189.85 325.626
L190.445 325.909
L191.04 313.356
L191.635 313.709
L194.611 321.705
L195.802 323.949
L196.992 325.661
L198.182 326.857
L198.778 327.268
L199.373 327.482
L199.968 319.063
L201.754 323.917
L202.349 324.642
L203.539 324.793
L204.134 325.199
L205.325 327.49
L206.515 329.045
L207.11 329.518
L207.706 329.764
L208.301 320.073
L209.491 321.025
L210.086 321.315
L210.682 321.467
L211.277 313.425
L212.467 313.188
L213.062 313.271
L214.253 316.265
L215.443 319.113
L216.038 320.276
L217.229 322.99
L217.824 323.895
L218.419 324.546
L219.014 324.942
L219.61 312.998
L220.205 313.184
L221.99 317.637
L223.181 321.771
L223.776 323.344
L224.371 324.599
L224.966 325.534
L225.562 326.17
L226.157 326.622
L226.752 312.172
L227.942 309.503
L228.538 308.912
L229.133 310.086
L229.728 310.68
L230.323 308.388
L230.918 309.808
L232.704 322.16
L233.299 325.971
L233.894 328.329
L235.68 331.94
L236.87 335.281
L238.061 337.857
L240.442 341.809
L241.037 342.396
L241.632 342.775
L242.227 342.998
L242.822 328.937
L244.013 333.651
L245.203 337.434
L246.394 339.914
L247.584 343.007
L248.774 346.775
L249.965 349.845
L251.155 352.237
L252.346 353.918
L252.941 354.476
L253.536 354.873
L254.131 355.094
L254.726 338.667
L255.917 340.88
L257.107 343.17
L257.702 343.976
L258.893 345.069
L260.083 346.177
L260.678 346.523
L261.274 346.702
L261.869 343.918
L263.059 345.515
L264.25 346.669
L265.44 347.513
L266.035 347.762
L266.63 347.886
L267.226 306.46
L267.821 304.448
L268.416 305.644
L269.011 306.247
L269.606 302.07
L270.202 296.276
L271.392 278.672
L272.582 259.659
L273.773 232.562
L274.368 227.532
L276.749 269.312
L277.344 277.363
L277.939 283.69
L279.13 292.394
L279.725 295.05
L280.32 296.355
L280.915 217.013
L281.51 206.352
L282.106 202.907
L282.701 204.61
L283.296 210.395
L283.891 213.58
L284.486 219.316
L285.082 228.081
L286.272 241.326
L286.867 245.965
L287.462 248.656
L288.058 200.372
L289.248 180.25
L289.843 175.738
L290.438 179.76
L291.034 179.37
L291.629 179.373
L292.224 257.07
L292.819 220.65
L293.414 203.199
L294.01 195.211
L294.605 243.598
L295.2 243.529
L295.795 241.269
L296.39 236.486
L296.986 227.403
L297.581 211.768
L298.176 199.658
L298.771 189.998
L299.366 186.934
L299.962 180.745
L300.557 179.222
L301.152 182.894
L301.747 226.844
L302.342 237.253
L302.938 245.714
L303.533 252.329
L304.128 257.174
L304.723 260.309
L305.318 262.028
L305.914 327.346
L306.509 305.507
L307.104 290.69
L307.699 291.592
L310.08 296.752
L311.27 298.456
L311.866 298.978
L312.461 299.253
L313.056 291.638
L315.437 296.431
L316.627 298.688
L317.818 300.215
L318.413 300.68
L319.008 300.924
L319.603 275.361
L320.198 272.631
L321.389 277.836
L322.579 281.948
L323.174 283.433
L324.365 285.421
L324.96 285.878
L325.555 266.35
L327.341 218.589
L327.936 221.822
L328.531 223.964
L329.126 225.035
L329.722 298.769
L330.317 274.919
L331.507 257.452
L332.102 247.532
L332.698 242.078
L333.293 244.948
L333.888 246.391
L334.483 254.383
L335.078 229.048
L335.674 223.747
L336.269 216.863
L336.864 208.169
L337.459 197.101
L338.054 202.197
L338.65 204.587
L339.245 204.345
L339.84 201.409
L340.435 222.523
L341.626 207.321
L342.221 203.725
L342.816 208.878
L343.411 212.607
L344.006 215.216
L344.602 216.651
L345.197 220.88
L345.792 222.943
L346.387 223.669
L346.982 222.877
L347.578 227.31
L348.173 230.245
L348.768 231.713
L349.363 335.24
L349.958 334.445
L350.554 334.207
L351.149 333.538
L351.744 333.048
L352.339 332.924
L355.315 334.01
L355.91 333.212
L356.506 333.453
L358.886 335.858
L360.077 337.105
L361.267 337.949
L361.862 338.148
L362.458 333.967
L364.243 335.104
L366.029 337.064
L367.219 338.053
L367.814 338.439
L368.41 338.652
L369.005 335.102
L370.195 336.823
L370.79 337.717
L372.576 339.478
L373.766 340.386
L374.362 340.69
L374.957 340.857
L375.552 338.425
L377.338 340.632
L378.528 341.595
L379.123 341.821
L379.718 337.736
L381.504 340.071
L382.694 341.323
L383.885 342.281
L384.48 342.505
L385.075 333.984
L388.051 333.951
L388.646 334.498
L391.027 340.367
L391.622 341.346
L392.813 342.36
L393.408 342.696
L394.003 342.881
L394.598 341.337
L396.384 342.967
L397.574 343.635
L398.17 343.785
L398.765 334.304
L399.36 334.275
L399.955 334.464
L400.55 334.787
L401.146 335.287
L405.312 340.218
L406.502 341.088
L407.098 341.317
L407.693 337.984
L409.478 339.199
L410.669 339.711
L411.264 339.827
L411.859 334.75
L412.454 335.054
L415.43 338.551
L416.621 339.449
L417.216 339.691
L417.811 335.011
L420.192 335.928
L421.978 336.258
L422.573 335.89
L424.358 336.97
L426.144 337.752
L426.739 337.867
L427.334 337.045
L428.525 337.899
L429.12 338.193
L429.715 338.358
L430.31 334.138
L430.906 333.422
L431.501 333.085
L432.096 335.918
L433.286 335.458
L435.072 335.007
L435.667 335.418
L436.262 336.008
L436.858 336.985
L437.453 337.665
L438.048 337.79
L441.024 339.004
L441.619 338.427
L442.214 339.561
L446.381 343.369
L447.571 343.749
L448.166 343.384
L448.762 343.675
L449.357 343.838
L449.952 339.693
L451.142 341.386
L452.333 343.227
L453.523 344.082
L454.118 344.387
L454.714 344.56
L455.309 343.479
L457.094 346.271
L458.285 347.759
L458.88 348.319
L459.475 348.721
L460.07 348.939
L460.666 342.175
L463.046 345.318
L464.237 346.457
L464.832 346.828
L465.427 347.029
L466.022 335.488
L467.213 334.208
L467.808 333.79
L468.403 333.648
L469.594 334.048
L471.974 335.278
L473.165 336.052
L473.76 336.238
L474.355 334.773
L474.95 334.541
L476.736 334.428
L477.331 334.49
L478.522 335.042
L480.902 336.343
L482.093 336.69
L482.688 334.435
L483.878 334.612
L486.259 335.103
L486.854 334.635
L488.045 336.179
L490.426 339.797
L491.616 341.83
L492.806 343.796
L493.997 345.344
L494.592 345.914
L495.187 346.319
L495.782 346.536
L496.378 340.452
L497.568 341.217
L498.758 341.613
L499.354 334.485
L499.949 334.59
L500.544 335.05
L501.734 336.434
L502.33 337.235
L502.925 337.717
L504.71 338.164
L505.306 338.228
L505.901 337.93
L507.091 338.985
L507.686 339.35
L508.282 339.556
L508.877 335.302
L510.067 335.347
L510.662 340.193
L511.258 347.449
L511.853 352.64
L512.448 356.059
L513.043 357.774
L513.043 357.774" style="fill:none;stroke:#000000;stroke-linecap:square;stroke-width:8;"/>
   </g>
   <g id="line2d_2">
    <path clip-path="url(#p332b41defa)" d="
M72 303.77
L72.5952 313.036
L73.1904 313.586
L73.7856 309.976
L74.3808 309.006
L74.976 307.705
L75.5712 307.022
L76.7616 306.883
L78.5472 307.243
L79.1424 313.269
L79.7376 314.376
L80.3328 315.871
L80.928 314.263
L82.1184 314.127
L84.4992 314.195
L85.6896 314.241
L86.2848 317.406
L86.88 315.986
L87.4752 316.419
L89.2608 318.386
L92.832 323.307
L93.4272 323.883
L94.0224 324.297
L94.6176 324.521
L95.2128 316.291
L98.784 316.811
L100.57 317.131
L101.165 316.725
L103.546 317.987
L104.736 318.3
L105.331 319.53
L105.926 318.928
L107.117 318.954
L107.712 319.963
L108.307 308.475
L108.902 283.132
L109.498 269.657
L110.093 267.206
L111.283 279.191
L112.474 287.593
L113.069 290.58
L113.664 292.806
L114.259 294.291
L114.854 295.04
L115.45 252.436
L116.045 232.117
L116.64 216.168
L117.235 212.867
L117.83 207.164
L118.426 319.945
L119.021 316.405
L120.211 284.619
L120.806 274.748
L121.402 269.904
L121.997 272.408
L122.592 273.975
L123.187 274.608
L123.782 274.297
L124.378 273.018
L124.973 270.73
L125.568 267.372
L126.163 269.654
L126.758 270.795
L127.354 254.59
L127.949 242.724
L128.544 240.88
L129.139 241.063
L129.734 243.025
L130.33 242.804
L130.925 240.349
L131.52 239.281
L132.115 239.096
L132.71 231.445
L133.306 227.857
L133.901 229.764
L134.496 229.95
L135.091 228.367
L135.686 231.667
L136.282 233.211
L136.877 233.036
L137.472 234.741
L138.067 229.384
L138.662 232.5
L139.258 233.862
L139.853 233.5
L140.448 235.219
L141.043 323.305
L141.638 324.315
L143.424 324.957
L144.019 325.061
L144.614 327.13
L145.805 327.394
L146.4 327.466
L146.995 330.094
L147.59 330.705
L149.971 334.48
L151.162 335.886
L152.352 336.898
L153.542 337.582
L154.138 337.764
L154.733 331.71
L155.923 334.379
L160.09 342.444
L161.28 343.945
L161.875 344.564
L162.47 344.994
L163.066 345.22
L163.661 332.859
L164.851 333.997
L166.042 335.19
L167.827 337.146
L168.422 337.996
L169.613 339.128
L170.208 339.497
L170.803 335.474
L171.398 335.783
L173.184 337.66
L176.16 340.894
L177.35 342.356
L177.946 342.838
L178.541 343.087
L179.136 337.848
L179.731 338.282
L182.707 344.059
L183.898 345.242
L185.088 346.038
L185.683 346.371
L186.278 346.545
L186.874 344.064
L188.064 345.264
L189.85 346.495
L190.445 346.675
L191.04 340.049
L191.635 340.549
L193.421 344.221
L194.611 345.957
L195.802 347.359
L196.992 348.42
L198.182 349.154
L199.373 349.531
L199.968 344.355
L201.754 347.415
L202.349 347.851
L203.539 347.962
L204.134 348.196
L205.325 349.576
L206.515 350.506
L207.11 350.787
L207.706 350.933
L208.301 344.977
L209.491 345.584
L210.682 345.863
L211.277 341.818
L212.467 345.119
L213.062 345.259
L217.229 350.556
L218.419 351.372
L219.014 351.578
L219.61 346.626
L220.205 346.81
L221.99 349.169
L223.181 351.244
L224.371 352.659
L224.966 353.125
L226.157 353.664
L226.752 347.734
L227.942 349.534
L228.538 349.317
L229.133 349.823
L229.728 350.079
L230.323 350.522
L230.918 351.382
L232.704 356.974
L233.299 358.669
L233.894 359.626
L236.275 361.846
L237.466 363.036
L239.251 364.333
L240.442 365.031
L241.632 365.4
L242.227 365.484
L242.822 359.945
L244.013 362.002
L245.203 363.669
L246.394 364.652
L248.179 366.548
L249.37 367.792
L250.56 368.781
L251.75 369.514
L252.941 369.982
L254.131 370.201
L254.726 364.194
L257.702 366.375
L260.083 367.2
L261.274 367.39
L261.869 366.363
L263.654 367.207
L265.44 367.716
L266.63 367.853
L267.226 350.904
L267.821 350.172
L268.416 350.644
L269.011 350.882
L269.606 350.364
L270.202 349.374
L270.797 347.665
L272.582 341.15
L273.773 333.969
L274.368 332.595
L276.154 342.491
L276.749 345.545
L277.344 348.012
L277.939 349.949
L279.13 352.607
L279.725 353.415
L280.32 353.811
L280.915 329.678
L281.51 326.866
L282.106 326.197
L282.701 326.866
L283.296 328.714
L283.891 329.773
L284.486 331.558
L285.082 334.205
L286.272 338.184
L286.867 339.566
L287.462 340.365
L288.058 325.615
L289.248 319.962
L289.843 318.737
L290.438 319.987
L291.629 319.947
L292.224 340.18
L292.819 328.864
L293.414 323.461
L294.01 320.992
L294.605 336.347
L295.2 336.669
L295.795 336.303
L296.39 335.159
L296.986 332.711
L297.581 328.18
L298.176 324.697
L298.771 321.932
L299.366 321.116
L299.962 319.347
L300.557 318.943
L301.152 320.057
L301.747 332.655
L302.938 338.473
L303.533 340.507
L304.128 341.996
L304.723 342.958
L305.318 343.484
L305.914 300.362
L306.509 267.966
L307.104 245.92
L307.699 247.457
L310.08 255.729
L310.675 257.243
L311.27 258.422
L311.866 259.244
L312.461 259.676
L313.056 247.562
L316.627 259.012
L317.222 260.372
L317.818 261.429
L318.413 262.162
L319.008 262.546
L319.603 222.771
L320.198 218.851
L321.389 227.043
L322.579 233.477
L323.174 235.799
L323.77 237.529
L324.365 238.896
L324.96 239.605
L325.555 209.39
L327.341 137.913
L327.936 142.89
L328.531 146.186
L329.126 147.833
L329.722 258.063
L330.317 222.194
L331.507 196.154
L332.102 181.319
L332.698 173.194
L333.293 177.58
L333.888 179.784
L334.483 192.089
L335.078 154.381
L335.674 146.75
L336.269 136.722
L336.864 123.958
L337.459 107.617
L338.054 115.396
L338.65 119.089
L339.245 118.809
L339.84 114.47
L340.435 144.809
L341.626 122.545
L342.221 117.361
L342.816 125.221
L343.411 130.909
L344.006 134.883
L344.602 137.065
L345.197 142.598
L345.792 145.902
L346.387 147.165
L346.982 146.122
L347.578 152.854
L348.173 157.306
L348.768 159.533
L349.363 311.873
L349.958 311.949
L350.554 312.363
L351.744 310.897
L352.339 310.775
L354.72 312.334
L355.315 312.55
L355.91 311.179
L356.506 311.636
L360.672 318.186
L361.267 318.735
L361.862 319.038
L362.458 312.571
L363.648 314.189
L364.243 314.762
L366.029 317.82
L367.219 319.339
L367.814 319.924
L368.41 320.246
L369.005 314.84
L371.386 320.22
L372.576 321.994
L373.766 323.376
L374.362 323.835
L374.957 324.087
L375.552 320.362
L376.742 322.702
L377.933 324.536
L378.528 325.146
L379.123 325.483
L379.718 319.24
L381.504 322.826
L382.694 324.724
L383.29 325.546
L383.885 326.158
L384.48 326.491
L385.075 312.809
L386.861 313.273
L387.456 313.177
L388.051 313.216
L388.646 314.109
L391.027 323.19
L391.622 324.659
L392.813 326.191
L393.408 326.697
L394.003 326.975
L394.598 324.661
L395.789 326.419
L396.979 327.743
L397.574 328.164
L398.17 328.39
L398.765 312.249
L399.36 312.706
L401.146 315.04
L404.122 320.936
L405.312 322.901
L406.502 324.213
L407.098 324.555
L407.693 319.506
L409.478 321.418
L410.669 322.209
L411.264 322.389
L411.859 314.205
L412.454 314.738
L414.835 319.23
L416.026 320.919
L416.621 321.521
L417.216 321.884
L417.811 314.796
L419.597 316.344
L421.382 317.043
L421.978 317.151
L422.573 316.59
L423.763 317.924
L425.549 319.334
L426.144 319.653
L426.739 319.829
L427.334 318.541
L428.525 319.846
L429.12 320.292
L429.715 320.541
L430.31 310.2
L430.906 309.115
L431.501 308.604
L432.096 312.072
L433.286 312.297
L433.882 312.145
L435.072 311.66
L435.667 312.66
L436.262 313.977
L436.858 315.868
L437.453 316.963
L438.048 317.208
L440.429 318.94
L441.024 319.179
L441.619 318.377
L442.214 320.193
L445.786 325.799
L446.381 326.386
L446.976 326.768
L447.571 326.976
L448.166 326.408
L448.762 326.859
L449.357 327.109
L449.952 320.493
L452.333 326.317
L453.523 327.643
L454.118 328.113
L454.714 328.377
L455.309 326.719
L457.094 331.011
L458.285 333.277
L458.88 334.125
L459.475 334.734
L460.07 335.063
L460.666 324.669
L462.451 328.434
L463.642 330.495
L464.237 331.276
L464.832 331.84
L465.427 332.145
L466.022 311.63
L466.618 310.632
L467.213 309.888
L467.808 309.35
L468.403 309.23
L469.594 310.019
L471.974 312.135
L472.57 312.847
L473.165 313.377
L473.76 313.673
L474.355 311.094
L475.546 311.227
L476.736 311.487
L477.331 311.671
L478.522 312.659
L480.902 314.811
L481.498 315.166
L482.093 315.366
L482.688 311.568
L483.878 311.95
L485.664 312.671
L486.259 312.797
L486.854 311.445
L488.045 314.141
L491.021 321.68
L492.211 325
L493.402 327.759
L494.592 329.741
L495.187 330.366
L495.782 330.7
L496.378 321.225
L497.568 322.441
L498.163 322.844
L498.758 323.066
L499.354 310.831
L499.949 311.165
L500.544 312.034
L501.734 314.388
L502.33 315.715
L502.925 316.499
L504.115 317.072
L505.306 317.371
L505.901 316.823
L507.091 318.497
L507.686 319.072
L508.282 319.393
L508.877 312.451
L510.067 312.55
L510.662 309.397
L511.258 322.584
L511.853 332.013
L512.448 338.223
L513.043 341.336
L513.043 341.336" style="fill:none;stroke:#0000ff;stroke-linecap:square;stroke-width:4;"/>
   </g>
   <g id="line2d_3">
    <path clip-path="url(#p332b41defa)" d="
M72 328.043
L72.5952 327.723
L73.1904 325.45
L73.7856 322.399
L74.3808 321.513
L74.976 320.367
L75.5712 319.736
L76.7616 319.517
L78.5472 319.744
L79.1424 322.371
L80.3328 318.451
L80.928 316.795
L82.1184 316.602
L86.2848 316.564
L86.88 314.722
L87.4752 315.003
L89.2608 316.614
L90.4512 318.263
L91.6416 319.846
L93.4272 321.793
L94.0224 322.199
L94.6176 322.42
L95.2128 314.809
L98.784 315.051
L100.57 315.301
L101.165 314.991
L104.141 316.236
L104.736 316.338
L105.926 314.84
L107.117 314.828
L107.712 312.547
L108.307 299.075
L108.902 269.767
L109.498 253.93
L110.093 250.908
L111.283 264.332
L112.474 273.765
L113.069 277.123
L113.664 279.628
L114.259 281.3
L114.854 282.144
L115.45 233.999
L116.045 210.52
L116.64 192.077
L117.235 188.198
L117.83 181.599
L118.426 309.314
L119.021 303.785
L120.211 262.272
L120.806 249.684
L121.402 243.349
L121.997 246.194
L122.592 247.904
L123.187 248.478
L123.782 247.9
L124.378 246.136
L124.973 243.133
L125.568 238.815
L126.163 241.623
L126.758 243.028
L127.354 223.952
L127.949 208.849
L128.544 206.303
L129.139 206.331
L129.734 208.633
L130.33 208.235
L130.925 205.071
L131.52 203.688
L132.115 203.93
L132.71 193.722
L133.306 188.64
L133.901 190.744
L134.496 190.717
L135.091 188.496
L135.686 192.504
L136.282 194.333
L136.877 194.025
L137.472 196.146
L138.067 190.353
L138.662 194.117
L139.258 195.711
L139.853 195.167
L140.448 197.3
L141.043 311.275
L141.638 312.435
L143.424 313.091
L144.019 313.203
L144.614 313.92
L145.805 314.181
L146.4 314.257
L146.995 315.561
L147.59 316.033
L150.566 321.423
L151.757 322.895
L152.947 323.864
L153.542 324.295
L154.138 324.524
L154.733 317.178
L155.923 320.389
L158.304 326.32
L159.494 329.222
L160.685 331.466
L161.875 333.147
L162.47 333.704
L163.066 333.997
L163.661 317.291
L164.256 317.828
L167.232 321.623
L167.827 322.393
L168.422 323.501
L169.613 324.984
L170.208 325.474
L170.803 318.983
L171.398 319.254
L173.184 321.473
L175.565 324.748
L176.755 326.634
L177.35 327.594
L177.946 328.252
L178.541 328.594
L179.136 320.524
L179.731 320.933
L181.517 325.482
L182.707 328.492
L183.898 330.099
L185.088 331.187
L185.683 331.654
L186.278 331.898
L186.874 328.499
L188.064 330.132
L189.85 331.837
L190.445 332.089
L191.04 322.05
L191.635 322.434
L194.016 328.398
L195.206 330.589
L196.397 332.324
L197.587 333.573
L198.778 334.413
L199.373 334.6
L199.968 327.249
L201.754 331.508
L202.349 332.139
L203.539 332.275
L204.134 332.625
L205.325 334.618
L206.515 335.969
L207.11 336.379
L207.706 336.593
L208.301 328.131
L209.491 328.968
L210.086 329.223
L210.682 329.356
L211.277 323.309
L212.467 325.501
L213.062 325.606
L214.253 328.09
L215.443 330.44
L216.038 331.398
L217.229 333.617
L217.824 334.356
L218.419 334.887
L219.014 335.21
L219.61 326.501
L220.205 326.688
L221.99 330.303
L223.181 333.612
L224.371 335.873
L224.966 336.621
L225.562 337.129
L226.157 337.488
L226.752 326.964
L227.942 327.145
L228.538 326.722
L229.133 327.603
L229.728 328.049
L230.323 327.406
L230.918 328.63
L232.704 338.072
L233.299 340.965
L233.894 342.694
L236.275 346.641
L237.466 348.83
L239.251 351.229
L240.442 352.54
L241.037 352.962
L242.227 353.394
L242.822 343.192
L244.013 346.75
L245.203 349.616
L246.394 351.423
L247.584 353.639
L248.774 356.308
L249.965 358.477
L251.155 360.161
L252.346 361.343
L253.536 362.014
L254.131 362.169
L254.726 350.539
L255.917 352.193
L257.107 353.882
L258.298 354.901
L260.678 356.275
L261.274 356.402
L261.869 354.425
L263.059 355.57
L264.25 356.396
L265.44 356.996
L266.63 357.261
L267.226 326.898
L267.821 325.478
L268.416 326.344
L269.011 326.78
L269.606 324.645
L270.202 321.455
L270.797 316.75
L272.582 299.764
L273.773 282.855
L274.368 279.682
L276.749 307.254
L277.344 312.544
L277.939 316.701
L279.13 322.413
L279.725 324.154
L280.32 325.009
L280.915 273.018
L281.51 266.379
L282.106 264.427
L282.701 265.665
L283.296 269.528
L283.891 271.689
L284.486 275.48
L285.082 281.21
L286.272 289.85
L286.867 292.867
L287.462 294.614
L288.058 262.918
L289.248 250.109
L289.843 247.271
L290.438 249.928
L291.034 249.715
L291.629 249.737
L292.224 297.913
L292.819 273.849
L293.414 262.334
L294.01 257.066
L294.605 289.291
L295.2 289.517
L295.795 288.29
L296.39 285.401
L296.986 279.696
L297.581 269.625
L298.176 261.847
L298.771 255.652
L299.366 253.735
L299.962 249.769
L300.557 248.818
L301.152 251.223
L301.747 279.42
L302.342 286.279
L302.938 291.851
L303.533 296.205
L304.128 299.392
L304.723 301.454
L305.318 302.583
L305.914 315.461
L306.509 288.189
L307.104 269.704
L307.699 270.773
L310.08 277.039
L310.675 278.206
L311.27 279.119
L311.866 279.757
L312.461 280.094
L313.056 270.819
L315.437 276.59
L316.627 279.338
L317.222 280.385
L317.818 281.201
L318.413 281.769
L319.008 282.067
L319.603 250.679
L320.198 247.233
L321.389 253.598
L322.579 258.635
L323.174 260.456
L324.365 262.896
L324.96 263.459
L325.555 239.431
L327.341 179.967
L327.936 183.953
L328.531 186.593
L329.126 187.913
L329.722 279.744
L330.317 250.1
L331.507 228.323
L332.102 215.969
L332.698 209.168
L333.293 212.715
L333.888 214.499
L334.483 224.347
L335.078 192.742
L335.674 186.054
L336.269 177.402
L336.864 166.505
L337.459 152.66
L338.054 158.96
L338.65 161.903
L339.245 161.576
L339.84 157.905
L340.435 184.561
L341.626 165.491
L342.221 160.956
L342.816 167.329
L343.411 171.941
L344.006 175.169
L344.602 176.947
L345.197 182.444
L345.792 184.95
L346.387 185.801
L346.982 184.773
L347.578 190.266
L348.173 193.902
L348.768 195.721
L349.363 325.36
L349.958 323.988
L350.554 323.461
L351.149 322.569
L351.744 321.937
L352.339 321.764
L355.315 323.074
L355.91 322.131
L356.506 322.401
L358.886 325.319
L360.077 326.853
L361.267 327.895
L361.862 328.141
L362.458 322.989
L363.053 323.315
L364.838 325.102
L366.029 326.663
L367.219 327.884
L367.814 328.362
L368.41 328.627
L369.005 324.231
L370.195 326.249
L370.79 327.332
L372.576 329.498
L373.766 330.623
L374.362 331
L374.957 331.208
L375.552 328.203
L376.742 330.114
L377.933 331.631
L378.528 332.14
L379.123 332.422
L379.718 327.372
L381.504 330.253
L382.694 331.807
L383.29 332.49
L383.885 333
L384.48 333.279
L385.075 322.946
L386.266 322.86
L388.051 322.766
L388.646 323.426
L391.027 330.647
L391.622 331.867
L392.813 333.124
L393.408 333.543
L394.003 333.773
L394.598 331.85
L396.384 333.865
L397.574 334.694
L398.17 334.88
L398.765 323.659
L399.36 323.47
L399.955 323.558
L400.55 323.907
L401.146 324.482
L405.312 330.482
L406.502 331.563
L407.098 331.848
L407.693 327.713
L409.478 329.199
L410.669 329.829
L411.264 329.973
L411.859 323.823
L412.454 324.178
L415.43 328.48
L416.621 329.594
L417.216 329.895
L417.811 324.088
L420.787 325.271
L421.978 325.492
L422.573 325.036
L424.358 326.314
L425.549 327.017
L426.739 327.414
L427.334 326.408
L428.525 327.463
L429.12 327.828
L429.715 328.033
L430.31 323.995
L430.906 323.108
L431.501 322.69
L432.096 326.456
L433.286 325.62
L435.072 325.047
L435.667 325.446
L436.262 326.054
L436.858 327.146
L437.453 327.97
L438.048 328.109
L441.024 329.577
L441.619 328.838
L442.214 330.215
L444 332.305
L445.786 334.35
L446.381 334.814
L446.976 335.114
L447.571 335.28
L448.166 334.832
L448.762 335.191
L449.357 335.391
L449.952 330.349
L451.142 332.342
L452.333 334.593
L453.523 335.644
L454.118 336.021
L454.714 336.234
L455.309 334.9
L457.094 338.342
L458.285 340.185
L458.88 340.878
L459.475 341.378
L460.07 341.648
L460.666 333.306
L463.046 337.17
L464.237 338.579
L464.832 339.038
L465.427 339.287
L466.022 325.868
L466.618 324.944
L467.808 323.686
L468.403 323.483
L469.594 323.929
L471.379 324.962
L473.76 326.548
L474.355 324.829
L474.95 324.435
L476.736 324.143
L477.331 324.195
L478.522 324.835
L480.902 326.397
L482.093 326.818
L482.688 324.132
L483.878 324.32
L486.259 324.898
L486.854 324.499
L488.045 326.311
L490.426 330.632
L491.616 333.116
L492.806 335.527
L493.997 337.431
L494.592 338.132
L495.187 338.632
L495.782 338.9
L496.378 331.432
L497.568 332.364
L498.163 332.676
L498.758 332.849
L499.354 324.424
L499.949 324.505
L500.544 325.027
L501.139 325.757
L502.33 327.63
L502.925 328.213
L504.71 328.742
L505.306 328.818
L505.901 328.476
L507.091 329.763
L507.686 330.21
L508.282 330.461
L508.877 325.33
L510.067 325.377
L510.662 331.802
L511.258 340.663
L511.853 347.002
L512.448 351.179
L513.043 353.274
L513.043 353.274" style="fill:none;stroke:#ff0000;stroke-linecap:square;stroke-width:2;"/>
   </g>
   <g id="patch_3">
    <path d="
M72 43.2
L518.4 43.2" style="fill:none;stroke:#000000;stroke-linecap:square;stroke-linejoin:miter;"/>
   </g>
   <g id="patch_4">
    <path d="
M518.4 378
L518.4 43.2" style="fill:none;stroke:#000000;stroke-linecap:square;stroke-linejoin:miter;"/>
   </g>
   <g id="patch_5">
    <path d="
M72 378
L518.4 378" style="fill:none;stroke:#000000;stroke-linecap:square;stroke-linejoin:miter;"/>
   </g>
   <g id="patch_6">
    <path d="
M72 378
L72 43.2" style="fill:none;stroke:#000000;stroke-linecap:square;stroke-linejoin:miter;"/>
   </g>
   <g id="matplotlib.axis_1">
    <g id="xtick_1">
     <g id="line2d_4">
      <defs>
       <path d="
M0 0
L0 -4" id="m93b0483c22" style="stroke:#000000;stroke-width:0.5;"/>
      </defs>
      <g>
       <use style="stroke:#000000;stroke-width:0.5;" x="72.0" xlink:href="#m93b0483c22" y="378.0"/>
      </g>
     </g>
     <g id="line2d_5">
      <defs>
       <path d="
M0 0
L0 4" id="m741efc42ff" style="stroke:#000000;stroke-width:0.5;"/>
      </defs>
      <g>
       <use style="stroke:#000000;stroke-width:0.5;" x="72.0" xlink:href="#m741efc42ff" y="43.2"/>
      </g>
     </g>
     <g id="text_1">
      <!-- 0 -->
      <defs>
       <path d="
M31.7812 66.4062
Q24.1719 66.4062 20.3281 58.9062
Q16.5 51.4219 16.5 36.375
Q16.5 21.3906 20.3281 13.8906
Q24.1719 6.39062 31.7812 6.39062
Q39.4531 6.39062 43.2812 13.8906
Q47.125 21.3906 47.125 36.375
Q47.125 51.4219 43.2812 58.9062
Q39.4531 66.4062 31.7812 66.4062
M31.7812 74.2188
Q44.0469 74.2188 50.5156 64.5156
Q56.9844 54.8281 56.9844 36.375
Q56.9844 17.9688 50.5156 8.26562
Q44.0469 -1.42188 31.7812 -1.42188
Q19.5312 -1.42188 13.0625 8.26562
Q6.59375 17.9688 6.59375 36.375
Q6.59375 54.8281 13.0625 64.5156
Q19.5312 74.2188 31.7812 74.2188" id="BitstreamVeraSans-Roman-30"/>
      </defs>
      <g transform="translate(68.47265625 392.6378125)scale(0.14 -0.14)">
       <use xlink:href="#BitstreamVeraSans-Roman-30"/>
      </g>
     </g>
    </g>
    <g id="xtick_2">
     <g id="line2d_6">
      <g>
       <use style="stroke:#000000;stroke-width:0.5;" x="220.8" xlink:href="#m93b0483c22" y="378.0"/>
      </g>
     </g>
     <g id="line2d_7">
      <g>
       <use style="stroke:#000000;stroke-width:0.5;" x="220.8" xlink:href="#m741efc42ff" y="43.2"/>
      </g>
     </g>
     <g id="text_2">
      <!-- 250 -->
      <defs>
       <path d="
M19.1875 8.29688
L53.6094 8.29688
L53.6094 0
L7.32812 0
L7.32812 8.29688
Q12.9375 14.1094 22.625 23.8906
Q32.3281 33.6875 34.8125 36.5312
Q39.5469 41.8438 41.4219 45.5312
Q43.3125 49.2188 43.3125 52.7812
Q43.3125 58.5938 39.2344 62.25
Q35.1562 65.9219 28.6094 65.9219
Q23.9688 65.9219 18.8125 64.3125
Q13.6719 62.7031 7.8125 59.4219
L7.8125 69.3906
Q13.7656 71.7812 18.9375 73
Q24.125 74.2188 28.4219 74.2188
Q39.75 74.2188 46.4844 68.5469
Q53.2188 62.8906 53.2188 53.4219
Q53.2188 48.9219 51.5312 44.8906
Q49.8594 40.875 45.4062 35.4062
Q44.1875 33.9844 37.6406 27.2188
Q31.1094 20.4531 19.1875 8.29688" id="BitstreamVeraSans-Roman-32"/>
       <path d="
M10.7969 72.9062
L49.5156 72.9062
L49.5156 64.5938
L19.8281 64.5938
L19.8281 46.7344
Q21.9688 47.4688 24.1094 47.8281
Q26.2656 48.1875 28.4219 48.1875
Q40.625 48.1875 47.75 41.5
Q54.8906 34.8125 54.8906 23.3906
Q54.8906 11.625 47.5625 5.09375
Q40.2344 -1.42188 26.9062 -1.42188
Q22.3125 -1.42188 17.5469 -0.640625
Q12.7969 0.140625 7.71875 1.70312
L7.71875 11.625
Q12.1094 9.23438 16.7969 8.0625
Q21.4844 6.89062 26.7031 6.89062
Q35.1562 6.89062 40.0781 11.3281
Q45.0156 15.7656 45.0156 23.3906
Q45.0156 31 40.0781 35.4375
Q35.1562 39.8906 26.7031 39.8906
Q22.75 39.8906 18.8125 39.0156
Q14.8906 38.1406 10.7969 36.2812
z
" id="BitstreamVeraSans-Roman-35"/>
      </defs>
      <g transform="translate(208.4165625 392.6378125)scale(0.14 -0.14)">
       <use xlink:href="#BitstreamVeraSans-Roman-32"/>
       <use x="63.623046875" xlink:href="#BitstreamVeraSans-Roman-35"/>
       <use x="127.24609375" xlink:href="#BitstreamVeraSans-Roman-30"/>
      </g>
     </g>
    </g>
    <g id="xtick_3">
     <g id="line2d_8">
      <g>
       <use style="stroke:#000000;stroke-width:0.5;" x="369.6" xlink:href="#m93b0483c22" y="378.0"/>
      </g>
     </g>
     <g id="line2d_9">
      <g>
       <use style="stroke:#000000;stroke-width:0.5;" x="369.6" xlink:href="#m741efc42ff" y="43.2"/>
      </g>
     </g>
     <g id="text_3">
      <!-- 500 -->
      <g transform="translate(357.24390625 392.6378125)scale(0.14 -0.14)">
       <use xlink:href="#BitstreamVeraSans-Roman-35"/>
       <use x="63.623046875" xlink:href="#BitstreamVeraSans-Roman-30"/>
       <use x="127.24609375" xlink:href="#BitstreamVeraSans-Roman-30"/>
      </g>
     </g>
    </g>
    <g id="xtick_4">
     <g id="line2d_10">
      <g>
       <use style="stroke:#000000;stroke-width:0.5;" x="518.4" xlink:href="#m93b0483c22" y="378.0"/>
      </g>
     </g>
     <g id="line2d_11">
      <g>
       <use style="stroke:#000000;stroke-width:0.5;" x="518.4" xlink:href="#m741efc42ff" y="43.2"/>
      </g>
     </g>
     <g id="text_4">
      <!-- 750 -->
      <defs>
       <path d="
M8.20312 72.9062
L55.0781 72.9062
L55.0781 68.7031
L28.6094 0
L18.3125 0
L43.2188 64.5938
L8.20312 64.5938
z
" id="BitstreamVeraSans-Roman-37"/>
      </defs>
      <g transform="translate(506.0778125 392.6378125)scale(0.14 -0.14)">
       <use xlink:href="#BitstreamVeraSans-Roman-37"/>
       <use x="63.623046875" xlink:href="#BitstreamVeraSans-Roman-35"/>
       <use x="127.24609375" xlink:href="#BitstreamVeraSans-Roman-30"/>
      </g>
     </g>
    </g>
    <g id="text_5">
     <!-- compartment number -->
     <defs>
      <path d="
M32.9062 24.6094
Q27.4375 24.6094 24.6719 22.75
Q21.9219 20.9062 21.9219 17.2812
Q21.9219 13.9688 24.1406 12.0781
Q26.375 10.2031 30.3281 10.2031
Q35.25 10.2031 38.625 13.7344
Q42 17.2812 42 22.6094
L42 24.6094
z

M59.625 31.2031
L59.625 0
L42 0
L42 8.10938
Q38.4844 3.125 34.0781 0.84375
Q29.6875 -1.42188 23.3906 -1.42188
Q14.8906 -1.42188 9.59375 3.53125
Q4.29688 8.5 4.29688 16.4062
Q4.29688 26.0312 10.9062 30.5156
Q17.5312 35.0156 31.6875 35.0156
L42 35.0156
L42 36.375
Q42 40.5312 38.7188 42.4531
Q35.4531 44.3906 28.5156 44.3906
Q22.9062 44.3906 18.0625 43.2656
Q13.2344 42.1406 9.07812 39.8906
L9.07812 53.2188
Q14.7031 54.5938 20.3594 55.2969
Q26.0312 56 31.6875 56
Q46.4844 56 53.0469 50.1719
Q59.625 44.3438 59.625 31.2031" id="BitstreamVeraSans-Bold-61"/>
      <path id="BitstreamVeraSans-Bold-20"/>
      <path d="
M37.5 11.2812
Q43.1094 11.2812 46.0625 15.375
Q49.0312 19.4844 49.0312 27.2969
Q49.0312 35.1094 46.0625 39.2031
Q43.1094 43.3125 37.5 43.3125
Q31.8906 43.3125 28.875 39.1875
Q25.875 35.0625 25.875 27.2969
Q25.875 19.5312 28.875 15.4062
Q31.8906 11.2812 37.5 11.2812
M25.875 46.6875
Q29.5 51.4688 33.8906 53.7344
Q38.2812 56 44 56
Q54.1094 56 60.5938 47.9688
Q67.0938 39.9375 67.0938 27.2969
Q67.0938 14.6562 60.5938 6.60938
Q54.1094 -1.42188 44 -1.42188
Q38.2812 -1.42188 33.8906 0.84375
Q29.5 3.125 25.875 7.90625
L25.875 0
L8.40625 0
L8.40625 75.9844
L25.875 75.9844
z
" id="BitstreamVeraSans-Bold-62"/>
      <path d="
M52.5938 52.9844
L52.5938 38.7188
Q49.0312 41.1562 45.4375 42.3281
Q41.8438 43.5 37.9844 43.5
Q30.6719 43.5 26.5938 39.2344
Q22.5156 34.9688 22.5156 27.2969
Q22.5156 19.625 26.5938 15.3438
Q30.6719 11.0781 37.9844 11.0781
Q42.0938 11.0781 45.7812 12.2969
Q49.4688 13.5312 52.5938 15.9219
L52.5938 1.60938
Q48.4844 0.09375 44.2656 -0.65625
Q40.0469 -1.42188 35.7969 -1.42188
Q21 -1.42188 12.6406 6.17188
Q4.29688 13.7656 4.29688 27.2969
Q4.29688 40.8281 12.6406 48.4062
Q21 56 35.7969 56
Q40.0938 56 44.2656 55.25
Q48.4375 54.5 52.5938 52.9844" id="BitstreamVeraSans-Bold-63"/>
      <path d="
M49.0312 39.7969
Q46.7344 40.875 44.4531 41.375
Q42.1875 41.8906 39.8906 41.8906
Q33.1562 41.8906 29.5156 37.5625
Q25.875 33.25 25.875 25.2031
L25.875 0
L8.40625 0
L8.40625 54.6875
L25.875 54.6875
L25.875 45.7031
Q29.25 51.0781 33.6094 53.5312
Q37.9844 56 44.0938 56
Q44.9688 56 45.9844 55.9219
Q47.0156 55.8594 48.9688 55.6094
z
" id="BitstreamVeraSans-Bold-72"/>
      <path d="
M7.8125 21.2969
L7.8125 54.6875
L25.3906 54.6875
L25.3906 49.2188
Q25.3906 44.7812 25.3438 38.0625
Q25.2969 31.3438 25.2969 29.1094
Q25.2969 22.5156 25.6406 19.6094
Q25.9844 16.7031 26.8125 15.375
Q27.875 13.6719 29.6094 12.7344
Q31.3438 11.8125 33.5938 11.8125
Q39.0625 11.8125 42.1875 16.0156
Q45.3125 20.2188 45.3125 27.6875
L45.3125 54.6875
L62.7969 54.6875
L62.7969 0
L45.3125 0
L45.3125 7.90625
Q41.3594 3.125 36.9375 0.84375
Q32.5156 -1.42188 27.2031 -1.42188
Q17.7188 -1.42188 12.7656 4.39062
Q7.8125 10.2031 7.8125 21.2969" id="BitstreamVeraSans-Bold-75"/>
      <path d="
M27.4844 70.2188
L27.4844 54.6875
L45.5156 54.6875
L45.5156 42.1875
L27.4844 42.1875
L27.4844 19
Q27.4844 15.1875 29 13.8438
Q30.5156 12.5 35.0156 12.5
L44 12.5
L44 0
L29 0
Q18.6562 0 14.3281 4.3125
Q10.0156 8.64062 10.0156 19
L10.0156 42.1875
L1.3125 42.1875
L1.3125 54.6875
L10.0156 54.6875
L10.0156 70.2188
z
" id="BitstreamVeraSans-Bold-74"/>
      <path d="
M62.9844 27.4844
L62.9844 22.5156
L22.125 22.5156
Q22.75 16.3594 26.5625 13.2812
Q30.375 10.2031 37.2031 10.2031
Q42.7188 10.2031 48.5 11.8438
Q54.2969 13.4844 60.4062 16.7969
L60.4062 3.32812
Q54.2031 0.984375 48 -0.21875
Q41.7969 -1.42188 35.5938 -1.42188
Q20.75 -1.42188 12.5156 6.125
Q4.29688 13.6719 4.29688 27.2969
Q4.29688 40.6719 12.375 48.3281
Q20.4531 56 34.625 56
Q47.5156 56 55.25 48.2344
Q62.9844 40.4844 62.9844 27.4844
M45.0156 33.2969
Q45.0156 38.2812 42.1094 41.3281
Q39.2031 44.3906 34.5156 44.3906
Q29.4375 44.3906 26.2656 41.5312
Q23.0938 38.6719 22.3125 33.2969
z
" id="BitstreamVeraSans-Bold-65"/>
      <path d="
M25.875 7.90625
L25.875 -20.7969
L8.40625 -20.7969
L8.40625 54.6875
L25.875 54.6875
L25.875 46.6875
Q29.5 51.4688 33.8906 53.7344
Q38.2812 56 44 56
Q54.1094 56 60.5938 47.9688
Q67.0938 39.9375 67.0938 27.2969
Q67.0938 14.6562 60.5938 6.60938
Q54.1094 -1.42188 44 -1.42188
Q38.2812 -1.42188 33.8906 0.84375
Q29.5 3.125 25.875 7.90625
M37.5 43.3125
Q31.8906 43.3125 28.875 39.1875
Q25.875 35.0625 25.875 27.2969
Q25.875 19.5312 28.875 15.4062
Q31.8906 11.2812 37.5 11.2812
Q43.1094 11.2812 46.0625 15.375
Q49.0312 19.4844 49.0312 27.2969
Q49.0312 35.1094 46.0625 39.2031
Q43.1094 43.3125 37.5 43.3125" id="BitstreamVeraSans-Bold-70"/>
      <path d="
M34.4219 43.5
Q28.6094 43.5 25.5625 39.3281
Q22.5156 35.1562 22.5156 27.2969
Q22.5156 19.4375 25.5625 15.25
Q28.6094 11.0781 34.4219 11.0781
Q40.1406 11.0781 43.1562 15.25
Q46.1875 19.4375 46.1875 27.2969
Q46.1875 35.1562 43.1562 39.3281
Q40.1406 43.5 34.4219 43.5
M34.4219 56
Q48.5312 56 56.4688 48.375
Q64.4062 40.7656 64.4062 27.2969
Q64.4062 13.8125 56.4688 6.1875
Q48.5312 -1.42188 34.4219 -1.42188
Q20.2656 -1.42188 12.2812 6.1875
Q4.29688 13.8125 4.29688 27.2969
Q4.29688 40.7656 12.2812 48.375
Q20.2656 56 34.4219 56" id="BitstreamVeraSans-Bold-6f"/>
      <path d="
M59.0781 45.6094
Q62.4062 50.6875 66.9688 53.3438
Q71.5312 56 77 56
Q86.4219 56 91.3594 50.1875
Q96.2969 44.3906 96.2969 33.2969
L96.2969 0
L78.7188 0
L78.7188 28.5156
Q78.7656 29.1562 78.7812 29.8281
Q78.8125 30.5156 78.8125 31.7812
Q78.8125 37.5938 77.0938 40.2031
Q75.3906 42.8281 71.5781 42.8281
Q66.6094 42.8281 63.8906 38.7188
Q61.1875 34.625 61.0781 26.8594
L61.0781 0
L43.5 0
L43.5 28.5156
Q43.5 37.5938 41.9375 40.2031
Q40.375 42.8281 36.375 42.8281
Q31.3438 42.8281 28.6094 38.7031
Q25.875 34.5781 25.875 26.9062
L25.875 0
L8.29688 0
L8.29688 54.6875
L25.875 54.6875
L25.875 46.6875
Q29.1094 51.3125 33.2812 53.6562
Q37.4531 56 42.4844 56
Q48.1406 56 52.4844 53.2656
Q56.8438 50.5312 59.0781 45.6094" id="BitstreamVeraSans-Bold-6d"/>
      <path d="
M63.375 33.2969
L63.375 0
L45.7969 0
L45.7969 5.42188
L45.7969 25.4844
Q45.7969 32.5625 45.4844 35.25
Q45.1719 37.9375 44.3906 39.2031
Q43.3594 40.9219 41.5938 41.875
Q39.8438 42.8281 37.5938 42.8281
Q32.125 42.8281 29 38.5938
Q25.875 34.375 25.875 26.9062
L25.875 0
L8.40625 0
L8.40625 54.6875
L25.875 54.6875
L25.875 46.6875
Q29.8281 51.4688 34.2656 53.7344
Q38.7188 56 44.0938 56
Q53.5625 56 58.4688 50.1875
Q63.375 44.3906 63.375 33.2969" id="BitstreamVeraSans-Bold-6e"/>
     </defs>
     <g transform="translate(196.86375 412.706875)scale(0.16 -0.16)">
      <use xlink:href="#BitstreamVeraSans-Bold-63"/>
      <use x="59.27734375" xlink:href="#BitstreamVeraSans-Bold-6f"/>
      <use x="127.978515625" xlink:href="#BitstreamVeraSans-Bold-6d"/>
      <use x="232.177734375" xlink:href="#BitstreamVeraSans-Bold-70"/>
      <use x="303.759765625" xlink:href="#BitstreamVeraSans-Bold-61"/>
      <use x="371.240234375" xlink:href="#BitstreamVeraSans-Bold-72"/>
      <use x="420.556640625" xlink:href="#BitstreamVeraSans-Bold-74"/>
      <use x="468.359375" xlink:href="#BitstreamVeraSans-Bold-6d"/>
      <use x="572.55859375" xlink:href="#BitstreamVeraSans-Bold-65"/>
      <use x="640.380859375" xlink:href="#BitstreamVeraSans-Bold-6e"/>
      <use x="711.572265625" xlink:href="#BitstreamVeraSans-Bold-74"/>
      <use x="759.375" xlink:href="#BitstreamVeraSans-Bold-20"/>
      <use x="794.189453125" xlink:href="#BitstreamVeraSans-Bold-6e"/>
      <use x="865.380859375" xlink:href="#BitstreamVeraSans-Bold-75"/>
      <use x="936.572265625" xlink:href="#BitstreamVeraSans-Bold-6d"/>
      <use x="1040.77148438" xlink:href="#BitstreamVeraSans-Bold-62"/>
      <use x="1112.35351562" xlink:href="#BitstreamVeraSans-Bold-65"/>
      <use x="1180.17578125" xlink:href="#BitstreamVeraSans-Bold-72"/>
     </g>
    </g>
   </g>
   <g id="matplotlib.axis_2">
    <g id="ytick_1">
     <g id="line2d_12">
      <defs>
       <path d="
M0 0
L4 0" id="m728421d6d4" style="stroke:#000000;stroke-width:0.5;"/>
      </defs>
      <g>
       <use style="stroke:#000000;stroke-width:0.5;" x="72.0" xlink:href="#m728421d6d4" y="266.4"/>
      </g>
     </g>
     <g id="line2d_13">
      <defs>
       <path d="
M0 0
L-4 0" id="mcb0005524f" style="stroke:#000000;stroke-width:0.5;"/>
      </defs>
      <g>
       <use style="stroke:#000000;stroke-width:0.5;" x="518.4" xlink:href="#mcb0005524f" y="266.4"/>
      </g>
     </g>
     <g id="text_6">
      <!-- 0.05 -->
      <defs>
       <path d="
M10.6875 12.4062
L21 12.4062
L21 0
L10.6875 0
z
" id="BitstreamVeraSans-Roman-2e"/>
      </defs>
      <g transform="translate(38.9740625 270.263125)scale(0.14 -0.14)">
       <use xlink:href="#BitstreamVeraSans-Roman-30"/>
       <use x="63.623046875" xlink:href="#BitstreamVeraSans-Roman-2e"/>
       <use x="95.41015625" xlink:href="#BitstreamVeraSans-Roman-30"/>
       <use x="159.033203125" xlink:href="#BitstreamVeraSans-Roman-35"/>
      </g>
     </g>
    </g>
    <g id="ytick_2">
     <g id="line2d_14">
      <g>
       <use style="stroke:#000000;stroke-width:0.5;" x="72.0" xlink:href="#m728421d6d4" y="154.8"/>
      </g>
     </g>
     <g id="line2d_15">
      <g>
       <use style="stroke:#000000;stroke-width:0.5;" x="518.4" xlink:href="#mcb0005524f" y="154.8"/>
      </g>
     </g>
     <g id="text_7">
      <!-- 0.10 -->
      <defs>
       <path d="
M12.4062 8.29688
L28.5156 8.29688
L28.5156 63.9219
L10.9844 60.4062
L10.9844 69.3906
L28.4219 72.9062
L38.2812 72.9062
L38.2812 8.29688
L54.3906 8.29688
L54.3906 0
L12.4062 0
z
" id="BitstreamVeraSans-Roman-31"/>
      </defs>
      <g transform="translate(38.6809375 158.663125)scale(0.14 -0.14)">
       <use xlink:href="#BitstreamVeraSans-Roman-30"/>
       <use x="63.623046875" xlink:href="#BitstreamVeraSans-Roman-2e"/>
       <use x="95.41015625" xlink:href="#BitstreamVeraSans-Roman-31"/>
       <use x="159.033203125" xlink:href="#BitstreamVeraSans-Roman-30"/>
      </g>
     </g>
    </g>
    <g id="ytick_3">
     <g id="line2d_16">
      <g>
       <use style="stroke:#000000;stroke-width:0.5;" x="72.0" xlink:href="#m728421d6d4" y="43.2"/>
      </g>
     </g>
     <g id="line2d_17">
      <g>
       <use style="stroke:#000000;stroke-width:0.5;" x="518.4" xlink:href="#mcb0005524f" y="43.2"/>
      </g>
     </g>
     <g id="text_8">
      <!-- 0.15 -->
      <g transform="translate(38.9740625 47.063125)scale(0.14 -0.14)">
       <use xlink:href="#BitstreamVeraSans-Roman-30"/>
       <use x="63.623046875" xlink:href="#BitstreamVeraSans-Roman-2e"/>
       <use x="95.41015625" xlink:href="#BitstreamVeraSans-Roman-31"/>
       <use x="159.033203125" xlink:href="#BitstreamVeraSans-Roman-35"/>
      </g>
     </g>
    </g>
    <g id="text_9">
     <!-- normalized concentration -->
     <defs>
      <path d="
M5.71875 54.6875
L53.4219 54.6875
L53.4219 42.4844
L24.6094 12.5
L53.4219 12.5
L53.4219 0
L4.5 0
L4.5 12.2031
L33.2969 42.1875
L5.71875 42.1875
z
" id="BitstreamVeraSans-Bold-7a"/>
      <path d="
M8.40625 75.9844
L25.875 75.9844
L25.875 0
L8.40625 0
z
" id="BitstreamVeraSans-Bold-6c"/>
      <path d="
M8.40625 54.6875
L25.875 54.6875
L25.875 0
L8.40625 0
z

M8.40625 75.9844
L25.875 75.9844
L25.875 61.7188
L8.40625 61.7188
z
" id="BitstreamVeraSans-Bold-69"/>
      <path d="
M45.6094 46.6875
L45.6094 75.9844
L63.1875 75.9844
L63.1875 0
L45.6094 0
L45.6094 7.90625
Q42 3.07812 37.6406 0.828125
Q33.2969 -1.42188 27.5938 -1.42188
Q17.4844 -1.42188 10.9844 6.60938
Q4.5 14.6562 4.5 27.2969
Q4.5 39.9375 10.9844 47.9688
Q17.4844 56 27.5938 56
Q33.25 56 37.625 53.7344
Q42 51.4688 45.6094 46.6875
M34.0781 11.2812
Q39.7031 11.2812 42.6562 15.375
Q45.6094 19.4844 45.6094 27.2969
Q45.6094 35.1094 42.6562 39.2031
Q39.7031 43.3125 34.0781 43.3125
Q28.5156 43.3125 25.5625 39.2031
Q22.6094 35.1094 22.6094 27.2969
Q22.6094 19.4844 25.5625 15.375
Q28.5156 11.2812 34.0781 11.2812" id="BitstreamVeraSans-Bold-64"/>
     </defs>
     <g transform="translate(30.3534375 325.6475)rotate(-90.0)scale(0.16 -0.16)">
      <use xlink:href="#BitstreamVeraSans-Bold-6e"/>
      <use x="71.19140625" xlink:href="#BitstreamVeraSans-Bold-6f"/>
      <use x="139.892578125" xlink:href="#BitstreamVeraSans-Bold-72"/>
      <use x="189.208984375" xlink:href="#BitstreamVeraSans-Bold-6d"/>
      <use x="293.408203125" xlink:href="#BitstreamVeraSans-Bold-61"/>
      <use x="360.888671875" xlink:href="#BitstreamVeraSans-Bold-6c"/>
      <use x="395.166015625" xlink:href="#BitstreamVeraSans-Bold-69"/>
      <use x="429.443359375" xlink:href="#BitstreamVeraSans-Bold-7a"/>
      <use x="487.646484375" xlink:href="#BitstreamVeraSans-Bold-65"/>
      <use x="555.46875" xlink:href="#BitstreamVeraSans-Bold-64"/>
      <use x="627.05078125" xlink:href="#BitstreamVeraSans-Bold-20"/>
      <use x="661.865234375" xlink:href="#BitstreamVeraSans-Bold-63"/>
      <use x="721.142578125" xlink:href="#BitstreamVeraSans-Bold-6f"/>
      <use x="789.84375" xlink:href="#BitstreamVeraSans-Bold-6e"/>
      <use x="861.03515625" xlink:href="#BitstreamVeraSans-Bold-63"/>
      <use x="920.3125" xlink:href="#BitstreamVeraSans-Bold-65"/>
      <use x="988.134765625" xlink:href="#BitstreamVeraSans-Bold-6e"/>
      <use x="1059.32617188" xlink:href="#BitstreamVeraSans-Bold-74"/>
      <use x="1107.12890625" xlink:href="#BitstreamVeraSans-Bold-72"/>
      <use x="1156.4453125" xlink:href="#BitstreamVeraSans-Bold-61"/>
      <use x="1223.92578125" xlink:href="#BitstreamVeraSans-Bold-74"/>
      <use x="1271.72851562" xlink:href="#BitstreamVeraSans-Bold-69"/>
      <use x="1306.00585938" xlink:href="#BitstreamVeraSans-Bold-6f"/>
      <use x="1374.70703125" xlink:href="#BitstreamVeraSans-Bold-6e"/>
     </g>
    </g>
   </g>
  </g>
 </g>
 <defs>
  <clipPath id="p332b41defa">
   <rect height="334.8" width="446.4" x="72.0" y="43.2"/>
  </clipPath>
 </defs>
</svg>
