<?xml version="1.0" encoding="utf-8" standalone="no"?>
<!DOCTYPE svg PUBLIC "-//W3C//DTD SVG 1.1//EN"
  "http://www.w3.org/Graphics/SVG/1.1/DTD/svg11.dtd">
<!-- Created with matplotlib (http://matplotlib.org/) -->
<svg height="432pt" version="1.1" viewBox="0 0 576 432" width="576pt" xmlns="http://www.w3.org/2000/svg" xmlns:xlink="http://www.w3.org/1999/xlink">
 <defs>
  <style type="text/css">
*{stroke-linecap:butt;stroke-linejoin:round;}
  </style>
 </defs>
 <g id="figure_1">
  <g id="patch_1">
   <path d="
M0 432
L576 432
L576 0
L0 0
z
" style="fill:#ffffff;"/>
  </g>
  <g id="axes_1">
   <g id="patch_2">
    <path d="
M72 378
L518.4 378
L518.4 43.2
L72 43.2
z
" style="fill:none;"/>
   </g>
   <g id="line2d_1">
    <path clip-path="url(#p332b41defa)" d="
M72 337.111
L72.5952 336.839
L73.7856 331.286
L74.3808 330.559
L74.976 329.611
L75.5712 329.095
L76.7616 328.931
L78.5472 329.134
L79.1424 330.036
L80.3328 324.136
L80.928 322.65
L82.1184 322.481
L85.6896 322.479
L86.2848 321.132
L86.88 319.457
L87.4752 319.729
L89.2608 321.248
L90.4512 322.789
L91.6416 324.263
L93.4272 326.072
L94.0224 326.449
L94.6176 326.654
L95.2128 319.554
L98.784 319.8
L100.57 320.036
L101.165 319.742
L104.141 320.912
L104.736 321.008
L105.331 318.821
L105.926 318.175
L107.117 318.165
L107.712 314.598
L108.307 301.555
L108.902 273.175
L109.498 257.844
L110.093 254.92
L111.283 267.925
L112.474 277.063
L113.069 280.316
L113.664 282.743
L114.259 284.363
L114.854 285.18
L115.45 238.545
L116.045 215.809
L116.64 197.951
L117.235 194.196
L117.83 187.806
L118.426 310.022
L119.021 304.524
L120.211 263.362
L120.806 250.886
L121.402 244.605
L121.997 247.417
L122.592 249.107
L123.187 249.672
L123.782 249.096
L124.378 247.345
L124.973 244.367
L125.568 240.086
L126.163 242.868
L126.758 244.26
L127.354 225.382
L127.949 210.413
L128.544 207.886
L129.139 207.911
L129.734 210.188
L130.33 209.792
L130.925 206.655
L131.52 205.284
L132.115 205.533
L132.71 195.406
L133.306 190.36
L133.901 192.438
L134.496 192.406
L135.091 190.201
L135.686 194.17
L136.282 195.981
L136.877 195.674
L137.472 197.775
L138.067 192.053
L138.662 195.78
L139.258 197.357
L139.853 196.816
L140.448 198.929
L141.043 310.571
L141.638 311.741
L143.424 312.398
L144.019 312.511
L144.614 311.833
L145.805 312.099
L146.4 312.176
L146.995 312.081
L147.59 312.545
L150.566 318.182
L151.757 319.724
L152.947 320.741
L153.542 321.193
L154.138 321.435
L154.733 313.737
L155.923 317.097
L157.709 321.552
L158.899 324.931
L160.09 327.649
L161.28 329.669
L161.875 330.511
L162.47 331.099
L163.066 331.408
L163.661 312.463
L164.256 313.024
L167.232 317.056
L167.827 317.88
L168.422 319.072
L169.613 320.667
L170.208 321.195
L170.803 312.835
L171.398 313.107
L173.184 315.489
L174.97 317.897
L176.755 321.122
L177.35 322.178
L177.946 322.903
L178.541 323.279
L179.136 313.077
L179.731 313.493
L181.517 318.519
L182.707 321.879
L183.898 323.675
L185.088 324.893
L185.683 325.418
L186.278 325.692
L186.874 321.887
L188.064 323.713
L189.85 325.626
L190.445 325.909
L191.04 313.356
L191.635 313.709
L194.611 321.705
L195.802 323.949
L196.992 325.661
L198.182 326.857
L198.778 327.268
L199.373 327.482
L199.968 319.063
L201.754 323.917
L202.349 324.642
L203.539 324.793
L204.134 325.199
L205.325 327.49
L206.515 329.045
L207.11 329.518
L207.706 329.764
L208.301 320.073
L209.491 321.025
L210.086 321.315
L210.682 321.467
L211.277 313.425
L212.467 313.188
L213.062 313.271
L214.253 316.265
L215.443 319.113
L216.038 320.276
L217.229 322.99
L217.824 323.895
L218.419 324.546
L219.014 324.942
L219.61 312.998
L220.205 313.184
L221.99 317.637
L223.181 321.771
L223.776 323.344
L224.371 324.599
L224.966 325.534
L225.562 326.17
L226.157 326.622
L226.752 312.172
L227.942 309.503
L228.538 308.912
L229.133 310.086
L229.728 310.68
L230.323 308.388
L230.918 309.808
L232.704 322.16
L233.299 325.971
L233.894 328.329
L235.68 331.94
L236.87 335.281
L238.061 337.857
L240.442 341.809
L241.037 342.396
L241.632 342.775
L242.227 342.998
L242.822 328.937
L244.013 333.651
L245.203 337.434
L246.394 339.914
L247.584 343.007
L248.774 346.775
L249.965 349.845
L251.155 352.237
L252.346 353.918
L252.941 354.476
L253.536 354.873
L254.131 355.094
L254.726 338.667
L255.917 340.88
L257.107 343.17
L257.702 343.976
L258.893 345.069
L260.083 346.177
L260.678 346.523
L261.274 346.702
L261.869 343.918
L263.059 345.515
L264.25 346.669
L265.44 347.513
L266.035 347.762
L266.63 347.886
L267.226 306.46
L267.821 304.448
L268.416 305.644
L269.011 306.247
L269.606 302.07
L270.202 296.276
L271.392 278.672
L272.582 259.659
L273.773 232.562
L274.368 227.532
L276.749 269.312
L277.344 277.363
L277.939 283.69
L279.13 292.394
L279.725 295.05
L280.32 296.355
L280.915 217.013
L281.51 206.352
L282.106 202.907
L282.701 204.61
L283.296 210.395
L283.891 213.58
L284.486 219.316
L285.082 228.081
L286.272 241.326
L286.867 245.965
L287.462 248.656
L288.058 200.372
L289.248 180.25
L289.843 175.738
L290.438 179.76
L291.034 179.37
L291.629 179.373
L292.224 257.07
L292.819 220.65
L293.414 203.199
L294.01 195.211
L294.605 243.598
L295.2 243.529
L295.795 241.269
L296.39 236.486
L296.986 227.403
L297.581 211.768
L298.176 199.658
L298.771 189.998
L299.366 186.934
L299.962 180.745
L300.557 179.222
L301.152 182.894
L301.747 226.844
L302.342 237.253
L302.938 245.714
L303.533 252.329
L304.128 257.174
L304.723 260.309
L305.318 262.028
L305.914 327.346
L306.509 305.507
L307.104 290.69
L307.699 291.592
L310.08 296.752
L311.27 298.456
L311.866 298.978
L312.461 299.253
L313.056 291.638
L315.437 296.431
L316.627 298.688
L317.818 300.215
L318.413 300.68
L319.008 300.924
L319.603 275.361
L320.198 272.631
L321.389 277.836
L322.579 281.948
L323.174 283.433
L324.365 285.421
L324.96 285.878
L325.555 266.35
L327.341 218.589
L327.936 221.822
L328.531 223.964
L329.126 225.035
L329.722 298.769
L330.317 274.919
L331.507 257.452
L332.102 247.532
L332.698 242.078
L333.293 244.948
L333.888 246.391
L334.483 254.383
L335.078 229.048
L335.674 223.747
L336.269 216.863
L336.864 208.169
L337.459 197.101
L338.054 202.197
L338.65 204.587
L339.245 204.345
L339.84 201.409
L340.435 222.523
L341.626 207.321
L342.221 203.725
L342.816 208.878
L343.411 212.607
L344.006 215.216
L344.602 216.651
L345.197 220.88
L345.792 222.943
L346.387 223.669
L346.982 222.877
L347.578 227.31
L348.173 230.245
L348.768 231.713
L349.363 335.24
L349.958 334.445
L350.554 334.207
L351.149 333.538
L351.744 333.048
L352.339 332.924
L355.315 334.01
L355.91 333.212
L356.506 333.453
L358.886 335.858
L360.077 337.105
L361.267 337.949
L361.862 338.148
L362.458 333.967
L364.243 335.104
L366.029 337.064
L367.219 338.053
L367.814 338.439
L368.41 338.652
L369.005 335.102
L370.195 336.823
L370.79 337.717
L372.576 339.478
L373.766 340.386
L374.362 340.69
L374.957 340.857
L375.552 338.425
L377.338 340.632
L378.528 341.595
L379.123 341.821
L379.718 337.736
L381.504 340.071
L382.694 341.323
L383.885 342.281
L384.48 342.505
L385.075 333.984
L388.051 333.951
L388.646 334.498
L391.027 340.367
L391.622 341.346
L392.813 342.36
L393.408 342.696
L394.003 342.881
L394.598 341.337
L396.384 342.967
L397.574 343.635
L398.17 343.785
L398.765 334.304
L399.36 334.275
L399.955 334.464
L400.55 334.787
L401.146 335.287
L405.312 340.218
L406.502 341.088
L407.098 341.317
L407.693 337.984
L409.478 339.199
L410.669 339.711
L411.264 339.827
L411.859 334.75
L412.454 335.054
L415.43 338.551
L416.621 339.449
L417.216 339.691
L417.811 335.011
L420.192 335.928
L421.978 336.258
L422.573 335.89
L424.358 336.97
L426.144 337.752
L426.739 337.867
L427.334 337.045
L428.525 337.899
L429.12 338.193
L429.715 338.358
L430.31 334.138
L430.906 333.422
L431.501 333.085
L432.096 335.918
L433.286 335.458
L435.072 335.007
L435.667 335.418
L436.262 336.008
L436.858 336.985
L437.453 337.665
L438.048 337.79
L441.024 339.004
L441.619 338.427
L442.214 339.561
L446.381 343.369
L447.571 343.749
L448.166 343.384
L448.762 343.675
L449.357 343.838
L449.952 339.693
L451.142 341.386
L452.333 343.227
L453.523 344.082
L454.118 344.387
L454.714 344.56
L455.309 343.479
L457.094 346.271
L458.285 347.759
L458.88 348.319
L459.475 348.721
L460.07 348.939
L460.666 342.175
L463.046 345.318
L464.237 346.457
L464.832 346.828
L465.427 347.029
L466.022 335.488
L467.213 334.208
L467.808 333.79
L468.403 333.648
L469.594 334.048
L471.974 335.278
L473.165 336.052
L473.76 336.238
L474.355 334.773
L474.95 334.541
L476.736 334.428
L477.331 334.49
L478.522 335.042
L480.902 336.343
L482.093 336.69
L482.688 334.435
L483.878 334.612
L486.259 335.103
L486.854 334.635
L488.045 336.179
L490.426 339.797
L491.616 341.83
L492.806 343.796
L493.997 345.344
L494.592 345.914
L495.187 346.319
L495.782 346.536
L496.378 340.452
L497.568 341.217
L498.758 341.613
L499.354 334.485
L499.949 334.59
L500.544 335.05
L501.734 336.434
L502.33 337.235
L502.925 337.717
L504.71 338.164
L505.306 338.228
L505.901 337.93
L507.091 338.985
L507.686 339.35
L508.282 339.556
L508.877 335.302
L510.067 335.347
L510.662 340.193
L511.258 347.449
L511.853 352.64
L512.448 356.059
L513.043 357.774
L513.043 357.774" style="fill:none;stroke:#000000;stroke-linecap:square;stroke-width:8;"/>
   </g>
   <g id="line2d_2">
    <path clip-path="url(#p332b41defa)" d="
M72.4355 -1
L72.5952 100.594
L73.1904 155.163
L73.7856 167.474
L74.976 204.302
L76.1664 235.676
L76.7616 247.947
L77.3568 257.395
L77.952 263.824
L78.5472 267.111
L79.1424 189.136
L80.3328 278.681
L80.928 291.471
L81.5232 296.47
L82.1184 299.882
L82.7136 301.608
L83.3088 299.97
L83.904 306.887
L84.4992 312.116
L85.0944 315.623
L85.6896 317.385
L86.2848 314.026
L86.88 332.236
L88.0704 346.081
L89.2608 356.331
L90.4512 363.69
L91.0464 366.413
L91.6416 368.589
L92.2368 370.296
L92.832 371.6
L93.4272 372.534
L94.0224 373.137
L94.6176 373.432
L95.2128 344.182
L95.808 346.834
L96.4032 348.589
L96.9984 349.468
L98.784 358.751
L99.3792 360.768
L99.9744 362.099
L100.57 362.761
L101.165 356.698
L101.76 360.157
L102.355 362.938
L102.95 365.091
L103.546 366.663
L104.141 367.691
L104.736 368.2
L105.331 332.415
L105.926 334.883
L106.522 336.859
L107.117 337.849
L107.712 347.471
L108.307 348.589
L108.902 346.763
L110.688 360.833
L111.283 364.688
L111.878 367.593
L112.474 369.75
L113.069 371.313
L113.664 372.394
L114.259 373.075
L114.854 373.403
L115.45 351.721
L116.045 351.427
L116.64 351.762
L117.235 353.404
L117.83 353.672
L119.021 361.011
L119.616 362.208
L120.211 365.397
L120.806 366.599
L121.402 368.293
L121.997 370.331
L122.592 371.915
L123.187 373.142
L123.782 374.083
L124.378 374.794
L124.973 375.312
L126.163 375.988
L126.758 376.143
L127.354 366.42
L127.949 367.579
L129.139 370.817
L129.734 372.049
L130.33 372.861
L130.925 373.312
L131.52 373.546
L132.115 367.925
L133.306 372.332
L133.901 373.536
L134.496 374.44
L135.686 375.696
L136.282 376.09
L137.472 376.461
L138.067 373.407
L138.662 374.263
L139.258 374.841
L139.853 375.186
L140.448 375.391
L141.043 364.635
L141.638 366.629
L142.234 368.05
L142.829 369.1
L143.424 369.798
L144.019 370.144
L144.614 369.53
L145.21 370.357
L145.805 370.901
L146.4 371.174
L146.995 373.103
L147.59 374.61
L148.781 375.906
L149.971 376.731
L151.162 377.233
L152.352 377.521
L154.138 377.688
L154.733 375.328
L155.923 376.4
L157.114 377.062
L158.304 377.47
L160.09 377.781
L162.47 377.918
L163.066 377.926
L163.661 375
L164.851 376.108
L166.042 376.835
L167.232 377.293
L169.018 377.642
L170.208 377.719
L170.803 376.174
L171.994 376.866
L173.184 377.317
L174.97 377.695
L177.35 377.893
L178.541 377.919
L179.136 376.888
L180.922 377.535
L182.112 377.794
L185.088 377.945
L186.278 377.958
L186.874 377.846
L189.85 377.954
L190.445 377.958
L191.04 377.299
L192.826 377.796
L195.802 377.954
L199.373 377.989
L199.968 377.872
L202.944 377.973
L210.682 377.95
L211.277 377.486
L212.467 377.785
L215.443 377.95
L219.014 377.988
L219.61 377.863
L223.776 377.984
L241.632 378
L305.318 378
L305.914 164.844
L306.509 167.616
L307.104 181.342
L308.294 233.943
L309.485 272.755
L310.08 286.956
L310.675 297.978
L311.27 306.049
L311.866 311.342
L312.461 313.966
L313.056 210.517
L314.246 258.578
L315.437 293.734
L316.032 306.975
L316.627 317.535
L317.222 325.675
L317.818 331.602
L318.413 335.47
L319.008 337.382
L319.603 143.283
L320.198 169.21
L321.389 229.281
L321.984 251.616
L322.579 269.34
L323.174 282.942
L323.77 292.807
L324.365 299.347
L324.96 302.578
L325.555 152.863
L326.15 151.35
L326.746 150.4
L327.341 148.311
L327.936 170.831
L328.531 185.39
L329.126 192.539
L329.722 138.148
L330.317 98.7344
L330.912 106.449
L331.507 112.231
L332.102 114.47
L332.698 122.351
L333.293 140.107
L333.888 148.808
L334.483 105.198
L335.078 93.2389
L336.269 147.199
L336.864 166.516
L337.459 180.533
L338.054 207.444
L338.65 225.399
L339.245 235.546
L339.84 238.383
L340.435 110.552
L343.411 223.804
L344.006 236.155
L344.602 242.301
L345.197 143.116
L345.792 175.706
L346.387 200.808
L347.578 237.512
L348.173 249.25
L348.768 254.968
L349.363 172.582
L349.958 244.922
L350.554 291.875
L351.149 309.821
L352.339 324.519
L352.934 330.752
L353.53 335.741
L354.125 339.481
L354.72 342.008
L355.315 343.279
L355.91 319.133
L357.101 336.114
L358.291 348.767
L358.886 353.524
L359.482 357.38
L360.077 360.352
L360.672 362.514
L361.267 363.924
L361.862 364.623
L362.458 319.026
L363.053 335.585
L364.243 347.539
L365.434 356.407
L366.029 359.627
L366.624 362.12
L367.219 363.946
L367.814 365.157
L368.41 365.758
L369.005 345.341
L370.195 361.977
L370.79 366.503
L371.981 370.212
L372.576 371.526
L373.171 372.529
L373.766 373.254
L374.362 373.724
L374.957 373.956
L375.552 368.575
L376.147 370.272
L376.742 371.608
L377.338 372.624
L377.933 373.355
L378.528 373.828
L379.123 374.061
L379.718 364.933
L380.909 369.327
L381.504 370.914
L382.099 372.158
L382.694 373.1
L383.29 373.786
L383.885 374.23
L384.48 374.447
L385.075 329.434
L386.266 347.515
L386.861 349.801
L387.456 351.277
L388.051 352.052
L388.646 353.346
L389.837 363.481
L391.027 370.622
L391.622 371.983
L392.218 372.964
L392.813 373.669
L393.408 374.124
L394.003 374.348
L394.598 372.15
L395.194 373.308
L395.789 374.209
L396.384 374.884
L396.979 375.365
L397.574 375.673
L398.17 375.824
L398.765 271.829
L399.955 322.916
L401.146 340.971
L402.336 355.71
L402.931 361.837
L404.122 367.034
L404.717 368.885
L405.312 370.298
L405.907 371.316
L406.502 371.982
L407.098 372.313
L407.693 364.629
L408.288 366.892
L408.883 368.7
L409.478 370.09
L410.074 371.1
L410.669 371.757
L411.264 372.082
L411.859 337.925
L413.05 349.504
L414.24 357.98
L414.835 361.055
L415.43 363.432
L416.026 365.164
L416.621 366.305
L417.216 366.877
L417.811 346.133
L419.002 360.263
L419.597 362.675
L420.192 364.558
L420.787 365.953
L421.382 366.875
L421.978 367.335
L422.573 364.075
L423.763 370.305
L424.358 371.601
L424.954 372.596
L425.549 373.32
L426.144 373.79
L426.739 374.021
L427.334 371.612
L427.93 372.627
L428.525 373.36
L429.12 373.836
L429.715 374.07
L430.31 173.567
L430.906 174.55
L431.501 175.205
L432.096 138.965
L433.286 220.165
L433.882 226.224
L434.477 229.896
L435.072 231.692
L435.667 252.434
L436.858 314.56
L437.453 323.816
L438.643 336.959
L439.238 341.769
L439.834 345.357
L440.429 347.764
L441.024 348.976
L441.619 334.547
L442.214 342.719
L443.405 354.73
L444.595 363.381
L445.786 369.417
L446.381 370.583
L446.976 371.332
L447.571 371.701
L448.166 370.586
L448.762 371.344
L449.357 371.717
L449.952 345.268
L451.142 362.368
L451.738 366.94
L452.333 368.845
L452.928 370.228
L453.523 371.235
L454.118 371.891
L454.714 372.216
L455.309 369.272
L455.904 371.123
L456.499 372.591
L457.094 373.736
L457.69 374.61
L458.285 375.256
L458.88 375.711
L459.475 376
L460.07 376.14
L460.666 365.397
L461.856 369.908
L462.451 371.508
L463.046 372.748
L463.642 373.678
L464.237 374.339
L464.832 374.763
L465.427 374.97
L466.022 177.92
L467.808 238.305
L468.998 273.478
L470.189 301.362
L471.379 321.182
L471.974 328.29
L472.57 333.693
L473.165 337.251
L473.76 339.022
L474.355 236.121
L474.95 271.826
L476.141 308.829
L476.736 325.418
L477.926 340.604
L479.117 351.619
L479.712 355.652
L480.307 358.787
L480.902 361.083
L481.498 362.587
L482.093 363.333
L482.688 332.77
L483.878 344.162
L484.474 348.244
L485.069 351.279
L485.664 353.289
L486.259 354.293
L486.854 287.597
L488.045 316.637
L489.235 339.343
L490.426 356.724
L491.616 364.384
L492.211 367.163
L492.806 369.348
L493.402 371.029
L493.997 372.282
L494.592 373.17
L495.187 373.737
L495.782 374.013
L496.378 360.024
L496.973 362.501
L497.568 364.313
L498.163 365.499
L498.758 366.087
L499.354 258.868
L500.544 302.238
L501.734 330.424
L502.33 342.106
L502.925 347.311
L503.52 351.187
L504.115 354.043
L504.71 355.922
L505.306 356.855
L505.901 347.473
L506.496 351.59
L507.091 354.604
L507.686 356.58
L508.282 357.561
L508.877 307.269
L509.472 310.361
L510.067 311.946
L510.425 -1
M511.817 -1
L511.853 4.28964
L512.448 59.8347
L513.043 87.1172
L513.043 87.1172" style="fill:none;stroke:#0000ff;stroke-linecap:square;stroke-width:4;"/>
   </g>
   <g id="line2d_3">
    <path clip-path="url(#p332b41defa)" d="
M72 118.558
L72.5952 185.39
L73.1904 191.932
L74.3808 166.447
L74.976 157.046
L75.5712 149.604
L76.1664 143.887
L76.7616 139.66
L77.3568 136.705
L77.952 134.843
L78.5472 133.945
L79.1424 214.834
L80.3328 265.933
L80.928 261.549
L81.5232 259.607
L82.1184 258.32
L82.7136 257.679
L83.3088 259.773
L83.904 258.536
L84.4992 257.723
L85.0944 257.238
L85.6896 257.013
L86.2848 297.364
L86.88 311.052
L89.2608 332.132
L90.4512 341.163
L91.6416 348.501
L92.832 353.791
L93.4272 355.591
L94.0224 356.802
L94.6176 357.41
L95.2128 319.308
L95.808 320.022
L96.4032 320.515
L96.9984 320.767
L97.5936 326.662
L98.784 331.638
L99.3792 333.398
L99.9744 334.599
L100.57 335.209
L101.165 330.942
L102.355 338.076
L102.95 340.794
L103.546 342.877
L104.141 344.285
L104.736 344.996
L105.331 315.437
L105.926 314.98
L106.522 314.679
L107.117 314.529
L107.712 334.126
L109.498 349.935
L110.688 355.898
L111.878 360.625
L113.069 363.971
L113.664 365.098
L114.259 365.852
L114.854 366.231
L115.45 351.679
L116.045 353.126
L116.64 354.244
L117.235 355.004
L117.83 355.389
L118.426 347.421
L120.211 363.547
L121.402 366.927
L122.592 369.676
L123.782 371.769
L124.973 373.207
L125.568 373.683
L126.163 373.999
L126.758 374.157
L127.354 366.891
L128.544 369.217
L129.734 370.866
L130.33 371.422
L130.925 371.795
L131.52 371.981
L132.115 368.839
L133.306 372.294
L134.496 373.839
L135.686 374.873
L136.877 375.434
L137.472 375.545
L138.067 372.972
L139.258 373.918
L139.853 374.187
L140.448 374.322
L141.043 355.147
L142.234 357.134
L142.829 357.846
L143.424 358.336
L144.019 358.585
L144.614 361.67
L145.21 362.138
L145.805 362.459
L146.4 362.622
L146.995 367.591
L147.59 369.974
L148.781 372.098
L149.971 373.753
L151.162 374.965
L152.352 375.771
L153.542 376.206
L154.138 376.291
L154.733 371.115
L155.923 373.048
L157.114 374.544
L158.304 375.655
L159.494 376.442
L160.685 376.963
L161.875 377.269
L163.066 377.394
L163.661 371.012
L164.851 372.843
L166.042 374.274
L167.232 375.326
L168.422 376.028
L169.613 376.407
L170.208 376.482
L170.803 373.367
L171.994 374.667
L173.184 375.669
L174.374 376.409
L175.565 376.925
L176.755 377.256
L178.541 377.463
L179.136 374.952
L180.326 375.968
L182.112 377.128
L183.898 377.517
L185.683 377.691
L186.278 377.709
L186.874 377.285
L188.659 377.596
L190.445 377.709
L191.04 375.94
L192.826 377.231
L194.611 377.59
L196.992 377.833
L199.373 377.908
L199.968 377.459
L201.754 377.775
L206.515 377.926
L207.706 377.941
L208.301 377.545
L210.682 377.71
L211.277 376.413
L212.467 377.248
L214.253 377.597
L216.634 377.835
L219.014 377.909
L219.61 377.489
L221.99 377.789
L224.966 377.931
L226.157 377.945
L226.752 377.613
L228.538 377.845
L238.656 377.999
L305.318 378
L305.914 206.914
L306.509 221.301
L307.104 231.623
L308.89 244.513
L310.08 252.745
L310.675 256.145
L311.27 258.846
L311.866 260.721
L312.461 261.68
L313.056 238.356
L316.032 272.397
L317.222 282.441
L317.818 286.009
L318.413 288.45
L319.008 289.69
L319.603 226.243
L323.174 253.791
L323.77 256.751
L324.365 258.799
L324.96 259.846
L325.555 226.965
L326.746 229.192
L327.936 231.384
L328.531 232.13
L329.126 232.524
L329.722 215.676
L330.317 211.19
L330.912 207.602
L331.507 204.819
L332.102 202.745
L332.698 201.285
L333.293 200.361
L333.888 199.913
L334.483 229.894
L337.459 254.518
L338.054 258.257
L338.65 261.199
L339.245 263.228
L339.84 264.263
L340.435 239.422
L341.626 248.666
L342.816 256.216
L343.411 258.956
L344.006 260.847
L344.602 261.812
L345.197 244.165
L346.387 252.739
L346.982 256.216
L347.578 258.956
L348.173 260.847
L348.768 261.812
L349.363 210.133
L349.958 246.847
L350.554 270.088
L351.149 274.121
L351.744 274.063
L352.339 274.418
L354.72 276.887
L355.315 277.16
L355.91 278.782
L359.482 308.404
L360.077 311.963
L360.672 314.741
L361.267 316.647
L361.862 317.615
L362.458 290.194
L363.053 303.948
L366.029 319.944
L366.624 322.364
L367.219 324.267
L367.814 325.579
L368.41 326.247
L369.005 314.634
L370.195 336.094
L370.79 342.741
L371.981 348.709
L373.171 353.072
L373.766 354.57
L374.362 355.58
L374.957 356.089
L375.552 345.907
L376.742 351.11
L377.338 353.072
L377.933 354.57
L378.528 355.58
L379.123 356.089
L379.718 339.919
L380.909 346.692
L382.099 351.986
L382.694 353.981
L383.29 355.502
L383.885 356.528
L384.48 357.044
L385.075 297.045
L386.266 311.677
L388.051 311.661
L390.432 340.95
L391.027 347.624
L392.218 352.451
L392.813 354.111
L393.408 355.232
L394.003 355.797
L394.598 351.209
L395.789 356.954
L396.384 359.074
L396.979 360.672
L397.574 361.742
L398.17 362.278
L398.765 261.909
L399.955 295.532
L401.741 316.818
L402.931 331.708
L404.122 338.521
L405.312 343.692
L405.907 345.501
L406.502 346.732
L407.098 347.355
L407.693 335.283
L408.883 341.346
L409.478 343.692
L410.074 345.501
L410.669 346.732
L411.264 347.355
L411.859 306.605
L414.835 321.958
L415.43 324.331
L416.026 326.205
L416.621 327.499
L417.216 328.16
L417.811 314.844
L419.002 331.492
L420.192 334.956
L420.787 336.21
L421.382 337.074
L421.978 337.515
L422.573 337.711
L423.763 349.198
L424.954 353.843
L425.549 355.431
L426.144 356.499
L426.739 357.037
L427.334 351.757
L427.93 353.843
L428.525 355.431
L429.12 356.499
L429.715 357.037
L430.31 200.688
L430.906 194.161
L431.501 190.827
L432.096 186.699
L432.691 190.969
L433.286 198.085
L433.882 188.849
L434.477 182.531
L435.072 179.323
L435.667 217.072
L436.858 260.57
L437.453 261.783
L438.643 265.35
L439.834 268.774
L440.429 269.929
L441.024 270.536
L441.619 282.554
L444.595 321.408
L445.786 334.298
L446.381 336.948
L446.976 338.744
L447.571 339.651
L448.166 336.948
L448.762 338.744
L449.357 339.651
L449.952 297.008
L451.142 326.006
L451.738 334.751
L452.928 340.417
L453.523 342.396
L454.118 343.741
L454.714 344.422
L455.309 339.941
L456.499 348.78
L457.69 355.38
L458.285 357.798
L458.88 359.616
L459.475 360.83
L460.07 361.437
L460.666 331.37
L461.856 340.798
L463.046 348.083
L463.642 350.807
L464.237 352.875
L464.832 354.266
L465.427 354.965
L466.022 201.071
L466.618 197.448
L467.213 195.931
L467.808 196.311
L468.403 198.319
L468.998 201.632
L470.189 210.714
L471.974 224.851
L472.57 228.351
L473.165 230.817
L473.76 232.09
L474.355 222.609
L474.95 239.791
L476.141 260.566
L476.736 271.716
L478.522 291.535
L479.712 302.347
L480.307 306.567
L480.902 309.835
L481.498 312.063
L482.093 313.193
L482.688 276.015
L483.878 283.876
L484.474 287.09
L485.069 289.633
L485.664 291.392
L486.259 292.291
L486.854 248.057
L488.045 267.236
L490.426 310.259
L491.616 323.598
L492.806 334.525
L493.997 342.444
L494.592 345.146
L495.187 346.964
L495.782 347.878
L496.378 313.681
L496.973 316.578
L497.568 318.847
L498.163 320.408
L498.758 321.202
L499.354 228.514
L500.544 243.792
L502.33 275.644
L503.52 284.833
L504.115 288.128
L504.71 290.391
L505.306 291.543
L505.901 280.621
L506.496 284.833
L507.091 288.128
L507.686 290.391
L508.282 291.543
L508.877 241.923
L509.472 240.663
L510.067 240.03
L510.662 57.6294
L511.348 -1
L511.348 -1" style="fill:none;stroke:#ff0000;stroke-linecap:square;stroke-width:2;"/>
   </g>
   <g id="patch_3">
    <path d="
M72 43.2
L518.4 43.2" style="fill:none;stroke:#000000;stroke-linecap:square;stroke-linejoin:miter;"/>
   </g>
   <g id="patch_4">
    <path d="
M518.4 378
L518.4 43.2" style="fill:none;stroke:#000000;stroke-linecap:square;stroke-linejoin:miter;"/>
   </g>
   <g id="patch_5">
    <path d="
M72 378
L518.4 378" style="fill:none;stroke:#000000;stroke-linecap:square;stroke-linejoin:miter;"/>
   </g>
   <g id="patch_6">
    <path d="
M72 378
L72 43.2" style="fill:none;stroke:#000000;stroke-linecap:square;stroke-linejoin:miter;"/>
   </g>
   <g id="matplotlib.axis_1">
    <g id="xtick_1">
     <g id="line2d_4">
      <defs>
       <path d="
M0 0
L0 -4" id="m93b0483c22" style="stroke:#000000;stroke-width:0.5;"/>
      </defs>
      <g>
       <use style="stroke:#000000;stroke-width:0.5;" x="72.0" xlink:href="#m93b0483c22" y="378.0"/>
      </g>
     </g>
     <g id="line2d_5">
      <defs>
       <path d="
M0 0
L0 4" id="m741efc42ff" style="stroke:#000000;stroke-width:0.5;"/>
      </defs>
      <g>
       <use style="stroke:#000000;stroke-width:0.5;" x="72.0" xlink:href="#m741efc42ff" y="43.2"/>
      </g>
     </g>
     <g id="text_1">
      <!-- 0 -->
      <defs>
       <path d="
M31.7812 66.4062
Q24.1719 66.4062 20.3281 58.9062
Q16.5 51.4219 16.5 36.375
Q16.5 21.3906 20.3281 13.8906
Q24.1719 6.39062 31.7812 6.39062
Q39.4531 6.39062 43.2812 13.8906
Q47.125 21.3906 47.125 36.375
Q47.125 51.4219 43.2812 58.9062
Q39.4531 66.4062 31.7812 66.4062
M31.7812 74.2188
Q44.0469 74.2188 50.5156 64.5156
Q56.9844 54.8281 56.9844 36.375
Q56.9844 17.9688 50.5156 8.26562
Q44.0469 -1.42188 31.7812 -1.42188
Q19.5312 -1.42188 13.0625 8.26562
Q6.59375 17.9688 6.59375 36.375
Q6.59375 54.8281 13.0625 64.5156
Q19.5312 74.2188 31.7812 74.2188" id="BitstreamVeraSans-Roman-30"/>
      </defs>
      <g transform="translate(68.47265625 392.6378125)scale(0.14 -0.14)">
       <use xlink:href="#BitstreamVeraSans-Roman-30"/>
      </g>
     </g>
    </g>
    <g id="xtick_2">
     <g id="line2d_6">
      <g>
       <use style="stroke:#000000;stroke-width:0.5;" x="220.8" xlink:href="#m93b0483c22" y="378.0"/>
      </g>
     </g>
     <g id="line2d_7">
      <g>
       <use style="stroke:#000000;stroke-width:0.5;" x="220.8" xlink:href="#m741efc42ff" y="43.2"/>
      </g>
     </g>
     <g id="text_2">
      <!-- 250 -->
      <defs>
       <path d="
M19.1875 8.29688
L53.6094 8.29688
L53.6094 0
L7.32812 0
L7.32812 8.29688
Q12.9375 14.1094 22.625 23.8906
Q32.3281 33.6875 34.8125 36.5312
Q39.5469 41.8438 41.4219 45.5312
Q43.3125 49.2188 43.3125 52.7812
Q43.3125 58.5938 39.2344 62.25
Q35.1562 65.9219 28.6094 65.9219
Q23.9688 65.9219 18.8125 64.3125
Q13.6719 62.7031 7.8125 59.4219
L7.8125 69.3906
Q13.7656 71.7812 18.9375 73
Q24.125 74.2188 28.4219 74.2188
Q39.75 74.2188 46.4844 68.5469
Q53.2188 62.8906 53.2188 53.4219
Q53.2188 48.9219 51.5312 44.8906
Q49.8594 40.875 45.4062 35.4062
Q44.1875 33.9844 37.6406 27.2188
Q31.1094 20.4531 19.1875 8.29688" id="BitstreamVeraSans-Roman-32"/>
       <path d="
M10.7969 72.9062
L49.5156 72.9062
L49.5156 64.5938
L19.8281 64.5938
L19.8281 46.7344
Q21.9688 47.4688 24.1094 47.8281
Q26.2656 48.1875 28.4219 48.1875
Q40.625 48.1875 47.75 41.5
Q54.8906 34.8125 54.8906 23.3906
Q54.8906 11.625 47.5625 5.09375
Q40.2344 -1.42188 26.9062 -1.42188
Q22.3125 -1.42188 17.5469 -0.640625
Q12.7969 0.140625 7.71875 1.70312
L7.71875 11.625
Q12.1094 9.23438 16.7969 8.0625
Q21.4844 6.89062 26.7031 6.89062
Q35.1562 6.89062 40.0781 11.3281
Q45.0156 15.7656 45.0156 23.3906
Q45.0156 31 40.0781 35.4375
Q35.1562 39.8906 26.7031 39.8906
Q22.75 39.8906 18.8125 39.0156
Q14.8906 38.1406 10.7969 36.2812
z
" id="BitstreamVeraSans-Roman-35"/>
      </defs>
      <g transform="translate(208.4165625 392.6378125)scale(0.14 -0.14)">
       <use xlink:href="#BitstreamVeraSans-Roman-32"/>
       <use x="63.623046875" xlink:href="#BitstreamVeraSans-Roman-35"/>
       <use x="127.24609375" xlink:href="#BitstreamVeraSans-Roman-30"/>
      </g>
     </g>
    </g>
    <g id="xtick_3">
     <g id="line2d_8">
      <g>
       <use style="stroke:#000000;stroke-width:0.5;" x="369.6" xlink:href="#m93b0483c22" y="378.0"/>
      </g>
     </g>
     <g id="line2d_9">
      <g>
       <use style="stroke:#000000;stroke-width:0.5;" x="369.6" xlink:href="#m741efc42ff" y="43.2"/>
      </g>
     </g>
     <g id="text_3">
      <!-- 500 -->
      <g transform="translate(357.24390625 392.6378125)scale(0.14 -0.14)">
       <use xlink:href="#BitstreamVeraSans-Roman-35"/>
       <use x="63.623046875" xlink:href="#BitstreamVeraSans-Roman-30"/>
       <use x="127.24609375" xlink:href="#BitstreamVeraSans-Roman-30"/>
      </g>
     </g>
    </g>
    <g id="xtick_4">
     <g id="line2d_10">
      <g>
       <use style="stroke:#000000;stroke-width:0.5;" x="518.4" xlink:href="#m93b0483c22" y="378.0"/>
      </g>
     </g>
     <g id="line2d_11">
      <g>
       <use style="stroke:#000000;stroke-width:0.5;" x="518.4" xlink:href="#m741efc42ff" y="43.2"/>
      </g>
     </g>
     <g id="text_4">
      <!-- 750 -->
      <defs>
       <path d="
M8.20312 72.9062
L55.0781 72.9062
L55.0781 68.7031
L28.6094 0
L18.3125 0
L43.2188 64.5938
L8.20312 64.5938
z
" id="BitstreamVeraSans-Roman-37"/>
      </defs>
      <g transform="translate(506.0778125 392.6378125)scale(0.14 -0.14)">
       <use xlink:href="#BitstreamVeraSans-Roman-37"/>
       <use x="63.623046875" xlink:href="#BitstreamVeraSans-Roman-35"/>
       <use x="127.24609375" xlink:href="#BitstreamVeraSans-Roman-30"/>
      </g>
     </g>
    </g>
    <g id="text_5">
     <!-- compartment number -->
     <defs>
      <path d="
M32.9062 24.6094
Q27.4375 24.6094 24.6719 22.75
Q21.9219 20.9062 21.9219 17.2812
Q21.9219 13.9688 24.1406 12.0781
Q26.375 10.2031 30.3281 10.2031
Q35.25 10.2031 38.625 13.7344
Q42 17.2812 42 22.6094
L42 24.6094
z

M59.625 31.2031
L59.625 0
L42 0
L42 8.10938
Q38.4844 3.125 34.0781 0.84375
Q29.6875 -1.42188 23.3906 -1.42188
Q14.8906 -1.42188 9.59375 3.53125
Q4.29688 8.5 4.29688 16.4062
Q4.29688 26.0312 10.9062 30.5156
Q17.5312 35.0156 31.6875 35.0156
L42 35.0156
L42 36.375
Q42 40.5312 38.7188 42.4531
Q35.4531 44.3906 28.5156 44.3906
Q22.9062 44.3906 18.0625 43.2656
Q13.2344 42.1406 9.07812 39.8906
L9.07812 53.2188
Q14.7031 54.5938 20.3594 55.2969
Q26.0312 56 31.6875 56
Q46.4844 56 53.0469 50.1719
Q59.625 44.3438 59.625 31.2031" id="BitstreamVeraSans-Bold-61"/>
      <path id="BitstreamVeraSans-Bold-20"/>
      <path d="
M37.5 11.2812
Q43.1094 11.2812 46.0625 15.375
Q49.0312 19.4844 49.0312 27.2969
Q49.0312 35.1094 46.0625 39.2031
Q43.1094 43.3125 37.5 43.3125
Q31.8906 43.3125 28.875 39.1875
Q25.875 35.0625 25.875 27.2969
Q25.875 19.5312 28.875 15.4062
Q31.8906 11.2812 37.5 11.2812
M25.875 46.6875
Q29.5 51.4688 33.8906 53.7344
Q38.2812 56 44 56
Q54.1094 56 60.5938 47.9688
Q67.0938 39.9375 67.0938 27.2969
Q67.0938 14.6562 60.5938 6.60938
Q54.1094 -1.42188 44 -1.42188
Q38.2812 -1.42188 33.8906 0.84375
Q29.5 3.125 25.875 7.90625
L25.875 0
L8.40625 0
L8.40625 75.9844
L25.875 75.9844
z
" id="BitstreamVeraSans-Bold-62"/>
      <path d="
M52.5938 52.9844
L52.5938 38.7188
Q49.0312 41.1562 45.4375 42.3281
Q41.8438 43.5 37.9844 43.5
Q30.6719 43.5 26.5938 39.2344
Q22.5156 34.9688 22.5156 27.2969
Q22.5156 19.625 26.5938 15.3438
Q30.6719 11.0781 37.9844 11.0781
Q42.0938 11.0781 45.7812 12.2969
Q49.4688 13.5312 52.5938 15.9219
L52.5938 1.60938
Q48.4844 0.09375 44.2656 -0.65625
Q40.0469 -1.42188 35.7969 -1.42188
Q21 -1.42188 12.6406 6.17188
Q4.29688 13.7656 4.29688 27.2969
Q4.29688 40.8281 12.6406 48.4062
Q21 56 35.7969 56
Q40.0938 56 44.2656 55.25
Q48.4375 54.5 52.5938 52.9844" id="BitstreamVeraSans-Bold-63"/>
      <path d="
M49.0312 39.7969
Q46.7344 40.875 44.4531 41.375
Q42.1875 41.8906 39.8906 41.8906
Q33.1562 41.8906 29.5156 37.5625
Q25.875 33.25 25.875 25.2031
L25.875 0
L8.40625 0
L8.40625 54.6875
L25.875 54.6875
L25.875 45.7031
Q29.25 51.0781 33.6094 53.5312
Q37.9844 56 44.0938 56
Q44.9688 56 45.9844 55.9219
Q47.0156 55.8594 48.9688 55.6094
z
" id="BitstreamVeraSans-Bold-72"/>
      <path d="
M7.8125 21.2969
L7.8125 54.6875
L25.3906 54.6875
L25.3906 49.2188
Q25.3906 44.7812 25.3438 38.0625
Q25.2969 31.3438 25.2969 29.1094
Q25.2969 22.5156 25.6406 19.6094
Q25.9844 16.7031 26.8125 15.375
Q27.875 13.6719 29.6094 12.7344
Q31.3438 11.8125 33.5938 11.8125
Q39.0625 11.8125 42.1875 16.0156
Q45.3125 20.2188 45.3125 27.6875
L45.3125 54.6875
L62.7969 54.6875
L62.7969 0
L45.3125 0
L45.3125 7.90625
Q41.3594 3.125 36.9375 0.84375
Q32.5156 -1.42188 27.2031 -1.42188
Q17.7188 -1.42188 12.7656 4.39062
Q7.8125 10.2031 7.8125 21.2969" id="BitstreamVeraSans-Bold-75"/>
      <path d="
M27.4844 70.2188
L27.4844 54.6875
L45.5156 54.6875
L45.5156 42.1875
L27.4844 42.1875
L27.4844 19
Q27.4844 15.1875 29 13.8438
Q30.5156 12.5 35.0156 12.5
L44 12.5
L44 0
L29 0
Q18.6562 0 14.3281 4.3125
Q10.0156 8.64062 10.0156 19
L10.0156 42.1875
L1.3125 42.1875
L1.3125 54.6875
L10.0156 54.6875
L10.0156 70.2188
z
" id="BitstreamVeraSans-Bold-74"/>
      <path d="
M62.9844 27.4844
L62.9844 22.5156
L22.125 22.5156
Q22.75 16.3594 26.5625 13.2812
Q30.375 10.2031 37.2031 10.2031
Q42.7188 10.2031 48.5 11.8438
Q54.2969 13.4844 60.4062 16.7969
L60.4062 3.32812
Q54.2031 0.984375 48 -0.21875
Q41.7969 -1.42188 35.5938 -1.42188
Q20.75 -1.42188 12.5156 6.125
Q4.29688 13.6719 4.29688 27.2969
Q4.29688 40.6719 12.375 48.3281
Q20.4531 56 34.625 56
Q47.5156 56 55.25 48.2344
Q62.9844 40.4844 62.9844 27.4844
M45.0156 33.2969
Q45.0156 38.2812 42.1094 41.3281
Q39.2031 44.3906 34.5156 44.3906
Q29.4375 44.3906 26.2656 41.5312
Q23.0938 38.6719 22.3125 33.2969
z
" id="BitstreamVeraSans-Bold-65"/>
      <path d="
M25.875 7.90625
L25.875 -20.7969
L8.40625 -20.7969
L8.40625 54.6875
L25.875 54.6875
L25.875 46.6875
Q29.5 51.4688 33.8906 53.7344
Q38.2812 56 44 56
Q54.1094 56 60.5938 47.9688
Q67.0938 39.9375 67.0938 27.2969
Q67.0938 14.6562 60.5938 6.60938
Q54.1094 -1.42188 44 -1.42188
Q38.2812 -1.42188 33.8906 0.84375
Q29.5 3.125 25.875 7.90625
M37.5 43.3125
Q31.8906 43.3125 28.875 39.1875
Q25.875 35.0625 25.875 27.2969
Q25.875 19.5312 28.875 15.4062
Q31.8906 11.2812 37.5 11.2812
Q43.1094 11.2812 46.0625 15.375
Q49.0312 19.4844 49.0312 27.2969
Q49.0312 35.1094 46.0625 39.2031
Q43.1094 43.3125 37.5 43.3125" id="BitstreamVeraSans-Bold-70"/>
      <path d="
M34.4219 43.5
Q28.6094 43.5 25.5625 39.3281
Q22.5156 35.1562 22.5156 27.2969
Q22.5156 19.4375 25.5625 15.25
Q28.6094 11.0781 34.4219 11.0781
Q40.1406 11.0781 43.1562 15.25
Q46.1875 19.4375 46.1875 27.2969
Q46.1875 35.1562 43.1562 39.3281
Q40.1406 43.5 34.4219 43.5
M34.4219 56
Q48.5312 56 56.4688 48.375
Q64.4062 40.7656 64.4062 27.2969
Q64.4062 13.8125 56.4688 6.1875
Q48.5312 -1.42188 34.4219 -1.42188
Q20.2656 -1.42188 12.2812 6.1875
Q4.29688 13.8125 4.29688 27.2969
Q4.29688 40.7656 12.2812 48.375
Q20.2656 56 34.4219 56" id="BitstreamVeraSans-Bold-6f"/>
      <path d="
M59.0781 45.6094
Q62.4062 50.6875 66.9688 53.3438
Q71.5312 56 77 56
Q86.4219 56 91.3594 50.1875
Q96.2969 44.3906 96.2969 33.2969
L96.2969 0
L78.7188 0
L78.7188 28.5156
Q78.7656 29.1562 78.7812 29.8281
Q78.8125 30.5156 78.8125 31.7812
Q78.8125 37.5938 77.0938 40.2031
Q75.3906 42.8281 71.5781 42.8281
Q66.6094 42.8281 63.8906 38.7188
Q61.1875 34.625 61.0781 26.8594
L61.0781 0
L43.5 0
L43.5 28.5156
Q43.5 37.5938 41.9375 40.2031
Q40.375 42.8281 36.375 42.8281
Q31.3438 42.8281 28.6094 38.7031
Q25.875 34.5781 25.875 26.9062
L25.875 0
L8.29688 0
L8.29688 54.6875
L25.875 54.6875
L25.875 46.6875
Q29.1094 51.3125 33.2812 53.6562
Q37.4531 56 42.4844 56
Q48.1406 56 52.4844 53.2656
Q56.8438 50.5312 59.0781 45.6094" id="BitstreamVeraSans-Bold-6d"/>
      <path d="
M63.375 33.2969
L63.375 0
L45.7969 0
L45.7969 5.42188
L45.7969 25.4844
Q45.7969 32.5625 45.4844 35.25
Q45.1719 37.9375 44.3906 39.2031
Q43.3594 40.9219 41.5938 41.875
Q39.8438 42.8281 37.5938 42.8281
Q32.125 42.8281 29 38.5938
Q25.875 34.375 25.875 26.9062
L25.875 0
L8.40625 0
L8.40625 54.6875
L25.875 54.6875
L25.875 46.6875
Q29.8281 51.4688 34.2656 53.7344
Q38.7188 56 44.0938 56
Q53.5625 56 58.4688 50.1875
Q63.375 44.3906 63.375 33.2969" id="BitstreamVeraSans-Bold-6e"/>
     </defs>
     <g transform="translate(196.86375 412.706875)scale(0.16 -0.16)">
      <use xlink:href="#BitstreamVeraSans-Bold-63"/>
      <use x="59.27734375" xlink:href="#BitstreamVeraSans-Bold-6f"/>
      <use x="127.978515625" xlink:href="#BitstreamVeraSans-Bold-6d"/>
      <use x="232.177734375" xlink:href="#BitstreamVeraSans-Bold-70"/>
      <use x="303.759765625" xlink:href="#BitstreamVeraSans-Bold-61"/>
      <use x="371.240234375" xlink:href="#BitstreamVeraSans-Bold-72"/>
      <use x="420.556640625" xlink:href="#BitstreamVeraSans-Bold-74"/>
      <use x="468.359375" xlink:href="#BitstreamVeraSans-Bold-6d"/>
      <use x="572.55859375" xlink:href="#BitstreamVeraSans-Bold-65"/>
      <use x="640.380859375" xlink:href="#BitstreamVeraSans-Bold-6e"/>
      <use x="711.572265625" xlink:href="#BitstreamVeraSans-Bold-74"/>
      <use x="759.375" xlink:href="#BitstreamVeraSans-Bold-20"/>
      <use x="794.189453125" xlink:href="#BitstreamVeraSans-Bold-6e"/>
      <use x="865.380859375" xlink:href="#BitstreamVeraSans-Bold-75"/>
      <use x="936.572265625" xlink:href="#BitstreamVeraSans-Bold-6d"/>
      <use x="1040.77148438" xlink:href="#BitstreamVeraSans-Bold-62"/>
      <use x="1112.35351562" xlink:href="#BitstreamVeraSans-Bold-65"/>
      <use x="1180.17578125" xlink:href="#BitstreamVeraSans-Bold-72"/>
     </g>
    </g>
   </g>
   <g id="matplotlib.axis_2">
    <g id="ytick_1">
     <g id="line2d_12">
      <defs>
       <path d="
M0 0
L4 0" id="m728421d6d4" style="stroke:#000000;stroke-width:0.5;"/>
      </defs>
      <g>
       <use style="stroke:#000000;stroke-width:0.5;" x="72.0" xlink:href="#m728421d6d4" y="266.4"/>
      </g>
     </g>
     <g id="line2d_13">
      <defs>
       <path d="
M0 0
L-4 0" id="mcb0005524f" style="stroke:#000000;stroke-width:0.5;"/>
      </defs>
      <g>
       <use style="stroke:#000000;stroke-width:0.5;" x="518.4" xlink:href="#mcb0005524f" y="266.4"/>
      </g>
     </g>
     <g id="text_6">
      <!-- 0.05 -->
      <defs>
       <path d="
M10.6875 12.4062
L21 12.4062
L21 0
L10.6875 0
z
" id="BitstreamVeraSans-Roman-2e"/>
      </defs>
      <g transform="translate(38.9740625 270.263125)scale(0.14 -0.14)">
       <use xlink:href="#BitstreamVeraSans-Roman-30"/>
       <use x="63.623046875" xlink:href="#BitstreamVeraSans-Roman-2e"/>
       <use x="95.41015625" xlink:href="#BitstreamVeraSans-Roman-30"/>
       <use x="159.033203125" xlink:href="#BitstreamVeraSans-Roman-35"/>
      </g>
     </g>
    </g>
    <g id="ytick_2">
     <g id="line2d_14">
      <g>
       <use style="stroke:#000000;stroke-width:0.5;" x="72.0" xlink:href="#m728421d6d4" y="154.8"/>
      </g>
     </g>
     <g id="line2d_15">
      <g>
       <use style="stroke:#000000;stroke-width:0.5;" x="518.4" xlink:href="#mcb0005524f" y="154.8"/>
      </g>
     </g>
     <g id="text_7">
      <!-- 0.10 -->
      <defs>
       <path d="
M12.4062 8.29688
L28.5156 8.29688
L28.5156 63.9219
L10.9844 60.4062
L10.9844 69.3906
L28.4219 72.9062
L38.2812 72.9062
L38.2812 8.29688
L54.3906 8.29688
L54.3906 0
L12.4062 0
z
" id="BitstreamVeraSans-Roman-31"/>
      </defs>
      <g transform="translate(38.6809375 158.663125)scale(0.14 -0.14)">
       <use xlink:href="#BitstreamVeraSans-Roman-30"/>
       <use x="63.623046875" xlink:href="#BitstreamVeraSans-Roman-2e"/>
       <use x="95.41015625" xlink:href="#BitstreamVeraSans-Roman-31"/>
       <use x="159.033203125" xlink:href="#BitstreamVeraSans-Roman-30"/>
      </g>
     </g>
    </g>
    <g id="ytick_3">
     <g id="line2d_16">
      <g>
       <use style="stroke:#000000;stroke-width:0.5;" x="72.0" xlink:href="#m728421d6d4" y="43.2"/>
      </g>
     </g>
     <g id="line2d_17">
      <g>
       <use style="stroke:#000000;stroke-width:0.5;" x="518.4" xlink:href="#mcb0005524f" y="43.2"/>
      </g>
     </g>
     <g id="text_8">
      <!-- 0.15 -->
      <g transform="translate(38.9740625 47.063125)scale(0.14 -0.14)">
       <use xlink:href="#BitstreamVeraSans-Roman-30"/>
       <use x="63.623046875" xlink:href="#BitstreamVeraSans-Roman-2e"/>
       <use x="95.41015625" xlink:href="#BitstreamVeraSans-Roman-31"/>
       <use x="159.033203125" xlink:href="#BitstreamVeraSans-Roman-35"/>
      </g>
     </g>
    </g>
    <g id="text_9">
     <!-- normalized concentration -->
     <defs>
      <path d="
M5.71875 54.6875
L53.4219 54.6875
L53.4219 42.4844
L24.6094 12.5
L53.4219 12.5
L53.4219 0
L4.5 0
L4.5 12.2031
L33.2969 42.1875
L5.71875 42.1875
z
" id="BitstreamVeraSans-Bold-7a"/>
      <path d="
M8.40625 75.9844
L25.875 75.9844
L25.875 0
L8.40625 0
z
" id="BitstreamVeraSans-Bold-6c"/>
      <path d="
M8.40625 54.6875
L25.875 54.6875
L25.875 0
L8.40625 0
z

M8.40625 75.9844
L25.875 75.9844
L25.875 61.7188
L8.40625 61.7188
z
" id="BitstreamVeraSans-Bold-69"/>
      <path d="
M45.6094 46.6875
L45.6094 75.9844
L63.1875 75.9844
L63.1875 0
L45.6094 0
L45.6094 7.90625
Q42 3.07812 37.6406 0.828125
Q33.2969 -1.42188 27.5938 -1.42188
Q17.4844 -1.42188 10.9844 6.60938
Q4.5 14.6562 4.5 27.2969
Q4.5 39.9375 10.9844 47.9688
Q17.4844 56 27.5938 56
Q33.25 56 37.625 53.7344
Q42 51.4688 45.6094 46.6875
M34.0781 11.2812
Q39.7031 11.2812 42.6562 15.375
Q45.6094 19.4844 45.6094 27.2969
Q45.6094 35.1094 42.6562 39.2031
Q39.7031 43.3125 34.0781 43.3125
Q28.5156 43.3125 25.5625 39.2031
Q22.6094 35.1094 22.6094 27.2969
Q22.6094 19.4844 25.5625 15.375
Q28.5156 11.2812 34.0781 11.2812" id="BitstreamVeraSans-Bold-64"/>
     </defs>
     <g transform="translate(30.3534375 325.6475)rotate(-90.0)scale(0.16 -0.16)">
      <use xlink:href="#BitstreamVeraSans-Bold-6e"/>
      <use x="71.19140625" xlink:href="#BitstreamVeraSans-Bold-6f"/>
      <use x="139.892578125" xlink:href="#BitstreamVeraSans-Bold-72"/>
      <use x="189.208984375" xlink:href="#BitstreamVeraSans-Bold-6d"/>
      <use x="293.408203125" xlink:href="#BitstreamVeraSans-Bold-61"/>
      <use x="360.888671875" xlink:href="#BitstreamVeraSans-Bold-6c"/>
      <use x="395.166015625" xlink:href="#BitstreamVeraSans-Bold-69"/>
      <use x="429.443359375" xlink:href="#BitstreamVeraSans-Bold-7a"/>
      <use x="487.646484375" xlink:href="#BitstreamVeraSans-Bold-65"/>
      <use x="555.46875" xlink:href="#BitstreamVeraSans-Bold-64"/>
      <use x="627.05078125" xlink:href="#BitstreamVeraSans-Bold-20"/>
      <use x="661.865234375" xlink:href="#BitstreamVeraSans-Bold-63"/>
      <use x="721.142578125" xlink:href="#BitstreamVeraSans-Bold-6f"/>
      <use x="789.84375" xlink:href="#BitstreamVeraSans-Bold-6e"/>
      <use x="861.03515625" xlink:href="#BitstreamVeraSans-Bold-63"/>
      <use x="920.3125" xlink:href="#BitstreamVeraSans-Bold-65"/>
      <use x="988.134765625" xlink:href="#BitstreamVeraSans-Bold-6e"/>
      <use x="1059.32617188" xlink:href="#BitstreamVeraSans-Bold-74"/>
      <use x="1107.12890625" xlink:href="#BitstreamVeraSans-Bold-72"/>
      <use x="1156.4453125" xlink:href="#BitstreamVeraSans-Bold-61"/>
      <use x="1223.92578125" xlink:href="#BitstreamVeraSans-Bold-74"/>
      <use x="1271.72851562" xlink:href="#BitstreamVeraSans-Bold-69"/>
      <use x="1306.00585938" xlink:href="#BitstreamVeraSans-Bold-6f"/>
      <use x="1374.70703125" xlink:href="#BitstreamVeraSans-Bold-6e"/>
     </g>
    </g>
   </g>
  </g>
 </g>
 <defs>
  <clipPath id="p332b41defa">
   <rect height="334.8" width="446.4" x="72.0" y="43.2"/>
  </clipPath>
 </defs>
</svg>
