<?xml version="1.0" encoding="utf-8" standalone="no"?>
<!DOCTYPE svg PUBLIC "-//W3C//DTD SVG 1.1//EN"
  "http://www.w3.org/Graphics/SVG/1.1/DTD/svg11.dtd">
<!-- Created with matplotlib (http://matplotlib.org/) -->
<svg height="432pt" version="1.1" viewBox="0 0 576 432" width="576pt" xmlns="http://www.w3.org/2000/svg" xmlns:xlink="http://www.w3.org/1999/xlink">
 <defs>
  <style type="text/css">
*{stroke-linecap:butt;stroke-linejoin:round;}
  </style>
 </defs>
 <g id="figure_1">
  <g id="patch_1">
   <path d="
M0 432
L576 432
L576 0
L0 0
z
" style="fill:#ffffff;"/>
  </g>
  <g id="axes_1">
   <g id="patch_2">
    <path d="
M72 378
L518.4 378
L518.4 43.2
L72 43.2
z
" style="fill:none;"/>
   </g>
   <g id="line2d_1">
    <path clip-path="url(#p332b41defa)" d="
M72 337.111
L72.5952 336.839
L73.7856 331.286
L74.3808 330.559
L74.976 329.611
L75.5712 329.095
L76.7616 328.931
L78.5472 329.134
L79.1424 330.036
L80.3328 324.136
L80.928 322.65
L82.1184 322.481
L85.6896 322.479
L86.2848 321.132
L86.88 319.457
L87.4752 319.729
L89.2608 321.248
L90.4512 322.789
L91.6416 324.263
L93.4272 326.072
L94.0224 326.449
L94.6176 326.654
L95.2128 319.554
L98.784 319.8
L100.57 320.036
L101.165 319.742
L104.141 320.912
L104.736 321.008
L105.331 318.821
L105.926 318.175
L107.117 318.165
L107.712 314.598
L108.307 301.555
L108.902 273.175
L109.498 257.844
L110.093 254.92
L111.283 267.925
L112.474 277.063
L113.069 280.316
L113.664 282.743
L114.259 284.363
L114.854 285.18
L115.45 238.545
L116.045 215.809
L116.64 197.951
L117.235 194.196
L117.83 187.806
L118.426 310.022
L119.021 304.524
L120.211 263.362
L120.806 250.886
L121.402 244.605
L121.997 247.417
L122.592 249.107
L123.187 249.672
L123.782 249.096
L124.378 247.345
L124.973 244.367
L125.568 240.086
L126.163 242.868
L126.758 244.26
L127.354 225.382
L127.949 210.413
L128.544 207.886
L129.139 207.911
L129.734 210.188
L130.33 209.792
L130.925 206.655
L131.52 205.284
L132.115 205.533
L132.71 195.406
L133.306 190.36
L133.901 192.438
L134.496 192.406
L135.091 190.201
L135.686 194.17
L136.282 195.981
L136.877 195.674
L137.472 197.775
L138.067 192.053
L138.662 195.78
L139.258 197.357
L139.853 196.816
L140.448 198.929
L141.043 310.571
L141.638 311.741
L143.424 312.398
L144.019 312.511
L144.614 311.833
L145.805 312.099
L146.4 312.176
L146.995 312.081
L147.59 312.545
L150.566 318.182
L151.757 319.724
L152.947 320.741
L153.542 321.193
L154.138 321.435
L154.733 313.737
L155.923 317.097
L157.709 321.552
L158.899 324.931
L160.09 327.649
L161.28 329.669
L161.875 330.511
L162.47 331.099
L163.066 331.408
L163.661 312.463
L164.256 313.024
L167.232 317.056
L167.827 317.88
L168.422 319.072
L169.613 320.667
L170.208 321.195
L170.803 312.835
L171.398 313.107
L173.184 315.489
L174.97 317.897
L176.755 321.122
L177.35 322.178
L177.946 322.903
L178.541 323.279
L179.136 313.077
L179.731 313.493
L181.517 318.519
L182.707 321.879
L183.898 323.675
L185.088 324.893
L185.683 325.418
L186.278 325.692
L186.874 321.887
L188.064 323.713
L189.85 325.626
L190.445 325.909
L191.04 313.356
L191.635 313.709
L194.611 321.705
L195.802 323.949
L196.992 325.661
L198.182 326.857
L198.778 327.268
L199.373 327.482
L199.968 319.063
L201.754 323.917
L202.349 324.642
L203.539 324.793
L204.134 325.199
L205.325 327.49
L206.515 329.045
L207.11 329.518
L207.706 329.764
L208.301 320.073
L209.491 321.025
L210.086 321.315
L210.682 321.467
L211.277 313.425
L212.467 313.188
L213.062 313.271
L214.253 316.265
L215.443 319.113
L216.038 320.276
L217.229 322.99
L217.824 323.895
L218.419 324.546
L219.014 324.942
L219.61 312.998
L220.205 313.184
L221.99 317.637
L223.181 321.771
L223.776 323.344
L224.371 324.599
L224.966 325.534
L225.562 326.17
L226.157 326.622
L226.752 312.172
L227.942 309.503
L228.538 308.912
L229.133 310.086
L229.728 310.68
L230.323 308.388
L230.918 309.808
L232.704 322.16
L233.299 325.971
L233.894 328.329
L235.68 331.94
L236.87 335.281
L238.061 337.857
L240.442 341.809
L241.037 342.396
L241.632 342.775
L242.227 342.998
L242.822 328.937
L244.013 333.651
L245.203 337.434
L246.394 339.914
L247.584 343.007
L248.774 346.775
L249.965 349.845
L251.155 352.237
L252.346 353.918
L252.941 354.476
L253.536 354.873
L254.131 355.094
L254.726 338.667
L255.917 340.88
L257.107 343.17
L257.702 343.976
L258.893 345.069
L260.083 346.177
L260.678 346.523
L261.274 346.702
L261.869 343.918
L263.059 345.515
L264.25 346.669
L265.44 347.513
L266.035 347.762
L266.63 347.886
L267.226 306.46
L267.821 304.448
L268.416 305.644
L269.011 306.247
L269.606 302.07
L270.202 296.276
L271.392 278.672
L272.582 259.659
L273.773 232.562
L274.368 227.532
L276.749 269.312
L277.344 277.363
L277.939 283.69
L279.13 292.394
L279.725 295.05
L280.32 296.355
L280.915 217.013
L281.51 206.352
L282.106 202.907
L282.701 204.61
L283.296 210.395
L283.891 213.58
L284.486 219.316
L285.082 228.081
L286.272 241.326
L286.867 245.965
L287.462 248.656
L288.058 200.372
L289.248 180.25
L289.843 175.738
L290.438 179.76
L291.034 179.37
L291.629 179.373
L292.224 257.07
L292.819 220.65
L293.414 203.199
L294.01 195.211
L294.605 243.598
L295.2 243.529
L295.795 241.269
L296.39 236.486
L296.986 227.403
L297.581 211.768
L298.176 199.658
L298.771 189.998
L299.366 186.934
L299.962 180.745
L300.557 179.222
L301.152 182.894
L301.747 226.844
L302.342 237.253
L302.938 245.714
L303.533 252.329
L304.128 257.174
L304.723 260.309
L305.318 262.028
L305.914 327.346
L306.509 305.507
L307.104 290.69
L307.699 291.592
L310.08 296.752
L311.27 298.456
L311.866 298.978
L312.461 299.253
L313.056 291.638
L315.437 296.431
L316.627 298.688
L317.818 300.215
L318.413 300.68
L319.008 300.924
L319.603 275.361
L320.198 272.631
L321.389 277.836
L322.579 281.948
L323.174 283.433
L324.365 285.421
L324.96 285.878
L325.555 266.35
L327.341 218.589
L327.936 221.822
L328.531 223.964
L329.126 225.035
L329.722 298.769
L330.317 274.919
L331.507 257.452
L332.102 247.532
L332.698 242.078
L333.293 244.948
L333.888 246.391
L334.483 254.383
L335.078 229.048
L335.674 223.747
L336.269 216.863
L336.864 208.169
L337.459 197.101
L338.054 202.197
L338.65 204.587
L339.245 204.345
L339.84 201.409
L340.435 222.523
L341.626 207.321
L342.221 203.725
L342.816 208.878
L343.411 212.607
L344.006 215.216
L344.602 216.651
L345.197 220.88
L345.792 222.943
L346.387 223.669
L346.982 222.877
L347.578 227.31
L348.173 230.245
L348.768 231.713
L349.363 335.24
L349.958 334.445
L350.554 334.207
L351.149 333.538
L351.744 333.048
L352.339 332.924
L355.315 334.01
L355.91 333.212
L356.506 333.453
L358.886 335.858
L360.077 337.105
L361.267 337.949
L361.862 338.148
L362.458 333.967
L364.243 335.104
L366.029 337.064
L367.219 338.053
L367.814 338.439
L368.41 338.652
L369.005 335.102
L370.195 336.823
L370.79 337.717
L372.576 339.478
L373.766 340.386
L374.362 340.69
L374.957 340.857
L375.552 338.425
L377.338 340.632
L378.528 341.595
L379.123 341.821
L379.718 337.736
L381.504 340.071
L382.694 341.323
L383.885 342.281
L384.48 342.505
L385.075 333.984
L388.051 333.951
L388.646 334.498
L391.027 340.367
L391.622 341.346
L392.813 342.36
L393.408 342.696
L394.003 342.881
L394.598 341.337
L396.384 342.967
L397.574 343.635
L398.17 343.785
L398.765 334.304
L399.36 334.275
L399.955 334.464
L400.55 334.787
L401.146 335.287
L405.312 340.218
L406.502 341.088
L407.098 341.317
L407.693 337.984
L409.478 339.199
L410.669 339.711
L411.264 339.827
L411.859 334.75
L412.454 335.054
L415.43 338.551
L416.621 339.449
L417.216 339.691
L417.811 335.011
L420.192 335.928
L421.978 336.258
L422.573 335.89
L424.358 336.97
L426.144 337.752
L426.739 337.867
L427.334 337.045
L428.525 337.899
L429.12 338.193
L429.715 338.358
L430.31 334.138
L430.906 333.422
L431.501 333.085
L432.096 335.918
L433.286 335.458
L435.072 335.007
L435.667 335.418
L436.262 336.008
L436.858 336.985
L437.453 337.665
L438.048 337.79
L441.024 339.004
L441.619 338.427
L442.214 339.561
L446.381 343.369
L447.571 343.749
L448.166 343.384
L448.762 343.675
L449.357 343.838
L449.952 339.693
L451.142 341.386
L452.333 343.227
L453.523 344.082
L454.118 344.387
L454.714 344.56
L455.309 343.479
L457.094 346.271
L458.285 347.759
L458.88 348.319
L459.475 348.721
L460.07 348.939
L460.666 342.175
L463.046 345.318
L464.237 346.457
L464.832 346.828
L465.427 347.029
L466.022 335.488
L467.213 334.208
L467.808 333.79
L468.403 333.648
L469.594 334.048
L471.974 335.278
L473.165 336.052
L473.76 336.238
L474.355 334.773
L474.95 334.541
L476.736 334.428
L477.331 334.49
L478.522 335.042
L480.902 336.343
L482.093 336.69
L482.688 334.435
L483.878 334.612
L486.259 335.103
L486.854 334.635
L488.045 336.179
L490.426 339.797
L491.616 341.83
L492.806 343.796
L493.997 345.344
L494.592 345.914
L495.187 346.319
L495.782 346.536
L496.378 340.452
L497.568 341.217
L498.758 341.613
L499.354 334.485
L499.949 334.59
L500.544 335.05
L501.734 336.434
L502.33 337.235
L502.925 337.717
L504.71 338.164
L505.306 338.228
L505.901 337.93
L507.091 338.985
L507.686 339.35
L508.282 339.556
L508.877 335.302
L510.067 335.347
L510.662 340.193
L511.258 347.449
L511.853 352.64
L512.448 356.059
L513.043 357.774
L513.043 357.774" style="fill:none;stroke:#000000;stroke-linecap:square;stroke-width:8;"/>
   </g>
   <g id="line2d_2">
    <path clip-path="url(#p332b41defa)" d="
M72 312.014
L72.5952 317.799
L73.1904 316.542
L73.7856 313.096
L74.3808 312.172
L74.976 310.933
L75.5712 310.284
L76.7616 310.156
L78.5472 310.503
L79.1424 314.566
L79.7376 314.105
L80.3328 314.149
L80.928 312.495
L82.1184 312.356
L84.4992 312.426
L85.6896 312.473
L86.2848 314.357
L86.88 312.87
L87.4752 313.334
L89.2608 315.419
L92.832 320.6
L93.4272 321.204
L94.0224 321.638
L94.6176 321.873
L95.2128 313.19
L98.1888 313.574
L99.9744 314.001
L100.57 314.07
L101.165 313.646
L103.546 314.971
L104.736 315.299
L105.331 315.29
L105.926 314.644
L107.117 314.671
L107.712 314.533
L108.307 301.745
L108.902 273.782
L109.498 258.912
L110.093 256.243
L111.283 269.449
L112.474 278.689
L113.069 281.971
L113.664 284.415
L114.259 286.046
L114.854 286.868
L115.45 239.928
L116.045 217.552
L116.64 199.997
L117.235 196.361
L117.83 190.086
L118.426 313.685
L119.021 309.036
L120.211 272.055
L120.806 260.808
L121.402 255.288
L121.997 258.114
L122.592 259.875
L123.187 260.575
L123.782 260.205
L124.378 258.738
L124.973 256.128
L125.568 252.308
L126.163 254.898
L126.758 256.193
L127.354 237.667
L127.949 224.142
L128.544 222.029
L129.139 222.224
L129.734 224.447
L130.33 224.186
L130.925 221.387
L131.52 220.17
L132.115 219.941
L132.71 211.18
L133.306 207.065
L133.901 209.223
L134.496 209.42
L135.091 207.608
L135.686 211.358
L136.282 213.11
L136.877 212.906
L137.472 214.845
L138.067 208.796
L138.662 212.336
L139.258 213.88
L139.853 213.462
L140.448 215.417
L141.043 317.387
L141.638 318.505
L143.424 319.213
L144.019 319.327
L144.614 321.565
L145.805 321.856
L146.4 321.935
L146.995 324.756
L147.59 325.472
L149.971 329.682
L151.162 331.244
L152.352 332.366
L153.542 333.125
L154.138 333.326
L154.733 326.614
L155.923 329.618
L160.09 338.612
L161.28 340.276
L161.875 340.961
L162.47 341.437
L163.066 341.687
L163.661 327.674
L164.851 328.953
L166.042 330.289
L167.827 332.473
L168.422 333.42
L169.613 334.681
L170.208 335.091
L170.803 330.406
L171.398 330.761
L172.589 332.233
L174.97 334.887
L176.16 336.51
L177.35 338.146
L177.946 338.684
L178.541 338.963
L179.136 332.849
L179.731 333.363
L182.707 339.917
L183.898 341.245
L185.088 342.138
L185.683 342.512
L186.278 342.706
L186.874 339.922
L188.064 341.271
L189.85 342.652
L190.445 342.853
L191.04 335.063
L191.635 335.679
L193.421 339.916
L194.611 341.886
L195.802 343.471
L196.992 344.669
L198.182 345.495
L198.778 345.774
L199.373 345.919
L199.968 340.074
L201.754 343.548
L202.349 344.039
L203.539 344.163
L204.134 344.431
L205.325 345.987
L206.515 347.035
L207.11 347.351
L207.706 347.516
L208.301 340.776
L209.491 341.46
L210.682 341.774
L211.277 336.731
L212.467 339.801
L213.062 339.974
L216.634 345.412
L217.229 346.15
L217.824 346.702
L218.419 347.097
L219.014 347.335
L219.61 341.163
L220.205 341.391
L221.99 344.184
L223.181 346.625
L224.371 348.285
L224.966 348.832
L226.157 349.463
L226.752 342.054
L227.942 343.389
L228.538 343.125
L229.133 343.739
L229.728 344.05
L230.323 344.193
L230.918 345.523
L232.704 352.927
L233.299 355.093
L233.894 356.248
L238.656 361.362
L239.846 362.348
L241.037 362.974
L242.227 363.244
L242.822 356.707
L244.013 359.287
L245.203 361.347
L246.394 362.533
L248.179 364.772
L249.37 366.225
L250.56 367.373
L251.75 368.222
L252.941 368.762
L254.131 369.015
L254.726 361.978
L257.702 364.56
L259.488 365.295
L260.678 365.661
L261.274 365.736
L261.869 364.547
L263.059 365.252
L264.25 365.757
L265.44 366.119
L266.63 366.278
L267.226 343.978
L267.821 343.056
L268.416 343.648
L269.011 343.946
L269.606 342.606
L270.202 340.663
L271.392 334.415
L272.582 327.714
L273.773 317.609
L274.368 315.776
L276.154 329.433
L276.749 333.622
L277.344 337.002
L277.939 339.652
L279.13 343.283
L279.725 344.386
L280.32 344.927
L280.915 311.623
L281.51 307.702
L282.106 306.748
L282.701 307.68
L283.296 310.232
L283.891 311.696
L284.486 314.155
L285.082 317.797
L286.272 323.262
L286.867 325.16
L287.462 326.257
L288.058 305.907
L289.248 298.075
L289.843 296.375
L290.438 298.089
L291.034 297.993
L291.629 298.025
L292.224 326.431
L292.819 310.973
L293.414 303.594
L294.01 300.222
L294.605 321.08
L295.2 321.425
L295.795 320.833
L296.39 319.183
L296.986 315.757
L297.581 309.474
L298.176 304.648
L298.771 300.819
L299.366 299.679
L299.962 297.234
L300.557 296.671
L301.152 298.204
L301.747 315.689
L302.342 320.11
L302.938 323.692
L303.533 326.486
L304.128 328.528
L304.723 329.847
L305.318 330.568
L305.914 304.766
L306.509 273.844
L307.104 252.977
L307.699 254.447
L310.08 262.312
L310.675 263.747
L311.27 264.866
L311.866 265.645
L312.461 266.054
L313.056 254.553
L316.627 265.453
L317.222 266.743
L317.818 267.745
L318.413 268.44
L319.008 268.803
L319.603 230.932
L320.198 227.238
L321.389 235.032
L322.579 241.144
L323.174 243.347
L323.77 244.988
L324.365 246.285
L324.96 246.957
L325.555 218.201
L327.341 150.393
L327.936 155.117
L328.531 158.245
L329.126 159.808
L329.722 264.053
L330.317 229.919
L331.507 205.131
L332.102 191.026
L332.698 183.304
L333.293 187.476
L333.888 189.573
L334.483 200.932
L335.078 164.951
L335.674 157.653
L336.269 148.08
L336.864 135.91
L337.459 120.341
L338.054 127.762
L338.65 131.284
L339.245 131.019
L339.84 126.885
L340.435 155.833
L341.626 134.622
L342.221 129.694
L342.816 137.193
L343.411 142.617
L344.006 146.405
L344.602 148.484
L345.197 153.739
L345.792 156.898
L346.387 158.111
L346.982 157.125
L347.578 163.542
L348.173 167.786
L348.768 169.909
L349.363 316.847
L349.958 317.083
L350.554 317.579
L351.744 316.252
L352.339 316.144
L354.72 317.589
L355.315 317.788
L355.91 316.519
L356.506 316.952
L360.672 323.019
L361.267 323.525
L361.862 323.804
L362.458 317.875
L363.648 319.434
L364.243 319.969
L366.029 322.793
L367.219 324.192
L367.814 324.73
L368.41 325.026
L369.005 320.068
L371.386 325.101
L372.576 326.734
L373.766 328.005
L374.362 328.426
L374.957 328.657
L375.552 325.231
L376.742 327.385
L377.933 329.068
L378.528 329.628
L379.123 329.937
L379.718 324.19
L381.504 327.497
L382.694 329.241
L383.29 329.996
L383.885 330.557
L384.48 330.862
L385.075 318.135
L386.861 318.644
L387.456 318.558
L388.051 318.595
L388.646 319.446
L391.027 327.855
L391.622 329.204
L392.813 330.611
L393.408 331.075
L394.003 331.329
L394.598 329.208
L395.789 330.826
L396.979 332.042
L397.574 332.428
L398.17 332.635
L398.765 317.428
L399.36 317.918
L401.146 320.186
L404.122 325.67
L405.312 327.48
L406.502 328.686
L407.098 329
L407.693 324.352
L409.478 326.117
L410.669 326.846
L411.264 327.011
L411.859 319.4
L412.454 319.901
L414.835 324.053
L416.026 325.609
L416.621 326.163
L417.216 326.497
L417.811 319.965
L419.597 321.428
L421.382 322.075
L421.978 322.175
L422.573 321.663
L423.763 322.908
L425.549 324.21
L426.144 324.503
L426.739 324.665
L427.334 323.477
L428.525 324.679
L429.12 325.089
L429.715 325.318
L430.31 315.302
L430.906 314.299
L431.501 313.827
L432.096 317.009
L433.286 317.44
L433.882 317.302
L435.072 316.857
L435.667 317.888
L436.262 319.208
L436.858 321.044
L437.453 322.053
L438.048 322.283
L440.429 323.881
L441.024 324.101
L441.619 323.423
L442.214 325.104
L445.786 330.288
L446.381 330.828
L446.976 331.177
L447.571 331.369
L448.166 330.847
L448.762 331.261
L449.357 331.49
L449.952 325.41
L452.333 330.838
L453.523 332.052
L454.118 332.482
L454.714 332.724
L455.309 331.212
L457.094 335.151
L458.285 337.225
L458.88 338
L459.475 338.556
L460.07 338.856
L460.666 329.32
L462.451 332.779
L463.642 334.666
L464.237 335.38
L464.832 335.896
L465.427 336.175
L466.022 316.558
L466.618 315.641
L467.213 314.96
L467.808 314.471
L468.403 314.368
L469.594 315.114
L471.974 317.09
L472.57 317.75
L473.165 318.242
L473.76 318.516
L474.355 316.134
L476.141 316.416
L477.331 316.774
L478.522 317.699
L480.902 319.699
L481.498 320.028
L482.093 320.213
L482.688 316.676
L483.878 317.036
L485.664 317.708
L486.259 317.825
L486.854 316.558
L488.045 319.123
L491.616 327.773
L492.806 330.606
L493.997 332.819
L494.592 333.63
L495.187 334.205
L495.782 334.513
L496.378 325.755
L497.568 326.879
L498.163 327.251
L498.758 327.455
L499.354 315.912
L499.949 316.243
L501.139 318.07
L502.33 320.503
L502.925 321.23
L504.115 321.763
L505.306 322.041
L505.901 321.53
L507.091 323.08
L507.686 323.612
L508.282 323.91
L508.877 317.452
L510.067 317.546
L510.662 317.033
L511.258 328.761
L511.853 337.144
L512.448 342.663
L513.043 345.429
L513.043 345.429" style="fill:none;stroke:#0000ff;stroke-linecap:square;stroke-width:4;"/>
   </g>
   <g id="line2d_3">
    <path clip-path="url(#p332b41defa)" d="
M72 287.741
L72.5952 287.759
L73.1904 288.984
L78.5472 288.863
L80.3328 292.745
L85.6896 292.711
L86.2848 294.014
L89.856 293.93
L95.2128 293.967
L104.736 293.927
L105.331 295.315
L107.117 295.312
L107.712 296.617
L117.83 296.614
L118.426 297.921
L124.973 297.991
L140.448 298
L141.043 299.209
L144.019 299.221
L144.614 300.492
L146.4 300.5
L146.995 301.771
L149.376 301.868
L154.138 301.929
L155.328 301.867
L161.875 302.02
L163.066 302.025
L163.661 303.001
L169.613 303.138
L170.208 303.14
L170.803 304.206
L176.16 304.411
L178.541 304.437
L179.136 305.376
L183.302 305.666
L188.659 305.693
L190.445 305.711
L191.04 306.487
L193.421 306.85
L198.182 307.027
L199.373 307.037
L199.968 306.877
L202.944 307.017
L207.706 307.096
L208.301 306.894
L210.682 306.928
L211.277 307.483
L212.467 309.464
L216.634 309.704
L219.014 309.747
L219.61 310.401
L223.776 310.658
L226.157 310.704
L226.752 311.283
L227.942 313.033
L229.728 313.065
L230.323 313.883
L233.299 315.884
L236.87 316.373
L240.442 316.629
L242.227 316.668
L242.822 316.169
L245.203 317.241
L248.774 317.764
L252.346 318.038
L254.131 318.08
L254.726 317.388
L257.107 317.908
L260.678 318.098
L261.274 318.105
L261.869 317.972
L265.44 318.205
L266.63 318.226
L267.226 314.316
L269.011 314.351
L272.582 316.529
L273.773 316.959
L277.344 317.305
L280.32 317.408
L280.915 317.089
L282.701 317.391
L286.272 317.619
L287.462 317.64
L288.058 317.377
L291.629 317.522
L292.224 316.458
L294.605 316.586
L296.986 317.031
L300.557 317.214
L301.152 317.221
L301.747 317.078
L305.318 317.22
L305.914 287.524
L307.104 287.329
L311.866 287.186
L312.461 287.183
L313.056 287.293
L317.818 287.123
L319.008 287.113
L319.603 287.343
L324.365 287.2
L324.96 287.197
L325.555 287.32
L329.126 287.253
L329.722 287.418
L338.054 287.212
L339.84 287.192
L340.435 287.289
L344.602 287.199
L345.792 287.247
L349.363 287.245
L349.958 286.743
L350.554 286.443
L352.339 286.328
L355.315 286.274
L356.506 286.299
L361.267 286.14
L364.243 286.012
L368.41 285.908
L369.005 285.973
L370.79 285.723
L374.957 285.616
L376.147 285.673
L379.123 285.616
L379.718 285.745
L384.48 285.609
L385.075 286.127
L386.861 285.954
L389.242 285.84
L392.218 285.647
L398.17 285.574
L398.765 286.545
L399.955 286.161
L403.526 285.816
L407.098 285.737
L408.288 285.794
L411.264 285.737
L411.859 286.045
L416.621 285.882
L422.573 285.769
L425.549 285.636
L429.715 285.625
L430.31 287.235
L431.501 287.225
L432.096 287.557
L433.286 287.161
L435.072 287.141
L437.453 286.597
L449.357 286.2
L449.952 286.375
L451.738 286.134
L460.07 285.968
L460.666 286.156
L465.427 286.024
L466.022 287.509
L470.784 287.263
L473.76 287.214
L474.355 287.304
L475.546 287.101
L478.522 286.902
L482.093 286.831
L482.688 286.96
L486.259 286.889
L486.854 287.093
L491.021 286.701
L495.782 286.576
L496.378 286.715
L498.758 286.68
L499.354 287.241
L502.925 286.987
L508.282 286.954
L508.877 287.114
L510.067 287.105
L510.662 287.725
L513.043 287.694
L513.043 287.694" style="fill:none;stroke:#ff0000;stroke-linecap:square;stroke-width:2;"/>
   </g>
   <g id="patch_3">
    <path d="
M72 43.2
L518.4 43.2" style="fill:none;stroke:#000000;stroke-linecap:square;stroke-linejoin:miter;"/>
   </g>
   <g id="patch_4">
    <path d="
M518.4 378
L518.4 43.2" style="fill:none;stroke:#000000;stroke-linecap:square;stroke-linejoin:miter;"/>
   </g>
   <g id="patch_5">
    <path d="
M72 378
L518.4 378" style="fill:none;stroke:#000000;stroke-linecap:square;stroke-linejoin:miter;"/>
   </g>
   <g id="patch_6">
    <path d="
M72 378
L72 43.2" style="fill:none;stroke:#000000;stroke-linecap:square;stroke-linejoin:miter;"/>
   </g>
   <g id="matplotlib.axis_1">
    <g id="xtick_1">
     <g id="line2d_4">
      <defs>
       <path d="
M0 0
L0 -4" id="m93b0483c22" style="stroke:#000000;stroke-width:0.5;"/>
      </defs>
      <g>
       <use style="stroke:#000000;stroke-width:0.5;" x="72.0" xlink:href="#m93b0483c22" y="378.0"/>
      </g>
     </g>
     <g id="line2d_5">
      <defs>
       <path d="
M0 0
L0 4" id="m741efc42ff" style="stroke:#000000;stroke-width:0.5;"/>
      </defs>
      <g>
       <use style="stroke:#000000;stroke-width:0.5;" x="72.0" xlink:href="#m741efc42ff" y="43.2"/>
      </g>
     </g>
     <g id="text_1">
      <!-- 0 -->
      <defs>
       <path d="
M31.7812 66.4062
Q24.1719 66.4062 20.3281 58.9062
Q16.5 51.4219 16.5 36.375
Q16.5 21.3906 20.3281 13.8906
Q24.1719 6.39062 31.7812 6.39062
Q39.4531 6.39062 43.2812 13.8906
Q47.125 21.3906 47.125 36.375
Q47.125 51.4219 43.2812 58.9062
Q39.4531 66.4062 31.7812 66.4062
M31.7812 74.2188
Q44.0469 74.2188 50.5156 64.5156
Q56.9844 54.8281 56.9844 36.375
Q56.9844 17.9688 50.5156 8.26562
Q44.0469 -1.42188 31.7812 -1.42188
Q19.5312 -1.42188 13.0625 8.26562
Q6.59375 17.9688 6.59375 36.375
Q6.59375 54.8281 13.0625 64.5156
Q19.5312 74.2188 31.7812 74.2188" id="BitstreamVeraSans-Roman-30"/>
      </defs>
      <g transform="translate(68.47265625 392.6378125)scale(0.14 -0.14)">
       <use xlink:href="#BitstreamVeraSans-Roman-30"/>
      </g>
     </g>
    </g>
    <g id="xtick_2">
     <g id="line2d_6">
      <g>
       <use style="stroke:#000000;stroke-width:0.5;" x="220.8" xlink:href="#m93b0483c22" y="378.0"/>
      </g>
     </g>
     <g id="line2d_7">
      <g>
       <use style="stroke:#000000;stroke-width:0.5;" x="220.8" xlink:href="#m741efc42ff" y="43.2"/>
      </g>
     </g>
     <g id="text_2">
      <!-- 250 -->
      <defs>
       <path d="
M19.1875 8.29688
L53.6094 8.29688
L53.6094 0
L7.32812 0
L7.32812 8.29688
Q12.9375 14.1094 22.625 23.8906
Q32.3281 33.6875 34.8125 36.5312
Q39.5469 41.8438 41.4219 45.5312
Q43.3125 49.2188 43.3125 52.7812
Q43.3125 58.5938 39.2344 62.25
Q35.1562 65.9219 28.6094 65.9219
Q23.9688 65.9219 18.8125 64.3125
Q13.6719 62.7031 7.8125 59.4219
L7.8125 69.3906
Q13.7656 71.7812 18.9375 73
Q24.125 74.2188 28.4219 74.2188
Q39.75 74.2188 46.4844 68.5469
Q53.2188 62.8906 53.2188 53.4219
Q53.2188 48.9219 51.5312 44.8906
Q49.8594 40.875 45.4062 35.4062
Q44.1875 33.9844 37.6406 27.2188
Q31.1094 20.4531 19.1875 8.29688" id="BitstreamVeraSans-Roman-32"/>
       <path d="
M10.7969 72.9062
L49.5156 72.9062
L49.5156 64.5938
L19.8281 64.5938
L19.8281 46.7344
Q21.9688 47.4688 24.1094 47.8281
Q26.2656 48.1875 28.4219 48.1875
Q40.625 48.1875 47.75 41.5
Q54.8906 34.8125 54.8906 23.3906
Q54.8906 11.625 47.5625 5.09375
Q40.2344 -1.42188 26.9062 -1.42188
Q22.3125 -1.42188 17.5469 -0.640625
Q12.7969 0.140625 7.71875 1.70312
L7.71875 11.625
Q12.1094 9.23438 16.7969 8.0625
Q21.4844 6.89062 26.7031 6.89062
Q35.1562 6.89062 40.0781 11.3281
Q45.0156 15.7656 45.0156 23.3906
Q45.0156 31 40.0781 35.4375
Q35.1562 39.8906 26.7031 39.8906
Q22.75 39.8906 18.8125 39.0156
Q14.8906 38.1406 10.7969 36.2812
z
" id="BitstreamVeraSans-Roman-35"/>
      </defs>
      <g transform="translate(208.4165625 392.6378125)scale(0.14 -0.14)">
       <use xlink:href="#BitstreamVeraSans-Roman-32"/>
       <use x="63.623046875" xlink:href="#BitstreamVeraSans-Roman-35"/>
       <use x="127.24609375" xlink:href="#BitstreamVeraSans-Roman-30"/>
      </g>
     </g>
    </g>
    <g id="xtick_3">
     <g id="line2d_8">
      <g>
       <use style="stroke:#000000;stroke-width:0.5;" x="369.6" xlink:href="#m93b0483c22" y="378.0"/>
      </g>
     </g>
     <g id="line2d_9">
      <g>
       <use style="stroke:#000000;stroke-width:0.5;" x="369.6" xlink:href="#m741efc42ff" y="43.2"/>
      </g>
     </g>
     <g id="text_3">
      <!-- 500 -->
      <g transform="translate(357.24390625 392.6378125)scale(0.14 -0.14)">
       <use xlink:href="#BitstreamVeraSans-Roman-35"/>
       <use x="63.623046875" xlink:href="#BitstreamVeraSans-Roman-30"/>
       <use x="127.24609375" xlink:href="#BitstreamVeraSans-Roman-30"/>
      </g>
     </g>
    </g>
    <g id="xtick_4">
     <g id="line2d_10">
      <g>
       <use style="stroke:#000000;stroke-width:0.5;" x="518.4" xlink:href="#m93b0483c22" y="378.0"/>
      </g>
     </g>
     <g id="line2d_11">
      <g>
       <use style="stroke:#000000;stroke-width:0.5;" x="518.4" xlink:href="#m741efc42ff" y="43.2"/>
      </g>
     </g>
     <g id="text_4">
      <!-- 750 -->
      <defs>
       <path d="
M8.20312 72.9062
L55.0781 72.9062
L55.0781 68.7031
L28.6094 0
L18.3125 0
L43.2188 64.5938
L8.20312 64.5938
z
" id="BitstreamVeraSans-Roman-37"/>
      </defs>
      <g transform="translate(506.0778125 392.6378125)scale(0.14 -0.14)">
       <use xlink:href="#BitstreamVeraSans-Roman-37"/>
       <use x="63.623046875" xlink:href="#BitstreamVeraSans-Roman-35"/>
       <use x="127.24609375" xlink:href="#BitstreamVeraSans-Roman-30"/>
      </g>
     </g>
    </g>
    <g id="text_5">
     <!-- compartment number -->
     <defs>
      <path d="
M32.9062 24.6094
Q27.4375 24.6094 24.6719 22.75
Q21.9219 20.9062 21.9219 17.2812
Q21.9219 13.9688 24.1406 12.0781
Q26.375 10.2031 30.3281 10.2031
Q35.25 10.2031 38.625 13.7344
Q42 17.2812 42 22.6094
L42 24.6094
z

M59.625 31.2031
L59.625 0
L42 0
L42 8.10938
Q38.4844 3.125 34.0781 0.84375
Q29.6875 -1.42188 23.3906 -1.42188
Q14.8906 -1.42188 9.59375 3.53125
Q4.29688 8.5 4.29688 16.4062
Q4.29688 26.0312 10.9062 30.5156
Q17.5312 35.0156 31.6875 35.0156
L42 35.0156
L42 36.375
Q42 40.5312 38.7188 42.4531
Q35.4531 44.3906 28.5156 44.3906
Q22.9062 44.3906 18.0625 43.2656
Q13.2344 42.1406 9.07812 39.8906
L9.07812 53.2188
Q14.7031 54.5938 20.3594 55.2969
Q26.0312 56 31.6875 56
Q46.4844 56 53.0469 50.1719
Q59.625 44.3438 59.625 31.2031" id="BitstreamVeraSans-Bold-61"/>
      <path id="BitstreamVeraSans-Bold-20"/>
      <path d="
M37.5 11.2812
Q43.1094 11.2812 46.0625 15.375
Q49.0312 19.4844 49.0312 27.2969
Q49.0312 35.1094 46.0625 39.2031
Q43.1094 43.3125 37.5 43.3125
Q31.8906 43.3125 28.875 39.1875
Q25.875 35.0625 25.875 27.2969
Q25.875 19.5312 28.875 15.4062
Q31.8906 11.2812 37.5 11.2812
M25.875 46.6875
Q29.5 51.4688 33.8906 53.7344
Q38.2812 56 44 56
Q54.1094 56 60.5938 47.9688
Q67.0938 39.9375 67.0938 27.2969
Q67.0938 14.6562 60.5938 6.60938
Q54.1094 -1.42188 44 -1.42188
Q38.2812 -1.42188 33.8906 0.84375
Q29.5 3.125 25.875 7.90625
L25.875 0
L8.40625 0
L8.40625 75.9844
L25.875 75.9844
z
" id="BitstreamVeraSans-Bold-62"/>
      <path d="
M52.5938 52.9844
L52.5938 38.7188
Q49.0312 41.1562 45.4375 42.3281
Q41.8438 43.5 37.9844 43.5
Q30.6719 43.5 26.5938 39.2344
Q22.5156 34.9688 22.5156 27.2969
Q22.5156 19.625 26.5938 15.3438
Q30.6719 11.0781 37.9844 11.0781
Q42.0938 11.0781 45.7812 12.2969
Q49.4688 13.5312 52.5938 15.9219
L52.5938 1.60938
Q48.4844 0.09375 44.2656 -0.65625
Q40.0469 -1.42188 35.7969 -1.42188
Q21 -1.42188 12.6406 6.17188
Q4.29688 13.7656 4.29688 27.2969
Q4.29688 40.8281 12.6406 48.4062
Q21 56 35.7969 56
Q40.0938 56 44.2656 55.25
Q48.4375 54.5 52.5938 52.9844" id="BitstreamVeraSans-Bold-63"/>
      <path d="
M49.0312 39.7969
Q46.7344 40.875 44.4531 41.375
Q42.1875 41.8906 39.8906 41.8906
Q33.1562 41.8906 29.5156 37.5625
Q25.875 33.25 25.875 25.2031
L25.875 0
L8.40625 0
L8.40625 54.6875
L25.875 54.6875
L25.875 45.7031
Q29.25 51.0781 33.6094 53.5312
Q37.9844 56 44.0938 56
Q44.9688 56 45.9844 55.9219
Q47.0156 55.8594 48.9688 55.6094
z
" id="BitstreamVeraSans-Bold-72"/>
      <path d="
M7.8125 21.2969
L7.8125 54.6875
L25.3906 54.6875
L25.3906 49.2188
Q25.3906 44.7812 25.3438 38.0625
Q25.2969 31.3438 25.2969 29.1094
Q25.2969 22.5156 25.6406 19.6094
Q25.9844 16.7031 26.8125 15.375
Q27.875 13.6719 29.6094 12.7344
Q31.3438 11.8125 33.5938 11.8125
Q39.0625 11.8125 42.1875 16.0156
Q45.3125 20.2188 45.3125 27.6875
L45.3125 54.6875
L62.7969 54.6875
L62.7969 0
L45.3125 0
L45.3125 7.90625
Q41.3594 3.125 36.9375 0.84375
Q32.5156 -1.42188 27.2031 -1.42188
Q17.7188 -1.42188 12.7656 4.39062
Q7.8125 10.2031 7.8125 21.2969" id="BitstreamVeraSans-Bold-75"/>
      <path d="
M27.4844 70.2188
L27.4844 54.6875
L45.5156 54.6875
L45.5156 42.1875
L27.4844 42.1875
L27.4844 19
Q27.4844 15.1875 29 13.8438
Q30.5156 12.5 35.0156 12.5
L44 12.5
L44 0
L29 0
Q18.6562 0 14.3281 4.3125
Q10.0156 8.64062 10.0156 19
L10.0156 42.1875
L1.3125 42.1875
L1.3125 54.6875
L10.0156 54.6875
L10.0156 70.2188
z
" id="BitstreamVeraSans-Bold-74"/>
      <path d="
M62.9844 27.4844
L62.9844 22.5156
L22.125 22.5156
Q22.75 16.3594 26.5625 13.2812
Q30.375 10.2031 37.2031 10.2031
Q42.7188 10.2031 48.5 11.8438
Q54.2969 13.4844 60.4062 16.7969
L60.4062 3.32812
Q54.2031 0.984375 48 -0.21875
Q41.7969 -1.42188 35.5938 -1.42188
Q20.75 -1.42188 12.5156 6.125
Q4.29688 13.6719 4.29688 27.2969
Q4.29688 40.6719 12.375 48.3281
Q20.4531 56 34.625 56
Q47.5156 56 55.25 48.2344
Q62.9844 40.4844 62.9844 27.4844
M45.0156 33.2969
Q45.0156 38.2812 42.1094 41.3281
Q39.2031 44.3906 34.5156 44.3906
Q29.4375 44.3906 26.2656 41.5312
Q23.0938 38.6719 22.3125 33.2969
z
" id="BitstreamVeraSans-Bold-65"/>
      <path d="
M25.875 7.90625
L25.875 -20.7969
L8.40625 -20.7969
L8.40625 54.6875
L25.875 54.6875
L25.875 46.6875
Q29.5 51.4688 33.8906 53.7344
Q38.2812 56 44 56
Q54.1094 56 60.5938 47.9688
Q67.0938 39.9375 67.0938 27.2969
Q67.0938 14.6562 60.5938 6.60938
Q54.1094 -1.42188 44 -1.42188
Q38.2812 -1.42188 33.8906 0.84375
Q29.5 3.125 25.875 7.90625
M37.5 43.3125
Q31.8906 43.3125 28.875 39.1875
Q25.875 35.0625 25.875 27.2969
Q25.875 19.5312 28.875 15.4062
Q31.8906 11.2812 37.5 11.2812
Q43.1094 11.2812 46.0625 15.375
Q49.0312 19.4844 49.0312 27.2969
Q49.0312 35.1094 46.0625 39.2031
Q43.1094 43.3125 37.5 43.3125" id="BitstreamVeraSans-Bold-70"/>
      <path d="
M34.4219 43.5
Q28.6094 43.5 25.5625 39.3281
Q22.5156 35.1562 22.5156 27.2969
Q22.5156 19.4375 25.5625 15.25
Q28.6094 11.0781 34.4219 11.0781
Q40.1406 11.0781 43.1562 15.25
Q46.1875 19.4375 46.1875 27.2969
Q46.1875 35.1562 43.1562 39.3281
Q40.1406 43.5 34.4219 43.5
M34.4219 56
Q48.5312 56 56.4688 48.375
Q64.4062 40.7656 64.4062 27.2969
Q64.4062 13.8125 56.4688 6.1875
Q48.5312 -1.42188 34.4219 -1.42188
Q20.2656 -1.42188 12.2812 6.1875
Q4.29688 13.8125 4.29688 27.2969
Q4.29688 40.7656 12.2812 48.375
Q20.2656 56 34.4219 56" id="BitstreamVeraSans-Bold-6f"/>
      <path d="
M59.0781 45.6094
Q62.4062 50.6875 66.9688 53.3438
Q71.5312 56 77 56
Q86.4219 56 91.3594 50.1875
Q96.2969 44.3906 96.2969 33.2969
L96.2969 0
L78.7188 0
L78.7188 28.5156
Q78.7656 29.1562 78.7812 29.8281
Q78.8125 30.5156 78.8125 31.7812
Q78.8125 37.5938 77.0938 40.2031
Q75.3906 42.8281 71.5781 42.8281
Q66.6094 42.8281 63.8906 38.7188
Q61.1875 34.625 61.0781 26.8594
L61.0781 0
L43.5 0
L43.5 28.5156
Q43.5 37.5938 41.9375 40.2031
Q40.375 42.8281 36.375 42.8281
Q31.3438 42.8281 28.6094 38.7031
Q25.875 34.5781 25.875 26.9062
L25.875 0
L8.29688 0
L8.29688 54.6875
L25.875 54.6875
L25.875 46.6875
Q29.1094 51.3125 33.2812 53.6562
Q37.4531 56 42.4844 56
Q48.1406 56 52.4844 53.2656
Q56.8438 50.5312 59.0781 45.6094" id="BitstreamVeraSans-Bold-6d"/>
      <path d="
M63.375 33.2969
L63.375 0
L45.7969 0
L45.7969 5.42188
L45.7969 25.4844
Q45.7969 32.5625 45.4844 35.25
Q45.1719 37.9375 44.3906 39.2031
Q43.3594 40.9219 41.5938 41.875
Q39.8438 42.8281 37.5938 42.8281
Q32.125 42.8281 29 38.5938
Q25.875 34.375 25.875 26.9062
L25.875 0
L8.40625 0
L8.40625 54.6875
L25.875 54.6875
L25.875 46.6875
Q29.8281 51.4688 34.2656 53.7344
Q38.7188 56 44.0938 56
Q53.5625 56 58.4688 50.1875
Q63.375 44.3906 63.375 33.2969" id="BitstreamVeraSans-Bold-6e"/>
     </defs>
     <g transform="translate(196.86375 412.706875)scale(0.16 -0.16)">
      <use xlink:href="#BitstreamVeraSans-Bold-63"/>
      <use x="59.27734375" xlink:href="#BitstreamVeraSans-Bold-6f"/>
      <use x="127.978515625" xlink:href="#BitstreamVeraSans-Bold-6d"/>
      <use x="232.177734375" xlink:href="#BitstreamVeraSans-Bold-70"/>
      <use x="303.759765625" xlink:href="#BitstreamVeraSans-Bold-61"/>
      <use x="371.240234375" xlink:href="#BitstreamVeraSans-Bold-72"/>
      <use x="420.556640625" xlink:href="#BitstreamVeraSans-Bold-74"/>
      <use x="468.359375" xlink:href="#BitstreamVeraSans-Bold-6d"/>
      <use x="572.55859375" xlink:href="#BitstreamVeraSans-Bold-65"/>
      <use x="640.380859375" xlink:href="#BitstreamVeraSans-Bold-6e"/>
      <use x="711.572265625" xlink:href="#BitstreamVeraSans-Bold-74"/>
      <use x="759.375" xlink:href="#BitstreamVeraSans-Bold-20"/>
      <use x="794.189453125" xlink:href="#BitstreamVeraSans-Bold-6e"/>
      <use x="865.380859375" xlink:href="#BitstreamVeraSans-Bold-75"/>
      <use x="936.572265625" xlink:href="#BitstreamVeraSans-Bold-6d"/>
      <use x="1040.77148438" xlink:href="#BitstreamVeraSans-Bold-62"/>
      <use x="1112.35351562" xlink:href="#BitstreamVeraSans-Bold-65"/>
      <use x="1180.17578125" xlink:href="#BitstreamVeraSans-Bold-72"/>
     </g>
    </g>
   </g>
   <g id="matplotlib.axis_2">
    <g id="ytick_1">
     <g id="line2d_12">
      <defs>
       <path d="
M0 0
L4 0" id="m728421d6d4" style="stroke:#000000;stroke-width:0.5;"/>
      </defs>
      <g>
       <use style="stroke:#000000;stroke-width:0.5;" x="72.0" xlink:href="#m728421d6d4" y="266.4"/>
      </g>
     </g>
     <g id="line2d_13">
      <defs>
       <path d="
M0 0
L-4 0" id="mcb0005524f" style="stroke:#000000;stroke-width:0.5;"/>
      </defs>
      <g>
       <use style="stroke:#000000;stroke-width:0.5;" x="518.4" xlink:href="#mcb0005524f" y="266.4"/>
      </g>
     </g>
     <g id="text_6">
      <!-- 0.05 -->
      <defs>
       <path d="
M10.6875 12.4062
L21 12.4062
L21 0
L10.6875 0
z
" id="BitstreamVeraSans-Roman-2e"/>
      </defs>
      <g transform="translate(38.9740625 270.263125)scale(0.14 -0.14)">
       <use xlink:href="#BitstreamVeraSans-Roman-30"/>
       <use x="63.623046875" xlink:href="#BitstreamVeraSans-Roman-2e"/>
       <use x="95.41015625" xlink:href="#BitstreamVeraSans-Roman-30"/>
       <use x="159.033203125" xlink:href="#BitstreamVeraSans-Roman-35"/>
      </g>
     </g>
    </g>
    <g id="ytick_2">
     <g id="line2d_14">
      <g>
       <use style="stroke:#000000;stroke-width:0.5;" x="72.0" xlink:href="#m728421d6d4" y="154.8"/>
      </g>
     </g>
     <g id="line2d_15">
      <g>
       <use style="stroke:#000000;stroke-width:0.5;" x="518.4" xlink:href="#mcb0005524f" y="154.8"/>
      </g>
     </g>
     <g id="text_7">
      <!-- 0.10 -->
      <defs>
       <path d="
M12.4062 8.29688
L28.5156 8.29688
L28.5156 63.9219
L10.9844 60.4062
L10.9844 69.3906
L28.4219 72.9062
L38.2812 72.9062
L38.2812 8.29688
L54.3906 8.29688
L54.3906 0
L12.4062 0
z
" id="BitstreamVeraSans-Roman-31"/>
      </defs>
      <g transform="translate(38.6809375 158.663125)scale(0.14 -0.14)">
       <use xlink:href="#BitstreamVeraSans-Roman-30"/>
       <use x="63.623046875" xlink:href="#BitstreamVeraSans-Roman-2e"/>
       <use x="95.41015625" xlink:href="#BitstreamVeraSans-Roman-31"/>
       <use x="159.033203125" xlink:href="#BitstreamVeraSans-Roman-30"/>
      </g>
     </g>
    </g>
    <g id="ytick_3">
     <g id="line2d_16">
      <g>
       <use style="stroke:#000000;stroke-width:0.5;" x="72.0" xlink:href="#m728421d6d4" y="43.2"/>
      </g>
     </g>
     <g id="line2d_17">
      <g>
       <use style="stroke:#000000;stroke-width:0.5;" x="518.4" xlink:href="#mcb0005524f" y="43.2"/>
      </g>
     </g>
     <g id="text_8">
      <!-- 0.15 -->
      <g transform="translate(38.9740625 47.063125)scale(0.14 -0.14)">
       <use xlink:href="#BitstreamVeraSans-Roman-30"/>
       <use x="63.623046875" xlink:href="#BitstreamVeraSans-Roman-2e"/>
       <use x="95.41015625" xlink:href="#BitstreamVeraSans-Roman-31"/>
       <use x="159.033203125" xlink:href="#BitstreamVeraSans-Roman-35"/>
      </g>
     </g>
    </g>
    <g id="text_9">
     <!-- normalized concentration -->
     <defs>
      <path d="
M5.71875 54.6875
L53.4219 54.6875
L53.4219 42.4844
L24.6094 12.5
L53.4219 12.5
L53.4219 0
L4.5 0
L4.5 12.2031
L33.2969 42.1875
L5.71875 42.1875
z
" id="BitstreamVeraSans-Bold-7a"/>
      <path d="
M8.40625 75.9844
L25.875 75.9844
L25.875 0
L8.40625 0
z
" id="BitstreamVeraSans-Bold-6c"/>
      <path d="
M8.40625 54.6875
L25.875 54.6875
L25.875 0
L8.40625 0
z

M8.40625 75.9844
L25.875 75.9844
L25.875 61.7188
L8.40625 61.7188
z
" id="BitstreamVeraSans-Bold-69"/>
      <path d="
M45.6094 46.6875
L45.6094 75.9844
L63.1875 75.9844
L63.1875 0
L45.6094 0
L45.6094 7.90625
Q42 3.07812 37.6406 0.828125
Q33.2969 -1.42188 27.5938 -1.42188
Q17.4844 -1.42188 10.9844 6.60938
Q4.5 14.6562 4.5 27.2969
Q4.5 39.9375 10.9844 47.9688
Q17.4844 56 27.5938 56
Q33.25 56 37.625 53.7344
Q42 51.4688 45.6094 46.6875
M34.0781 11.2812
Q39.7031 11.2812 42.6562 15.375
Q45.6094 19.4844 45.6094 27.2969
Q45.6094 35.1094 42.6562 39.2031
Q39.7031 43.3125 34.0781 43.3125
Q28.5156 43.3125 25.5625 39.2031
Q22.6094 35.1094 22.6094 27.2969
Q22.6094 19.4844 25.5625 15.375
Q28.5156 11.2812 34.0781 11.2812" id="BitstreamVeraSans-Bold-64"/>
     </defs>
     <g transform="translate(30.3534375 325.6475)rotate(-90.0)scale(0.16 -0.16)">
      <use xlink:href="#BitstreamVeraSans-Bold-6e"/>
      <use x="71.19140625" xlink:href="#BitstreamVeraSans-Bold-6f"/>
      <use x="139.892578125" xlink:href="#BitstreamVeraSans-Bold-72"/>
      <use x="189.208984375" xlink:href="#BitstreamVeraSans-Bold-6d"/>
      <use x="293.408203125" xlink:href="#BitstreamVeraSans-Bold-61"/>
      <use x="360.888671875" xlink:href="#BitstreamVeraSans-Bold-6c"/>
      <use x="395.166015625" xlink:href="#BitstreamVeraSans-Bold-69"/>
      <use x="429.443359375" xlink:href="#BitstreamVeraSans-Bold-7a"/>
      <use x="487.646484375" xlink:href="#BitstreamVeraSans-Bold-65"/>
      <use x="555.46875" xlink:href="#BitstreamVeraSans-Bold-64"/>
      <use x="627.05078125" xlink:href="#BitstreamVeraSans-Bold-20"/>
      <use x="661.865234375" xlink:href="#BitstreamVeraSans-Bold-63"/>
      <use x="721.142578125" xlink:href="#BitstreamVeraSans-Bold-6f"/>
      <use x="789.84375" xlink:href="#BitstreamVeraSans-Bold-6e"/>
      <use x="861.03515625" xlink:href="#BitstreamVeraSans-Bold-63"/>
      <use x="920.3125" xlink:href="#BitstreamVeraSans-Bold-65"/>
      <use x="988.134765625" xlink:href="#BitstreamVeraSans-Bold-6e"/>
      <use x="1059.32617188" xlink:href="#BitstreamVeraSans-Bold-74"/>
      <use x="1107.12890625" xlink:href="#BitstreamVeraSans-Bold-72"/>
      <use x="1156.4453125" xlink:href="#BitstreamVeraSans-Bold-61"/>
      <use x="1223.92578125" xlink:href="#BitstreamVeraSans-Bold-74"/>
      <use x="1271.72851562" xlink:href="#BitstreamVeraSans-Bold-69"/>
      <use x="1306.00585938" xlink:href="#BitstreamVeraSans-Bold-6f"/>
      <use x="1374.70703125" xlink:href="#BitstreamVeraSans-Bold-6e"/>
     </g>
    </g>
   </g>
  </g>
 </g>
 <defs>
  <clipPath id="p332b41defa">
   <rect height="334.8" width="446.4" x="72.0" y="43.2"/>
  </clipPath>
 </defs>
</svg>
