<?xml version="1.0" encoding="utf-8" standalone="no"?>
<!DOCTYPE svg PUBLIC "-//W3C//DTD SVG 1.1//EN"
  "http://www.w3.org/Graphics/SVG/1.1/DTD/svg11.dtd">
<!-- Created with matplotlib (http://matplotlib.org/) -->
<svg height="432pt" version="1.1" viewBox="0 0 576 432" width="576pt" xmlns="http://www.w3.org/2000/svg" xmlns:xlink="http://www.w3.org/1999/xlink">
 <defs>
  <style type="text/css">
*{stroke-linecap:butt;stroke-linejoin:round;}
  </style>
 </defs>
 <g id="figure_1">
  <g id="patch_1">
   <path d="
M0 432
L576 432
L576 0
L0 0
z
" style="fill:#ffffff;"/>
  </g>
  <g id="axes_1">
   <g id="patch_2">
    <path d="
M72 378
L518.4 378
L518.4 43.2
L72 43.2
z
" style="fill:none;"/>
   </g>
   <g id="line2d_1">
    <path clip-path="url(#p332b41defa)" d="
M72 337.111
L72.5952 336.839
L73.7856 331.286
L74.3808 330.559
L74.976 329.611
L75.5712 329.095
L76.7616 328.931
L78.5472 329.134
L79.1424 330.036
L80.3328 324.136
L80.928 322.65
L82.1184 322.481
L85.6896 322.479
L86.2848 321.132
L86.88 319.457
L87.4752 319.729
L89.2608 321.248
L90.4512 322.789
L91.6416 324.263
L93.4272 326.072
L94.0224 326.449
L94.6176 326.654
L95.2128 319.554
L98.784 319.8
L100.57 320.036
L101.165 319.742
L104.141 320.912
L104.736 321.008
L105.331 318.821
L105.926 318.175
L107.117 318.165
L107.712 314.598
L108.307 301.555
L108.902 273.175
L109.498 257.844
L110.093 254.92
L111.283 267.925
L112.474 277.063
L113.069 280.316
L113.664 282.743
L114.259 284.363
L114.854 285.18
L115.45 238.545
L116.045 215.809
L116.64 197.951
L117.235 194.196
L117.83 187.806
L118.426 310.022
L119.021 304.524
L120.211 263.362
L120.806 250.886
L121.402 244.605
L121.997 247.417
L122.592 249.107
L123.187 249.672
L123.782 249.096
L124.378 247.345
L124.973 244.367
L125.568 240.086
L126.163 242.868
L126.758 244.26
L127.354 225.382
L127.949 210.413
L128.544 207.886
L129.139 207.911
L129.734 210.188
L130.33 209.792
L130.925 206.655
L131.52 205.284
L132.115 205.533
L132.71 195.406
L133.306 190.36
L133.901 192.438
L134.496 192.406
L135.091 190.201
L135.686 194.17
L136.282 195.981
L136.877 195.674
L137.472 197.775
L138.067 192.053
L138.662 195.78
L139.258 197.357
L139.853 196.816
L140.448 198.929
L141.043 310.571
L141.638 311.741
L143.424 312.398
L144.019 312.511
L144.614 311.833
L145.805 312.099
L146.4 312.176
L146.995 312.081
L147.59 312.545
L150.566 318.182
L151.757 319.724
L152.947 320.741
L153.542 321.193
L154.138 321.435
L154.733 313.737
L155.923 317.097
L157.709 321.552
L158.899 324.931
L160.09 327.649
L161.28 329.669
L161.875 330.511
L162.47 331.099
L163.066 331.408
L163.661 312.463
L164.256 313.024
L167.232 317.056
L167.827 317.88
L168.422 319.072
L169.613 320.667
L170.208 321.195
L170.803 312.835
L171.398 313.107
L173.184 315.489
L174.97 317.897
L176.755 321.122
L177.35 322.178
L177.946 322.903
L178.541 323.279
L179.136 313.077
L179.731 313.493
L181.517 318.519
L182.707 321.879
L183.898 323.675
L185.088 324.893
L185.683 325.418
L186.278 325.692
L186.874 321.887
L188.064 323.713
L189.85 325.626
L190.445 325.909
L191.04 313.356
L191.635 313.709
L194.611 321.705
L195.802 323.949
L196.992 325.661
L198.182 326.857
L198.778 327.268
L199.373 327.482
L199.968 319.063
L201.754 323.917
L202.349 324.642
L203.539 324.793
L204.134 325.199
L205.325 327.49
L206.515 329.045
L207.11 329.518
L207.706 329.764
L208.301 320.073
L209.491 321.025
L210.086 321.315
L210.682 321.467
L211.277 313.425
L212.467 313.188
L213.062 313.271
L214.253 316.265
L215.443 319.113
L216.038 320.276
L217.229 322.99
L217.824 323.895
L218.419 324.546
L219.014 324.942
L219.61 312.998
L220.205 313.184
L221.99 317.637
L223.181 321.771
L223.776 323.344
L224.371 324.599
L224.966 325.534
L225.562 326.17
L226.157 326.622
L226.752 312.172
L227.942 309.503
L228.538 308.912
L229.133 310.086
L229.728 310.68
L230.323 308.388
L230.918 309.808
L232.704 322.16
L233.299 325.971
L233.894 328.329
L235.68 331.94
L236.87 335.281
L238.061 337.857
L240.442 341.809
L241.037 342.396
L241.632 342.775
L242.227 342.998
L242.822 328.937
L244.013 333.651
L245.203 337.434
L246.394 339.914
L247.584 343.007
L248.774 346.775
L249.965 349.845
L251.155 352.237
L252.346 353.918
L252.941 354.476
L253.536 354.873
L254.131 355.094
L254.726 338.667
L255.917 340.88
L257.107 343.17
L257.702 343.976
L258.893 345.069
L260.083 346.177
L260.678 346.523
L261.274 346.702
L261.869 343.918
L263.059 345.515
L264.25 346.669
L265.44 347.513
L266.035 347.762
L266.63 347.886
L267.226 306.46
L267.821 304.448
L268.416 305.644
L269.011 306.247
L269.606 302.07
L270.202 296.276
L271.392 278.672
L272.582 259.659
L273.773 232.562
L274.368 227.532
L276.749 269.312
L277.344 277.363
L277.939 283.69
L279.13 292.394
L279.725 295.05
L280.32 296.355
L280.915 217.013
L281.51 206.352
L282.106 202.907
L282.701 204.61
L283.296 210.395
L283.891 213.58
L284.486 219.316
L285.082 228.081
L286.272 241.326
L286.867 245.965
L287.462 248.656
L288.058 200.372
L289.248 180.25
L289.843 175.738
L290.438 179.76
L291.034 179.37
L291.629 179.373
L292.224 257.07
L292.819 220.65
L293.414 203.199
L294.01 195.211
L294.605 243.598
L295.2 243.529
L295.795 241.269
L296.39 236.486
L296.986 227.403
L297.581 211.768
L298.176 199.658
L298.771 189.998
L299.366 186.934
L299.962 180.745
L300.557 179.222
L301.152 182.894
L301.747 226.844
L302.342 237.253
L302.938 245.714
L303.533 252.329
L304.128 257.174
L304.723 260.309
L305.318 262.028
L305.914 327.346
L306.509 305.507
L307.104 290.69
L307.699 291.592
L310.08 296.752
L311.27 298.456
L311.866 298.978
L312.461 299.253
L313.056 291.638
L315.437 296.431
L316.627 298.688
L317.818 300.215
L318.413 300.68
L319.008 300.924
L319.603 275.361
L320.198 272.631
L321.389 277.836
L322.579 281.948
L323.174 283.433
L324.365 285.421
L324.96 285.878
L325.555 266.35
L327.341 218.589
L327.936 221.822
L328.531 223.964
L329.126 225.035
L329.722 298.769
L330.317 274.919
L331.507 257.452
L332.102 247.532
L332.698 242.078
L333.293 244.948
L333.888 246.391
L334.483 254.383
L335.078 229.048
L335.674 223.747
L336.269 216.863
L336.864 208.169
L337.459 197.101
L338.054 202.197
L338.65 204.587
L339.245 204.345
L339.84 201.409
L340.435 222.523
L341.626 207.321
L342.221 203.725
L342.816 208.878
L343.411 212.607
L344.006 215.216
L344.602 216.651
L345.197 220.88
L345.792 222.943
L346.387 223.669
L346.982 222.877
L347.578 227.31
L348.173 230.245
L348.768 231.713
L349.363 335.24
L349.958 334.445
L350.554 334.207
L351.149 333.538
L351.744 333.048
L352.339 332.924
L355.315 334.01
L355.91 333.212
L356.506 333.453
L358.886 335.858
L360.077 337.105
L361.267 337.949
L361.862 338.148
L362.458 333.967
L364.243 335.104
L366.029 337.064
L367.219 338.053
L367.814 338.439
L368.41 338.652
L369.005 335.102
L370.195 336.823
L370.79 337.717
L372.576 339.478
L373.766 340.386
L374.362 340.69
L374.957 340.857
L375.552 338.425
L377.338 340.632
L378.528 341.595
L379.123 341.821
L379.718 337.736
L381.504 340.071
L382.694 341.323
L383.885 342.281
L384.48 342.505
L385.075 333.984
L388.051 333.951
L388.646 334.498
L391.027 340.367
L391.622 341.346
L392.813 342.36
L393.408 342.696
L394.003 342.881
L394.598 341.337
L396.384 342.967
L397.574 343.635
L398.17 343.785
L398.765 334.304
L399.36 334.275
L399.955 334.464
L400.55 334.787
L401.146 335.287
L405.312 340.218
L406.502 341.088
L407.098 341.317
L407.693 337.984
L409.478 339.199
L410.669 339.711
L411.264 339.827
L411.859 334.75
L412.454 335.054
L415.43 338.551
L416.621 339.449
L417.216 339.691
L417.811 335.011
L420.192 335.928
L421.978 336.258
L422.573 335.89
L424.358 336.97
L426.144 337.752
L426.739 337.867
L427.334 337.045
L428.525 337.899
L429.12 338.193
L429.715 338.358
L430.31 334.138
L430.906 333.422
L431.501 333.085
L432.096 335.918
L433.286 335.458
L435.072 335.007
L435.667 335.418
L436.262 336.008
L436.858 336.985
L437.453 337.665
L438.048 337.79
L441.024 339.004
L441.619 338.427
L442.214 339.561
L446.381 343.369
L447.571 343.749
L448.166 343.384
L448.762 343.675
L449.357 343.838
L449.952 339.693
L451.142 341.386
L452.333 343.227
L453.523 344.082
L454.118 344.387
L454.714 344.56
L455.309 343.479
L457.094 346.271
L458.285 347.759
L458.88 348.319
L459.475 348.721
L460.07 348.939
L460.666 342.175
L463.046 345.318
L464.237 346.457
L464.832 346.828
L465.427 347.029
L466.022 335.488
L467.213 334.208
L467.808 333.79
L468.403 333.648
L469.594 334.048
L471.974 335.278
L473.165 336.052
L473.76 336.238
L474.355 334.773
L474.95 334.541
L476.736 334.428
L477.331 334.49
L478.522 335.042
L480.902 336.343
L482.093 336.69
L482.688 334.435
L483.878 334.612
L486.259 335.103
L486.854 334.635
L488.045 336.179
L490.426 339.797
L491.616 341.83
L492.806 343.796
L493.997 345.344
L494.592 345.914
L495.187 346.319
L495.782 346.536
L496.378 340.452
L497.568 341.217
L498.758 341.613
L499.354 334.485
L499.949 334.59
L500.544 335.05
L501.734 336.434
L502.33 337.235
L502.925 337.717
L504.71 338.164
L505.306 338.228
L505.901 337.93
L507.091 338.985
L507.686 339.35
L508.282 339.556
L508.877 335.302
L510.067 335.347
L510.662 340.193
L511.258 347.449
L511.853 352.64
L512.448 356.059
L513.043 357.774
L513.043 357.774" style="fill:none;stroke:#000000;stroke-linecap:square;stroke-width:8;"/>
   </g>
   <g id="line2d_2">
    <path clip-path="url(#p332b41defa)" d="
M72.5034 -1
L72.5952 69.5859
L73.1904 133.703
L73.7856 147.194
L74.976 187.073
L76.1664 220.931
L76.7616 234.2
L77.3568 244.433
L77.952 251.408
L78.5472 254.98
L79.1424 173.572
L80.3328 273.146
L80.928 286.376
L81.5232 291.505
L82.1184 295.01
L82.7136 296.784
L83.3088 295.182
L83.904 302.36
L84.4992 307.796
L85.0944 311.447
L85.6896 313.283
L86.2848 311.655
L86.88 330.386
L88.0704 344.514
L89.2608 355.067
L90.4512 362.72
L91.0464 365.577
L91.6416 367.872
L92.2368 369.68
L92.832 371.07
L93.4272 372.068
L94.0224 372.714
L94.6176 373.032
L95.2128 342.67
L95.808 345.379
L96.4032 347.174
L96.9984 348.073
L98.784 357.728
L99.3792 359.821
L99.9744 361.204
L100.57 361.892
L101.165 355.603
L101.76 359.192
L102.355 362.084
L102.95 364.33
L103.546 365.974
L104.141 367.051
L104.736 367.584
L105.331 332.067
L105.926 334.448
L106.522 336.366
L107.117 337.327
L107.712 348.937
L108.307 351.585
L108.902 351.288
L109.498 356.067
L110.093 359.347
L110.688 363.403
L111.283 366.549
L111.878 368.961
L112.474 370.78
L113.069 372.116
L113.664 373.05
L114.259 373.642
L114.854 373.929
L115.45 356.793
L116.045 356.943
L116.64 357.378
L117.235 358.728
L118.426 359.141
L119.021 363.229
L119.616 365.219
L120.211 368.545
L120.806 369.506
L123.187 374.354
L123.782 375.064
L124.973 375.99
L126.163 376.488
L126.758 376.603
L127.354 369.791
L127.949 370.658
L129.139 372.927
L129.734 373.793
L130.33 374.368
L130.925 374.687
L131.52 374.851
L132.115 370.985
L133.306 374.072
L133.901 374.9
L134.496 375.524
L135.686 376.387
L136.877 376.824
L137.472 376.918
L138.067 374.804
L138.662 375.391
L139.258 375.791
L140.448 376.172
L141.043 365.574
L141.638 367.38
L142.234 368.673
L142.829 369.63
L143.424 370.269
L144.019 370.586
L144.614 370.066
L145.21 370.819
L145.805 371.316
L146.4 371.565
L146.995 373.374
L147.59 374.763
L148.781 375.975
L149.971 376.759
L151.162 377.243
L152.352 377.523
L154.138 377.688
L154.733 375.428
L155.923 376.435
L157.114 377.067
L158.304 377.465
L160.09 377.775
L162.47 377.914
L163.066 377.923
L163.661 375.147
L164.851 376.183
L166.042 376.869
L167.232 377.306
L169.018 377.644
L170.208 377.719
L170.803 376.253
L171.994 376.903
L173.184 377.333
L174.97 377.698
L177.35 377.892
L178.541 377.917
L179.136 376.928
L180.922 377.54
L182.707 377.844
L185.683 377.952
L186.278 377.957
L186.874 377.844
L189.85 377.952
L190.445 377.957
L191.04 377.321
L192.826 377.796
L195.802 377.952
L199.373 377.988
L199.968 377.871
L202.944 377.971
L210.682 377.949
L211.277 377.501
L212.467 377.79
L216.038 377.963
L219.014 377.988
L219.61 377.867
L223.776 377.984
L241.632 378
L305.318 378
L305.914 172.412
L306.509 190.216
L307.104 203.289
L308.294 248.895
L309.485 282.955
L310.08 295.535
L310.675 305.348
L311.27 312.564
L311.866 317.311
L312.461 319.668
L313.056 228.556
L314.246 270.494
L315.437 301.511
L316.032 313.305
L316.627 322.765
L317.222 330.09
L317.818 335.445
L318.413 338.95
L319.008 340.685
L319.603 176.829
L320.198 198.335
L321.389 248.703
L321.984 267.684
L322.579 282.86
L323.174 294.579
L323.77 303.12
L324.365 308.805
L324.96 311.62
L325.555 189.509
L326.15 191.914
L326.746 193.427
L327.341 192.594
L327.936 210.899
L328.531 222.799
L329.126 228.661
L329.722 175.358
L330.317 146.978
L330.912 156.003
L331.507 162.544
L332.102 165.288
L332.698 171.871
L333.293 186.211
L333.888 193.27
L334.483 167.454
L335.078 162.564
L335.674 187.226
L336.269 207.208
L336.864 222.652
L337.459 233.293
L338.054 253.012
L338.65 266.312
L339.245 273.889
L339.84 276.039
L340.435 176.745
L341.626 211.956
L342.221 228.643
L342.816 248.458
L343.411 262.633
L344.006 271.888
L344.602 276.512
L345.197 201.2
L345.792 225.593
L346.387 244.411
L347.578 271.811
L348.173 280.66
L348.768 284.992
L349.363 149.712
L349.958 229.858
L350.554 281.798
L351.149 301.616
L352.339 317.825
L352.934 324.716
L353.53 330.248
L354.125 334.405
L354.72 337.219
L355.315 338.637
L355.91 311.835
L357.101 330.552
L358.291 344.633
L359.482 354.313
L360.077 357.677
L360.672 360.134
L361.267 361.742
L361.862 362.539
L362.458 311.749
L363.053 330.009
L364.243 343.276
L365.434 353.21
L366.029 356.845
L366.624 359.672
L367.219 361.749
L367.814 363.132
L368.41 363.82
L369.005 340.832
L370.195 359.482
L370.79 364.624
L371.981 368.883
L372.576 370.401
L373.171 371.566
L373.766 372.41
L374.362 372.959
L374.957 373.229
L375.552 366.992
L376.147 368.941
L376.742 370.484
L377.338 371.663
L377.933 372.515
L378.528 373.068
L379.123 373.341
L379.718 362.829
L380.909 367.849
L381.504 369.677
L382.099 371.118
L382.694 372.214
L383.29 373.015
L383.885 373.535
L384.48 373.79
L385.075 323.269
L386.266 343.304
L386.861 345.87
L387.456 347.527
L388.051 348.398
L388.646 349.751
L389.837 361.116
L391.027 369.295
L391.622 370.879
L392.218 372.027
L392.813 372.855
L393.408 373.391
L394.003 373.655
L394.598 371.073
L395.194 372.427
L395.789 373.486
L396.384 374.283
L396.979 374.851
L397.574 375.217
L398.17 375.396
L398.765 259.477
L399.955 315.868
L401.146 335.852
L402.336 352.362
L402.931 359.293
L404.122 365.211
L404.717 367.337
L405.312 368.967
L405.907 370.147
L406.502 370.92
L407.098 371.306
L407.693 362.479
L408.288 365.071
L408.883 367.15
L409.478 368.754
L410.074 369.922
L410.669 370.684
L411.264 371.061
L411.859 332.549
L413.05 345.4
L414.24 354.917
L414.835 358.4
L415.43 361.105
L416.026 363.084
L416.621 364.393
L417.216 365.05
L417.811 341.754
L419.002 357.679
L419.597 360.41
L420.192 362.546
L420.787 364.132
L421.382 365.181
L421.978 365.704
L422.573 361.998
L423.763 369.094
L424.358 370.579
L424.954 371.722
L425.549 372.556
L426.144 373.098
L426.739 373.366
L427.334 370.59
L427.93 371.755
L428.525 372.598
L429.12 373.147
L429.715 373.418
L430.31 150.358
L430.906 151.117
L431.501 151.669
L432.096 111.592
L433.286 200.48
L433.882 206.966
L434.477 210.875
L435.072 212.783
L435.667 235.99
L436.858 304.979
L437.453 315.449
L438.643 330.385
L439.238 335.877
L439.834 339.985
L440.429 342.747
L441.024 344.141
L441.619 327.476
L442.214 336.795
L443.405 350.607
L444.595 360.66
L445.786 367.747
L446.381 369.125
L446.976 370.013
L447.571 370.452
L448.166 369.129
L448.762 370.027
L449.357 370.47
L449.952 339.691
L451.142 359.403
L451.738 364.741
L452.333 366.994
L452.928 368.637
L453.523 369.837
L454.118 370.621
L454.714 371.01
L455.309 367.481
L455.904 369.67
L456.499 371.418
L457.094 372.79
L457.69 373.843
L458.285 374.627
L458.88 375.181
L459.475 375.534
L460.07 375.706
L460.666 362.937
L461.856 368.245
L462.451 370.144
L463.046 371.625
L463.642 372.741
L464.237 373.537
L464.832 374.05
L465.427 374.3
L466.022 155.436
L467.808 221.673
L468.998 260.335
L470.189 291.198
L471.379 313.286
L471.974 321.247
L472.57 327.319
L473.165 331.33
L473.76 333.332
L474.355 219.577
L474.95 258.884
L476.141 300.041
L476.736 318.532
L477.926 335.482
L479.117 347.849
L479.712 352.4
L480.307 355.948
L480.902 358.553
L481.498 360.264
L482.093 361.113
L482.688 326.745
L483.878 339.505
L484.474 344.091
L485.069 347.506
L485.664 349.772
L486.259 350.905
L486.854 276.062
L488.045 308.019
L489.235 333.381
L490.426 353.094
L491.616 361.885
L492.211 365.112
L492.806 367.666
L493.402 369.643
L493.997 371.127
L494.592 372.181
L495.187 372.858
L495.782 373.188
L496.378 356.899
L496.973 359.768
L497.568 361.873
L498.163 363.254
L498.758 363.94
L499.354 244.489
L500.544 292.188
L501.734 323.563
L502.33 336.703
L502.925 342.611
L503.52 347.023
L504.115 350.28
L504.71 352.427
L505.306 353.494
L505.901 342.767
L506.496 347.439
L507.091 350.874
L507.686 353.132
L508.282 354.257
L508.877 297.747
L509.472 301.163
L510.067 302.917
L510.361 -1
M512.461 -1
L513.043 30.3914
L513.043 30.3914" style="fill:none;stroke:#0000ff;stroke-linecap:square;stroke-width:4;"/>
   </g>
   <g id="line2d_3">
    <path clip-path="url(#p332b41defa)" d="
M72 158.928
L72.5952 214.797
L73.1904 213.21
L73.7856 193.369
L74.976 165.716
L75.5712 155.675
L76.1664 148.308
L76.7616 142.846
L77.3568 139.105
L77.952 136.819
L78.5472 135.777
L79.1424 229.231
L80.3328 270.747
L80.928 263.539
L81.5232 260.98
L82.1184 259.307
L82.7136 258.479
L83.3088 260.813
L83.904 258.852
L84.4992 257.509
L85.0944 256.681
L85.6896 256.291
L86.2848 299.965
L86.88 311.438
L89.856 336.437
L91.0464 344.787
L92.2368 351.219
L92.832 353.643
L93.4272 355.483
L94.0224 356.721
L94.6176 357.344
L95.2128 319.054
L95.808 319.581
L96.4032 319.945
L96.9984 320.136
L97.5936 326.015
L98.784 330.727
L99.3792 332.419
L99.9744 333.584
L100.57 334.178
L101.165 330.157
L102.355 337.226
L102.95 339.945
L103.546 342.038
L104.141 343.46
L104.736 344.18
L105.331 318.16
L105.926 317.122
L106.522 316.628
L107.117 316.38
L107.712 336.947
L108.307 340.148
L108.902 340.272
L111.878 357.815
L112.474 360.284
L113.069 362.224
L113.664 363.658
L114.259 364.605
L114.854 365.076
L115.45 343.351
L116.045 342.091
L116.64 341.268
L117.235 342.011
L117.83 341.768
L118.426 349.327
L119.021 354.907
L119.616 358.584
L120.211 362.965
L120.806 363.95
L121.402 365.311
L122.592 368.612
L123.782 370.96
L124.378 371.808
L124.973 372.447
L126.163 373.306
L126.758 373.517
L127.354 364.659
L127.949 365.39
L129.139 367.802
L129.734 368.833
L130.33 369.529
L130.925 369.899
L131.52 370.094
L132.115 366.178
L133.306 370.184
L134.496 372.322
L135.686 373.738
L136.282 374.219
L137.472 374.689
L138.067 371.135
L138.662 371.947
L139.258 372.518
L140.448 373.082
L141.043 356.358
L141.638 357.409
L142.829 358.803
L143.424 359.237
L144.019 359.46
L144.614 362.5
L145.805 363.169
L146.4 363.31
L146.995 368.009
L147.59 370.214
L148.781 372.292
L149.971 373.905
L151.162 375.079
L152.352 375.855
L153.542 376.274
L154.138 376.358
L154.733 371.316
L155.923 373.224
L157.114 374.678
L158.304 375.766
L159.494 376.529
L160.685 377.028
L161.875 377.319
L163.066 377.437
L163.661 371.245
L164.851 372.997
L166.042 374.377
L167.232 375.401
L168.422 376.091
L169.613 376.466
L170.208 376.542
L170.803 373.492
L171.994 374.743
L173.184 375.719
L174.374 376.443
L175.565 376.951
L176.755 377.277
L178.541 377.483
L179.136 375.012
L180.922 376.43
L182.112 377.149
L183.898 377.534
L185.683 377.703
L186.278 377.721
L186.874 377.308
L188.659 377.61
L190.445 377.721
L191.04 375.97
L192.826 377.238
L194.611 377.6
L196.992 377.838
L199.373 377.912
L199.968 377.465
L201.754 377.78
L206.515 377.929
L207.706 377.943
L208.301 377.552
L210.682 377.715
L211.277 376.433
L212.467 377.25
L214.848 377.679
L217.229 377.869
L219.014 377.912
L219.61 377.487
L221.99 377.789
L224.966 377.933
L226.157 377.947
L226.752 377.611
L228.538 377.84
L238.061 377.998
L305.318 378
L305.914 235.981
L306.509 227.967
L307.104 222.463
L308.294 232.363
L310.08 247.709
L310.675 251.735
L311.27 254.913
L311.866 257.115
L312.461 258.247
L313.056 229.869
L316.032 268.02
L317.222 279.179
L317.818 283.112
L318.413 285.799
L319.008 287.166
L319.603 204.306
L320.198 206.716
L321.984 229.485
L323.174 240.938
L323.77 244.966
L324.365 247.829
L324.96 249.293
L325.555 198.091
L327.341 160.505
L327.936 165.83
L328.531 169.441
L329.126 171.268
L329.722 223.08
L330.317 193.543
L332.102 155.509
L332.698 148.071
L333.293 150.475
L333.888 151.712
L334.483 204.131
L335.078 190.825
L335.674 195.313
L336.269 198.422
L336.864 199.796
L337.459 198.828
L338.054 208.394
L338.65 214.681
L339.245 217.715
L339.84 217.42
L340.435 191.728
L341.626 194.501
L342.221 198.154
L342.816 207.232
L343.411 214.008
L344.006 218.641
L344.602 221.055
L345.197 197.499
L345.792 205.702
L346.387 212.1
L346.982 216.437
L347.578 223.41
L348.173 228.062
L348.768 230.393
L349.363 230.06
L349.958 258.725
L350.554 277.236
L351.149 278.956
L351.744 277.758
L352.339 277.38
L352.934 277.662
L354.72 279.186
L355.315 279.47
L355.91 282.404
L357.101 291.744
L358.886 306.321
L360.077 314.08
L360.672 316.871
L361.267 318.796
L361.862 319.782
L362.458 294.417
L363.053 306.752
L366.624 324.323
L367.219 326.229
L367.814 327.577
L368.41 328.271
L369.005 316.906
L370.195 337.295
L370.79 343.722
L371.981 349.597
L373.171 353.91
L373.766 355.395
L374.362 356.399
L374.957 356.907
L375.552 346.845
L376.742 352.05
L377.338 354.018
L377.933 355.522
L378.528 356.54
L379.123 357.056
L379.718 341.101
L380.909 347.794
L382.099 353.026
L382.694 354.994
L383.29 356.512
L383.885 357.539
L384.48 358.058
L385.075 300.264
L386.266 313.052
L387.456 312.691
L388.051 312.651
L390.432 342.073
L391.027 348.683
L391.622 351.39
L392.218 353.533
L392.813 355.173
L393.408 356.282
L394.003 356.843
L394.598 352.265
L395.789 357.861
L396.384 359.925
L396.979 361.48
L397.574 362.52
L398.17 363.042
L398.765 271.063
L399.955 299.77
L401.146 312.3
L402.931 333.285
L404.122 339.973
L405.312 345.092
L405.907 346.886
L406.502 348.118
L407.098 348.75
L407.693 336.734
L408.883 342.584
L409.478 344.858
L410.074 346.617
L410.669 347.817
L411.264 348.425
L411.859 309.569
L413.05 315.263
L414.835 324.107
L415.43 326.47
L416.026 328.346
L416.621 329.665
L417.216 330.355
L417.811 317.203
L419.002 332.763
L420.192 335.972
L420.787 337.148
L421.382 337.967
L422.573 338.724
L423.763 349.794
L424.954 354.342
L425.549 355.908
L426.144 356.965
L426.739 357.498
L427.334 352.306
L427.93 354.382
L428.525 355.966
L429.12 357.036
L429.715 357.576
L430.31 218.927
L430.906 211.209
L431.501 207.281
L432.096 210.596
L432.691 210.261
L433.286 212.877
L433.882 203.067
L434.477 196.129
L435.072 192.564
L435.667 228.066
L436.858 266.198
L438.048 268.284
L439.834 272.836
L440.429 273.962
L441.024 274.582
L441.619 286.943
L444 317.094
L445.19 330.544
L445.786 336.353
L446.381 338.927
L446.976 340.664
L447.571 341.544
L448.166 338.931
L448.762 340.684
L449.357 341.573
L449.952 300.882
L451.142 328.099
L451.738 336.479
L452.333 339.614
L452.928 342.116
L453.523 344.058
L454.118 345.386
L454.714 346.062
L455.309 341.611
L456.499 350.269
L457.69 356.701
L458.285 359.048
L458.88 360.809
L459.475 361.984
L460.07 362.573
L460.666 333.313
L461.856 342.527
L463.046 349.649
L463.642 352.307
L464.237 354.325
L464.832 355.683
L465.427 356.366
L466.022 220.657
L466.618 213.997
L467.213 209.687
L467.808 207.548
L468.403 207.565
L468.998 209.49
L469.594 212.623
L471.379 225.148
L472.57 232.673
L473.165 235.183
L473.76 236.501
L474.355 235.337
L474.95 248.695
L476.141 266.003
L476.736 275.622
L479.117 299.383
L480.307 308.357
L480.902 311.552
L481.498 313.745
L482.093 314.864
L482.688 279.263
L483.878 286.228
L484.474 289.179
L485.069 291.552
L485.664 293.218
L486.259 294.08
L486.854 255.308
L488.045 272.811
L490.426 313.189
L491.616 326.239
L492.806 336.953
L493.997 344.665
L494.592 347.287
L495.187 349.051
L495.782 349.938
L496.378 316.574
L496.973 319.363
L497.568 321.562
L498.163 323.082
L498.758 323.862
L499.354 238.568
L499.949 243.63
L500.544 250.139
L502.33 279.693
L502.925 284.486
L503.52 288.361
L504.115 291.416
L504.71 293.526
L505.306 294.605
L505.901 284.624
L506.496 288.781
L507.091 292.066
L507.686 294.345
L508.282 295.518
L508.877 248.161
L509.472 246.645
L510.067 245.91
L510.662 115.005
L511.258 91.435
L511.853 73.7648
L512.448 62.2648
L513.043 56.6761
L513.043 56.6761" style="fill:none;stroke:#ff0000;stroke-linecap:square;stroke-width:2;"/>
   </g>
   <g id="patch_3">
    <path d="
M72 43.2
L518.4 43.2" style="fill:none;stroke:#000000;stroke-linecap:square;stroke-linejoin:miter;"/>
   </g>
   <g id="patch_4">
    <path d="
M518.4 378
L518.4 43.2" style="fill:none;stroke:#000000;stroke-linecap:square;stroke-linejoin:miter;"/>
   </g>
   <g id="patch_5">
    <path d="
M72 378
L518.4 378" style="fill:none;stroke:#000000;stroke-linecap:square;stroke-linejoin:miter;"/>
   </g>
   <g id="patch_6">
    <path d="
M72 378
L72 43.2" style="fill:none;stroke:#000000;stroke-linecap:square;stroke-linejoin:miter;"/>
   </g>
   <g id="matplotlib.axis_1">
    <g id="xtick_1">
     <g id="line2d_4">
      <defs>
       <path d="
M0 0
L0 -4" id="m93b0483c22" style="stroke:#000000;stroke-width:0.5;"/>
      </defs>
      <g>
       <use style="stroke:#000000;stroke-width:0.5;" x="72.0" xlink:href="#m93b0483c22" y="378.0"/>
      </g>
     </g>
     <g id="line2d_5">
      <defs>
       <path d="
M0 0
L0 4" id="m741efc42ff" style="stroke:#000000;stroke-width:0.5;"/>
      </defs>
      <g>
       <use style="stroke:#000000;stroke-width:0.5;" x="72.0" xlink:href="#m741efc42ff" y="43.2"/>
      </g>
     </g>
     <g id="text_1">
      <!-- 0 -->
      <defs>
       <path d="
M31.7812 66.4062
Q24.1719 66.4062 20.3281 58.9062
Q16.5 51.4219 16.5 36.375
Q16.5 21.3906 20.3281 13.8906
Q24.1719 6.39062 31.7812 6.39062
Q39.4531 6.39062 43.2812 13.8906
Q47.125 21.3906 47.125 36.375
Q47.125 51.4219 43.2812 58.9062
Q39.4531 66.4062 31.7812 66.4062
M31.7812 74.2188
Q44.0469 74.2188 50.5156 64.5156
Q56.9844 54.8281 56.9844 36.375
Q56.9844 17.9688 50.5156 8.26562
Q44.0469 -1.42188 31.7812 -1.42188
Q19.5312 -1.42188 13.0625 8.26562
Q6.59375 17.9688 6.59375 36.375
Q6.59375 54.8281 13.0625 64.5156
Q19.5312 74.2188 31.7812 74.2188" id="BitstreamVeraSans-Roman-30"/>
      </defs>
      <g transform="translate(68.47265625 392.6378125)scale(0.14 -0.14)">
       <use xlink:href="#BitstreamVeraSans-Roman-30"/>
      </g>
     </g>
    </g>
    <g id="xtick_2">
     <g id="line2d_6">
      <g>
       <use style="stroke:#000000;stroke-width:0.5;" x="220.8" xlink:href="#m93b0483c22" y="378.0"/>
      </g>
     </g>
     <g id="line2d_7">
      <g>
       <use style="stroke:#000000;stroke-width:0.5;" x="220.8" xlink:href="#m741efc42ff" y="43.2"/>
      </g>
     </g>
     <g id="text_2">
      <!-- 250 -->
      <defs>
       <path d="
M19.1875 8.29688
L53.6094 8.29688
L53.6094 0
L7.32812 0
L7.32812 8.29688
Q12.9375 14.1094 22.625 23.8906
Q32.3281 33.6875 34.8125 36.5312
Q39.5469 41.8438 41.4219 45.5312
Q43.3125 49.2188 43.3125 52.7812
Q43.3125 58.5938 39.2344 62.25
Q35.1562 65.9219 28.6094 65.9219
Q23.9688 65.9219 18.8125 64.3125
Q13.6719 62.7031 7.8125 59.4219
L7.8125 69.3906
Q13.7656 71.7812 18.9375 73
Q24.125 74.2188 28.4219 74.2188
Q39.75 74.2188 46.4844 68.5469
Q53.2188 62.8906 53.2188 53.4219
Q53.2188 48.9219 51.5312 44.8906
Q49.8594 40.875 45.4062 35.4062
Q44.1875 33.9844 37.6406 27.2188
Q31.1094 20.4531 19.1875 8.29688" id="BitstreamVeraSans-Roman-32"/>
       <path d="
M10.7969 72.9062
L49.5156 72.9062
L49.5156 64.5938
L19.8281 64.5938
L19.8281 46.7344
Q21.9688 47.4688 24.1094 47.8281
Q26.2656 48.1875 28.4219 48.1875
Q40.625 48.1875 47.75 41.5
Q54.8906 34.8125 54.8906 23.3906
Q54.8906 11.625 47.5625 5.09375
Q40.2344 -1.42188 26.9062 -1.42188
Q22.3125 -1.42188 17.5469 -0.640625
Q12.7969 0.140625 7.71875 1.70312
L7.71875 11.625
Q12.1094 9.23438 16.7969 8.0625
Q21.4844 6.89062 26.7031 6.89062
Q35.1562 6.89062 40.0781 11.3281
Q45.0156 15.7656 45.0156 23.3906
Q45.0156 31 40.0781 35.4375
Q35.1562 39.8906 26.7031 39.8906
Q22.75 39.8906 18.8125 39.0156
Q14.8906 38.1406 10.7969 36.2812
z
" id="BitstreamVeraSans-Roman-35"/>
      </defs>
      <g transform="translate(208.4165625 392.6378125)scale(0.14 -0.14)">
       <use xlink:href="#BitstreamVeraSans-Roman-32"/>
       <use x="63.623046875" xlink:href="#BitstreamVeraSans-Roman-35"/>
       <use x="127.24609375" xlink:href="#BitstreamVeraSans-Roman-30"/>
      </g>
     </g>
    </g>
    <g id="xtick_3">
     <g id="line2d_8">
      <g>
       <use style="stroke:#000000;stroke-width:0.5;" x="369.6" xlink:href="#m93b0483c22" y="378.0"/>
      </g>
     </g>
     <g id="line2d_9">
      <g>
       <use style="stroke:#000000;stroke-width:0.5;" x="369.6" xlink:href="#m741efc42ff" y="43.2"/>
      </g>
     </g>
     <g id="text_3">
      <!-- 500 -->
      <g transform="translate(357.24390625 392.6378125)scale(0.14 -0.14)">
       <use xlink:href="#BitstreamVeraSans-Roman-35"/>
       <use x="63.623046875" xlink:href="#BitstreamVeraSans-Roman-30"/>
       <use x="127.24609375" xlink:href="#BitstreamVeraSans-Roman-30"/>
      </g>
     </g>
    </g>
    <g id="xtick_4">
     <g id="line2d_10">
      <g>
       <use style="stroke:#000000;stroke-width:0.5;" x="518.4" xlink:href="#m93b0483c22" y="378.0"/>
      </g>
     </g>
     <g id="line2d_11">
      <g>
       <use style="stroke:#000000;stroke-width:0.5;" x="518.4" xlink:href="#m741efc42ff" y="43.2"/>
      </g>
     </g>
     <g id="text_4">
      <!-- 750 -->
      <defs>
       <path d="
M8.20312 72.9062
L55.0781 72.9062
L55.0781 68.7031
L28.6094 0
L18.3125 0
L43.2188 64.5938
L8.20312 64.5938
z
" id="BitstreamVeraSans-Roman-37"/>
      </defs>
      <g transform="translate(506.0778125 392.6378125)scale(0.14 -0.14)">
       <use xlink:href="#BitstreamVeraSans-Roman-37"/>
       <use x="63.623046875" xlink:href="#BitstreamVeraSans-Roman-35"/>
       <use x="127.24609375" xlink:href="#BitstreamVeraSans-Roman-30"/>
      </g>
     </g>
    </g>
    <g id="text_5">
     <!-- compartment number -->
     <defs>
      <path d="
M32.9062 24.6094
Q27.4375 24.6094 24.6719 22.75
Q21.9219 20.9062 21.9219 17.2812
Q21.9219 13.9688 24.1406 12.0781
Q26.375 10.2031 30.3281 10.2031
Q35.25 10.2031 38.625 13.7344
Q42 17.2812 42 22.6094
L42 24.6094
z

M59.625 31.2031
L59.625 0
L42 0
L42 8.10938
Q38.4844 3.125 34.0781 0.84375
Q29.6875 -1.42188 23.3906 -1.42188
Q14.8906 -1.42188 9.59375 3.53125
Q4.29688 8.5 4.29688 16.4062
Q4.29688 26.0312 10.9062 30.5156
Q17.5312 35.0156 31.6875 35.0156
L42 35.0156
L42 36.375
Q42 40.5312 38.7188 42.4531
Q35.4531 44.3906 28.5156 44.3906
Q22.9062 44.3906 18.0625 43.2656
Q13.2344 42.1406 9.07812 39.8906
L9.07812 53.2188
Q14.7031 54.5938 20.3594 55.2969
Q26.0312 56 31.6875 56
Q46.4844 56 53.0469 50.1719
Q59.625 44.3438 59.625 31.2031" id="BitstreamVeraSans-Bold-61"/>
      <path id="BitstreamVeraSans-Bold-20"/>
      <path d="
M37.5 11.2812
Q43.1094 11.2812 46.0625 15.375
Q49.0312 19.4844 49.0312 27.2969
Q49.0312 35.1094 46.0625 39.2031
Q43.1094 43.3125 37.5 43.3125
Q31.8906 43.3125 28.875 39.1875
Q25.875 35.0625 25.875 27.2969
Q25.875 19.5312 28.875 15.4062
Q31.8906 11.2812 37.5 11.2812
M25.875 46.6875
Q29.5 51.4688 33.8906 53.7344
Q38.2812 56 44 56
Q54.1094 56 60.5938 47.9688
Q67.0938 39.9375 67.0938 27.2969
Q67.0938 14.6562 60.5938 6.60938
Q54.1094 -1.42188 44 -1.42188
Q38.2812 -1.42188 33.8906 0.84375
Q29.5 3.125 25.875 7.90625
L25.875 0
L8.40625 0
L8.40625 75.9844
L25.875 75.9844
z
" id="BitstreamVeraSans-Bold-62"/>
      <path d="
M52.5938 52.9844
L52.5938 38.7188
Q49.0312 41.1562 45.4375 42.3281
Q41.8438 43.5 37.9844 43.5
Q30.6719 43.5 26.5938 39.2344
Q22.5156 34.9688 22.5156 27.2969
Q22.5156 19.625 26.5938 15.3438
Q30.6719 11.0781 37.9844 11.0781
Q42.0938 11.0781 45.7812 12.2969
Q49.4688 13.5312 52.5938 15.9219
L52.5938 1.60938
Q48.4844 0.09375 44.2656 -0.65625
Q40.0469 -1.42188 35.7969 -1.42188
Q21 -1.42188 12.6406 6.17188
Q4.29688 13.7656 4.29688 27.2969
Q4.29688 40.8281 12.6406 48.4062
Q21 56 35.7969 56
Q40.0938 56 44.2656 55.25
Q48.4375 54.5 52.5938 52.9844" id="BitstreamVeraSans-Bold-63"/>
      <path d="
M49.0312 39.7969
Q46.7344 40.875 44.4531 41.375
Q42.1875 41.8906 39.8906 41.8906
Q33.1562 41.8906 29.5156 37.5625
Q25.875 33.25 25.875 25.2031
L25.875 0
L8.40625 0
L8.40625 54.6875
L25.875 54.6875
L25.875 45.7031
Q29.25 51.0781 33.6094 53.5312
Q37.9844 56 44.0938 56
Q44.9688 56 45.9844 55.9219
Q47.0156 55.8594 48.9688 55.6094
z
" id="BitstreamVeraSans-Bold-72"/>
      <path d="
M7.8125 21.2969
L7.8125 54.6875
L25.3906 54.6875
L25.3906 49.2188
Q25.3906 44.7812 25.3438 38.0625
Q25.2969 31.3438 25.2969 29.1094
Q25.2969 22.5156 25.6406 19.6094
Q25.9844 16.7031 26.8125 15.375
Q27.875 13.6719 29.6094 12.7344
Q31.3438 11.8125 33.5938 11.8125
Q39.0625 11.8125 42.1875 16.0156
Q45.3125 20.2188 45.3125 27.6875
L45.3125 54.6875
L62.7969 54.6875
L62.7969 0
L45.3125 0
L45.3125 7.90625
Q41.3594 3.125 36.9375 0.84375
Q32.5156 -1.42188 27.2031 -1.42188
Q17.7188 -1.42188 12.7656 4.39062
Q7.8125 10.2031 7.8125 21.2969" id="BitstreamVeraSans-Bold-75"/>
      <path d="
M27.4844 70.2188
L27.4844 54.6875
L45.5156 54.6875
L45.5156 42.1875
L27.4844 42.1875
L27.4844 19
Q27.4844 15.1875 29 13.8438
Q30.5156 12.5 35.0156 12.5
L44 12.5
L44 0
L29 0
Q18.6562 0 14.3281 4.3125
Q10.0156 8.64062 10.0156 19
L10.0156 42.1875
L1.3125 42.1875
L1.3125 54.6875
L10.0156 54.6875
L10.0156 70.2188
z
" id="BitstreamVeraSans-Bold-74"/>
      <path d="
M62.9844 27.4844
L62.9844 22.5156
L22.125 22.5156
Q22.75 16.3594 26.5625 13.2812
Q30.375 10.2031 37.2031 10.2031
Q42.7188 10.2031 48.5 11.8438
Q54.2969 13.4844 60.4062 16.7969
L60.4062 3.32812
Q54.2031 0.984375 48 -0.21875
Q41.7969 -1.42188 35.5938 -1.42188
Q20.75 -1.42188 12.5156 6.125
Q4.29688 13.6719 4.29688 27.2969
Q4.29688 40.6719 12.375 48.3281
Q20.4531 56 34.625 56
Q47.5156 56 55.25 48.2344
Q62.9844 40.4844 62.9844 27.4844
M45.0156 33.2969
Q45.0156 38.2812 42.1094 41.3281
Q39.2031 44.3906 34.5156 44.3906
Q29.4375 44.3906 26.2656 41.5312
Q23.0938 38.6719 22.3125 33.2969
z
" id="BitstreamVeraSans-Bold-65"/>
      <path d="
M25.875 7.90625
L25.875 -20.7969
L8.40625 -20.7969
L8.40625 54.6875
L25.875 54.6875
L25.875 46.6875
Q29.5 51.4688 33.8906 53.7344
Q38.2812 56 44 56
Q54.1094 56 60.5938 47.9688
Q67.0938 39.9375 67.0938 27.2969
Q67.0938 14.6562 60.5938 6.60938
Q54.1094 -1.42188 44 -1.42188
Q38.2812 -1.42188 33.8906 0.84375
Q29.5 3.125 25.875 7.90625
M37.5 43.3125
Q31.8906 43.3125 28.875 39.1875
Q25.875 35.0625 25.875 27.2969
Q25.875 19.5312 28.875 15.4062
Q31.8906 11.2812 37.5 11.2812
Q43.1094 11.2812 46.0625 15.375
Q49.0312 19.4844 49.0312 27.2969
Q49.0312 35.1094 46.0625 39.2031
Q43.1094 43.3125 37.5 43.3125" id="BitstreamVeraSans-Bold-70"/>
      <path d="
M34.4219 43.5
Q28.6094 43.5 25.5625 39.3281
Q22.5156 35.1562 22.5156 27.2969
Q22.5156 19.4375 25.5625 15.25
Q28.6094 11.0781 34.4219 11.0781
Q40.1406 11.0781 43.1562 15.25
Q46.1875 19.4375 46.1875 27.2969
Q46.1875 35.1562 43.1562 39.3281
Q40.1406 43.5 34.4219 43.5
M34.4219 56
Q48.5312 56 56.4688 48.375
Q64.4062 40.7656 64.4062 27.2969
Q64.4062 13.8125 56.4688 6.1875
Q48.5312 -1.42188 34.4219 -1.42188
Q20.2656 -1.42188 12.2812 6.1875
Q4.29688 13.8125 4.29688 27.2969
Q4.29688 40.7656 12.2812 48.375
Q20.2656 56 34.4219 56" id="BitstreamVeraSans-Bold-6f"/>
      <path d="
M59.0781 45.6094
Q62.4062 50.6875 66.9688 53.3438
Q71.5312 56 77 56
Q86.4219 56 91.3594 50.1875
Q96.2969 44.3906 96.2969 33.2969
L96.2969 0
L78.7188 0
L78.7188 28.5156
Q78.7656 29.1562 78.7812 29.8281
Q78.8125 30.5156 78.8125 31.7812
Q78.8125 37.5938 77.0938 40.2031
Q75.3906 42.8281 71.5781 42.8281
Q66.6094 42.8281 63.8906 38.7188
Q61.1875 34.625 61.0781 26.8594
L61.0781 0
L43.5 0
L43.5 28.5156
Q43.5 37.5938 41.9375 40.2031
Q40.375 42.8281 36.375 42.8281
Q31.3438 42.8281 28.6094 38.7031
Q25.875 34.5781 25.875 26.9062
L25.875 0
L8.29688 0
L8.29688 54.6875
L25.875 54.6875
L25.875 46.6875
Q29.1094 51.3125 33.2812 53.6562
Q37.4531 56 42.4844 56
Q48.1406 56 52.4844 53.2656
Q56.8438 50.5312 59.0781 45.6094" id="BitstreamVeraSans-Bold-6d"/>
      <path d="
M63.375 33.2969
L63.375 0
L45.7969 0
L45.7969 5.42188
L45.7969 25.4844
Q45.7969 32.5625 45.4844 35.25
Q45.1719 37.9375 44.3906 39.2031
Q43.3594 40.9219 41.5938 41.875
Q39.8438 42.8281 37.5938 42.8281
Q32.125 42.8281 29 38.5938
Q25.875 34.375 25.875 26.9062
L25.875 0
L8.40625 0
L8.40625 54.6875
L25.875 54.6875
L25.875 46.6875
Q29.8281 51.4688 34.2656 53.7344
Q38.7188 56 44.0938 56
Q53.5625 56 58.4688 50.1875
Q63.375 44.3906 63.375 33.2969" id="BitstreamVeraSans-Bold-6e"/>
     </defs>
     <g transform="translate(196.86375 412.706875)scale(0.16 -0.16)">
      <use xlink:href="#BitstreamVeraSans-Bold-63"/>
      <use x="59.27734375" xlink:href="#BitstreamVeraSans-Bold-6f"/>
      <use x="127.978515625" xlink:href="#BitstreamVeraSans-Bold-6d"/>
      <use x="232.177734375" xlink:href="#BitstreamVeraSans-Bold-70"/>
      <use x="303.759765625" xlink:href="#BitstreamVeraSans-Bold-61"/>
      <use x="371.240234375" xlink:href="#BitstreamVeraSans-Bold-72"/>
      <use x="420.556640625" xlink:href="#BitstreamVeraSans-Bold-74"/>
      <use x="468.359375" xlink:href="#BitstreamVeraSans-Bold-6d"/>
      <use x="572.55859375" xlink:href="#BitstreamVeraSans-Bold-65"/>
      <use x="640.380859375" xlink:href="#BitstreamVeraSans-Bold-6e"/>
      <use x="711.572265625" xlink:href="#BitstreamVeraSans-Bold-74"/>
      <use x="759.375" xlink:href="#BitstreamVeraSans-Bold-20"/>
      <use x="794.189453125" xlink:href="#BitstreamVeraSans-Bold-6e"/>
      <use x="865.380859375" xlink:href="#BitstreamVeraSans-Bold-75"/>
      <use x="936.572265625" xlink:href="#BitstreamVeraSans-Bold-6d"/>
      <use x="1040.77148438" xlink:href="#BitstreamVeraSans-Bold-62"/>
      <use x="1112.35351562" xlink:href="#BitstreamVeraSans-Bold-65"/>
      <use x="1180.17578125" xlink:href="#BitstreamVeraSans-Bold-72"/>
     </g>
    </g>
   </g>
   <g id="matplotlib.axis_2">
    <g id="ytick_1">
     <g id="line2d_12">
      <defs>
       <path d="
M0 0
L4 0" id="m728421d6d4" style="stroke:#000000;stroke-width:0.5;"/>
      </defs>
      <g>
       <use style="stroke:#000000;stroke-width:0.5;" x="72.0" xlink:href="#m728421d6d4" y="266.4"/>
      </g>
     </g>
     <g id="line2d_13">
      <defs>
       <path d="
M0 0
L-4 0" id="mcb0005524f" style="stroke:#000000;stroke-width:0.5;"/>
      </defs>
      <g>
       <use style="stroke:#000000;stroke-width:0.5;" x="518.4" xlink:href="#mcb0005524f" y="266.4"/>
      </g>
     </g>
     <g id="text_6">
      <!-- 0.05 -->
      <defs>
       <path d="
M10.6875 12.4062
L21 12.4062
L21 0
L10.6875 0
z
" id="BitstreamVeraSans-Roman-2e"/>
      </defs>
      <g transform="translate(38.9740625 270.263125)scale(0.14 -0.14)">
       <use xlink:href="#BitstreamVeraSans-Roman-30"/>
       <use x="63.623046875" xlink:href="#BitstreamVeraSans-Roman-2e"/>
       <use x="95.41015625" xlink:href="#BitstreamVeraSans-Roman-30"/>
       <use x="159.033203125" xlink:href="#BitstreamVeraSans-Roman-35"/>
      </g>
     </g>
    </g>
    <g id="ytick_2">
     <g id="line2d_14">
      <g>
       <use style="stroke:#000000;stroke-width:0.5;" x="72.0" xlink:href="#m728421d6d4" y="154.8"/>
      </g>
     </g>
     <g id="line2d_15">
      <g>
       <use style="stroke:#000000;stroke-width:0.5;" x="518.4" xlink:href="#mcb0005524f" y="154.8"/>
      </g>
     </g>
     <g id="text_7">
      <!-- 0.10 -->
      <defs>
       <path d="
M12.4062 8.29688
L28.5156 8.29688
L28.5156 63.9219
L10.9844 60.4062
L10.9844 69.3906
L28.4219 72.9062
L38.2812 72.9062
L38.2812 8.29688
L54.3906 8.29688
L54.3906 0
L12.4062 0
z
" id="BitstreamVeraSans-Roman-31"/>
      </defs>
      <g transform="translate(38.6809375 158.663125)scale(0.14 -0.14)">
       <use xlink:href="#BitstreamVeraSans-Roman-30"/>
       <use x="63.623046875" xlink:href="#BitstreamVeraSans-Roman-2e"/>
       <use x="95.41015625" xlink:href="#BitstreamVeraSans-Roman-31"/>
       <use x="159.033203125" xlink:href="#BitstreamVeraSans-Roman-30"/>
      </g>
     </g>
    </g>
    <g id="ytick_3">
     <g id="line2d_16">
      <g>
       <use style="stroke:#000000;stroke-width:0.5;" x="72.0" xlink:href="#m728421d6d4" y="43.2"/>
      </g>
     </g>
     <g id="line2d_17">
      <g>
       <use style="stroke:#000000;stroke-width:0.5;" x="518.4" xlink:href="#mcb0005524f" y="43.2"/>
      </g>
     </g>
     <g id="text_8">
      <!-- 0.15 -->
      <g transform="translate(38.9740625 47.063125)scale(0.14 -0.14)">
       <use xlink:href="#BitstreamVeraSans-Roman-30"/>
       <use x="63.623046875" xlink:href="#BitstreamVeraSans-Roman-2e"/>
       <use x="95.41015625" xlink:href="#BitstreamVeraSans-Roman-31"/>
       <use x="159.033203125" xlink:href="#BitstreamVeraSans-Roman-35"/>
      </g>
     </g>
    </g>
    <g id="text_9">
     <!-- normalized concentration -->
     <defs>
      <path d="
M5.71875 54.6875
L53.4219 54.6875
L53.4219 42.4844
L24.6094 12.5
L53.4219 12.5
L53.4219 0
L4.5 0
L4.5 12.2031
L33.2969 42.1875
L5.71875 42.1875
z
" id="BitstreamVeraSans-Bold-7a"/>
      <path d="
M8.40625 75.9844
L25.875 75.9844
L25.875 0
L8.40625 0
z
" id="BitstreamVeraSans-Bold-6c"/>
      <path d="
M8.40625 54.6875
L25.875 54.6875
L25.875 0
L8.40625 0
z

M8.40625 75.9844
L25.875 75.9844
L25.875 61.7188
L8.40625 61.7188
z
" id="BitstreamVeraSans-Bold-69"/>
      <path d="
M45.6094 46.6875
L45.6094 75.9844
L63.1875 75.9844
L63.1875 0
L45.6094 0
L45.6094 7.90625
Q42 3.07812 37.6406 0.828125
Q33.2969 -1.42188 27.5938 -1.42188
Q17.4844 -1.42188 10.9844 6.60938
Q4.5 14.6562 4.5 27.2969
Q4.5 39.9375 10.9844 47.9688
Q17.4844 56 27.5938 56
Q33.25 56 37.625 53.7344
Q42 51.4688 45.6094 46.6875
M34.0781 11.2812
Q39.7031 11.2812 42.6562 15.375
Q45.6094 19.4844 45.6094 27.2969
Q45.6094 35.1094 42.6562 39.2031
Q39.7031 43.3125 34.0781 43.3125
Q28.5156 43.3125 25.5625 39.2031
Q22.6094 35.1094 22.6094 27.2969
Q22.6094 19.4844 25.5625 15.375
Q28.5156 11.2812 34.0781 11.2812" id="BitstreamVeraSans-Bold-64"/>
     </defs>
     <g transform="translate(30.3534375 325.6475)rotate(-90.0)scale(0.16 -0.16)">
      <use xlink:href="#BitstreamVeraSans-Bold-6e"/>
      <use x="71.19140625" xlink:href="#BitstreamVeraSans-Bold-6f"/>
      <use x="139.892578125" xlink:href="#BitstreamVeraSans-Bold-72"/>
      <use x="189.208984375" xlink:href="#BitstreamVeraSans-Bold-6d"/>
      <use x="293.408203125" xlink:href="#BitstreamVeraSans-Bold-61"/>
      <use x="360.888671875" xlink:href="#BitstreamVeraSans-Bold-6c"/>
      <use x="395.166015625" xlink:href="#BitstreamVeraSans-Bold-69"/>
      <use x="429.443359375" xlink:href="#BitstreamVeraSans-Bold-7a"/>
      <use x="487.646484375" xlink:href="#BitstreamVeraSans-Bold-65"/>
      <use x="555.46875" xlink:href="#BitstreamVeraSans-Bold-64"/>
      <use x="627.05078125" xlink:href="#BitstreamVeraSans-Bold-20"/>
      <use x="661.865234375" xlink:href="#BitstreamVeraSans-Bold-63"/>
      <use x="721.142578125" xlink:href="#BitstreamVeraSans-Bold-6f"/>
      <use x="789.84375" xlink:href="#BitstreamVeraSans-Bold-6e"/>
      <use x="861.03515625" xlink:href="#BitstreamVeraSans-Bold-63"/>
      <use x="920.3125" xlink:href="#BitstreamVeraSans-Bold-65"/>
      <use x="988.134765625" xlink:href="#BitstreamVeraSans-Bold-6e"/>
      <use x="1059.32617188" xlink:href="#BitstreamVeraSans-Bold-74"/>
      <use x="1107.12890625" xlink:href="#BitstreamVeraSans-Bold-72"/>
      <use x="1156.4453125" xlink:href="#BitstreamVeraSans-Bold-61"/>
      <use x="1223.92578125" xlink:href="#BitstreamVeraSans-Bold-74"/>
      <use x="1271.72851562" xlink:href="#BitstreamVeraSans-Bold-69"/>
      <use x="1306.00585938" xlink:href="#BitstreamVeraSans-Bold-6f"/>
      <use x="1374.70703125" xlink:href="#BitstreamVeraSans-Bold-6e"/>
     </g>
    </g>
   </g>
  </g>
 </g>
 <defs>
  <clipPath id="p332b41defa">
   <rect height="334.8" width="446.4" x="72.0" y="43.2"/>
  </clipPath>
 </defs>
</svg>
