<?xml version="1.0" encoding="utf-8" standalone="no"?>
<!DOCTYPE svg PUBLIC "-//W3C//DTD SVG 1.1//EN"
  "http://www.w3.org/Graphics/SVG/1.1/DTD/svg11.dtd">
<!-- Created with matplotlib (http://matplotlib.org/) -->
<svg height="432pt" version="1.1" viewBox="0 0 576 432" width="576pt" xmlns="http://www.w3.org/2000/svg" xmlns:xlink="http://www.w3.org/1999/xlink">
 <defs>
  <style type="text/css">
*{stroke-linecap:butt;stroke-linejoin:round;}
  </style>
 </defs>
 <g id="figure_1">
  <g id="patch_1">
   <path d="
M0 432
L576 432
L576 0
L0 0
z
" style="fill:#ffffff;"/>
  </g>
  <g id="axes_1">
   <g id="patch_2">
    <path d="
M72 378
L518.4 378
L518.4 43.2
L72 43.2
z
" style="fill:none;"/>
   </g>
   <g id="line2d_1">
    <path clip-path="url(#p332b41defa)" d="
M72 337.111
L72.5952 336.839
L73.7856 331.286
L74.3808 330.559
L74.976 329.611
L75.5712 329.095
L76.7616 328.931
L78.5472 329.134
L79.1424 330.036
L80.3328 324.136
L80.928 322.65
L82.1184 322.481
L85.6896 322.479
L86.2848 321.132
L86.88 319.457
L87.4752 319.729
L89.2608 321.248
L90.4512 322.789
L91.6416 324.263
L93.4272 326.072
L94.0224 326.449
L94.6176 326.654
L95.2128 319.554
L98.784 319.8
L100.57 320.036
L101.165 319.742
L104.141 320.912
L104.736 321.008
L105.331 318.821
L105.926 318.175
L107.117 318.165
L107.712 314.598
L108.307 301.555
L108.902 273.175
L109.498 257.844
L110.093 254.92
L111.283 267.925
L112.474 277.063
L113.069 280.316
L113.664 282.743
L114.259 284.363
L114.854 285.18
L115.45 238.545
L116.045 215.809
L116.64 197.951
L117.235 194.196
L117.83 187.806
L118.426 310.022
L119.021 304.524
L120.211 263.362
L120.806 250.886
L121.402 244.605
L121.997 247.417
L122.592 249.107
L123.187 249.672
L123.782 249.096
L124.378 247.345
L124.973 244.367
L125.568 240.086
L126.163 242.868
L126.758 244.26
L127.354 225.382
L127.949 210.413
L128.544 207.886
L129.139 207.911
L129.734 210.188
L130.33 209.792
L130.925 206.655
L131.52 205.284
L132.115 205.533
L132.71 195.406
L133.306 190.36
L133.901 192.438
L134.496 192.406
L135.091 190.201
L135.686 194.17
L136.282 195.981
L136.877 195.674
L137.472 197.775
L138.067 192.053
L138.662 195.78
L139.258 197.357
L139.853 196.816
L140.448 198.929
L141.043 310.571
L141.638 311.741
L143.424 312.398
L144.019 312.511
L144.614 311.833
L145.805 312.099
L146.4 312.176
L146.995 312.081
L147.59 312.545
L150.566 318.182
L151.757 319.724
L152.947 320.741
L153.542 321.193
L154.138 321.435
L154.733 313.737
L155.923 317.097
L157.709 321.552
L158.899 324.931
L160.09 327.649
L161.28 329.669
L161.875 330.511
L162.47 331.099
L163.066 331.408
L163.661 312.463
L164.256 313.024
L167.232 317.056
L167.827 317.88
L168.422 319.072
L169.613 320.667
L170.208 321.195
L170.803 312.835
L171.398 313.107
L173.184 315.489
L174.97 317.897
L176.755 321.122
L177.35 322.178
L177.946 322.903
L178.541 323.279
L179.136 313.077
L179.731 313.493
L181.517 318.519
L182.707 321.879
L183.898 323.675
L185.088 324.893
L185.683 325.418
L186.278 325.692
L186.874 321.887
L188.064 323.713
L189.85 325.626
L190.445 325.909
L191.04 313.356
L191.635 313.709
L194.611 321.705
L195.802 323.949
L196.992 325.661
L198.182 326.857
L198.778 327.268
L199.373 327.482
L199.968 319.063
L201.754 323.917
L202.349 324.642
L203.539 324.793
L204.134 325.199
L205.325 327.49
L206.515 329.045
L207.11 329.518
L207.706 329.764
L208.301 320.073
L209.491 321.025
L210.086 321.315
L210.682 321.467
L211.277 313.425
L212.467 313.188
L213.062 313.271
L214.253 316.265
L215.443 319.113
L216.038 320.276
L217.229 322.99
L217.824 323.895
L218.419 324.546
L219.014 324.942
L219.61 312.998
L220.205 313.184
L221.99 317.637
L223.181 321.771
L223.776 323.344
L224.371 324.599
L224.966 325.534
L225.562 326.17
L226.157 326.622
L226.752 312.172
L227.942 309.503
L228.538 308.912
L229.133 310.086
L229.728 310.68
L230.323 308.388
L230.918 309.808
L232.704 322.16
L233.299 325.971
L233.894 328.329
L235.68 331.94
L236.87 335.281
L238.061 337.857
L240.442 341.809
L241.037 342.396
L241.632 342.775
L242.227 342.998
L242.822 328.937
L244.013 333.651
L245.203 337.434
L246.394 339.914
L247.584 343.007
L248.774 346.775
L249.965 349.845
L251.155 352.237
L252.346 353.918
L252.941 354.476
L253.536 354.873
L254.131 355.094
L254.726 338.667
L255.917 340.88
L257.107 343.17
L257.702 343.976
L258.893 345.069
L260.083 346.177
L260.678 346.523
L261.274 346.702
L261.869 343.918
L263.059 345.515
L264.25 346.669
L265.44 347.513
L266.035 347.762
L266.63 347.886
L267.226 306.46
L267.821 304.448
L268.416 305.644
L269.011 306.247
L269.606 302.07
L270.202 296.276
L271.392 278.672
L272.582 259.659
L273.773 232.562
L274.368 227.532
L276.749 269.312
L277.344 277.363
L277.939 283.69
L279.13 292.394
L279.725 295.05
L280.32 296.355
L280.915 217.013
L281.51 206.352
L282.106 202.907
L282.701 204.61
L283.296 210.395
L283.891 213.58
L284.486 219.316
L285.082 228.081
L286.272 241.326
L286.867 245.965
L287.462 248.656
L288.058 200.372
L289.248 180.25
L289.843 175.738
L290.438 179.76
L291.034 179.37
L291.629 179.373
L292.224 257.07
L292.819 220.65
L293.414 203.199
L294.01 195.211
L294.605 243.598
L295.2 243.529
L295.795 241.269
L296.39 236.486
L296.986 227.403
L297.581 211.768
L298.176 199.658
L298.771 189.998
L299.366 186.934
L299.962 180.745
L300.557 179.222
L301.152 182.894
L301.747 226.844
L302.342 237.253
L302.938 245.714
L303.533 252.329
L304.128 257.174
L304.723 260.309
L305.318 262.028
L305.914 327.346
L306.509 305.507
L307.104 290.69
L307.699 291.592
L310.08 296.752
L311.27 298.456
L311.866 298.978
L312.461 299.253
L313.056 291.638
L315.437 296.431
L316.627 298.688
L317.818 300.215
L318.413 300.68
L319.008 300.924
L319.603 275.361
L320.198 272.631
L321.389 277.836
L322.579 281.948
L323.174 283.433
L324.365 285.421
L324.96 285.878
L325.555 266.35
L327.341 218.589
L327.936 221.822
L328.531 223.964
L329.126 225.035
L329.722 298.769
L330.317 274.919
L331.507 257.452
L332.102 247.532
L332.698 242.078
L333.293 244.948
L333.888 246.391
L334.483 254.383
L335.078 229.048
L335.674 223.747
L336.269 216.863
L336.864 208.169
L337.459 197.101
L338.054 202.197
L338.65 204.587
L339.245 204.345
L339.84 201.409
L340.435 222.523
L341.626 207.321
L342.221 203.725
L342.816 208.878
L343.411 212.607
L344.006 215.216
L344.602 216.651
L345.197 220.88
L345.792 222.943
L346.387 223.669
L346.982 222.877
L347.578 227.31
L348.173 230.245
L348.768 231.713
L349.363 335.24
L349.958 334.445
L350.554 334.207
L351.149 333.538
L351.744 333.048
L352.339 332.924
L355.315 334.01
L355.91 333.212
L356.506 333.453
L358.886 335.858
L360.077 337.105
L361.267 337.949
L361.862 338.148
L362.458 333.967
L364.243 335.104
L366.029 337.064
L367.219 338.053
L367.814 338.439
L368.41 338.652
L369.005 335.102
L370.195 336.823
L370.79 337.717
L372.576 339.478
L373.766 340.386
L374.362 340.69
L374.957 340.857
L375.552 338.425
L377.338 340.632
L378.528 341.595
L379.123 341.821
L379.718 337.736
L381.504 340.071
L382.694 341.323
L383.885 342.281
L384.48 342.505
L385.075 333.984
L388.051 333.951
L388.646 334.498
L391.027 340.367
L391.622 341.346
L392.813 342.36
L393.408 342.696
L394.003 342.881
L394.598 341.337
L396.384 342.967
L397.574 343.635
L398.17 343.785
L398.765 334.304
L399.36 334.275
L399.955 334.464
L400.55 334.787
L401.146 335.287
L405.312 340.218
L406.502 341.088
L407.098 341.317
L407.693 337.984
L409.478 339.199
L410.669 339.711
L411.264 339.827
L411.859 334.75
L412.454 335.054
L415.43 338.551
L416.621 339.449
L417.216 339.691
L417.811 335.011
L420.192 335.928
L421.978 336.258
L422.573 335.89
L424.358 336.97
L426.144 337.752
L426.739 337.867
L427.334 337.045
L428.525 337.899
L429.12 338.193
L429.715 338.358
L430.31 334.138
L430.906 333.422
L431.501 333.085
L432.096 335.918
L433.286 335.458
L435.072 335.007
L435.667 335.418
L436.262 336.008
L436.858 336.985
L437.453 337.665
L438.048 337.79
L441.024 339.004
L441.619 338.427
L442.214 339.561
L446.381 343.369
L447.571 343.749
L448.166 343.384
L448.762 343.675
L449.357 343.838
L449.952 339.693
L451.142 341.386
L452.333 343.227
L453.523 344.082
L454.118 344.387
L454.714 344.56
L455.309 343.479
L457.094 346.271
L458.285 347.759
L458.88 348.319
L459.475 348.721
L460.07 348.939
L460.666 342.175
L463.046 345.318
L464.237 346.457
L464.832 346.828
L465.427 347.029
L466.022 335.488
L467.213 334.208
L467.808 333.79
L468.403 333.648
L469.594 334.048
L471.974 335.278
L473.165 336.052
L473.76 336.238
L474.355 334.773
L474.95 334.541
L476.736 334.428
L477.331 334.49
L478.522 335.042
L480.902 336.343
L482.093 336.69
L482.688 334.435
L483.878 334.612
L486.259 335.103
L486.854 334.635
L488.045 336.179
L490.426 339.797
L491.616 341.83
L492.806 343.796
L493.997 345.344
L494.592 345.914
L495.187 346.319
L495.782 346.536
L496.378 340.452
L497.568 341.217
L498.758 341.613
L499.354 334.485
L499.949 334.59
L500.544 335.05
L501.734 336.434
L502.33 337.235
L502.925 337.717
L504.71 338.164
L505.306 338.228
L505.901 337.93
L507.091 338.985
L507.686 339.35
L508.282 339.556
L508.877 335.302
L510.067 335.347
L510.662 340.193
L511.258 347.449
L511.853 352.64
L512.448 356.059
L513.043 357.774
L513.043 357.774" style="fill:none;stroke:#000000;stroke-linecap:square;stroke-width:8;"/>
   </g>
   <g id="line2d_2">
    <path clip-path="url(#p332b41defa)" d="
M72 308.381
L72.5952 315.517
L73.1904 314.963
L73.7856 311.429
L74.3808 310.48
L74.976 309.208
L75.5712 308.541
L76.7616 308.408
L78.5472 308.762
L79.1424 313.665
L79.7376 313.887
L80.3328 314.591
L80.928 312.949
L82.1184 312.81
L84.4992 312.88
L85.6896 312.926
L86.2848 315.425
L86.88 313.961
L87.4752 314.413
L89.2608 316.455
L92.832 321.543
L93.4272 322.138
L94.0224 322.565
L94.6176 322.796
L95.2128 314.276
L98.1888 314.653
L99.9744 315.074
L100.57 315.142
L101.165 314.724
L103.546 316.027
L104.736 316.35
L105.331 316.942
L105.926 316.313
L107.117 316.34
L107.712 316.774
L108.307 304.543
L108.902 277.692
L109.498 263.416
L110.093 260.831
L111.283 273.517
L112.474 282.405
L113.069 285.563
L113.664 287.916
L114.259 289.486
L114.854 290.277
L115.45 245.183
L116.045 223.679
L116.64 206.802
L117.235 203.308
L117.83 197.274
L118.426 316.353
L119.021 312.241
L120.211 277.695
L120.806 267.072
L121.402 261.858
L121.997 264.54
L122.592 266.215
L123.187 266.887
L123.782 266.546
L124.378 265.165
L124.973 262.701
L125.568 259.089
L126.163 261.54
L126.758 262.766
L127.354 245.318
L127.949 232.547
L128.544 230.558
L129.139 230.748
L129.734 232.854
L130.33 232.612
L130.925 229.969
L131.52 228.819
L132.115 228.621
L132.71 220.369
L133.306 216.494
L133.901 218.538
L134.496 218.73
L135.091 217.022
L135.686 220.568
L136.282 222.226
L136.877 222.036
L137.472 223.869
L138.067 218.132
L138.662 221.479
L139.258 222.941
L139.853 222.549
L140.448 224.397
L141.043 319.924
L141.638 320.996
L143.424 321.676
L144.019 321.786
L144.614 323.97
L145.805 324.25
L146.4 324.326
L146.995 327.085
L147.59 327.753
L149.971 331.773
L151.162 333.267
L152.352 334.341
L153.542 335.067
L154.138 335.261
L154.733 328.834
L155.923 331.69
L160.09 340.279
L161.28 341.872
L161.875 342.528
L162.47 342.985
L163.066 343.224
L163.661 329.963
L164.851 331.18
L166.042 332.452
L167.827 334.535
L168.422 335.44
L169.613 336.644
L170.208 337.036
L170.803 332.671
L171.398 333.006
L173.184 335.016
L176.16 338.469
L177.35 340.027
L177.946 340.54
L178.541 340.806
L179.136 335.113
L179.731 335.59
L182.707 341.791
L183.898 343.053
L185.088 343.902
L185.683 344.258
L186.278 344.443
L186.874 341.796
L188.064 343.078
L189.85 344.391
L190.445 344.582
L191.04 337.352
L191.635 337.913
L193.421 341.889
L194.611 343.752
L195.802 345.253
L196.992 346.389
L198.182 347.172
L198.778 347.437
L199.373 347.575
L199.968 342.036
L201.754 345.321
L202.349 345.786
L203.539 345.905
L204.134 346.157
L205.325 347.633
L206.515 348.626
L207.11 348.926
L207.706 349.083
L208.301 342.702
L209.491 343.35
L210.682 343.648
L211.277 339.1
L212.467 342.342
L213.062 342.499
L216.634 347.567
L217.229 348.256
L218.419 349.141
L219.014 349.363
L219.61 343.805
L220.205 344.011
L221.99 346.595
L223.181 348.859
L224.371 350.401
L224.966 350.909
L226.157 351.496
L226.752 344.831
L227.942 346.456
L228.538 346.216
L229.133 346.777
L230.323 347.383
L230.918 348.47
L232.704 354.963
L233.299 356.898
L233.894 357.954
L238.656 362.646
L239.846 363.556
L241.037 364.134
L242.227 364.383
L242.822 358.347
L244.013 360.674
L245.203 362.545
L246.394 363.632
L248.179 365.7
L249.37 367.047
L250.56 368.113
L251.75 368.902
L252.941 369.404
L254.131 369.64
L254.726 363.124
L257.702 365.507
L259.488 366.19
L260.678 366.531
L261.274 366.601
L261.869 365.495
L263.059 366.149
L264.845 366.807
L266.035 367.053
L266.63 367.103
L267.226 347.51
L267.821 346.685
L268.416 347.216
L269.011 347.483
L269.606 346.605
L270.202 345.202
L270.797 342.989
L272.582 334.947
L273.773 326.455
L274.368 324.86
L276.154 336.469
L276.749 340.045
L277.344 342.933
L277.939 345.199
L279.13 348.306
L279.725 349.25
L280.32 349.714
L280.915 321.4
L281.51 318.087
L282.106 317.291
L282.701 318.076
L283.296 320.243
L283.891 321.485
L284.486 323.577
L285.082 326.679
L286.272 331.339
L286.867 332.959
L287.462 333.894
L288.058 316.597
L289.248 309.954
L289.843 308.513
L290.438 309.976
L291.629 309.926
L292.224 333.827
L292.819 320.601
L293.414 314.287
L294.01 311.402
L294.605 329.309
L295.2 329.655
L295.795 329.198
L296.39 327.833
L296.986 324.945
L297.581 319.62
L298.176 315.528
L298.771 312.28
L299.366 311.318
L299.962 309.241
L300.557 308.765
L301.152 310.071
L301.747 324.881
L302.938 331.698
L303.533 334.08
L304.128 335.823
L304.723 336.949
L305.318 337.565
L306.509 270.833
L307.104 249.362
L307.699 250.866
L310.08 258.939
L310.675 260.415
L311.27 261.564
L311.866 262.365
L312.461 262.786
L313.056 250.971
L316.627 262.152
L317.222 263.478
L317.818 264.508
L318.413 265.223
L319.008 265.597
L319.603 226.754
L320.198 222.943
L321.389 230.939
L322.579 237.215
L323.174 239.48
L323.77 241.166
L324.365 242.499
L324.96 243.19
L325.555 213.695
L327.341 144.022
L327.936 148.875
L328.531 152.088
L329.126 153.694
L329.722 260.963
L330.317 225.936
L331.507 200.508
L332.102 186.028
L332.698 178.098
L333.293 182.38
L333.888 184.532
L334.483 196.389
L335.078 159.531
L335.674 152.069
L336.269 142.267
L336.864 129.796
L337.459 113.832
L338.054 121.436
L338.65 125.046
L339.245 124.773
L339.84 120.534
L340.435 150.181
L341.626 128.432
L342.221 123.372
L342.816 131.055
L343.411 136.614
L344.006 140.497
L344.602 142.629
L345.197 148.026
L345.792 151.258
L346.387 152.496
L346.982 151.48
L347.578 158.058
L348.173 162.409
L348.768 164.585
L349.363 314.473
L349.958 314.646
L350.554 315.112
L351.744 313.721
L352.339 313.606
L354.72 315.105
L355.315 315.312
L355.91 313.995
L356.506 314.441
L360.672 320.739
L361.267 321.265
L361.862 321.555
L362.458 315.375
L363.648 316.967
L364.243 317.52
L366.029 320.455
L367.219 321.911
L367.814 322.471
L368.41 322.78
L369.005 317.612
L371.386 322.816
L372.576 324.515
L373.766 325.839
L374.362 326.277
L374.957 326.518
L375.552 322.952
L376.742 325.193
L377.933 326.947
L378.528 327.531
L379.123 327.853
L379.718 321.871
L381.504 325.311
L382.694 327.128
L383.29 327.914
L383.885 328.499
L384.48 328.817
L385.075 315.628
L386.861 316.122
L387.456 316.031
L388.051 316.069
L388.646 316.942
L391.027 325.674
L391.622 327.079
L392.813 328.545
L393.408 329.029
L394.003 329.294
L394.598 327.083
L395.789 328.767
L396.979 330.034
L397.574 330.436
L398.17 330.652
L398.765 314.974
L399.36 315.455
L401.146 317.763
L404.122 323.446
L405.312 325.329
L406.502 326.586
L407.098 326.913
L407.693 322.075
L409.478 323.91
L410.669 324.668
L411.264 324.84
L411.859 316.952
L412.454 317.469
L414.835 321.783
L416.026 323.402
L416.621 323.978
L417.216 324.326
L417.811 317.53
L419.597 319.037
L421.382 319.708
L421.978 319.812
L422.573 319.278
L423.763 320.566
L425.549 321.919
L426.144 322.224
L426.739 322.393
L427.334 321.158
L428.525 322.408
L429.12 322.835
L429.715 323.074
L430.31 312.867
L430.906 311.825
L431.501 311.334
L432.096 314.653
L433.286 315.006
L433.882 314.861
L435.072 314.397
L435.667 315.424
L436.262 316.752
L436.858 318.623
L437.453 319.672
L438.048 319.909
L440.429 321.571
L441.024 321.8
L441.619 321.07
L442.214 322.815
L445.786 328.2
L446.381 328.762
L446.976 329.127
L447.571 329.326
L448.166 328.783
L448.762 329.214
L449.357 329.452
L449.952 323.121
L452.333 328.743
L453.523 330.01
L454.118 330.458
L454.714 330.71
L455.309 329.131
L457.094 333.236
L458.285 335.399
L458.88 336.208
L459.475 336.789
L460.07 337.102
L460.666 327.164
L462.451 330.767
L463.642 332.735
L464.237 333.48
L464.832 334.018
L465.427 334.31
L466.022 314.201
L466.618 313.245
L467.213 312.534
L467.808 312.022
L468.403 311.912
L469.594 312.68
L471.974 314.723
L472.57 315.408
L473.165 315.919
L473.76 316.203
L474.355 313.729
L476.141 313.984
L477.331 314.346
L478.522 315.302
L480.902 317.375
L481.498 317.716
L482.093 317.908
L482.688 314.246
L483.878 314.616
L485.664 315.312
L486.259 315.433
L486.854 314.125
L488.045 316.76
L491.021 324.056
L492.211 327.248
L493.402 329.896
L494.592 331.797
L495.187 332.396
L495.782 332.716
L496.378 323.616
L497.568 324.783
L498.163 325.17
L498.758 325.382
L499.354 313.489
L499.949 313.822
L501.139 315.706
L502.33 318.225
L502.925 318.98
L504.115 319.532
L505.306 319.82
L505.901 319.291
L507.091 320.9
L507.686 321.453
L508.282 321.762
L508.877 315.07
L510.067 315.166
L510.662 313.669
L511.258 326.041
L511.853 334.885
L512.448 340.708
L513.043 343.627
L513.043 343.627" style="fill:none;stroke:#0000ff;stroke-linecap:square;stroke-width:4;"/>
   </g>
   <g id="line2d_3">
    <path clip-path="url(#p332b41defa)" d="
M72 306.193
L72.5952 306.032
L73.1904 305.424
L73.7856 303.766
L75.5712 302.301
L76.7616 302.17
L78.5472 302.284
L79.1424 304.38
L80.3328 303.475
L80.928 302.56
L82.1184 302.45
L85.6896 302.433
L86.2848 303.056
L86.88 302.024
L87.4752 302.172
L89.2608 303.042
L93.4272 305.874
L94.6176 306.218
L95.2128 302.063
L99.9744 302.29
L100.57 302.319
L101.165 302.153
L104.141 302.828
L104.736 302.884
L105.331 303.116
L105.926 302.737
L107.117 302.729
L107.712 302.097
L108.307 294.612
L108.902 278.331
L109.498 269.533
L110.093 267.854
L111.283 275.309
L112.474 280.547
L113.069 282.412
L113.664 283.803
L114.259 284.732
L114.854 285.201
L115.45 258.462
L116.045 245.42
L116.64 235.176
L117.235 233.021
L117.83 229.356
L118.426 300.929
L119.021 297.853
L120.211 274.73
L120.806 267.717
L121.402 264.188
L121.997 265.774
L122.592 266.727
L123.187 267.048
L123.782 266.726
L124.378 265.744
L124.973 264.071
L125.568 261.665
L126.163 263.23
L126.758 264.013
L127.354 253.379
L127.949 244.964
L128.544 243.546
L129.139 243.562
L129.734 244.845
L130.33 244.624
L130.925 242.861
L131.52 242.09
L132.115 242.224
L132.71 236.537
L133.306 233.706
L133.901 234.879
L134.496 234.864
L135.091 233.627
L135.686 235.861
L136.282 236.88
L136.877 236.709
L137.472 237.891
L138.067 234.661
L138.662 236.759
L139.258 237.647
L139.853 237.344
L140.448 238.533
L141.043 302.649
L141.638 303.298
L144.019 303.73
L144.614 304.749
L146.4 304.941
L146.995 306.287
L147.59 306.573
L150.566 309.634
L151.757 310.468
L152.947 311.018
L154.138 311.391
L154.733 307.228
L155.923 309.051
L158.304 312.414
L159.494 314.054
L160.685 315.322
L161.875 316.272
L162.47 316.586
L163.066 316.751
L163.661 307.852
L164.851 308.587
L166.042 309.392
L167.827 310.78
L168.422 311.408
L169.613 312.248
L170.208 312.525
L170.803 309.386
L171.398 309.555
L174.374 311.746
L174.97 312.131
L176.755 313.809
L177.35 314.355
L177.946 314.729
L178.541 314.923
L179.136 310.818
L179.731 311.076
L181.517 313.726
L182.707 315.463
L183.898 316.389
L185.088 317.016
L185.683 317.284
L186.278 317.423
L186.874 315.467
L188.064 316.408
L189.85 317.387
L190.445 317.532
L191.04 312.214
L191.635 312.486
L194.016 316.014
L195.206 317.288
L196.397 318.296
L197.587 319.021
L198.778 319.507
L199.373 319.615
L199.968 315.357
L201.754 317.839
L202.349 318.202
L203.539 318.285
L204.134 318.485
L205.325 319.637
L206.515 320.417
L207.706 320.777
L208.301 315.867
L209.491 316.355
L210.682 316.58
L211.277 313.403
L212.467 315.591
L213.062 315.674
L214.253 317.143
L215.443 318.528
L216.038 319.092
L217.229 320.388
L218.419 321.131
L219.014 321.318
L219.61 316.604
L220.205 316.736
L221.99 318.887
L223.181 320.829
L224.371 322.158
L224.966 322.597
L226.157 323.105
L226.752 317.278
L227.942 318.18
L228.538 317.94
L229.133 318.461
L229.728 318.725
L230.323 318.717
L230.918 319.634
L232.704 325.75
L233.299 327.63
L233.894 328.688
L236.275 331.153
L237.466 332.493
L239.251 333.962
L240.442 334.757
L241.632 335.179
L242.227 335.275
L242.822 329.069
L244.013 331.411
L245.203 333.335
L246.394 334.485
L248.179 336.713
L249.37 338.182
L250.56 339.355
L251.75 340.229
L252.941 340.787
L254.131 341.049
L254.726 333.944
L257.702 336.502
L259.488 337.252
L260.678 337.628
L261.274 337.705
L261.869 336.489
L263.059 337.207
L264.25 337.726
L265.44 338.099
L266.63 338.264
L267.226 318.596
L267.821 317.764
L268.416 318.282
L269.011 318.543
L269.606 317.426
L270.202 315.685
L270.797 313.023
L272.582 303.171
L273.773 293.108
L274.368 291.219
L276.154 304.027
L276.749 308.007
L277.344 311.228
L277.939 313.759
L279.13 317.238
L279.725 318.298
L280.32 318.819
L280.915 287.2
L281.51 283.222
L282.106 282.082
L282.701 282.855
L283.296 285.217
L283.891 286.545
L284.486 288.859
L285.082 292.345
L286.272 297.601
L286.867 299.436
L287.462 300.498
L288.058 281.183
L289.248 273.444
L289.843 271.733
L290.438 273.35
L291.034 273.226
L291.629 273.242
L292.224 302.025
L292.819 287.493
L293.414 280.54
L294.01 277.359
L294.605 296.862
L295.2 297.044
L295.795 296.344
L296.39 294.636
L296.986 291.22
L297.581 285.137
L298.176 280.439
L298.771 276.698
L299.366 275.545
L299.962 273.149
L300.557 272.577
L301.152 274.037
L301.747 291.071
L302.938 298.629
L303.533 301.277
L304.128 303.216
L304.723 304.47
L305.318 305.157
L305.914 299.406
L306.509 284.85
L307.104 274.995
L307.699 275.55
L310.08 278.84
L311.27 279.935
L311.866 280.271
L312.461 280.448
L313.056 275.571
L315.437 278.586
L316.627 280.029
L317.818 281.008
L318.413 281.307
L319.008 281.464
L319.603 264.896
L320.198 263.052
L321.389 266.414
L322.579 269.074
L323.174 270.036
L324.365 271.325
L324.96 271.622
L325.555 258.912
L327.341 227.31
L327.936 229.424
L328.531 230.824
L329.126 231.525
L329.722 280.39
L330.317 264.638
L331.507 253.062
L332.102 246.498
L332.698 242.884
L333.293 244.765
L333.888 245.711
L334.483 250.96
L335.078 234.18
L335.674 230.624
L336.269 226.028
L336.864 220.242
L337.459 212.893
L338.054 216.232
L338.65 217.79
L339.245 217.615
L339.84 215.667
L340.435 229.833
L341.626 219.703
L342.221 217.293
L342.816 220.67
L343.411 223.114
L344.006 224.825
L344.602 225.767
L345.197 228.703
L345.792 230.026
L346.387 230.473
L346.982 229.924
L347.578 232.835
L348.173 234.761
L348.768 235.725
L349.363 304.492
L349.958 303.49
L351.744 302.185
L352.339 302.081
L355.315 302.751
L355.91 302.28
L356.506 302.405
L358.886 303.904
L360.077 304.705
L361.267 305.251
L361.862 305.38
L362.458 302.672
L363.053 302.771
L364.838 303.677
L366.624 304.832
L367.814 305.376
L368.41 305.516
L369.005 303.205
L370.195 304.177
L370.79 304.724
L373.171 306.161
L374.362 306.624
L374.957 306.733
L375.552 305.174
L377.338 306.603
L378.528 307.232
L379.123 307.38
L379.718 304.758
L382.099 306.685
L383.885 307.687
L384.48 307.833
L385.075 302.603
L386.266 302.47
L388.051 302.408
L388.646 302.737
L391.027 306.469
L391.622 307.109
L392.813 307.765
L394.003 308.105
L394.598 307.096
L396.384 308.139
L397.574 308.571
L398.17 308.668
L398.765 303.208
L399.36 303.004
L399.955 302.948
L400.55 303.096
L401.146 303.367
L404.122 305.59
L405.312 306.424
L406.502 306.991
L407.098 307.141
L407.693 304.979
L409.478 305.741
L410.669 306.066
L411.264 306.141
L411.859 303.028
L412.454 303.199
L415.43 305.433
L416.621 306.017
L417.216 306.176
L417.811 303.126
L421.978 303.766
L422.573 303.527
L425.549 304.512
L426.739 304.717
L427.334 304.201
L428.525 304.749
L429.715 305.047
L430.31 303.758
L430.906 303.28
L431.501 303.055
L432.096 305.244
L433.286 304.581
L435.072 304.264
L436.262 304.616
L437.453 305.531
L438.643 305.746
L441.024 306.35
L441.619 305.927
L442.214 306.638
L444.595 308.055
L445.786 308.735
L446.976 309.134
L447.571 309.221
L448.166 308.987
L449.357 309.28
L449.952 306.681
L451.142 307.644
L452.333 308.806
L453.523 309.354
L454.714 309.664
L455.309 308.962
L457.094 310.759
L458.285 311.725
L459.475 312.352
L460.07 312.495
L460.666 308.141
L463.046 310.154
L464.237 310.892
L465.427 311.264
L466.022 304.905
L467.213 303.986
L467.808 303.677
L468.403 303.551
L469.594 303.76
L471.974 304.498
L473.165 304.992
L473.76 305.111
L474.355 304.239
L474.95 303.954
L476.736 303.701
L477.331 303.713
L479.117 304.231
L481.498 304.969
L482.093 305.048
L482.688 303.683
L484.474 303.845
L486.259 304.055
L486.854 303.949
L488.045 304.845
L490.426 307.029
L491.616 308.323
L492.806 309.587
L493.997 310.586
L495.187 311.218
L495.782 311.359
L496.378 307.447
L497.568 307.932
L498.758 308.185
L499.354 303.989
L499.949 304.001
L501.139 304.616
L502.925 305.878
L504.71 306.144
L505.306 306.182
L505.901 306.018
L507.091 306.693
L508.282 307.06
L508.877 304.405
L510.067 304.425
L510.662 308.195
L511.258 312.929
L511.853 316.316
L512.448 318.547
L513.043 319.667
L513.043 319.667" style="fill:none;stroke:#ff0000;stroke-linecap:square;stroke-width:2;"/>
   </g>
   <g id="patch_3">
    <path d="
M72 43.2
L518.4 43.2" style="fill:none;stroke:#000000;stroke-linecap:square;stroke-linejoin:miter;"/>
   </g>
   <g id="patch_4">
    <path d="
M518.4 378
L518.4 43.2" style="fill:none;stroke:#000000;stroke-linecap:square;stroke-linejoin:miter;"/>
   </g>
   <g id="patch_5">
    <path d="
M72 378
L518.4 378" style="fill:none;stroke:#000000;stroke-linecap:square;stroke-linejoin:miter;"/>
   </g>
   <g id="patch_6">
    <path d="
M72 378
L72 43.2" style="fill:none;stroke:#000000;stroke-linecap:square;stroke-linejoin:miter;"/>
   </g>
   <g id="matplotlib.axis_1">
    <g id="xtick_1">
     <g id="line2d_4">
      <defs>
       <path d="
M0 0
L0 -4" id="m93b0483c22" style="stroke:#000000;stroke-width:0.5;"/>
      </defs>
      <g>
       <use style="stroke:#000000;stroke-width:0.5;" x="72.0" xlink:href="#m93b0483c22" y="378.0"/>
      </g>
     </g>
     <g id="line2d_5">
      <defs>
       <path d="
M0 0
L0 4" id="m741efc42ff" style="stroke:#000000;stroke-width:0.5;"/>
      </defs>
      <g>
       <use style="stroke:#000000;stroke-width:0.5;" x="72.0" xlink:href="#m741efc42ff" y="43.2"/>
      </g>
     </g>
     <g id="text_1">
      <!-- 0 -->
      <defs>
       <path d="
M31.7812 66.4062
Q24.1719 66.4062 20.3281 58.9062
Q16.5 51.4219 16.5 36.375
Q16.5 21.3906 20.3281 13.8906
Q24.1719 6.39062 31.7812 6.39062
Q39.4531 6.39062 43.2812 13.8906
Q47.125 21.3906 47.125 36.375
Q47.125 51.4219 43.2812 58.9062
Q39.4531 66.4062 31.7812 66.4062
M31.7812 74.2188
Q44.0469 74.2188 50.5156 64.5156
Q56.9844 54.8281 56.9844 36.375
Q56.9844 17.9688 50.5156 8.26562
Q44.0469 -1.42188 31.7812 -1.42188
Q19.5312 -1.42188 13.0625 8.26562
Q6.59375 17.9688 6.59375 36.375
Q6.59375 54.8281 13.0625 64.5156
Q19.5312 74.2188 31.7812 74.2188" id="BitstreamVeraSans-Roman-30"/>
      </defs>
      <g transform="translate(68.47265625 392.6378125)scale(0.14 -0.14)">
       <use xlink:href="#BitstreamVeraSans-Roman-30"/>
      </g>
     </g>
    </g>
    <g id="xtick_2">
     <g id="line2d_6">
      <g>
       <use style="stroke:#000000;stroke-width:0.5;" x="220.8" xlink:href="#m93b0483c22" y="378.0"/>
      </g>
     </g>
     <g id="line2d_7">
      <g>
       <use style="stroke:#000000;stroke-width:0.5;" x="220.8" xlink:href="#m741efc42ff" y="43.2"/>
      </g>
     </g>
     <g id="text_2">
      <!-- 250 -->
      <defs>
       <path d="
M19.1875 8.29688
L53.6094 8.29688
L53.6094 0
L7.32812 0
L7.32812 8.29688
Q12.9375 14.1094 22.625 23.8906
Q32.3281 33.6875 34.8125 36.5312
Q39.5469 41.8438 41.4219 45.5312
Q43.3125 49.2188 43.3125 52.7812
Q43.3125 58.5938 39.2344 62.25
Q35.1562 65.9219 28.6094 65.9219
Q23.9688 65.9219 18.8125 64.3125
Q13.6719 62.7031 7.8125 59.4219
L7.8125 69.3906
Q13.7656 71.7812 18.9375 73
Q24.125 74.2188 28.4219 74.2188
Q39.75 74.2188 46.4844 68.5469
Q53.2188 62.8906 53.2188 53.4219
Q53.2188 48.9219 51.5312 44.8906
Q49.8594 40.875 45.4062 35.4062
Q44.1875 33.9844 37.6406 27.2188
Q31.1094 20.4531 19.1875 8.29688" id="BitstreamVeraSans-Roman-32"/>
       <path d="
M10.7969 72.9062
L49.5156 72.9062
L49.5156 64.5938
L19.8281 64.5938
L19.8281 46.7344
Q21.9688 47.4688 24.1094 47.8281
Q26.2656 48.1875 28.4219 48.1875
Q40.625 48.1875 47.75 41.5
Q54.8906 34.8125 54.8906 23.3906
Q54.8906 11.625 47.5625 5.09375
Q40.2344 -1.42188 26.9062 -1.42188
Q22.3125 -1.42188 17.5469 -0.640625
Q12.7969 0.140625 7.71875 1.70312
L7.71875 11.625
Q12.1094 9.23438 16.7969 8.0625
Q21.4844 6.89062 26.7031 6.89062
Q35.1562 6.89062 40.0781 11.3281
Q45.0156 15.7656 45.0156 23.3906
Q45.0156 31 40.0781 35.4375
Q35.1562 39.8906 26.7031 39.8906
Q22.75 39.8906 18.8125 39.0156
Q14.8906 38.1406 10.7969 36.2812
z
" id="BitstreamVeraSans-Roman-35"/>
      </defs>
      <g transform="translate(208.4165625 392.6378125)scale(0.14 -0.14)">
       <use xlink:href="#BitstreamVeraSans-Roman-32"/>
       <use x="63.623046875" xlink:href="#BitstreamVeraSans-Roman-35"/>
       <use x="127.24609375" xlink:href="#BitstreamVeraSans-Roman-30"/>
      </g>
     </g>
    </g>
    <g id="xtick_3">
     <g id="line2d_8">
      <g>
       <use style="stroke:#000000;stroke-width:0.5;" x="369.6" xlink:href="#m93b0483c22" y="378.0"/>
      </g>
     </g>
     <g id="line2d_9">
      <g>
       <use style="stroke:#000000;stroke-width:0.5;" x="369.6" xlink:href="#m741efc42ff" y="43.2"/>
      </g>
     </g>
     <g id="text_3">
      <!-- 500 -->
      <g transform="translate(357.24390625 392.6378125)scale(0.14 -0.14)">
       <use xlink:href="#BitstreamVeraSans-Roman-35"/>
       <use x="63.623046875" xlink:href="#BitstreamVeraSans-Roman-30"/>
       <use x="127.24609375" xlink:href="#BitstreamVeraSans-Roman-30"/>
      </g>
     </g>
    </g>
    <g id="xtick_4">
     <g id="line2d_10">
      <g>
       <use style="stroke:#000000;stroke-width:0.5;" x="518.4" xlink:href="#m93b0483c22" y="378.0"/>
      </g>
     </g>
     <g id="line2d_11">
      <g>
       <use style="stroke:#000000;stroke-width:0.5;" x="518.4" xlink:href="#m741efc42ff" y="43.2"/>
      </g>
     </g>
     <g id="text_4">
      <!-- 750 -->
      <defs>
       <path d="
M8.20312 72.9062
L55.0781 72.9062
L55.0781 68.7031
L28.6094 0
L18.3125 0
L43.2188 64.5938
L8.20312 64.5938
z
" id="BitstreamVeraSans-Roman-37"/>
      </defs>
      <g transform="translate(506.0778125 392.6378125)scale(0.14 -0.14)">
       <use xlink:href="#BitstreamVeraSans-Roman-37"/>
       <use x="63.623046875" xlink:href="#BitstreamVeraSans-Roman-35"/>
       <use x="127.24609375" xlink:href="#BitstreamVeraSans-Roman-30"/>
      </g>
     </g>
    </g>
    <g id="text_5">
     <!-- compartment number -->
     <defs>
      <path d="
M32.9062 24.6094
Q27.4375 24.6094 24.6719 22.75
Q21.9219 20.9062 21.9219 17.2812
Q21.9219 13.9688 24.1406 12.0781
Q26.375 10.2031 30.3281 10.2031
Q35.25 10.2031 38.625 13.7344
Q42 17.2812 42 22.6094
L42 24.6094
z

M59.625 31.2031
L59.625 0
L42 0
L42 8.10938
Q38.4844 3.125 34.0781 0.84375
Q29.6875 -1.42188 23.3906 -1.42188
Q14.8906 -1.42188 9.59375 3.53125
Q4.29688 8.5 4.29688 16.4062
Q4.29688 26.0312 10.9062 30.5156
Q17.5312 35.0156 31.6875 35.0156
L42 35.0156
L42 36.375
Q42 40.5312 38.7188 42.4531
Q35.4531 44.3906 28.5156 44.3906
Q22.9062 44.3906 18.0625 43.2656
Q13.2344 42.1406 9.07812 39.8906
L9.07812 53.2188
Q14.7031 54.5938 20.3594 55.2969
Q26.0312 56 31.6875 56
Q46.4844 56 53.0469 50.1719
Q59.625 44.3438 59.625 31.2031" id="BitstreamVeraSans-Bold-61"/>
      <path id="BitstreamVeraSans-Bold-20"/>
      <path d="
M37.5 11.2812
Q43.1094 11.2812 46.0625 15.375
Q49.0312 19.4844 49.0312 27.2969
Q49.0312 35.1094 46.0625 39.2031
Q43.1094 43.3125 37.5 43.3125
Q31.8906 43.3125 28.875 39.1875
Q25.875 35.0625 25.875 27.2969
Q25.875 19.5312 28.875 15.4062
Q31.8906 11.2812 37.5 11.2812
M25.875 46.6875
Q29.5 51.4688 33.8906 53.7344
Q38.2812 56 44 56
Q54.1094 56 60.5938 47.9688
Q67.0938 39.9375 67.0938 27.2969
Q67.0938 14.6562 60.5938 6.60938
Q54.1094 -1.42188 44 -1.42188
Q38.2812 -1.42188 33.8906 0.84375
Q29.5 3.125 25.875 7.90625
L25.875 0
L8.40625 0
L8.40625 75.9844
L25.875 75.9844
z
" id="BitstreamVeraSans-Bold-62"/>
      <path d="
M52.5938 52.9844
L52.5938 38.7188
Q49.0312 41.1562 45.4375 42.3281
Q41.8438 43.5 37.9844 43.5
Q30.6719 43.5 26.5938 39.2344
Q22.5156 34.9688 22.5156 27.2969
Q22.5156 19.625 26.5938 15.3438
Q30.6719 11.0781 37.9844 11.0781
Q42.0938 11.0781 45.7812 12.2969
Q49.4688 13.5312 52.5938 15.9219
L52.5938 1.60938
Q48.4844 0.09375 44.2656 -0.65625
Q40.0469 -1.42188 35.7969 -1.42188
Q21 -1.42188 12.6406 6.17188
Q4.29688 13.7656 4.29688 27.2969
Q4.29688 40.8281 12.6406 48.4062
Q21 56 35.7969 56
Q40.0938 56 44.2656 55.25
Q48.4375 54.5 52.5938 52.9844" id="BitstreamVeraSans-Bold-63"/>
      <path d="
M49.0312 39.7969
Q46.7344 40.875 44.4531 41.375
Q42.1875 41.8906 39.8906 41.8906
Q33.1562 41.8906 29.5156 37.5625
Q25.875 33.25 25.875 25.2031
L25.875 0
L8.40625 0
L8.40625 54.6875
L25.875 54.6875
L25.875 45.7031
Q29.25 51.0781 33.6094 53.5312
Q37.9844 56 44.0938 56
Q44.9688 56 45.9844 55.9219
Q47.0156 55.8594 48.9688 55.6094
z
" id="BitstreamVeraSans-Bold-72"/>
      <path d="
M7.8125 21.2969
L7.8125 54.6875
L25.3906 54.6875
L25.3906 49.2188
Q25.3906 44.7812 25.3438 38.0625
Q25.2969 31.3438 25.2969 29.1094
Q25.2969 22.5156 25.6406 19.6094
Q25.9844 16.7031 26.8125 15.375
Q27.875 13.6719 29.6094 12.7344
Q31.3438 11.8125 33.5938 11.8125
Q39.0625 11.8125 42.1875 16.0156
Q45.3125 20.2188 45.3125 27.6875
L45.3125 54.6875
L62.7969 54.6875
L62.7969 0
L45.3125 0
L45.3125 7.90625
Q41.3594 3.125 36.9375 0.84375
Q32.5156 -1.42188 27.2031 -1.42188
Q17.7188 -1.42188 12.7656 4.39062
Q7.8125 10.2031 7.8125 21.2969" id="BitstreamVeraSans-Bold-75"/>
      <path d="
M27.4844 70.2188
L27.4844 54.6875
L45.5156 54.6875
L45.5156 42.1875
L27.4844 42.1875
L27.4844 19
Q27.4844 15.1875 29 13.8438
Q30.5156 12.5 35.0156 12.5
L44 12.5
L44 0
L29 0
Q18.6562 0 14.3281 4.3125
Q10.0156 8.64062 10.0156 19
L10.0156 42.1875
L1.3125 42.1875
L1.3125 54.6875
L10.0156 54.6875
L10.0156 70.2188
z
" id="BitstreamVeraSans-Bold-74"/>
      <path d="
M62.9844 27.4844
L62.9844 22.5156
L22.125 22.5156
Q22.75 16.3594 26.5625 13.2812
Q30.375 10.2031 37.2031 10.2031
Q42.7188 10.2031 48.5 11.8438
Q54.2969 13.4844 60.4062 16.7969
L60.4062 3.32812
Q54.2031 0.984375 48 -0.21875
Q41.7969 -1.42188 35.5938 -1.42188
Q20.75 -1.42188 12.5156 6.125
Q4.29688 13.6719 4.29688 27.2969
Q4.29688 40.6719 12.375 48.3281
Q20.4531 56 34.625 56
Q47.5156 56 55.25 48.2344
Q62.9844 40.4844 62.9844 27.4844
M45.0156 33.2969
Q45.0156 38.2812 42.1094 41.3281
Q39.2031 44.3906 34.5156 44.3906
Q29.4375 44.3906 26.2656 41.5312
Q23.0938 38.6719 22.3125 33.2969
z
" id="BitstreamVeraSans-Bold-65"/>
      <path d="
M25.875 7.90625
L25.875 -20.7969
L8.40625 -20.7969
L8.40625 54.6875
L25.875 54.6875
L25.875 46.6875
Q29.5 51.4688 33.8906 53.7344
Q38.2812 56 44 56
Q54.1094 56 60.5938 47.9688
Q67.0938 39.9375 67.0938 27.2969
Q67.0938 14.6562 60.5938 6.60938
Q54.1094 -1.42188 44 -1.42188
Q38.2812 -1.42188 33.8906 0.84375
Q29.5 3.125 25.875 7.90625
M37.5 43.3125
Q31.8906 43.3125 28.875 39.1875
Q25.875 35.0625 25.875 27.2969
Q25.875 19.5312 28.875 15.4062
Q31.8906 11.2812 37.5 11.2812
Q43.1094 11.2812 46.0625 15.375
Q49.0312 19.4844 49.0312 27.2969
Q49.0312 35.1094 46.0625 39.2031
Q43.1094 43.3125 37.5 43.3125" id="BitstreamVeraSans-Bold-70"/>
      <path d="
M34.4219 43.5
Q28.6094 43.5 25.5625 39.3281
Q22.5156 35.1562 22.5156 27.2969
Q22.5156 19.4375 25.5625 15.25
Q28.6094 11.0781 34.4219 11.0781
Q40.1406 11.0781 43.1562 15.25
Q46.1875 19.4375 46.1875 27.2969
Q46.1875 35.1562 43.1562 39.3281
Q40.1406 43.5 34.4219 43.5
M34.4219 56
Q48.5312 56 56.4688 48.375
Q64.4062 40.7656 64.4062 27.2969
Q64.4062 13.8125 56.4688 6.1875
Q48.5312 -1.42188 34.4219 -1.42188
Q20.2656 -1.42188 12.2812 6.1875
Q4.29688 13.8125 4.29688 27.2969
Q4.29688 40.7656 12.2812 48.375
Q20.2656 56 34.4219 56" id="BitstreamVeraSans-Bold-6f"/>
      <path d="
M59.0781 45.6094
Q62.4062 50.6875 66.9688 53.3438
Q71.5312 56 77 56
Q86.4219 56 91.3594 50.1875
Q96.2969 44.3906 96.2969 33.2969
L96.2969 0
L78.7188 0
L78.7188 28.5156
Q78.7656 29.1562 78.7812 29.8281
Q78.8125 30.5156 78.8125 31.7812
Q78.8125 37.5938 77.0938 40.2031
Q75.3906 42.8281 71.5781 42.8281
Q66.6094 42.8281 63.8906 38.7188
Q61.1875 34.625 61.0781 26.8594
L61.0781 0
L43.5 0
L43.5 28.5156
Q43.5 37.5938 41.9375 40.2031
Q40.375 42.8281 36.375 42.8281
Q31.3438 42.8281 28.6094 38.7031
Q25.875 34.5781 25.875 26.9062
L25.875 0
L8.29688 0
L8.29688 54.6875
L25.875 54.6875
L25.875 46.6875
Q29.1094 51.3125 33.2812 53.6562
Q37.4531 56 42.4844 56
Q48.1406 56 52.4844 53.2656
Q56.8438 50.5312 59.0781 45.6094" id="BitstreamVeraSans-Bold-6d"/>
      <path d="
M63.375 33.2969
L63.375 0
L45.7969 0
L45.7969 5.42188
L45.7969 25.4844
Q45.7969 32.5625 45.4844 35.25
Q45.1719 37.9375 44.3906 39.2031
Q43.3594 40.9219 41.5938 41.875
Q39.8438 42.8281 37.5938 42.8281
Q32.125 42.8281 29 38.5938
Q25.875 34.375 25.875 26.9062
L25.875 0
L8.40625 0
L8.40625 54.6875
L25.875 54.6875
L25.875 46.6875
Q29.8281 51.4688 34.2656 53.7344
Q38.7188 56 44.0938 56
Q53.5625 56 58.4688 50.1875
Q63.375 44.3906 63.375 33.2969" id="BitstreamVeraSans-Bold-6e"/>
     </defs>
     <g transform="translate(196.86375 412.706875)scale(0.16 -0.16)">
      <use xlink:href="#BitstreamVeraSans-Bold-63"/>
      <use x="59.27734375" xlink:href="#BitstreamVeraSans-Bold-6f"/>
      <use x="127.978515625" xlink:href="#BitstreamVeraSans-Bold-6d"/>
      <use x="232.177734375" xlink:href="#BitstreamVeraSans-Bold-70"/>
      <use x="303.759765625" xlink:href="#BitstreamVeraSans-Bold-61"/>
      <use x="371.240234375" xlink:href="#BitstreamVeraSans-Bold-72"/>
      <use x="420.556640625" xlink:href="#BitstreamVeraSans-Bold-74"/>
      <use x="468.359375" xlink:href="#BitstreamVeraSans-Bold-6d"/>
      <use x="572.55859375" xlink:href="#BitstreamVeraSans-Bold-65"/>
      <use x="640.380859375" xlink:href="#BitstreamVeraSans-Bold-6e"/>
      <use x="711.572265625" xlink:href="#BitstreamVeraSans-Bold-74"/>
      <use x="759.375" xlink:href="#BitstreamVeraSans-Bold-20"/>
      <use x="794.189453125" xlink:href="#BitstreamVeraSans-Bold-6e"/>
      <use x="865.380859375" xlink:href="#BitstreamVeraSans-Bold-75"/>
      <use x="936.572265625" xlink:href="#BitstreamVeraSans-Bold-6d"/>
      <use x="1040.77148438" xlink:href="#BitstreamVeraSans-Bold-62"/>
      <use x="1112.35351562" xlink:href="#BitstreamVeraSans-Bold-65"/>
      <use x="1180.17578125" xlink:href="#BitstreamVeraSans-Bold-72"/>
     </g>
    </g>
   </g>
   <g id="matplotlib.axis_2">
    <g id="ytick_1">
     <g id="line2d_12">
      <defs>
       <path d="
M0 0
L4 0" id="m728421d6d4" style="stroke:#000000;stroke-width:0.5;"/>
      </defs>
      <g>
       <use style="stroke:#000000;stroke-width:0.5;" x="72.0" xlink:href="#m728421d6d4" y="266.4"/>
      </g>
     </g>
     <g id="line2d_13">
      <defs>
       <path d="
M0 0
L-4 0" id="mcb0005524f" style="stroke:#000000;stroke-width:0.5;"/>
      </defs>
      <g>
       <use style="stroke:#000000;stroke-width:0.5;" x="518.4" xlink:href="#mcb0005524f" y="266.4"/>
      </g>
     </g>
     <g id="text_6">
      <!-- 0.05 -->
      <defs>
       <path d="
M10.6875 12.4062
L21 12.4062
L21 0
L10.6875 0
z
" id="BitstreamVeraSans-Roman-2e"/>
      </defs>
      <g transform="translate(38.9740625 270.263125)scale(0.14 -0.14)">
       <use xlink:href="#BitstreamVeraSans-Roman-30"/>
       <use x="63.623046875" xlink:href="#BitstreamVeraSans-Roman-2e"/>
       <use x="95.41015625" xlink:href="#BitstreamVeraSans-Roman-30"/>
       <use x="159.033203125" xlink:href="#BitstreamVeraSans-Roman-35"/>
      </g>
     </g>
    </g>
    <g id="ytick_2">
     <g id="line2d_14">
      <g>
       <use style="stroke:#000000;stroke-width:0.5;" x="72.0" xlink:href="#m728421d6d4" y="154.8"/>
      </g>
     </g>
     <g id="line2d_15">
      <g>
       <use style="stroke:#000000;stroke-width:0.5;" x="518.4" xlink:href="#mcb0005524f" y="154.8"/>
      </g>
     </g>
     <g id="text_7">
      <!-- 0.10 -->
      <defs>
       <path d="
M12.4062 8.29688
L28.5156 8.29688
L28.5156 63.9219
L10.9844 60.4062
L10.9844 69.3906
L28.4219 72.9062
L38.2812 72.9062
L38.2812 8.29688
L54.3906 8.29688
L54.3906 0
L12.4062 0
z
" id="BitstreamVeraSans-Roman-31"/>
      </defs>
      <g transform="translate(38.6809375 158.663125)scale(0.14 -0.14)">
       <use xlink:href="#BitstreamVeraSans-Roman-30"/>
       <use x="63.623046875" xlink:href="#BitstreamVeraSans-Roman-2e"/>
       <use x="95.41015625" xlink:href="#BitstreamVeraSans-Roman-31"/>
       <use x="159.033203125" xlink:href="#BitstreamVeraSans-Roman-30"/>
      </g>
     </g>
    </g>
    <g id="ytick_3">
     <g id="line2d_16">
      <g>
       <use style="stroke:#000000;stroke-width:0.5;" x="72.0" xlink:href="#m728421d6d4" y="43.2"/>
      </g>
     </g>
     <g id="line2d_17">
      <g>
       <use style="stroke:#000000;stroke-width:0.5;" x="518.4" xlink:href="#mcb0005524f" y="43.2"/>
      </g>
     </g>
     <g id="text_8">
      <!-- 0.15 -->
      <g transform="translate(38.9740625 47.063125)scale(0.14 -0.14)">
       <use xlink:href="#BitstreamVeraSans-Roman-30"/>
       <use x="63.623046875" xlink:href="#BitstreamVeraSans-Roman-2e"/>
       <use x="95.41015625" xlink:href="#BitstreamVeraSans-Roman-31"/>
       <use x="159.033203125" xlink:href="#BitstreamVeraSans-Roman-35"/>
      </g>
     </g>
    </g>
    <g id="text_9">
     <!-- normalized concentration -->
     <defs>
      <path d="
M5.71875 54.6875
L53.4219 54.6875
L53.4219 42.4844
L24.6094 12.5
L53.4219 12.5
L53.4219 0
L4.5 0
L4.5 12.2031
L33.2969 42.1875
L5.71875 42.1875
z
" id="BitstreamVeraSans-Bold-7a"/>
      <path d="
M8.40625 75.9844
L25.875 75.9844
L25.875 0
L8.40625 0
z
" id="BitstreamVeraSans-Bold-6c"/>
      <path d="
M8.40625 54.6875
L25.875 54.6875
L25.875 0
L8.40625 0
z

M8.40625 75.9844
L25.875 75.9844
L25.875 61.7188
L8.40625 61.7188
z
" id="BitstreamVeraSans-Bold-69"/>
      <path d="
M45.6094 46.6875
L45.6094 75.9844
L63.1875 75.9844
L63.1875 0
L45.6094 0
L45.6094 7.90625
Q42 3.07812 37.6406 0.828125
Q33.2969 -1.42188 27.5938 -1.42188
Q17.4844 -1.42188 10.9844 6.60938
Q4.5 14.6562 4.5 27.2969
Q4.5 39.9375 10.9844 47.9688
Q17.4844 56 27.5938 56
Q33.25 56 37.625 53.7344
Q42 51.4688 45.6094 46.6875
M34.0781 11.2812
Q39.7031 11.2812 42.6562 15.375
Q45.6094 19.4844 45.6094 27.2969
Q45.6094 35.1094 42.6562 39.2031
Q39.7031 43.3125 34.0781 43.3125
Q28.5156 43.3125 25.5625 39.2031
Q22.6094 35.1094 22.6094 27.2969
Q22.6094 19.4844 25.5625 15.375
Q28.5156 11.2812 34.0781 11.2812" id="BitstreamVeraSans-Bold-64"/>
     </defs>
     <g transform="translate(30.3534375 325.6475)rotate(-90.0)scale(0.16 -0.16)">
      <use xlink:href="#BitstreamVeraSans-Bold-6e"/>
      <use x="71.19140625" xlink:href="#BitstreamVeraSans-Bold-6f"/>
      <use x="139.892578125" xlink:href="#BitstreamVeraSans-Bold-72"/>
      <use x="189.208984375" xlink:href="#BitstreamVeraSans-Bold-6d"/>
      <use x="293.408203125" xlink:href="#BitstreamVeraSans-Bold-61"/>
      <use x="360.888671875" xlink:href="#BitstreamVeraSans-Bold-6c"/>
      <use x="395.166015625" xlink:href="#BitstreamVeraSans-Bold-69"/>
      <use x="429.443359375" xlink:href="#BitstreamVeraSans-Bold-7a"/>
      <use x="487.646484375" xlink:href="#BitstreamVeraSans-Bold-65"/>
      <use x="555.46875" xlink:href="#BitstreamVeraSans-Bold-64"/>
      <use x="627.05078125" xlink:href="#BitstreamVeraSans-Bold-20"/>
      <use x="661.865234375" xlink:href="#BitstreamVeraSans-Bold-63"/>
      <use x="721.142578125" xlink:href="#BitstreamVeraSans-Bold-6f"/>
      <use x="789.84375" xlink:href="#BitstreamVeraSans-Bold-6e"/>
      <use x="861.03515625" xlink:href="#BitstreamVeraSans-Bold-63"/>
      <use x="920.3125" xlink:href="#BitstreamVeraSans-Bold-65"/>
      <use x="988.134765625" xlink:href="#BitstreamVeraSans-Bold-6e"/>
      <use x="1059.32617188" xlink:href="#BitstreamVeraSans-Bold-74"/>
      <use x="1107.12890625" xlink:href="#BitstreamVeraSans-Bold-72"/>
      <use x="1156.4453125" xlink:href="#BitstreamVeraSans-Bold-61"/>
      <use x="1223.92578125" xlink:href="#BitstreamVeraSans-Bold-74"/>
      <use x="1271.72851562" xlink:href="#BitstreamVeraSans-Bold-69"/>
      <use x="1306.00585938" xlink:href="#BitstreamVeraSans-Bold-6f"/>
      <use x="1374.70703125" xlink:href="#BitstreamVeraSans-Bold-6e"/>
     </g>
    </g>
   </g>
  </g>
 </g>
 <defs>
  <clipPath id="p332b41defa">
   <rect height="334.8" width="446.4" x="72.0" y="43.2"/>
  </clipPath>
 </defs>
</svg>
