<?xml version="1.0" encoding="utf-8" standalone="no"?>
<!DOCTYPE svg PUBLIC "-//W3C//DTD SVG 1.1//EN"
  "http://www.w3.org/Graphics/SVG/1.1/DTD/svg11.dtd">
<!-- Created with matplotlib (http://matplotlib.org/) -->
<svg height="432pt" version="1.1" viewBox="0 0 576 432" width="576pt" xmlns="http://www.w3.org/2000/svg" xmlns:xlink="http://www.w3.org/1999/xlink">
 <defs>
  <style type="text/css">
*{stroke-linecap:butt;stroke-linejoin:round;}
  </style>
 </defs>
 <g id="figure_1">
  <g id="patch_1">
   <path d="
M0 432
L576 432
L576 0
L0 0
z
" style="fill:#ffffff;"/>
  </g>
  <g id="axes_1">
   <g id="patch_2">
    <path d="
M72 378
L518.4 378
L518.4 43.2
L72 43.2
z
" style="fill:none;"/>
   </g>
   <g id="line2d_1">
    <path clip-path="url(#p332b41defa)" d="
M72 337.111
L72.5952 336.839
L73.7856 331.286
L74.3808 330.559
L74.976 329.611
L75.5712 329.095
L76.7616 328.931
L78.5472 329.134
L79.1424 330.036
L80.3328 324.136
L80.928 322.65
L82.1184 322.481
L85.6896 322.479
L86.2848 321.132
L86.88 319.457
L87.4752 319.729
L89.2608 321.248
L90.4512 322.789
L91.6416 324.263
L93.4272 326.072
L94.0224 326.449
L94.6176 326.654
L95.2128 319.554
L98.784 319.8
L100.57 320.036
L101.165 319.742
L104.141 320.912
L104.736 321.008
L105.331 318.821
L105.926 318.175
L107.117 318.165
L107.712 314.598
L108.307 301.555
L108.902 273.175
L109.498 257.844
L110.093 254.92
L111.283 267.925
L112.474 277.063
L113.069 280.316
L113.664 282.743
L114.259 284.363
L114.854 285.18
L115.45 238.545
L116.045 215.809
L116.64 197.951
L117.235 194.196
L117.83 187.806
L118.426 310.022
L119.021 304.524
L120.211 263.362
L120.806 250.886
L121.402 244.605
L121.997 247.417
L122.592 249.107
L123.187 249.672
L123.782 249.096
L124.378 247.345
L124.973 244.367
L125.568 240.086
L126.163 242.868
L126.758 244.26
L127.354 225.382
L127.949 210.413
L128.544 207.886
L129.139 207.911
L129.734 210.188
L130.33 209.792
L130.925 206.655
L131.52 205.284
L132.115 205.533
L132.71 195.406
L133.306 190.36
L133.901 192.438
L134.496 192.406
L135.091 190.201
L135.686 194.17
L136.282 195.981
L136.877 195.674
L137.472 197.775
L138.067 192.053
L138.662 195.78
L139.258 197.357
L139.853 196.816
L140.448 198.929
L141.043 310.571
L141.638 311.741
L143.424 312.398
L144.019 312.511
L144.614 311.833
L145.805 312.099
L146.4 312.176
L146.995 312.081
L147.59 312.545
L150.566 318.182
L151.757 319.724
L152.947 320.741
L153.542 321.193
L154.138 321.435
L154.733 313.737
L155.923 317.097
L157.709 321.552
L158.899 324.931
L160.09 327.649
L161.28 329.669
L161.875 330.511
L162.47 331.099
L163.066 331.408
L163.661 312.463
L164.256 313.024
L167.232 317.056
L167.827 317.88
L168.422 319.072
L169.613 320.667
L170.208 321.195
L170.803 312.835
L171.398 313.107
L173.184 315.489
L174.97 317.897
L176.755 321.122
L177.35 322.178
L177.946 322.903
L178.541 323.279
L179.136 313.077
L179.731 313.493
L181.517 318.519
L182.707 321.879
L183.898 323.675
L185.088 324.893
L185.683 325.418
L186.278 325.692
L186.874 321.887
L188.064 323.713
L189.85 325.626
L190.445 325.909
L191.04 313.356
L191.635 313.709
L194.611 321.705
L195.802 323.949
L196.992 325.661
L198.182 326.857
L198.778 327.268
L199.373 327.482
L199.968 319.063
L201.754 323.917
L202.349 324.642
L203.539 324.793
L204.134 325.199
L205.325 327.49
L206.515 329.045
L207.11 329.518
L207.706 329.764
L208.301 320.073
L209.491 321.025
L210.086 321.315
L210.682 321.467
L211.277 313.425
L212.467 313.188
L213.062 313.271
L214.253 316.265
L215.443 319.113
L216.038 320.276
L217.229 322.99
L217.824 323.895
L218.419 324.546
L219.014 324.942
L219.61 312.998
L220.205 313.184
L221.99 317.637
L223.181 321.771
L223.776 323.344
L224.371 324.599
L224.966 325.534
L225.562 326.17
L226.157 326.622
L226.752 312.172
L227.942 309.503
L228.538 308.912
L229.133 310.086
L229.728 310.68
L230.323 308.388
L230.918 309.808
L232.704 322.16
L233.299 325.971
L233.894 328.329
L235.68 331.94
L236.87 335.281
L238.061 337.857
L240.442 341.809
L241.037 342.396
L241.632 342.775
L242.227 342.998
L242.822 328.937
L244.013 333.651
L245.203 337.434
L246.394 339.914
L247.584 343.007
L248.774 346.775
L249.965 349.845
L251.155 352.237
L252.346 353.918
L252.941 354.476
L253.536 354.873
L254.131 355.094
L254.726 338.667
L255.917 340.88
L257.107 343.17
L257.702 343.976
L258.893 345.069
L260.083 346.177
L260.678 346.523
L261.274 346.702
L261.869 343.918
L263.059 345.515
L264.25 346.669
L265.44 347.513
L266.035 347.762
L266.63 347.886
L267.226 306.46
L267.821 304.448
L268.416 305.644
L269.011 306.247
L269.606 302.07
L270.202 296.276
L271.392 278.672
L272.582 259.659
L273.773 232.562
L274.368 227.532
L276.749 269.312
L277.344 277.363
L277.939 283.69
L279.13 292.394
L279.725 295.05
L280.32 296.355
L280.915 217.013
L281.51 206.352
L282.106 202.907
L282.701 204.61
L283.296 210.395
L283.891 213.58
L284.486 219.316
L285.082 228.081
L286.272 241.326
L286.867 245.965
L287.462 248.656
L288.058 200.372
L289.248 180.25
L289.843 175.738
L290.438 179.76
L291.034 179.37
L291.629 179.373
L292.224 257.07
L292.819 220.65
L293.414 203.199
L294.01 195.211
L294.605 243.598
L295.2 243.529
L295.795 241.269
L296.39 236.486
L296.986 227.403
L297.581 211.768
L298.176 199.658
L298.771 189.998
L299.366 186.934
L299.962 180.745
L300.557 179.222
L301.152 182.894
L301.747 226.844
L302.342 237.253
L302.938 245.714
L303.533 252.329
L304.128 257.174
L304.723 260.309
L305.318 262.028
L305.914 327.346
L306.509 305.507
L307.104 290.69
L307.699 291.592
L310.08 296.752
L311.27 298.456
L311.866 298.978
L312.461 299.253
L313.056 291.638
L315.437 296.431
L316.627 298.688
L317.818 300.215
L318.413 300.68
L319.008 300.924
L319.603 275.361
L320.198 272.631
L321.389 277.836
L322.579 281.948
L323.174 283.433
L324.365 285.421
L324.96 285.878
L325.555 266.35
L327.341 218.589
L327.936 221.822
L328.531 223.964
L329.126 225.035
L329.722 298.769
L330.317 274.919
L331.507 257.452
L332.102 247.532
L332.698 242.078
L333.293 244.948
L333.888 246.391
L334.483 254.383
L335.078 229.048
L335.674 223.747
L336.269 216.863
L336.864 208.169
L337.459 197.101
L338.054 202.197
L338.65 204.587
L339.245 204.345
L339.84 201.409
L340.435 222.523
L341.626 207.321
L342.221 203.725
L342.816 208.878
L343.411 212.607
L344.006 215.216
L344.602 216.651
L345.197 220.88
L345.792 222.943
L346.387 223.669
L346.982 222.877
L347.578 227.31
L348.173 230.245
L348.768 231.713
L349.363 335.24
L349.958 334.445
L350.554 334.207
L351.149 333.538
L351.744 333.048
L352.339 332.924
L355.315 334.01
L355.91 333.212
L356.506 333.453
L358.886 335.858
L360.077 337.105
L361.267 337.949
L361.862 338.148
L362.458 333.967
L364.243 335.104
L366.029 337.064
L367.219 338.053
L367.814 338.439
L368.41 338.652
L369.005 335.102
L370.195 336.823
L370.79 337.717
L372.576 339.478
L373.766 340.386
L374.362 340.69
L374.957 340.857
L375.552 338.425
L377.338 340.632
L378.528 341.595
L379.123 341.821
L379.718 337.736
L381.504 340.071
L382.694 341.323
L383.885 342.281
L384.48 342.505
L385.075 333.984
L388.051 333.951
L388.646 334.498
L391.027 340.367
L391.622 341.346
L392.813 342.36
L393.408 342.696
L394.003 342.881
L394.598 341.337
L396.384 342.967
L397.574 343.635
L398.17 343.785
L398.765 334.304
L399.36 334.275
L399.955 334.464
L400.55 334.787
L401.146 335.287
L405.312 340.218
L406.502 341.088
L407.098 341.317
L407.693 337.984
L409.478 339.199
L410.669 339.711
L411.264 339.827
L411.859 334.75
L412.454 335.054
L415.43 338.551
L416.621 339.449
L417.216 339.691
L417.811 335.011
L420.192 335.928
L421.978 336.258
L422.573 335.89
L424.358 336.97
L426.144 337.752
L426.739 337.867
L427.334 337.045
L428.525 337.899
L429.12 338.193
L429.715 338.358
L430.31 334.138
L430.906 333.422
L431.501 333.085
L432.096 335.918
L433.286 335.458
L435.072 335.007
L435.667 335.418
L436.262 336.008
L436.858 336.985
L437.453 337.665
L438.048 337.79
L441.024 339.004
L441.619 338.427
L442.214 339.561
L446.381 343.369
L447.571 343.749
L448.166 343.384
L448.762 343.675
L449.357 343.838
L449.952 339.693
L451.142 341.386
L452.333 343.227
L453.523 344.082
L454.118 344.387
L454.714 344.56
L455.309 343.479
L457.094 346.271
L458.285 347.759
L458.88 348.319
L459.475 348.721
L460.07 348.939
L460.666 342.175
L463.046 345.318
L464.237 346.457
L464.832 346.828
L465.427 347.029
L466.022 335.488
L467.213 334.208
L467.808 333.79
L468.403 333.648
L469.594 334.048
L471.974 335.278
L473.165 336.052
L473.76 336.238
L474.355 334.773
L474.95 334.541
L476.736 334.428
L477.331 334.49
L478.522 335.042
L480.902 336.343
L482.093 336.69
L482.688 334.435
L483.878 334.612
L486.259 335.103
L486.854 334.635
L488.045 336.179
L490.426 339.797
L491.616 341.83
L492.806 343.796
L493.997 345.344
L494.592 345.914
L495.187 346.319
L495.782 346.536
L496.378 340.452
L497.568 341.217
L498.758 341.613
L499.354 334.485
L499.949 334.59
L500.544 335.05
L501.734 336.434
L502.33 337.235
L502.925 337.717
L504.71 338.164
L505.306 338.228
L505.901 337.93
L507.091 338.985
L507.686 339.35
L508.282 339.556
L508.877 335.302
L510.067 335.347
L510.662 340.193
L511.258 347.449
L511.853 352.64
L512.448 356.059
L513.043 357.774
L513.043 357.774" style="fill:none;stroke:#000000;stroke-linecap:square;stroke-width:8;"/>
   </g>
   <g id="line2d_2">
    <path clip-path="url(#p332b41defa)" d="
M72 336.725
L72.5952 336.527
L73.7856 330.982
L74.3808 330.251
L74.976 329.298
L75.5712 328.778
L76.7616 328.614
L78.5472 328.819
L79.1424 329.771
L80.3328 323.942
L80.928 322.451
L82.1184 322.283
L85.6896 322.282
L86.2848 320.978
L86.88 319.302
L87.4752 319.576
L89.2608 321.104
L90.4512 322.65
L91.6416 324.129
L93.4272 325.944
L94.0224 326.322
L94.6176 326.528
L95.2128 319.402
L98.784 319.651
L100.57 319.889
L101.165 319.592
L104.141 320.768
L104.736 320.864
L105.331 318.71
L105.926 318.063
L107.117 318.054
L107.712 314.529
L108.307 301.476
L108.902 273.072
L109.498 257.729
L110.093 254.804
L111.283 267.824
L112.474 276.973
L113.069 280.23
L113.664 282.659
L114.259 284.281
L114.854 285.099
L115.45 238.413
L116.045 215.657
L116.64 197.784
L117.235 194.026
L117.83 187.63
L118.426 309.997
L119.021 304.507
L120.211 263.359
L120.806 250.885
L121.402 244.607
L121.997 247.422
L122.592 249.114
L123.187 249.68
L123.782 249.106
L124.378 247.357
L124.973 244.381
L125.568 240.101
L126.163 242.882
L126.758 244.274
L127.354 225.387
L127.949 210.421
L128.544 207.896
L129.139 207.923
L129.734 210.202
L130.33 209.806
L130.925 206.67
L131.52 205.299
L132.115 205.544
L132.71 195.423
L133.306 190.383
L133.901 192.464
L134.496 192.434
L135.091 190.231
L135.686 194.201
L136.282 196.012
L136.877 195.706
L137.472 197.807
L138.067 192.077
L138.662 195.805
L139.258 197.384
L139.853 196.844
L140.448 198.956
L141.043 310.586
L141.638 311.756
L143.424 312.414
L144.019 312.527
L144.614 311.885
L145.805 312.151
L146.4 312.229
L146.995 312.17
L147.59 312.636
L150.566 318.271
L151.757 319.812
L152.947 320.828
L153.542 321.28
L154.138 321.521
L154.733 313.828
L155.923 317.187
L157.709 321.639
L158.899 325.015
L160.09 327.729
L161.28 329.747
L161.875 330.588
L162.47 331.175
L163.066 331.484
L163.661 312.585
L164.256 313.146
L167.232 317.175
L167.827 317.998
L168.422 319.189
L169.613 320.781
L170.208 321.309
L170.803 312.989
L171.398 313.261
L173.184 315.642
L174.97 318.047
L176.755 321.265
L177.35 322.319
L177.946 323.042
L178.541 323.418
L179.136 313.261
L179.731 313.677
L181.517 318.695
L182.707 322.047
L183.898 323.839
L185.088 325.054
L185.683 325.578
L186.278 325.851
L186.874 322.055
L188.064 323.876
L189.85 325.785
L190.445 326.067
L191.04 313.566
L191.635 313.922
L194.611 321.902
L195.802 324.139
L196.992 325.846
L198.182 327.039
L198.778 327.449
L199.373 327.662
L199.968 319.268
L201.754 324.108
L202.349 324.831
L203.539 324.982
L204.134 325.386
L205.325 327.671
L206.515 329.221
L207.11 329.692
L207.706 329.938
L208.301 320.274
L209.491 321.224
L210.086 321.513
L210.682 321.664
L211.277 313.659
L212.467 313.47
L213.062 313.554
L214.253 316.538
L215.443 319.375
L216.038 320.533
L217.229 323.236
L217.824 324.137
L218.419 324.786
L219.014 325.18
L219.61 313.303
L220.205 313.49
L221.99 317.925
L223.181 322.04
L223.776 323.606
L224.371 324.856
L224.966 325.787
L225.562 326.42
L226.157 326.87
L226.752 312.502
L227.942 309.888
L228.538 309.302
L229.133 310.469
L229.728 311.06
L230.323 308.801
L230.918 310.218
L232.704 322.512
L233.299 326.303
L233.894 328.648
L235.68 332.239
L236.87 335.56
L238.061 338.12
L240.442 342.048
L241.037 342.631
L241.632 343.008
L242.227 343.229
L242.822 329.254
L244.013 333.943
L245.203 337.707
L246.394 340.172
L247.584 343.245
L248.774 346.989
L249.965 350.039
L251.155 352.415
L252.346 354.084
L252.941 354.639
L253.536 355.033
L254.131 355.253
L254.726 338.933
L255.917 341.133
L257.107 343.411
L257.702 344.211
L258.893 345.297
L260.083 346.398
L260.678 346.741
L261.274 346.919
L261.869 344.154
L263.059 345.741
L264.25 346.887
L265.44 347.726
L266.035 347.973
L266.63 348.096
L267.226 306.899
L267.821 304.899
L268.416 306.089
L269.011 306.688
L269.606 302.55
L270.202 296.807
L271.392 279.35
L272.582 260.494
L273.773 233.609
L274.368 228.618
L276.749 270.103
L277.344 278.096
L277.939 284.378
L279.13 293.019
L279.725 295.657
L280.32 296.952
L280.915 218.179
L281.51 207.601
L282.106 204.188
L282.701 205.881
L283.296 211.627
L283.891 214.79
L284.486 220.486
L285.082 229.188
L286.272 242.337
L286.867 246.942
L287.462 249.613
L288.058 201.674
L289.248 181.705
L289.843 177.228
L290.438 181.221
L291.034 180.834
L291.629 180.838
L292.224 257.921
L292.819 221.758
L293.414 204.431
L294.01 196.499
L294.605 244.55
L295.2 244.487
L295.795 242.249
L296.39 237.504
L296.986 228.492
L297.581 212.973
L298.176 200.953
L298.771 191.365
L299.366 188.325
L299.962 182.182
L300.557 180.671
L301.152 184.317
L301.747 227.939
L302.342 238.274
L302.938 246.675
L303.533 253.243
L304.128 258.054
L304.723 261.166
L305.318 262.872
L305.914 326.974
L306.509 304.983
L307.104 290.062
L307.699 290.972
L310.08 296.173
L311.27 297.89
L311.866 298.416
L312.461 298.693
L313.056 291.018
L315.437 295.851
L316.627 298.126
L317.818 299.665
L318.413 300.134
L319.008 300.379
L319.603 274.623
L320.198 271.875
L321.389 277.12
L322.579 281.263
L323.174 282.76
L324.365 284.763
L324.96 285.224
L325.555 265.549
L327.341 217.45
L327.936 220.708
L328.531 222.865
L329.126 223.944
L329.722 298.197
L330.317 274.176
L331.507 256.586
L332.102 246.596
L332.698 241.104
L333.293 243.995
L333.888 245.448
L334.483 253.499
L335.078 227.986
L335.674 222.65
L336.269 215.719
L336.864 206.966
L337.459 195.821
L338.054 200.955
L338.65 203.363
L339.245 203.119
L339.84 200.164
L340.435 221.416
L341.626 206.111
L342.221 202.491
L342.816 207.682
L343.411 211.438
L344.006 214.066
L344.602 215.512
L345.197 219.764
L345.792 221.844
L346.387 222.576
L346.982 221.779
L347.578 226.245
L348.173 229.201
L348.768 230.68
L349.363 334.927
L349.958 334.137
L350.554 333.905
L351.149 333.232
L351.744 332.74
L352.339 332.615
L355.315 333.71
L355.91 332.905
L356.506 333.148
L358.886 335.572
L360.077 336.828
L361.267 337.679
L361.862 337.879
L362.458 333.668
L364.243 334.817
L366.029 336.791
L367.219 337.787
L367.814 338.176
L368.41 338.391
L369.005 334.816
L370.195 336.552
L370.79 337.453
L372.576 339.227
L373.766 340.142
L374.362 340.447
L374.957 340.616
L375.552 338.166
L377.338 340.389
L378.528 341.358
L379.123 341.586
L379.718 337.472
L381.504 339.823
L382.694 341.084
L383.885 342.049
L384.48 342.274
L385.075 333.687
L388.051 333.657
L388.646 334.209
L391.027 340.121
L391.622 341.107
L392.813 342.127
L393.408 342.466
L394.003 342.653
L394.598 341.098
L396.384 342.74
L397.574 343.412
L398.17 343.563
L398.765 334
L399.36 333.975
L399.955 334.17
L400.55 334.496
L401.146 335
L405.312 339.97
L406.502 340.846
L407.098 341.077
L407.693 337.72
L409.478 338.944
L410.669 339.46
L411.264 339.577
L411.859 334.46
L412.454 334.766
L415.43 338.289
L416.621 339.194
L417.216 339.437
L417.811 334.725
L420.192 335.651
L421.978 335.984
L422.573 335.613
L424.358 336.703
L426.144 337.49
L426.739 337.606
L427.334 336.778
L428.525 337.638
L429.12 337.934
L429.715 338.101
L430.31 333.817
L430.906 333.096
L431.501 332.757
L432.096 335.603
L433.286 335.149
L435.072 334.694
L435.667 335.112
L436.262 335.71
L436.858 336.698
L437.453 337.383
L438.048 337.509
L441.024 338.733
L441.619 338.152
L442.214 339.295
L446.381 343.134
L447.571 343.516
L448.166 343.148
L448.762 343.442
L449.357 343.606
L449.952 339.429
L451.142 341.138
L452.333 342.992
L453.523 343.853
L454.118 344.161
L454.714 344.335
L455.309 343.246
L457.094 346.058
L458.285 347.557
L458.88 348.12
L459.475 348.526
L460.07 348.745
L460.666 341.933
L463.046 345.098
L464.237 346.245
L464.832 346.619
L465.427 346.822
L466.022 335.171
L467.213 333.884
L467.808 333.465
L468.403 333.322
L469.594 333.727
L471.974 334.967
L473.165 335.747
L473.76 335.934
L474.355 334.456
L474.95 334.226
L476.736 334.117
L477.331 334.18
L478.522 334.737
L480.902 336.049
L482.093 336.398
L482.688 334.124
L483.878 334.304
L486.259 334.799
L486.854 334.322
L488.045 335.88
L491.021 340.473
L492.806 343.558
L493.997 345.117
L494.592 345.691
L495.187 346.1
L495.782 346.318
L496.378 340.189
L497.568 340.959
L498.758 341.359
L499.354 334.168
L499.949 334.275
L500.544 334.74
L501.734 336.135
L502.33 336.943
L502.925 337.429
L504.71 337.88
L505.306 337.944
L505.901 337.644
L507.091 338.707
L507.686 339.075
L508.282 339.282
L508.877 334.994
L510.067 335.04
L510.662 339.837
L511.258 347.161
L511.853 352.401
L512.448 355.852
L513.043 357.583
L513.043 357.583" style="fill:none;stroke:#0000ff;stroke-linecap:square;stroke-width:4;"/>
   </g>
   <g id="line2d_3">
    <path clip-path="url(#p332b41defa)" d="
M72 315.855
L72.5952 315.701
L73.7856 312.56
L75.5712 311.321
L76.7616 311.228
L78.5472 311.342
L79.1424 311.853
L80.3328 308.517
L80.928 307.676
L82.7136 307.573
L84.4992 307.574
L85.6896 307.579
L86.2848 306.818
L86.88 305.87
L87.4752 306.024
L89.2608 306.884
L93.4272 309.613
L94.6176 309.942
L95.2128 305.925
L99.9744 306.169
L100.57 306.198
L101.165 306.031
L104.141 306.693
L104.736 306.747
L105.331 305.511
L105.926 305.146
L107.117 305.14
L107.712 303.123
L108.307 295.744
L108.902 279.69
L109.498 271.017
L110.093 269.363
L111.283 276.72
L112.474 281.889
L113.069 283.73
L113.664 285.102
L114.259 286.019
L114.854 286.481
L115.45 260.099
L116.045 247.238
L116.64 237.135
L117.235 235.011
L117.83 231.396
L118.426 300.535
L119.021 297.425
L120.211 274.14
L120.806 267.082
L121.402 263.529
L121.997 265.121
L122.592 266.076
L123.187 266.396
L123.782 266.07
L124.378 265.08
L124.973 263.395
L125.568 260.974
L126.163 262.547
L126.758 263.334
L127.354 252.655
L127.949 244.187
L128.544 242.758
L129.139 242.772
L129.734 244.061
L130.33 243.836
L130.925 242.062
L131.52 241.286
L132.115 241.427
L132.71 235.698
L133.306 232.844
L133.901 234.02
L134.496 234.002
L135.091 232.754
L135.686 235
L136.282 236.024
L136.877 235.85
L137.472 237.039
L138.067 233.802
L138.662 235.91
L139.258 236.802
L139.853 236.496
L140.448 237.692
L141.043 300.845
L141.638 301.507
L144.019 301.943
L144.614 301.56
L146.4 301.754
L146.995 301.7
L147.59 301.962
L150.566 305.151
L151.757 306.023
L152.947 306.598
L154.138 306.991
L154.733 302.636
L155.923 304.537
L158.304 308.059
L159.494 309.786
L160.685 311.123
L161.875 312.126
L162.47 312.458
L163.066 312.633
L163.661 301.916
L164.851 302.67
L166.042 303.509
L167.827 304.98
L168.422 305.655
L169.613 306.557
L170.208 306.856
L170.803 302.127
L171.398 302.28
L174.374 304.582
L174.97 304.99
L176.755 306.814
L177.35 307.412
L177.946 307.822
L178.541 308.035
L179.136 302.264
L179.731 302.499
L181.517 305.342
L182.707 307.243
L183.898 308.259
L185.088 308.948
L185.683 309.245
L186.278 309.4
L186.874 307.247
L188.064 308.28
L189.85 309.362
L190.445 309.523
L191.04 302.422
L191.635 302.621
L194.611 307.145
L195.802 308.414
L196.992 309.383
L198.182 310.059
L199.373 310.413
L199.968 305.65
L201.754 308.396
L202.349 308.806
L203.539 308.891
L204.134 309.121
L205.325 310.417
L206.515 311.297
L207.11 311.564
L207.706 311.704
L208.301 306.221
L209.491 306.76
L210.682 307.01
L211.277 302.461
L213.062 302.375
L214.253 304.068
L215.443 305.679
L216.038 306.337
L217.229 307.873
L218.419 308.753
L219.014 308.977
L219.61 302.22
L220.205 302.326
L221.99 304.845
L223.181 307.183
L224.371 308.783
L224.966 309.312
L226.157 309.927
L226.752 301.753
L227.942 300.244
L228.538 299.91
L229.133 300.574
L229.728 300.91
L230.323 299.614
L230.918 300.417
L232.704 307.404
L233.299 309.559
L233.894 310.893
L236.275 313.91
L237.466 315.614
L239.251 317.486
L240.442 318.518
L241.632 319.065
L242.227 319.19
L242.822 311.237
L244.013 313.903
L245.203 316.043
L246.394 317.446
L247.584 319.195
L248.774 321.327
L249.965 323.064
L251.155 324.416
L252.346 325.367
L253.536 325.907
L254.131 326.032
L254.726 316.74
L255.917 317.992
L257.107 319.287
L258.298 320.09
L260.678 321.184
L261.274 321.285
L261.869 319.71
L263.059 320.614
L264.25 321.266
L265.44 321.744
L266.63 321.955
L267.226 298.524
L267.821 297.385
L268.416 298.062
L269.011 298.403
L269.606 296.041
L270.202 292.764
L271.392 282.807
L272.582 272.053
L273.773 256.726
L274.368 253.881
L276.749 277.514
L277.344 282.068
L277.939 285.647
L279.13 290.57
L279.725 292.073
L280.32 292.811
L280.915 247.931
L281.51 241.9
L282.106 239.952
L282.701 240.915
L283.296 244.188
L283.891 245.989
L284.486 249.234
L285.082 254.192
L286.272 261.684
L286.867 264.308
L287.462 265.83
L288.058 238.518
L289.248 227.136
L289.843 224.584
L290.438 226.859
L291.034 226.639
L291.629 226.641
L292.224 270.589
L292.819 249.987
L293.414 240.116
L294.01 235.597
L294.605 262.968
L295.2 262.929
L295.795 261.651
L296.39 258.945
L296.986 253.808
L297.581 244.964
L298.176 238.114
L298.771 232.65
L299.366 230.917
L299.962 227.416
L300.557 226.554
L301.152 228.632
L301.747 253.492
L302.938 264.166
L303.533 267.908
L304.128 270.648
L304.723 272.421
L305.318 273.394
L305.914 310.331
L306.509 297.976
L307.104 289.594
L307.699 290.104
L310.08 293.023
L311.27 293.987
L311.866 294.282
L312.461 294.438
L313.056 290.13
L317.222 294.604
L318.413 295.245
L319.008 295.383
L319.603 280.922
L320.198 279.377
L321.389 282.322
L322.579 284.648
L323.174 285.488
L324.365 286.613
L324.96 286.872
L325.555 275.824
L327.341 248.804
L327.936 250.633
L328.531 251.845
L329.126 252.45
L329.722 294.164
L330.317 280.672
L331.507 270.79
L332.102 265.178
L332.698 262.093
L333.293 263.716
L333.888 264.532
L334.483 269.054
L335.078 254.721
L335.674 251.722
L336.269 247.828
L336.864 242.91
L337.459 236.648
L338.054 239.531
L338.65 240.884
L339.245 240.746
L339.84 239.086
L340.435 251.03
L341.626 242.43
L342.221 240.395
L342.816 243.311
L343.411 245.42
L344.006 246.896
L344.602 247.708
L345.197 250.101
L345.792 251.268
L346.387 251.678
L346.982 251.23
L347.578 253.739
L348.173 255.399
L348.768 256.229
L349.363 314.796
L349.958 314.346
L350.554 314.211
L351.744 313.555
L352.339 313.485
L355.315 314.1
L355.91 313.648
L356.506 313.784
L361.267 316.328
L361.862 316.44
L362.458 314.075
L364.243 314.718
L366.029 315.827
L367.219 316.386
L368.41 316.725
L369.005 314.717
L370.195 315.69
L370.79 316.196
L373.171 317.473
L374.362 317.878
L374.957 317.973
L375.552 316.597
L377.338 317.845
L378.528 318.39
L379.123 318.518
L379.718 316.207
L382.099 317.908
L383.885 318.778
L384.48 318.905
L385.075 314.085
L388.051 314.066
L388.646 314.375
L391.027 317.695
L391.622 318.249
L392.813 318.823
L394.003 319.118
L394.598 318.244
L396.384 319.166
L397.574 319.544
L398.17 319.629
L398.765 314.266
L399.36 314.249
L400.55 314.539
L401.741 315.226
L405.312 317.611
L406.502 318.103
L407.098 318.233
L407.693 316.347
L409.478 317.035
L410.669 317.324
L411.264 317.39
L411.859 314.518
L412.454 314.69
L415.43 316.668
L416.621 317.176
L417.216 317.313
L417.811 314.666
L420.787 315.267
L421.978 315.371
L422.573 315.162
L424.954 315.943
L426.144 316.216
L426.739 316.281
L427.334 315.816
L428.525 316.299
L429.715 316.559
L430.31 314.173
L430.906 313.768
L431.501 313.577
L432.096 315.18
L433.286 314.92
L435.072 314.664
L436.262 315.23
L436.858 315.783
L437.453 316.167
L438.643 316.382
L441.024 316.925
L441.619 316.598
L442.214 317.24
L446.381 319.394
L447.571 319.609
L448.166 319.402
L449.357 319.659
L449.952 317.314
L452.928 319.57
L454.118 319.97
L454.714 320.068
L455.309 319.456
L457.094 321.035
L458.285 321.878
L459.475 322.422
L460.07 322.545
L460.666 318.719
L463.046 320.496
L464.237 321.141
L465.427 321.464
L466.022 314.936
L467.213 314.212
L467.808 313.976
L468.403 313.896
L470.189 314.281
L472.57 315.068
L473.76 315.361
L474.355 314.532
L475.546 314.37
L476.736 314.336
L477.926 314.512
L482.093 315.616
L482.688 314.34
L484.474 314.522
L486.259 314.718
L486.854 314.454
L488.64 315.82
L491.616 318.524
L492.806 319.636
L493.997 320.512
L495.187 321.063
L495.782 321.186
L496.378 317.744
L497.568 318.177
L498.758 318.401
L499.354 314.369
L499.949 314.428
L501.139 315.039
L502.33 315.924
L502.925 316.197
L504.71 316.45
L505.306 316.486
L505.901 316.318
L507.091 316.915
L508.282 317.237
L508.877 314.831
L510.067 314.857
L510.662 317.599
L511.258 321.704
L511.853 324.64
L512.448 326.575
L513.043 327.545
L513.043 327.545" style="fill:none;stroke:#ff0000;stroke-linecap:square;stroke-width:2;"/>
   </g>
   <g id="patch_3">
    <path d="
M72 43.2
L518.4 43.2" style="fill:none;stroke:#000000;stroke-linecap:square;stroke-linejoin:miter;"/>
   </g>
   <g id="patch_4">
    <path d="
M518.4 378
L518.4 43.2" style="fill:none;stroke:#000000;stroke-linecap:square;stroke-linejoin:miter;"/>
   </g>
   <g id="patch_5">
    <path d="
M72 378
L518.4 378" style="fill:none;stroke:#000000;stroke-linecap:square;stroke-linejoin:miter;"/>
   </g>
   <g id="patch_6">
    <path d="
M72 378
L72 43.2" style="fill:none;stroke:#000000;stroke-linecap:square;stroke-linejoin:miter;"/>
   </g>
   <g id="matplotlib.axis_1">
    <g id="xtick_1">
     <g id="line2d_4">
      <defs>
       <path d="
M0 0
L0 -4" id="m93b0483c22" style="stroke:#000000;stroke-width:0.5;"/>
      </defs>
      <g>
       <use style="stroke:#000000;stroke-width:0.5;" x="72.0" xlink:href="#m93b0483c22" y="378.0"/>
      </g>
     </g>
     <g id="line2d_5">
      <defs>
       <path d="
M0 0
L0 4" id="m741efc42ff" style="stroke:#000000;stroke-width:0.5;"/>
      </defs>
      <g>
       <use style="stroke:#000000;stroke-width:0.5;" x="72.0" xlink:href="#m741efc42ff" y="43.2"/>
      </g>
     </g>
     <g id="text_1">
      <!-- 0 -->
      <defs>
       <path d="
M31.7812 66.4062
Q24.1719 66.4062 20.3281 58.9062
Q16.5 51.4219 16.5 36.375
Q16.5 21.3906 20.3281 13.8906
Q24.1719 6.39062 31.7812 6.39062
Q39.4531 6.39062 43.2812 13.8906
Q47.125 21.3906 47.125 36.375
Q47.125 51.4219 43.2812 58.9062
Q39.4531 66.4062 31.7812 66.4062
M31.7812 74.2188
Q44.0469 74.2188 50.5156 64.5156
Q56.9844 54.8281 56.9844 36.375
Q56.9844 17.9688 50.5156 8.26562
Q44.0469 -1.42188 31.7812 -1.42188
Q19.5312 -1.42188 13.0625 8.26562
Q6.59375 17.9688 6.59375 36.375
Q6.59375 54.8281 13.0625 64.5156
Q19.5312 74.2188 31.7812 74.2188" id="BitstreamVeraSans-Roman-30"/>
      </defs>
      <g transform="translate(68.47265625 392.6378125)scale(0.14 -0.14)">
       <use xlink:href="#BitstreamVeraSans-Roman-30"/>
      </g>
     </g>
    </g>
    <g id="xtick_2">
     <g id="line2d_6">
      <g>
       <use style="stroke:#000000;stroke-width:0.5;" x="220.8" xlink:href="#m93b0483c22" y="378.0"/>
      </g>
     </g>
     <g id="line2d_7">
      <g>
       <use style="stroke:#000000;stroke-width:0.5;" x="220.8" xlink:href="#m741efc42ff" y="43.2"/>
      </g>
     </g>
     <g id="text_2">
      <!-- 250 -->
      <defs>
       <path d="
M19.1875 8.29688
L53.6094 8.29688
L53.6094 0
L7.32812 0
L7.32812 8.29688
Q12.9375 14.1094 22.625 23.8906
Q32.3281 33.6875 34.8125 36.5312
Q39.5469 41.8438 41.4219 45.5312
Q43.3125 49.2188 43.3125 52.7812
Q43.3125 58.5938 39.2344 62.25
Q35.1562 65.9219 28.6094 65.9219
Q23.9688 65.9219 18.8125 64.3125
Q13.6719 62.7031 7.8125 59.4219
L7.8125 69.3906
Q13.7656 71.7812 18.9375 73
Q24.125 74.2188 28.4219 74.2188
Q39.75 74.2188 46.4844 68.5469
Q53.2188 62.8906 53.2188 53.4219
Q53.2188 48.9219 51.5312 44.8906
Q49.8594 40.875 45.4062 35.4062
Q44.1875 33.9844 37.6406 27.2188
Q31.1094 20.4531 19.1875 8.29688" id="BitstreamVeraSans-Roman-32"/>
       <path d="
M10.7969 72.9062
L49.5156 72.9062
L49.5156 64.5938
L19.8281 64.5938
L19.8281 46.7344
Q21.9688 47.4688 24.1094 47.8281
Q26.2656 48.1875 28.4219 48.1875
Q40.625 48.1875 47.75 41.5
Q54.8906 34.8125 54.8906 23.3906
Q54.8906 11.625 47.5625 5.09375
Q40.2344 -1.42188 26.9062 -1.42188
Q22.3125 -1.42188 17.5469 -0.640625
Q12.7969 0.140625 7.71875 1.70312
L7.71875 11.625
Q12.1094 9.23438 16.7969 8.0625
Q21.4844 6.89062 26.7031 6.89062
Q35.1562 6.89062 40.0781 11.3281
Q45.0156 15.7656 45.0156 23.3906
Q45.0156 31 40.0781 35.4375
Q35.1562 39.8906 26.7031 39.8906
Q22.75 39.8906 18.8125 39.0156
Q14.8906 38.1406 10.7969 36.2812
z
" id="BitstreamVeraSans-Roman-35"/>
      </defs>
      <g transform="translate(208.4165625 392.6378125)scale(0.14 -0.14)">
       <use xlink:href="#BitstreamVeraSans-Roman-32"/>
       <use x="63.623046875" xlink:href="#BitstreamVeraSans-Roman-35"/>
       <use x="127.24609375" xlink:href="#BitstreamVeraSans-Roman-30"/>
      </g>
     </g>
    </g>
    <g id="xtick_3">
     <g id="line2d_8">
      <g>
       <use style="stroke:#000000;stroke-width:0.5;" x="369.6" xlink:href="#m93b0483c22" y="378.0"/>
      </g>
     </g>
     <g id="line2d_9">
      <g>
       <use style="stroke:#000000;stroke-width:0.5;" x="369.6" xlink:href="#m741efc42ff" y="43.2"/>
      </g>
     </g>
     <g id="text_3">
      <!-- 500 -->
      <g transform="translate(357.24390625 392.6378125)scale(0.14 -0.14)">
       <use xlink:href="#BitstreamVeraSans-Roman-35"/>
       <use x="63.623046875" xlink:href="#BitstreamVeraSans-Roman-30"/>
       <use x="127.24609375" xlink:href="#BitstreamVeraSans-Roman-30"/>
      </g>
     </g>
    </g>
    <g id="xtick_4">
     <g id="line2d_10">
      <g>
       <use style="stroke:#000000;stroke-width:0.5;" x="518.4" xlink:href="#m93b0483c22" y="378.0"/>
      </g>
     </g>
     <g id="line2d_11">
      <g>
       <use style="stroke:#000000;stroke-width:0.5;" x="518.4" xlink:href="#m741efc42ff" y="43.2"/>
      </g>
     </g>
     <g id="text_4">
      <!-- 750 -->
      <defs>
       <path d="
M8.20312 72.9062
L55.0781 72.9062
L55.0781 68.7031
L28.6094 0
L18.3125 0
L43.2188 64.5938
L8.20312 64.5938
z
" id="BitstreamVeraSans-Roman-37"/>
      </defs>
      <g transform="translate(506.0778125 392.6378125)scale(0.14 -0.14)">
       <use xlink:href="#BitstreamVeraSans-Roman-37"/>
       <use x="63.623046875" xlink:href="#BitstreamVeraSans-Roman-35"/>
       <use x="127.24609375" xlink:href="#BitstreamVeraSans-Roman-30"/>
      </g>
     </g>
    </g>
    <g id="text_5">
     <!-- compartment number -->
     <defs>
      <path d="
M32.9062 24.6094
Q27.4375 24.6094 24.6719 22.75
Q21.9219 20.9062 21.9219 17.2812
Q21.9219 13.9688 24.1406 12.0781
Q26.375 10.2031 30.3281 10.2031
Q35.25 10.2031 38.625 13.7344
Q42 17.2812 42 22.6094
L42 24.6094
z

M59.625 31.2031
L59.625 0
L42 0
L42 8.10938
Q38.4844 3.125 34.0781 0.84375
Q29.6875 -1.42188 23.3906 -1.42188
Q14.8906 -1.42188 9.59375 3.53125
Q4.29688 8.5 4.29688 16.4062
Q4.29688 26.0312 10.9062 30.5156
Q17.5312 35.0156 31.6875 35.0156
L42 35.0156
L42 36.375
Q42 40.5312 38.7188 42.4531
Q35.4531 44.3906 28.5156 44.3906
Q22.9062 44.3906 18.0625 43.2656
Q13.2344 42.1406 9.07812 39.8906
L9.07812 53.2188
Q14.7031 54.5938 20.3594 55.2969
Q26.0312 56 31.6875 56
Q46.4844 56 53.0469 50.1719
Q59.625 44.3438 59.625 31.2031" id="BitstreamVeraSans-Bold-61"/>
      <path id="BitstreamVeraSans-Bold-20"/>
      <path d="
M37.5 11.2812
Q43.1094 11.2812 46.0625 15.375
Q49.0312 19.4844 49.0312 27.2969
Q49.0312 35.1094 46.0625 39.2031
Q43.1094 43.3125 37.5 43.3125
Q31.8906 43.3125 28.875 39.1875
Q25.875 35.0625 25.875 27.2969
Q25.875 19.5312 28.875 15.4062
Q31.8906 11.2812 37.5 11.2812
M25.875 46.6875
Q29.5 51.4688 33.8906 53.7344
Q38.2812 56 44 56
Q54.1094 56 60.5938 47.9688
Q67.0938 39.9375 67.0938 27.2969
Q67.0938 14.6562 60.5938 6.60938
Q54.1094 -1.42188 44 -1.42188
Q38.2812 -1.42188 33.8906 0.84375
Q29.5 3.125 25.875 7.90625
L25.875 0
L8.40625 0
L8.40625 75.9844
L25.875 75.9844
z
" id="BitstreamVeraSans-Bold-62"/>
      <path d="
M52.5938 52.9844
L52.5938 38.7188
Q49.0312 41.1562 45.4375 42.3281
Q41.8438 43.5 37.9844 43.5
Q30.6719 43.5 26.5938 39.2344
Q22.5156 34.9688 22.5156 27.2969
Q22.5156 19.625 26.5938 15.3438
Q30.6719 11.0781 37.9844 11.0781
Q42.0938 11.0781 45.7812 12.2969
Q49.4688 13.5312 52.5938 15.9219
L52.5938 1.60938
Q48.4844 0.09375 44.2656 -0.65625
Q40.0469 -1.42188 35.7969 -1.42188
Q21 -1.42188 12.6406 6.17188
Q4.29688 13.7656 4.29688 27.2969
Q4.29688 40.8281 12.6406 48.4062
Q21 56 35.7969 56
Q40.0938 56 44.2656 55.25
Q48.4375 54.5 52.5938 52.9844" id="BitstreamVeraSans-Bold-63"/>
      <path d="
M49.0312 39.7969
Q46.7344 40.875 44.4531 41.375
Q42.1875 41.8906 39.8906 41.8906
Q33.1562 41.8906 29.5156 37.5625
Q25.875 33.25 25.875 25.2031
L25.875 0
L8.40625 0
L8.40625 54.6875
L25.875 54.6875
L25.875 45.7031
Q29.25 51.0781 33.6094 53.5312
Q37.9844 56 44.0938 56
Q44.9688 56 45.9844 55.9219
Q47.0156 55.8594 48.9688 55.6094
z
" id="BitstreamVeraSans-Bold-72"/>
      <path d="
M7.8125 21.2969
L7.8125 54.6875
L25.3906 54.6875
L25.3906 49.2188
Q25.3906 44.7812 25.3438 38.0625
Q25.2969 31.3438 25.2969 29.1094
Q25.2969 22.5156 25.6406 19.6094
Q25.9844 16.7031 26.8125 15.375
Q27.875 13.6719 29.6094 12.7344
Q31.3438 11.8125 33.5938 11.8125
Q39.0625 11.8125 42.1875 16.0156
Q45.3125 20.2188 45.3125 27.6875
L45.3125 54.6875
L62.7969 54.6875
L62.7969 0
L45.3125 0
L45.3125 7.90625
Q41.3594 3.125 36.9375 0.84375
Q32.5156 -1.42188 27.2031 -1.42188
Q17.7188 -1.42188 12.7656 4.39062
Q7.8125 10.2031 7.8125 21.2969" id="BitstreamVeraSans-Bold-75"/>
      <path d="
M27.4844 70.2188
L27.4844 54.6875
L45.5156 54.6875
L45.5156 42.1875
L27.4844 42.1875
L27.4844 19
Q27.4844 15.1875 29 13.8438
Q30.5156 12.5 35.0156 12.5
L44 12.5
L44 0
L29 0
Q18.6562 0 14.3281 4.3125
Q10.0156 8.64062 10.0156 19
L10.0156 42.1875
L1.3125 42.1875
L1.3125 54.6875
L10.0156 54.6875
L10.0156 70.2188
z
" id="BitstreamVeraSans-Bold-74"/>
      <path d="
M62.9844 27.4844
L62.9844 22.5156
L22.125 22.5156
Q22.75 16.3594 26.5625 13.2812
Q30.375 10.2031 37.2031 10.2031
Q42.7188 10.2031 48.5 11.8438
Q54.2969 13.4844 60.4062 16.7969
L60.4062 3.32812
Q54.2031 0.984375 48 -0.21875
Q41.7969 -1.42188 35.5938 -1.42188
Q20.75 -1.42188 12.5156 6.125
Q4.29688 13.6719 4.29688 27.2969
Q4.29688 40.6719 12.375 48.3281
Q20.4531 56 34.625 56
Q47.5156 56 55.25 48.2344
Q62.9844 40.4844 62.9844 27.4844
M45.0156 33.2969
Q45.0156 38.2812 42.1094 41.3281
Q39.2031 44.3906 34.5156 44.3906
Q29.4375 44.3906 26.2656 41.5312
Q23.0938 38.6719 22.3125 33.2969
z
" id="BitstreamVeraSans-Bold-65"/>
      <path d="
M25.875 7.90625
L25.875 -20.7969
L8.40625 -20.7969
L8.40625 54.6875
L25.875 54.6875
L25.875 46.6875
Q29.5 51.4688 33.8906 53.7344
Q38.2812 56 44 56
Q54.1094 56 60.5938 47.9688
Q67.0938 39.9375 67.0938 27.2969
Q67.0938 14.6562 60.5938 6.60938
Q54.1094 -1.42188 44 -1.42188
Q38.2812 -1.42188 33.8906 0.84375
Q29.5 3.125 25.875 7.90625
M37.5 43.3125
Q31.8906 43.3125 28.875 39.1875
Q25.875 35.0625 25.875 27.2969
Q25.875 19.5312 28.875 15.4062
Q31.8906 11.2812 37.5 11.2812
Q43.1094 11.2812 46.0625 15.375
Q49.0312 19.4844 49.0312 27.2969
Q49.0312 35.1094 46.0625 39.2031
Q43.1094 43.3125 37.5 43.3125" id="BitstreamVeraSans-Bold-70"/>
      <path d="
M34.4219 43.5
Q28.6094 43.5 25.5625 39.3281
Q22.5156 35.1562 22.5156 27.2969
Q22.5156 19.4375 25.5625 15.25
Q28.6094 11.0781 34.4219 11.0781
Q40.1406 11.0781 43.1562 15.25
Q46.1875 19.4375 46.1875 27.2969
Q46.1875 35.1562 43.1562 39.3281
Q40.1406 43.5 34.4219 43.5
M34.4219 56
Q48.5312 56 56.4688 48.375
Q64.4062 40.7656 64.4062 27.2969
Q64.4062 13.8125 56.4688 6.1875
Q48.5312 -1.42188 34.4219 -1.42188
Q20.2656 -1.42188 12.2812 6.1875
Q4.29688 13.8125 4.29688 27.2969
Q4.29688 40.7656 12.2812 48.375
Q20.2656 56 34.4219 56" id="BitstreamVeraSans-Bold-6f"/>
      <path d="
M59.0781 45.6094
Q62.4062 50.6875 66.9688 53.3438
Q71.5312 56 77 56
Q86.4219 56 91.3594 50.1875
Q96.2969 44.3906 96.2969 33.2969
L96.2969 0
L78.7188 0
L78.7188 28.5156
Q78.7656 29.1562 78.7812 29.8281
Q78.8125 30.5156 78.8125 31.7812
Q78.8125 37.5938 77.0938 40.2031
Q75.3906 42.8281 71.5781 42.8281
Q66.6094 42.8281 63.8906 38.7188
Q61.1875 34.625 61.0781 26.8594
L61.0781 0
L43.5 0
L43.5 28.5156
Q43.5 37.5938 41.9375 40.2031
Q40.375 42.8281 36.375 42.8281
Q31.3438 42.8281 28.6094 38.7031
Q25.875 34.5781 25.875 26.9062
L25.875 0
L8.29688 0
L8.29688 54.6875
L25.875 54.6875
L25.875 46.6875
Q29.1094 51.3125 33.2812 53.6562
Q37.4531 56 42.4844 56
Q48.1406 56 52.4844 53.2656
Q56.8438 50.5312 59.0781 45.6094" id="BitstreamVeraSans-Bold-6d"/>
      <path d="
M63.375 33.2969
L63.375 0
L45.7969 0
L45.7969 5.42188
L45.7969 25.4844
Q45.7969 32.5625 45.4844 35.25
Q45.1719 37.9375 44.3906 39.2031
Q43.3594 40.9219 41.5938 41.875
Q39.8438 42.8281 37.5938 42.8281
Q32.125 42.8281 29 38.5938
Q25.875 34.375 25.875 26.9062
L25.875 0
L8.40625 0
L8.40625 54.6875
L25.875 54.6875
L25.875 46.6875
Q29.8281 51.4688 34.2656 53.7344
Q38.7188 56 44.0938 56
Q53.5625 56 58.4688 50.1875
Q63.375 44.3906 63.375 33.2969" id="BitstreamVeraSans-Bold-6e"/>
     </defs>
     <g transform="translate(196.86375 412.706875)scale(0.16 -0.16)">
      <use xlink:href="#BitstreamVeraSans-Bold-63"/>
      <use x="59.27734375" xlink:href="#BitstreamVeraSans-Bold-6f"/>
      <use x="127.978515625" xlink:href="#BitstreamVeraSans-Bold-6d"/>
      <use x="232.177734375" xlink:href="#BitstreamVeraSans-Bold-70"/>
      <use x="303.759765625" xlink:href="#BitstreamVeraSans-Bold-61"/>
      <use x="371.240234375" xlink:href="#BitstreamVeraSans-Bold-72"/>
      <use x="420.556640625" xlink:href="#BitstreamVeraSans-Bold-74"/>
      <use x="468.359375" xlink:href="#BitstreamVeraSans-Bold-6d"/>
      <use x="572.55859375" xlink:href="#BitstreamVeraSans-Bold-65"/>
      <use x="640.380859375" xlink:href="#BitstreamVeraSans-Bold-6e"/>
      <use x="711.572265625" xlink:href="#BitstreamVeraSans-Bold-74"/>
      <use x="759.375" xlink:href="#BitstreamVeraSans-Bold-20"/>
      <use x="794.189453125" xlink:href="#BitstreamVeraSans-Bold-6e"/>
      <use x="865.380859375" xlink:href="#BitstreamVeraSans-Bold-75"/>
      <use x="936.572265625" xlink:href="#BitstreamVeraSans-Bold-6d"/>
      <use x="1040.77148438" xlink:href="#BitstreamVeraSans-Bold-62"/>
      <use x="1112.35351562" xlink:href="#BitstreamVeraSans-Bold-65"/>
      <use x="1180.17578125" xlink:href="#BitstreamVeraSans-Bold-72"/>
     </g>
    </g>
   </g>
   <g id="matplotlib.axis_2">
    <g id="ytick_1">
     <g id="line2d_12">
      <defs>
       <path d="
M0 0
L4 0" id="m728421d6d4" style="stroke:#000000;stroke-width:0.5;"/>
      </defs>
      <g>
       <use style="stroke:#000000;stroke-width:0.5;" x="72.0" xlink:href="#m728421d6d4" y="266.4"/>
      </g>
     </g>
     <g id="line2d_13">
      <defs>
       <path d="
M0 0
L-4 0" id="mcb0005524f" style="stroke:#000000;stroke-width:0.5;"/>
      </defs>
      <g>
       <use style="stroke:#000000;stroke-width:0.5;" x="518.4" xlink:href="#mcb0005524f" y="266.4"/>
      </g>
     </g>
     <g id="text_6">
      <!-- 0.05 -->
      <defs>
       <path d="
M10.6875 12.4062
L21 12.4062
L21 0
L10.6875 0
z
" id="BitstreamVeraSans-Roman-2e"/>
      </defs>
      <g transform="translate(38.9740625 270.263125)scale(0.14 -0.14)">
       <use xlink:href="#BitstreamVeraSans-Roman-30"/>
       <use x="63.623046875" xlink:href="#BitstreamVeraSans-Roman-2e"/>
       <use x="95.41015625" xlink:href="#BitstreamVeraSans-Roman-30"/>
       <use x="159.033203125" xlink:href="#BitstreamVeraSans-Roman-35"/>
      </g>
     </g>
    </g>
    <g id="ytick_2">
     <g id="line2d_14">
      <g>
       <use style="stroke:#000000;stroke-width:0.5;" x="72.0" xlink:href="#m728421d6d4" y="154.8"/>
      </g>
     </g>
     <g id="line2d_15">
      <g>
       <use style="stroke:#000000;stroke-width:0.5;" x="518.4" xlink:href="#mcb0005524f" y="154.8"/>
      </g>
     </g>
     <g id="text_7">
      <!-- 0.10 -->
      <defs>
       <path d="
M12.4062 8.29688
L28.5156 8.29688
L28.5156 63.9219
L10.9844 60.4062
L10.9844 69.3906
L28.4219 72.9062
L38.2812 72.9062
L38.2812 8.29688
L54.3906 8.29688
L54.3906 0
L12.4062 0
z
" id="BitstreamVeraSans-Roman-31"/>
      </defs>
      <g transform="translate(38.6809375 158.663125)scale(0.14 -0.14)">
       <use xlink:href="#BitstreamVeraSans-Roman-30"/>
       <use x="63.623046875" xlink:href="#BitstreamVeraSans-Roman-2e"/>
       <use x="95.41015625" xlink:href="#BitstreamVeraSans-Roman-31"/>
       <use x="159.033203125" xlink:href="#BitstreamVeraSans-Roman-30"/>
      </g>
     </g>
    </g>
    <g id="ytick_3">
     <g id="line2d_16">
      <g>
       <use style="stroke:#000000;stroke-width:0.5;" x="72.0" xlink:href="#m728421d6d4" y="43.2"/>
      </g>
     </g>
     <g id="line2d_17">
      <g>
       <use style="stroke:#000000;stroke-width:0.5;" x="518.4" xlink:href="#mcb0005524f" y="43.2"/>
      </g>
     </g>
     <g id="text_8">
      <!-- 0.15 -->
      <g transform="translate(38.9740625 47.063125)scale(0.14 -0.14)">
       <use xlink:href="#BitstreamVeraSans-Roman-30"/>
       <use x="63.623046875" xlink:href="#BitstreamVeraSans-Roman-2e"/>
       <use x="95.41015625" xlink:href="#BitstreamVeraSans-Roman-31"/>
       <use x="159.033203125" xlink:href="#BitstreamVeraSans-Roman-35"/>
      </g>
     </g>
    </g>
    <g id="text_9">
     <!-- normalized concentration -->
     <defs>
      <path d="
M5.71875 54.6875
L53.4219 54.6875
L53.4219 42.4844
L24.6094 12.5
L53.4219 12.5
L53.4219 0
L4.5 0
L4.5 12.2031
L33.2969 42.1875
L5.71875 42.1875
z
" id="BitstreamVeraSans-Bold-7a"/>
      <path d="
M8.40625 75.9844
L25.875 75.9844
L25.875 0
L8.40625 0
z
" id="BitstreamVeraSans-Bold-6c"/>
      <path d="
M8.40625 54.6875
L25.875 54.6875
L25.875 0
L8.40625 0
z

M8.40625 75.9844
L25.875 75.9844
L25.875 61.7188
L8.40625 61.7188
z
" id="BitstreamVeraSans-Bold-69"/>
      <path d="
M45.6094 46.6875
L45.6094 75.9844
L63.1875 75.9844
L63.1875 0
L45.6094 0
L45.6094 7.90625
Q42 3.07812 37.6406 0.828125
Q33.2969 -1.42188 27.5938 -1.42188
Q17.4844 -1.42188 10.9844 6.60938
Q4.5 14.6562 4.5 27.2969
Q4.5 39.9375 10.9844 47.9688
Q17.4844 56 27.5938 56
Q33.25 56 37.625 53.7344
Q42 51.4688 45.6094 46.6875
M34.0781 11.2812
Q39.7031 11.2812 42.6562 15.375
Q45.6094 19.4844 45.6094 27.2969
Q45.6094 35.1094 42.6562 39.2031
Q39.7031 43.3125 34.0781 43.3125
Q28.5156 43.3125 25.5625 39.2031
Q22.6094 35.1094 22.6094 27.2969
Q22.6094 19.4844 25.5625 15.375
Q28.5156 11.2812 34.0781 11.2812" id="BitstreamVeraSans-Bold-64"/>
     </defs>
     <g transform="translate(30.3534375 325.6475)rotate(-90.0)scale(0.16 -0.16)">
      <use xlink:href="#BitstreamVeraSans-Bold-6e"/>
      <use x="71.19140625" xlink:href="#BitstreamVeraSans-Bold-6f"/>
      <use x="139.892578125" xlink:href="#BitstreamVeraSans-Bold-72"/>
      <use x="189.208984375" xlink:href="#BitstreamVeraSans-Bold-6d"/>
      <use x="293.408203125" xlink:href="#BitstreamVeraSans-Bold-61"/>
      <use x="360.888671875" xlink:href="#BitstreamVeraSans-Bold-6c"/>
      <use x="395.166015625" xlink:href="#BitstreamVeraSans-Bold-69"/>
      <use x="429.443359375" xlink:href="#BitstreamVeraSans-Bold-7a"/>
      <use x="487.646484375" xlink:href="#BitstreamVeraSans-Bold-65"/>
      <use x="555.46875" xlink:href="#BitstreamVeraSans-Bold-64"/>
      <use x="627.05078125" xlink:href="#BitstreamVeraSans-Bold-20"/>
      <use x="661.865234375" xlink:href="#BitstreamVeraSans-Bold-63"/>
      <use x="721.142578125" xlink:href="#BitstreamVeraSans-Bold-6f"/>
      <use x="789.84375" xlink:href="#BitstreamVeraSans-Bold-6e"/>
      <use x="861.03515625" xlink:href="#BitstreamVeraSans-Bold-63"/>
      <use x="920.3125" xlink:href="#BitstreamVeraSans-Bold-65"/>
      <use x="988.134765625" xlink:href="#BitstreamVeraSans-Bold-6e"/>
      <use x="1059.32617188" xlink:href="#BitstreamVeraSans-Bold-74"/>
      <use x="1107.12890625" xlink:href="#BitstreamVeraSans-Bold-72"/>
      <use x="1156.4453125" xlink:href="#BitstreamVeraSans-Bold-61"/>
      <use x="1223.92578125" xlink:href="#BitstreamVeraSans-Bold-74"/>
      <use x="1271.72851562" xlink:href="#BitstreamVeraSans-Bold-69"/>
      <use x="1306.00585938" xlink:href="#BitstreamVeraSans-Bold-6f"/>
      <use x="1374.70703125" xlink:href="#BitstreamVeraSans-Bold-6e"/>
     </g>
    </g>
   </g>
  </g>
 </g>
 <defs>
  <clipPath id="p332b41defa">
   <rect height="334.8" width="446.4" x="72.0" y="43.2"/>
  </clipPath>
 </defs>
</svg>
