<?xml version="1.0" encoding="utf-8" standalone="no"?>
<!DOCTYPE svg PUBLIC "-//W3C//DTD SVG 1.1//EN"
  "http://www.w3.org/Graphics/SVG/1.1/DTD/svg11.dtd">
<!-- Created with matplotlib (http://matplotlib.org/) -->
<svg height="216pt" version="1.1" viewBox="0 0 864 216" width="864pt" xmlns="http://www.w3.org/2000/svg" xmlns:xlink="http://www.w3.org/1999/xlink">
 <defs>
  <style type="text/css">
*{stroke-linecap:butt;stroke-linejoin:round;}
  </style>
 </defs>
 <g id="figure_1">
  <g id="patch_1">
   <path d="
M0 216
L864 216
L864 0
L0 0
z
" style="fill:#ffffff;"/>
  </g>
  <g id="axes_1">
   <g id="patch_2">
    <path d="
M50.6813 171
L284.4 171
L284.4 28.4
L50.6813 28.4
z
" style="fill:#ffffff;"/>
   </g>
   <g id="line2d_1">
    <path clip-path="url(#p8cb69eebd4)" d="
M50.1923 171
L52.549 171
L54.9058 171
L57.2625 171
L59.6193 171
L61.976 171
L64.3328 171
L66.6895 171
L69.0463 171
L71.403 171
L73.7598 171
L76.1165 171
L78.4732 171
L80.83 171
L83.1867 171
L85.5435 171
L87.9002 171
L90.257 171
L92.6137 171
L94.9705 171
L97.3272 171
L99.684 169.055
L102.041 166.463
L104.397 145.721
L106.754 99.7
L109.111 65.9945
L111.468 40.7155
L113.824 23.2145
L116.181 60.1609
L118.538 133.405
L120.895 157.388
L123.251 171
L125.608 171
L127.965 171
L130.322 171
L132.678 171
L135.035 171
L137.392 171
L139.749 171
L142.105 171
L144.462 171
L146.819 171
L149.176 171
L151.532 171
L153.889 171
L156.246 171
L158.603 171
L160.959 171
L163.316 171
L165.673 171
L168.03 171
L170.386 171
L172.743 171
L175.1 171
L177.457 171
L179.813 171
L182.17 171
L184.527 171
L186.884 171
L189.24 171
L191.597 171
L193.954 171
L196.311 171
L198.667 171
L201.024 171
L203.381 171
L205.738 171
L208.094 171
L210.451 171
L212.808 171
L215.164 171
L217.521 171
L219.878 171
L222.235 171
L224.591 171
L226.948 171
L229.305 171
L231.662 171
L234.018 171
L236.375 171
L238.732 171
L241.089 171
L243.445 171
L245.802 171
L248.159 171
L250.516 171
L252.872 171
L255.229 171
L257.586 171
L259.943 171
L262.299 171
L264.656 171
L267.013 171
L269.37 171
L271.726 171
L274.083 171
L276.44 171
L278.797 171
L281.153 171
L283.51 171
L285.867 171" style="fill:none;stroke:#0000ff;stroke-linecap:square;stroke-width:2;"/>
   </g>
   <g id="line2d_2">
    <path clip-path="url(#p8cb69eebd4)" d="
M50.1923 171
L52.549 171
L54.9058 171
L57.2625 171
L59.6193 171
L61.976 171
L64.3328 171
L66.6895 171
L69.0463 171
L71.403 171
L73.7598 171
L76.1165 171
L78.4732 171
L80.83 171
L83.1867 171
L85.5435 171
L87.9002 171
L90.257 171
L92.6137 171
L94.9705 170.352
L97.3272 171
L99.684 169.704
L102.041 165.815
L104.397 160.629
L106.754 160.629
L109.111 156.092
L111.468 143.128
L113.824 129.516
L116.181 122.386
L118.538 112.664
L120.895 107.478
L123.251 101.645
L125.608 101.645
L127.965 108.775
L130.322 116.553
L132.678 128.868
L135.035 144.425
L137.392 150.258
L139.749 160.629
L142.105 166.463
L144.462 167.759
L146.819 168.407
L149.176 171
L151.532 171
L153.889 171
L156.246 171
L158.603 171
L160.959 171
L163.316 171
L165.673 171
L168.03 171
L170.386 171
L172.743 171
L175.1 171
L177.457 171
L179.813 171
L182.17 171
L184.527 171
L186.884 171
L189.24 171
L191.597 171
L193.954 171
L196.311 171
L198.667 171
L201.024 171
L203.381 171
L205.738 171
L208.094 171
L210.451 171
L212.808 171
L215.164 171
L217.521 171
L219.878 171
L222.235 171
L224.591 171
L226.948 171
L229.305 171
L231.662 171
L234.018 171
L236.375 171
L238.732 171
L241.089 171
L243.445 171
L245.802 171
L248.159 171
L250.516 171
L252.872 171
L255.229 171
L257.586 171
L259.943 171
L262.299 171
L264.656 171
L267.013 171
L269.37 171
L271.726 171
L274.083 171
L276.44 171
L278.797 171
L281.153 171
L283.51 171
L285.867 171" style="fill:none;stroke:#2a00d4;stroke-linecap:square;stroke-width:2;"/>
   </g>
   <g id="line2d_3">
    <path clip-path="url(#p8cb69eebd4)" d="
M50.1923 171
L52.549 171
L54.9058 171
L57.2625 171
L59.6193 171
L61.976 171
L64.3328 171
L66.6895 171
L69.0463 171
L71.403 171
L73.7598 171
L76.1165 171
L78.4732 171
L80.83 171
L83.1867 171
L85.5435 171
L87.9002 171
L90.257 171
L92.6137 170.352
L94.9705 169.704
L97.3272 171
L99.684 171
L102.041 168.407
L104.397 168.407
L106.754 168.407
L109.111 167.759
L111.468 159.333
L113.824 159.981
L116.181 152.851
L118.538 150.906
L120.895 143.776
L123.251 141.184
L125.608 129.516
L127.965 131.461
L130.322 119.145
L132.678 113.312
L135.035 117.201
L137.392 119.794
L139.749 123.035
L142.105 130.165
L144.462 137.943
L146.819 148.314
L149.176 148.314
L151.532 145.721
L153.889 160.629
L156.246 164.518
L158.603 167.759
L160.959 165.166
L163.316 169.055
L165.673 169.704
L168.03 171
L170.386 171
L172.743 171
L175.1 171
L177.457 171
L179.813 171
L182.17 171
L184.527 171
L186.884 171
L189.24 171
L191.597 171
L193.954 171
L196.311 171
L198.667 171
L201.024 171
L203.381 171
L205.738 171
L208.094 171
L210.451 171
L212.808 171
L215.164 171
L217.521 171
L219.878 171
L222.235 171
L224.591 171
L226.948 171
L229.305 171
L231.662 171
L234.018 171
L236.375 171
L238.732 171
L241.089 171
L243.445 171
L245.802 171
L248.159 171
L250.516 171
L252.872 171
L255.229 171
L257.586 171
L259.943 171
L262.299 171
L264.656 171
L267.013 171
L269.37 171
L271.726 171
L274.083 171
L276.44 171
L278.797 171
L281.153 171
L283.51 171
L285.867 171" style="fill:none;stroke:#5500aa;stroke-linecap:square;stroke-width:2;"/>
   </g>
   <g id="line2d_4">
    <path clip-path="url(#p8cb69eebd4)" d="
M50.1923 171
L52.549 171
L54.9058 171
L57.2625 171
L59.6193 171
L61.976 171
L64.3328 171
L66.6895 171
L69.0463 171
L71.403 171
L73.7598 171
L76.1165 171
L78.4732 171
L80.83 171
L83.1867 171
L85.5435 171
L87.9002 171
L90.257 171
L92.6137 171
L94.9705 171
L97.3272 169.704
L99.684 171
L102.041 171
L104.397 169.704
L106.754 170.352
L109.111 170.352
L111.468 166.463
L113.824 169.055
L116.181 164.518
L118.538 162.574
L120.895 152.851
L123.251 154.795
L125.608 164.518
L127.965 152.203
L130.322 148.962
L132.678 143.128
L135.035 138.591
L137.392 132.109
L139.749 132.109
L142.105 126.924
L144.462 125.627
L146.819 128.22
L149.176 123.683
L151.532 128.868
L153.889 134.054
L156.246 135.998
L158.603 141.832
L160.959 153.499
L163.316 152.203
L165.673 158.685
L168.03 158.685
L170.386 165.815
L172.743 169.704
L175.1 166.463
L177.457 168.407
L179.813 169.704
L182.17 169.055
L184.527 169.704
L186.884 169.704
L189.24 171
L191.597 171
L193.954 171
L196.311 171
L198.667 171
L201.024 171
L203.381 171
L205.738 171
L208.094 171
L210.451 171
L212.808 171
L215.164 171
L217.521 171
L219.878 171
L222.235 171
L224.591 171
L226.948 171
L229.305 171
L231.662 171
L234.018 171
L236.375 171
L238.732 171
L241.089 171
L243.445 171
L245.802 171
L248.159 171
L250.516 171
L252.872 171
L255.229 171
L257.586 171
L259.943 171
L262.299 171
L264.656 171
L267.013 171
L269.37 171
L271.726 171
L274.083 171
L276.44 171
L278.797 171
L281.153 171
L283.51 171
L285.867 171" style="fill:none;stroke:#800080;stroke-linecap:square;stroke-width:2;"/>
   </g>
   <g id="line2d_5">
    <path clip-path="url(#p8cb69eebd4)" d="
M50.1923 171
L52.549 171
L54.9058 171
L57.2625 171
L59.6193 171
L61.976 171
L64.3328 171
L66.6895 171
L69.0463 171
L71.403 171
L73.7598 171
L76.1165 171
L78.4732 171
L80.83 171
L83.1867 171
L85.5435 171
L87.9002 171
L90.257 171
L92.6137 171
L94.9705 171
L97.3272 171
L99.684 170.352
L102.041 171
L104.397 171
L106.754 171
L109.111 171
L111.468 171
L113.824 169.055
L116.181 167.759
L118.538 166.463
L120.895 166.463
L123.251 169.055
L125.608 163.87
L127.965 159.981
L130.322 159.981
L132.678 158.685
L135.035 162.574
L137.392 148.962
L139.749 150.906
L142.105 147.017
L144.462 141.832
L146.819 141.832
L149.176 135.998
L151.532 128.22
L153.889 130.813
L156.246 143.128
L158.603 129.516
L160.959 126.924
L163.316 135.998
L165.673 132.757
L168.03 147.017
L170.386 152.851
L172.743 150.906
L175.1 152.851
L177.457 158.036
L179.813 158.685
L182.17 159.333
L184.527 161.925
L186.884 163.87
L189.24 163.222
L191.597 165.166
L193.954 168.407
L196.311 170.352
L198.667 169.704
L201.024 171
L203.381 170.352
L205.738 171
L208.094 171
L210.451 171
L212.808 171
L215.164 171
L217.521 171
L219.878 171
L222.235 171
L224.591 171
L226.948 171
L229.305 171
L231.662 171
L234.018 171
L236.375 171
L238.732 171
L241.089 171
L243.445 171
L245.802 171
L248.159 171
L250.516 171
L252.872 171
L255.229 171
L257.586 171
L259.943 171
L262.299 171
L264.656 171
L267.013 171
L269.37 171
L271.726 171
L274.083 171
L276.44 171
L278.797 171
L281.153 171
L283.51 171
L285.867 171" style="fill:none;stroke:#aa0055;stroke-linecap:square;stroke-width:2;"/>
   </g>
   <g id="line2d_6">
    <path clip-path="url(#p8cb69eebd4)" d="
M50.1923 171
L52.549 171
L54.9058 171
L57.2625 171
L59.6193 171
L61.976 171
L64.3328 171
L66.6895 171
L69.0463 171
L71.403 171
L73.7598 171
L76.1165 171
L78.4732 171
L80.83 171
L83.1867 171
L85.5435 171
L87.9002 171
L90.257 171
L92.6137 171
L94.9705 171
L97.3272 171
L99.684 171
L102.041 171
L104.397 171
L106.754 171
L109.111 171
L111.468 170.352
L113.824 171
L116.181 170.352
L118.538 170.352
L120.895 169.704
L123.251 170.352
L125.608 167.759
L127.965 166.463
L130.322 165.166
L132.678 166.463
L135.035 161.277
L137.392 163.222
L139.749 163.87
L142.105 161.277
L144.462 157.388
L146.819 152.851
L149.176 143.776
L151.532 149.61
L153.889 143.128
L156.246 140.535
L158.603 148.314
L160.959 134.702
L163.316 143.776
L165.673 139.887
L168.03 137.943
L170.386 141.832
L172.743 139.887
L175.1 143.776
L177.457 132.109
L179.813 141.832
L182.17 145.721
L184.527 147.017
L186.884 159.333
L189.24 153.499
L191.597 156.74
L193.954 158.685
L196.311 161.925
L198.667 162.574
L201.024 167.759
L203.381 162.574
L205.738 167.759
L208.094 166.463
L210.451 167.759
L212.808 171
L215.164 169.704
L217.521 170.352
L219.878 171
L222.235 171
L224.591 171
L226.948 171
L229.305 171
L231.662 171
L234.018 171
L236.375 171
L238.732 171
L241.089 171
L243.445 171
L245.802 171
L248.159 171
L250.516 171
L252.872 171
L255.229 171
L257.586 171
L259.943 171
L262.299 171
L264.656 171
L267.013 171
L269.37 171
L271.726 171
L274.083 171
L276.44 171
L278.797 171
L281.153 171
L283.51 171
L285.867 171" style="fill:none;stroke:#d4002b;stroke-linecap:square;stroke-width:2;"/>
   </g>
   <g id="line2d_7">
    <path clip-path="url(#p8cb69eebd4)" d="
M50.1923 171
L52.549 171
L54.9058 171
L57.2625 171
L59.6193 171
L61.976 171
L64.3328 171
L66.6895 171
L69.0463 171
L71.403 171
L73.7598 171
L76.1165 171
L78.4732 171
L80.83 171
L83.1867 171
L85.5435 171
L87.9002 171
L90.257 171
L92.6137 171
L94.9705 171
L97.3272 171
L99.684 171
L102.041 171
L104.397 171
L106.754 171
L109.111 171
L111.468 171
L113.824 171
L116.181 171
L118.538 171
L120.895 170.352
L123.251 170.352
L125.608 171
L127.965 169.055
L130.322 169.055
L132.678 168.407
L135.035 168.407
L137.392 167.759
L139.749 165.815
L142.105 159.981
L144.462 163.87
L146.819 165.815
L149.176 158.685
L151.532 161.925
L153.889 161.277
L156.246 155.444
L158.603 153.499
L160.959 154.795
L163.316 150.906
L165.673 147.017
L168.03 145.721
L170.386 142.48
L172.743 139.887
L175.1 140.535
L177.457 144.425
L179.813 141.184
L182.17 141.184
L184.527 139.239
L186.884 137.943
L189.24 143.776
L191.597 143.128
L193.954 145.073
L196.311 148.962
L198.667 153.499
L201.024 150.906
L203.381 156.74
L205.738 158.685
L208.094 158.685
L210.451 160.629
L212.808 164.518
L215.164 167.111
L217.521 166.463
L219.878 169.704
L222.235 168.407
L224.591 169.055
L226.948 169.055
L229.305 169.055
L231.662 171
L234.018 170.352
L236.375 171
L238.732 171
L241.089 171
L243.445 171
L245.802 171
L248.159 171
L250.516 171
L252.872 171
L255.229 171
L257.586 171
L259.943 171
L262.299 171
L264.656 171
L267.013 171
L269.37 171
L271.726 171
L274.083 171
L276.44 171
L278.797 171
L281.153 171
L283.51 171
L285.867 171" style="fill:none;stroke:#ff0000;stroke-linecap:square;stroke-width:2;"/>
   </g>
   <g id="patch_3">
    <path d="
M50.6813 28.4
L284.4 28.4" style="fill:none;stroke:#000000;stroke-linecap:square;stroke-linejoin:miter;"/>
   </g>
   <g id="patch_4">
    <path d="
M284.4 171
L284.4 28.4" style="fill:none;stroke:#000000;stroke-linecap:square;stroke-linejoin:miter;"/>
   </g>
   <g id="patch_5">
    <path d="
M50.6813 171
L284.4 171" style="fill:none;stroke:#000000;stroke-linecap:square;stroke-linejoin:miter;"/>
   </g>
   <g id="patch_6">
    <path d="
M50.6813 171
L50.6813 28.4" style="fill:none;stroke:#000000;stroke-linecap:square;stroke-linejoin:miter;"/>
   </g>
   <g id="matplotlib.axis_1">
    <g id="xtick_1">
     <g id="line2d_8">
      <defs>
       <path d="
M0 0
L0 -4" id="m93b0483c22" style="stroke:#000000;stroke-width:0.5;"/>
      </defs>
      <g>
       <use style="stroke:#000000;stroke-width:0.5;" x="62.3671875" xlink:href="#m93b0483c22" y="171.0"/>
      </g>
     </g>
     <g id="line2d_9">
      <defs>
       <path d="
M0 0
L0 4" id="m741efc42ff" style="stroke:#000000;stroke-width:0.5;"/>
      </defs>
      <g>
       <use style="stroke:#000000;stroke-width:0.5;" x="62.3671875" xlink:href="#m741efc42ff" y="28.4"/>
      </g>
     </g>
     <g id="text_1">
      <!-- −20 -->
      <defs>
       <path d="
M10.5938 35.5
L73.1875 35.5
L73.1875 27.2031
L10.5938 27.2031
z
" id="BitstreamVeraSans-Roman-2212"/>
       <path d="
M19.1875 8.29688
L53.6094 8.29688
L53.6094 0
L7.32812 0
L7.32812 8.29688
Q12.9375 14.1094 22.625 23.8906
Q32.3281 33.6875 34.8125 36.5312
Q39.5469 41.8438 41.4219 45.5312
Q43.3125 49.2188 43.3125 52.7812
Q43.3125 58.5938 39.2344 62.25
Q35.1562 65.9219 28.6094 65.9219
Q23.9688 65.9219 18.8125 64.3125
Q13.6719 62.7031 7.8125 59.4219
L7.8125 69.3906
Q13.7656 71.7812 18.9375 73
Q24.125 74.2188 28.4219 74.2188
Q39.75 74.2188 46.4844 68.5469
Q53.2188 62.8906 53.2188 53.4219
Q53.2188 48.9219 51.5312 44.8906
Q49.8594 40.875 45.4062 35.4062
Q44.1875 33.9844 37.6406 27.2188
Q31.1094 20.4531 19.1875 8.29688" id="BitstreamVeraSans-Roman-32"/>
       <path d="
M31.7812 66.4062
Q24.1719 66.4062 20.3281 58.9062
Q16.5 51.4219 16.5 36.375
Q16.5 21.3906 20.3281 13.8906
Q24.1719 6.39062 31.7812 6.39062
Q39.4531 6.39062 43.2812 13.8906
Q47.125 21.3906 47.125 36.375
Q47.125 51.4219 43.2812 58.9062
Q39.4531 66.4062 31.7812 66.4062
M31.7812 74.2188
Q44.0469 74.2188 50.5156 64.5156
Q56.9844 54.8281 56.9844 36.375
Q56.9844 17.9688 50.5156 8.26562
Q44.0469 -1.42188 31.7812 -1.42188
Q19.5312 -1.42188 13.0625 8.26562
Q6.59375 17.9688 6.59375 36.375
Q6.59375 54.8281 13.0625 64.5156
Q19.5312 74.2188 31.7812 74.2188" id="BitstreamVeraSans-Roman-30"/>
      </defs>
      <g transform="translate(52.6765625 182.5984375)scale(0.1 -0.1)">
       <use xlink:href="#BitstreamVeraSans-Roman-2212"/>
       <use x="83.7890625" xlink:href="#BitstreamVeraSans-Roman-32"/>
       <use x="147.412109375" xlink:href="#BitstreamVeraSans-Roman-30"/>
      </g>
     </g>
    </g>
    <g id="xtick_2">
     <g id="line2d_10">
      <g>
       <use style="stroke:#000000;stroke-width:0.5;" x="109.1109375" xlink:href="#m93b0483c22" y="171.0"/>
      </g>
     </g>
     <g id="line2d_11">
      <g>
       <use style="stroke:#000000;stroke-width:0.5;" x="109.1109375" xlink:href="#m741efc42ff" y="28.4"/>
      </g>
     </g>
     <g id="text_2">
      <!-- 0 -->
      <g transform="translate(106.59140625 182.5984375)scale(0.1 -0.1)">
       <use xlink:href="#BitstreamVeraSans-Roman-30"/>
      </g>
     </g>
    </g>
    <g id="xtick_3">
     <g id="line2d_12">
      <g>
       <use style="stroke:#000000;stroke-width:0.5;" x="155.8546875" xlink:href="#m93b0483c22" y="171.0"/>
      </g>
     </g>
     <g id="line2d_13">
      <g>
       <use style="stroke:#000000;stroke-width:0.5;" x="155.8546875" xlink:href="#m741efc42ff" y="28.4"/>
      </g>
     </g>
     <g id="text_3">
      <!-- 20 -->
      <g transform="translate(150.190625 182.5984375)scale(0.1 -0.1)">
       <use xlink:href="#BitstreamVeraSans-Roman-32"/>
       <use x="63.623046875" xlink:href="#BitstreamVeraSans-Roman-30"/>
      </g>
     </g>
    </g>
    <g id="xtick_4">
     <g id="line2d_14">
      <g>
       <use style="stroke:#000000;stroke-width:0.5;" x="202.5984375" xlink:href="#m93b0483c22" y="171.0"/>
      </g>
     </g>
     <g id="line2d_15">
      <g>
       <use style="stroke:#000000;stroke-width:0.5;" x="202.5984375" xlink:href="#m741efc42ff" y="28.4"/>
      </g>
     </g>
     <g id="text_4">
      <!-- 40 -->
      <defs>
       <path d="
M37.7969 64.3125
L12.8906 25.3906
L37.7969 25.3906
z

M35.2031 72.9062
L47.6094 72.9062
L47.6094 25.3906
L58.0156 25.3906
L58.0156 17.1875
L47.6094 17.1875
L47.6094 0
L37.7969 0
L37.7969 17.1875
L4.89062 17.1875
L4.89062 26.7031
z
" id="BitstreamVeraSans-Roman-34"/>
      </defs>
      <g transform="translate(196.8125 182.5984375)scale(0.1 -0.1)">
       <use xlink:href="#BitstreamVeraSans-Roman-34"/>
       <use x="63.623046875" xlink:href="#BitstreamVeraSans-Roman-30"/>
      </g>
     </g>
    </g>
    <g id="xtick_5">
     <g id="line2d_16">
      <g>
       <use style="stroke:#000000;stroke-width:0.5;" x="249.3421875" xlink:href="#m93b0483c22" y="171.0"/>
      </g>
     </g>
     <g id="line2d_17">
      <g>
       <use style="stroke:#000000;stroke-width:0.5;" x="249.3421875" xlink:href="#m741efc42ff" y="28.4"/>
      </g>
     </g>
     <g id="text_5">
      <!-- 60 -->
      <defs>
       <path d="
M33.0156 40.375
Q26.375 40.375 22.4844 35.8281
Q18.6094 31.2969 18.6094 23.3906
Q18.6094 15.5312 22.4844 10.9531
Q26.375 6.39062 33.0156 6.39062
Q39.6562 6.39062 43.5312 10.9531
Q47.4062 15.5312 47.4062 23.3906
Q47.4062 31.2969 43.5312 35.8281
Q39.6562 40.375 33.0156 40.375
M52.5938 71.2969
L52.5938 62.3125
Q48.875 64.0625 45.0938 64.9844
Q41.3125 65.9219 37.5938 65.9219
Q27.8281 65.9219 22.6719 59.3281
Q17.5312 52.7344 16.7969 39.4062
Q19.6719 43.6562 24.0156 45.9219
Q28.375 48.1875 33.5938 48.1875
Q44.5781 48.1875 50.9531 41.5156
Q57.3281 34.8594 57.3281 23.3906
Q57.3281 12.1562 50.6875 5.35938
Q44.0469 -1.42188 33.0156 -1.42188
Q20.3594 -1.42188 13.6719 8.26562
Q6.98438 17.9688 6.98438 36.375
Q6.98438 53.6562 15.1875 63.9375
Q23.3906 74.2188 37.2031 74.2188
Q40.9219 74.2188 44.7031 73.4844
Q48.4844 72.75 52.5938 71.2969" id="BitstreamVeraSans-Roman-36"/>
      </defs>
      <g transform="translate(243.6609375 182.5984375)scale(0.1 -0.1)">
       <use xlink:href="#BitstreamVeraSans-Roman-36"/>
       <use x="63.623046875" xlink:href="#BitstreamVeraSans-Roman-30"/>
      </g>
     </g>
    </g>
    <g id="text_6">
     <!-- position -->
     <defs>
      <path d="
M54.8906 33.0156
L54.8906 0
L45.9062 0
L45.9062 32.7188
Q45.9062 40.4844 42.875 44.3281
Q39.8438 48.1875 33.7969 48.1875
Q26.5156 48.1875 22.3125 43.5469
Q18.1094 38.9219 18.1094 30.9062
L18.1094 0
L9.07812 0
L9.07812 54.6875
L18.1094 54.6875
L18.1094 46.1875
Q21.3438 51.125 25.7031 53.5625
Q30.0781 56 35.7969 56
Q45.2188 56 50.0469 50.1719
Q54.8906 44.3438 54.8906 33.0156" id="BitstreamVeraSans-Roman-6e"/>
      <path d="
M30.6094 48.3906
Q23.3906 48.3906 19.1875 42.75
Q14.9844 37.1094 14.9844 27.2969
Q14.9844 17.4844 19.1562 11.8438
Q23.3438 6.20312 30.6094 6.20312
Q37.7969 6.20312 41.9844 11.8594
Q46.1875 17.5312 46.1875 27.2969
Q46.1875 37.0156 41.9844 42.7031
Q37.7969 48.3906 30.6094 48.3906
M30.6094 56
Q42.3281 56 49.0156 48.375
Q55.7188 40.7656 55.7188 27.2969
Q55.7188 13.875 49.0156 6.21875
Q42.3281 -1.42188 30.6094 -1.42188
Q18.8438 -1.42188 12.1719 6.21875
Q5.51562 13.875 5.51562 27.2969
Q5.51562 40.7656 12.1719 48.375
Q18.8438 56 30.6094 56" id="BitstreamVeraSans-Roman-6f"/>
      <path d="
M9.42188 54.6875
L18.4062 54.6875
L18.4062 0
L9.42188 0
z

M9.42188 75.9844
L18.4062 75.9844
L18.4062 64.5938
L9.42188 64.5938
z
" id="BitstreamVeraSans-Roman-69"/>
      <path d="
M18.3125 70.2188
L18.3125 54.6875
L36.8125 54.6875
L36.8125 47.7031
L18.3125 47.7031
L18.3125 18.0156
Q18.3125 11.3281 20.1406 9.42188
Q21.9688 7.51562 27.5938 7.51562
L36.8125 7.51562
L36.8125 0
L27.5938 0
Q17.1875 0 13.2344 3.875
Q9.28125 7.76562 9.28125 18.0156
L9.28125 47.7031
L2.6875 47.7031
L2.6875 54.6875
L9.28125 54.6875
L9.28125 70.2188
z
" id="BitstreamVeraSans-Roman-74"/>
      <path d="
M44.2812 53.0781
L44.2812 44.5781
Q40.4844 46.5312 36.375 47.5
Q32.2812 48.4844 27.875 48.4844
Q21.1875 48.4844 17.8438 46.4375
Q14.5 44.3906 14.5 40.2812
Q14.5 37.1562 16.8906 35.375
Q19.2812 33.5938 26.5156 31.9844
L29.5938 31.2969
Q39.1562 29.25 43.1875 25.5156
Q47.2188 21.7812 47.2188 15.0938
Q47.2188 7.46875 41.1875 3.01562
Q35.1562 -1.42188 24.6094 -1.42188
Q20.2188 -1.42188 15.4531 -0.5625
Q10.6875 0.296875 5.42188 2
L5.42188 11.2812
Q10.4062 8.6875 15.2344 7.39062
Q20.0625 6.10938 24.8125 6.10938
Q31.1562 6.10938 34.5625 8.28125
Q37.9844 10.4531 37.9844 14.4062
Q37.9844 18.0625 35.5156 20.0156
Q33.0625 21.9688 24.7031 23.7812
L21.5781 24.5156
Q13.2344 26.2656 9.51562 29.9062
Q5.8125 33.5469 5.8125 39.8906
Q5.8125 47.6094 11.2812 51.7969
Q16.75 56 26.8125 56
Q31.7812 56 36.1719 55.2656
Q40.5781 54.5469 44.2812 53.0781" id="BitstreamVeraSans-Roman-73"/>
      <path d="
M18.1094 8.20312
L18.1094 -20.7969
L9.07812 -20.7969
L9.07812 54.6875
L18.1094 54.6875
L18.1094 46.3906
Q20.9531 51.2656 25.2656 53.625
Q29.5938 56 35.5938 56
Q45.5625 56 51.7812 48.0938
Q58.0156 40.1875 58.0156 27.2969
Q58.0156 14.4062 51.7812 6.48438
Q45.5625 -1.42188 35.5938 -1.42188
Q29.5938 -1.42188 25.2656 0.953125
Q20.9531 3.32812 18.1094 8.20312
M48.6875 27.2969
Q48.6875 37.2031 44.6094 42.8438
Q40.5312 48.4844 33.4062 48.4844
Q26.2656 48.4844 22.1875 42.8438
Q18.1094 37.2031 18.1094 27.2969
Q18.1094 17.3906 22.1875 11.75
Q26.2656 6.10938 33.4062 6.10938
Q40.5312 6.10938 44.6094 11.75
Q48.6875 17.3906 48.6875 27.2969" id="BitstreamVeraSans-Roman-70"/>
     </defs>
     <g transform="translate(139.15078125 201.07578125)scale(0.15 -0.15)">
      <use xlink:href="#BitstreamVeraSans-Roman-70"/>
      <use x="63.4765625" xlink:href="#BitstreamVeraSans-Roman-6f"/>
      <use x="124.658203125" xlink:href="#BitstreamVeraSans-Roman-73"/>
      <use x="176.7578125" xlink:href="#BitstreamVeraSans-Roman-69"/>
      <use x="204.541015625" xlink:href="#BitstreamVeraSans-Roman-74"/>
      <use x="243.75" xlink:href="#BitstreamVeraSans-Roman-69"/>
      <use x="271.533203125" xlink:href="#BitstreamVeraSans-Roman-6f"/>
      <use x="332.71484375" xlink:href="#BitstreamVeraSans-Roman-6e"/>
     </g>
    </g>
   </g>
   <g id="matplotlib.axis_2">
    <g id="ytick_1">
     <g id="line2d_18">
      <defs>
       <path d="
M0 0
L4 0" id="m728421d6d4" style="stroke:#000000;stroke-width:0.5;"/>
      </defs>
      <g>
       <use style="stroke:#000000;stroke-width:0.5;" x="50.68125" xlink:href="#m728421d6d4" y="171.0"/>
      </g>
     </g>
     <g id="line2d_19">
      <defs>
       <path d="
M0 0
L-4 0" id="mcb0005524f" style="stroke:#000000;stroke-width:0.5;"/>
      </defs>
      <g>
       <use style="stroke:#000000;stroke-width:0.5;" x="284.4" xlink:href="#mcb0005524f" y="171.0"/>
      </g>
     </g>
     <g id="text_7">
      <!-- 0.0 -->
      <defs>
       <path d="
M10.6875 12.4062
L21 12.4062
L21 0
L10.6875 0
z
" id="BitstreamVeraSans-Roman-2e"/>
      </defs>
      <g transform="translate(32.1015625 173.759375)scale(0.1 -0.1)">
       <use xlink:href="#BitstreamVeraSans-Roman-30"/>
       <use x="63.623046875" xlink:href="#BitstreamVeraSans-Roman-2e"/>
       <use x="95.41015625" xlink:href="#BitstreamVeraSans-Roman-30"/>
      </g>
     </g>
    </g>
    <g id="ytick_2">
     <g id="line2d_20">
      <g>
       <use style="stroke:#000000;stroke-width:0.5;" x="50.68125" xlink:href="#m728421d6d4" y="41.3636363636"/>
      </g>
     </g>
     <g id="line2d_21">
      <g>
       <use style="stroke:#000000;stroke-width:0.5;" x="284.4" xlink:href="#mcb0005524f" y="41.3636363636"/>
      </g>
     </g>
     <g id="text_8">
      <!-- 0.2 -->
      <g transform="translate(32.4390625 44.1230113636)scale(0.1 -0.1)">
       <use xlink:href="#BitstreamVeraSans-Roman-30"/>
       <use x="63.623046875" xlink:href="#BitstreamVeraSans-Roman-2e"/>
       <use x="95.41015625" xlink:href="#BitstreamVeraSans-Roman-32"/>
      </g>
     </g>
    </g>
    <g id="text_9">
     <!-- concentration -->
     <defs>
      <path d="
M56.2031 29.5938
L56.2031 25.2031
L14.8906 25.2031
Q15.4844 15.9219 20.4844 11.0625
Q25.4844 6.20312 34.4219 6.20312
Q39.5938 6.20312 44.4531 7.46875
Q49.3125 8.73438 54.1094 11.2812
L54.1094 2.78125
Q49.2656 0.734375 44.1875 -0.34375
Q39.1094 -1.42188 33.8906 -1.42188
Q20.7969 -1.42188 13.1562 6.1875
Q5.51562 13.8125 5.51562 26.8125
Q5.51562 40.2344 12.7656 48.1094
Q20.0156 56 32.3281 56
Q43.3594 56 49.7812 48.8906
Q56.2031 41.7969 56.2031 29.5938
M47.2188 32.2344
Q47.125 39.5938 43.0938 43.9844
Q39.0625 48.3906 32.4219 48.3906
Q24.9062 48.3906 20.3906 44.1406
Q15.875 39.8906 15.1875 32.1719
z
" id="BitstreamVeraSans-Roman-65"/>
      <path d="
M34.2812 27.4844
Q23.3906 27.4844 19.1875 25
Q14.9844 22.5156 14.9844 16.5
Q14.9844 11.7188 18.1406 8.90625
Q21.2969 6.10938 26.7031 6.10938
Q34.1875 6.10938 38.7031 11.4062
Q43.2188 16.7031 43.2188 25.4844
L43.2188 27.4844
z

M52.2031 31.2031
L52.2031 0
L43.2188 0
L43.2188 8.29688
Q40.1406 3.32812 35.5469 0.953125
Q30.9531 -1.42188 24.3125 -1.42188
Q15.9219 -1.42188 10.9531 3.29688
Q6 8.01562 6 15.9219
Q6 25.1406 12.1719 29.8281
Q18.3594 34.5156 30.6094 34.5156
L43.2188 34.5156
L43.2188 35.4062
Q43.2188 41.6094 39.1406 45
Q35.0625 48.3906 27.6875 48.3906
Q23 48.3906 18.5469 47.2656
Q14.1094 46.1406 10.0156 43.8906
L10.0156 52.2031
Q14.9375 54.1094 19.5781 55.0469
Q24.2188 56 28.6094 56
Q40.4844 56 46.3438 49.8438
Q52.2031 43.7031 52.2031 31.2031" id="BitstreamVeraSans-Roman-61"/>
      <path d="
M41.1094 46.2969
Q39.5938 47.1719 37.8125 47.5781
Q36.0312 48 33.8906 48
Q26.2656 48 22.1875 43.0469
Q18.1094 38.0938 18.1094 28.8125
L18.1094 0
L9.07812 0
L9.07812 54.6875
L18.1094 54.6875
L18.1094 46.1875
Q20.9531 51.1719 25.4844 53.5781
Q30.0312 56 36.5312 56
Q37.4531 56 38.5781 55.875
Q39.7031 55.7656 41.0625 55.5156
z
" id="BitstreamVeraSans-Roman-72"/>
      <path d="
M48.7812 52.5938
L48.7812 44.1875
Q44.9688 46.2969 41.1406 47.3438
Q37.3125 48.3906 33.4062 48.3906
Q24.6562 48.3906 19.8125 42.8438
Q14.9844 37.3125 14.9844 27.2969
Q14.9844 17.2812 19.8125 11.7344
Q24.6562 6.20312 33.4062 6.20312
Q37.3125 6.20312 41.1406 7.25
Q44.9688 8.29688 48.7812 10.4062
L48.7812 2.09375
Q45.0156 0.34375 40.9844 -0.53125
Q36.9688 -1.42188 32.4219 -1.42188
Q20.0625 -1.42188 12.7812 6.34375
Q5.51562 14.1094 5.51562 27.2969
Q5.51562 40.6719 12.8594 48.3281
Q20.2188 56 33.0156 56
Q37.1562 56 41.1094 55.1406
Q45.0625 54.2969 48.7812 52.5938" id="BitstreamVeraSans-Roman-63"/>
     </defs>
     <g transform="translate(23.98203125 150.593359375)rotate(-90.0)scale(0.15 -0.15)">
      <use xlink:href="#BitstreamVeraSans-Roman-63"/>
      <use x="54.98046875" xlink:href="#BitstreamVeraSans-Roman-6f"/>
      <use x="116.162109375" xlink:href="#BitstreamVeraSans-Roman-6e"/>
      <use x="179.541015625" xlink:href="#BitstreamVeraSans-Roman-63"/>
      <use x="234.521484375" xlink:href="#BitstreamVeraSans-Roman-65"/>
      <use x="296.044921875" xlink:href="#BitstreamVeraSans-Roman-6e"/>
      <use x="359.423828125" xlink:href="#BitstreamVeraSans-Roman-74"/>
      <use x="398.6328125" xlink:href="#BitstreamVeraSans-Roman-72"/>
      <use x="439.74609375" xlink:href="#BitstreamVeraSans-Roman-61"/>
      <use x="501.025390625" xlink:href="#BitstreamVeraSans-Roman-74"/>
      <use x="540.234375" xlink:href="#BitstreamVeraSans-Roman-69"/>
      <use x="568.017578125" xlink:href="#BitstreamVeraSans-Roman-6f"/>
      <use x="629.19921875" xlink:href="#BitstreamVeraSans-Roman-6e"/>
     </g>
    </g>
   </g>
   <g id="text_10">
    <!-- k = 0.0 -->
    <defs>
     <path d="
M8.40625 75.9844
L25.875 75.9844
L25.875 34.625
L46 54.6875
L66.3125 54.6875
L39.5938 29.5938
L68.4062 0
L47.2188 0
L25.875 22.7969
L25.875 0
L8.40625 0
z
" id="BitstreamVeraSans-Bold-6b"/>
     <path d="
M10.5938 48.1875
L73.1875 48.1875
L73.1875 36.7188
L10.5938 36.7188
z

M10.5938 25.9844
L73.1875 25.9844
L73.1875 14.4062
L10.5938 14.4062
z
" id="BitstreamVeraSans-Bold-3d"/>
     <path d="
M10.2031 18.8906
L27.7812 18.8906
L27.7812 0
L10.2031 0
z
" id="BitstreamVeraSans-Bold-2e"/>
     <path d="
M46 36.5312
Q46 50.2031 43.4375 55.7812
Q40.875 61.375 34.8125 61.375
Q28.7656 61.375 26.1719 55.7812
Q23.5781 50.2031 23.5781 36.5312
Q23.5781 22.7031 26.1719 17.0312
Q28.7656 11.375 34.8125 11.375
Q40.8281 11.375 43.4062 17.0312
Q46 22.7031 46 36.5312
M64.7969 36.375
Q64.7969 18.2656 56.9844 8.42188
Q49.1719 -1.42188 34.8125 -1.42188
Q20.4062 -1.42188 12.5938 8.42188
Q4.78125 18.2656 4.78125 36.375
Q4.78125 54.5469 12.5938 64.375
Q20.4062 74.2188 34.8125 74.2188
Q49.1719 74.2188 56.9844 64.375
Q64.7969 54.5469 64.7969 36.375" id="BitstreamVeraSans-Bold-30"/>
     <path id="BitstreamVeraSans-Bold-20"/>
    </defs>
    <g transform="translate(138.11953125 23.4)scale(0.15 -0.15)">
     <use xlink:href="#BitstreamVeraSans-Bold-6b"/>
     <use x="66.50390625" xlink:href="#BitstreamVeraSans-Bold-20"/>
     <use x="101.318359375" xlink:href="#BitstreamVeraSans-Bold-3d"/>
     <use x="185.107421875" xlink:href="#BitstreamVeraSans-Bold-20"/>
     <use x="219.921875" xlink:href="#BitstreamVeraSans-Bold-30"/>
     <use x="289.501953125" xlink:href="#BitstreamVeraSans-Bold-2e"/>
     <use x="327.490234375" xlink:href="#BitstreamVeraSans-Bold-30"/>
    </g>
   </g>
  </g>
  <g id="axes_2">
   <g id="patch_7">
    <path d="
M335.081 171
L568.8 171
L568.8 28.4
L335.081 28.4
z
" style="fill:#ffffff;"/>
   </g>
   <g id="line2d_22">
    <path clip-path="url(#p8fb62997d6)" d="
M334.592 171
L336.949 171
L339.306 171
L341.663 171
L344.019 171
L346.376 171
L348.733 171
L351.09 171
L353.446 171
L355.803 171
L358.16 171
L360.516 171
L362.873 171
L365.23 171
L367.587 171
L369.943 171
L372.3 171
L374.657 171
L377.014 171
L379.37 171
L381.727 163.87
L384.084 160.629
L386.441 145.721
L388.797 137.295
L391.154 111.367
L393.511 82.1991
L395.868 55.6236
L398.224 77.6618
L400.581 53.6791
L402.938 118.497
L405.295 126.275
L407.651 171
L410.008 171
L412.365 171
L414.722 171
L417.078 171
L419.435 171
L421.792 171
L424.149 171
L426.505 171
L428.862 171
L431.219 171
L433.576 171
L435.932 171
L438.289 171
L440.646 171
L443.003 171
L445.359 171
L447.716 171
L450.073 171
L452.43 171
L454.786 171
L457.143 171
L459.5 171
L461.857 171
L464.213 171
L466.57 171
L468.927 171
L471.284 171
L473.64 171
L475.997 171
L478.354 171
L480.711 171
L483.067 171
L485.424 171
L487.781 171
L490.138 171
L492.494 171
L494.851 171
L497.208 171
L499.564 171
L501.921 171
L504.278 171
L506.635 171
L508.991 171
L511.348 171
L513.705 171
L516.062 171
L518.418 171
L520.775 171
L523.132 171
L525.489 171
L527.845 171
L530.202 171
L532.559 171
L534.916 171
L537.272 171
L539.629 171
L541.986 171
L544.343 171
L546.699 171
L549.056 171
L551.413 171
L553.77 171
L556.126 171
L558.483 171
L560.84 171
L563.197 171
L565.553 171
L567.91 171
L570.267 171" style="fill:none;stroke:#0000ff;stroke-linecap:square;stroke-width:2;"/>
   </g>
   <g id="line2d_23">
    <path clip-path="url(#p8fb62997d6)" d="
M334.592 171
L336.949 171
L339.306 171
L341.663 171
L344.019 171
L346.376 171
L348.733 171
L351.09 171
L353.446 171
L355.803 171
L358.16 171
L360.516 171
L362.873 171
L365.23 171
L367.587 169.704
L369.943 170.352
L372.3 171
L374.657 169.055
L377.014 168.407
L379.37 167.759
L381.727 166.463
L384.084 164.518
L386.441 159.981
L388.797 154.795
L391.154 150.258
L393.511 144.425
L395.868 141.184
L398.224 136.646
L400.581 133.405
L402.938 115.905
L405.295 128.868
L407.651 117.201
L410.008 126.275
L412.365 119.145
L414.722 132.757
L417.078 139.887
L419.435 132.109
L421.792 149.61
L424.149 145.073
L426.505 157.388
L428.862 156.74
L431.219 161.925
L433.576 163.87
L435.932 169.055
L438.289 169.704
L440.646 170.352
L443.003 171
L445.359 171
L447.716 171
L450.073 171
L452.43 171
L454.786 171
L457.143 171
L459.5 171
L461.857 171
L464.213 171
L466.57 171
L468.927 171
L471.284 171
L473.64 171
L475.997 171
L478.354 171
L480.711 171
L483.067 171
L485.424 171
L487.781 171
L490.138 171
L492.494 171
L494.851 171
L497.208 171
L499.564 171
L501.921 171
L504.278 171
L506.635 171
L508.991 171
L511.348 171
L513.705 171
L516.062 171
L518.418 171
L520.775 171
L523.132 171
L525.489 171
L527.845 171
L530.202 171
L532.559 171
L534.916 171
L537.272 171
L539.629 171
L541.986 171
L544.343 171
L546.699 171
L549.056 171
L551.413 171
L553.77 171
L556.126 171
L558.483 171
L560.84 171
L563.197 171
L565.553 171
L567.91 171
L570.267 171" style="fill:none;stroke:#2a00d4;stroke-linecap:square;stroke-width:2;"/>
   </g>
   <g id="line2d_24">
    <path clip-path="url(#p8fb62997d6)" d="
M334.592 171
L336.949 171
L339.306 171
L341.663 171
L344.019 171
L346.376 171
L348.733 171
L351.09 171
L353.446 171
L355.803 171
L358.16 171
L360.516 171
L362.873 171
L365.23 170.352
L367.587 171
L369.943 171
L372.3 170.352
L374.657 170.352
L377.014 171
L379.37 168.407
L381.727 169.704
L384.084 167.111
L386.441 167.111
L388.797 163.87
L391.154 159.981
L393.511 161.277
L395.868 162.574
L398.224 158.036
L400.581 151.555
L402.938 145.721
L405.295 143.776
L407.651 139.887
L410.008 139.887
L412.365 139.887
L414.722 135.35
L417.078 132.757
L419.435 133.405
L421.792 134.054
L424.149 137.295
L426.505 137.295
L428.862 138.591
L431.219 145.073
L433.576 141.832
L435.932 147.665
L438.289 147.665
L440.646 154.147
L443.003 159.981
L445.359 157.388
L447.716 160.629
L450.073 164.518
L452.43 169.704
L454.786 166.463
L457.143 169.704
L459.5 169.055
L461.857 169.704
L464.213 170.352
L466.57 170.352
L468.927 171
L471.284 171
L473.64 171
L475.997 171
L478.354 171
L480.711 171
L483.067 171
L485.424 171
L487.781 171
L490.138 171
L492.494 171
L494.851 171
L497.208 171
L499.564 171
L501.921 171
L504.278 171
L506.635 171
L508.991 171
L511.348 171
L513.705 171
L516.062 171
L518.418 171
L520.775 171
L523.132 171
L525.489 171
L527.845 171
L530.202 171
L532.559 171
L534.916 171
L537.272 171
L539.629 171
L541.986 171
L544.343 171
L546.699 171
L549.056 171
L551.413 171
L553.77 171
L556.126 171
L558.483 171
L560.84 171
L563.197 171
L565.553 171
L567.91 171
L570.267 171" style="fill:none;stroke:#5500aa;stroke-linecap:square;stroke-width:2;"/>
   </g>
   <g id="line2d_25">
    <path clip-path="url(#p8fb62997d6)" d="
M334.592 171
L336.949 171
L339.306 171
L341.663 171
L344.019 171
L346.376 171
L348.733 171
L351.09 171
L353.446 171
L355.803 171
L358.16 171
L360.516 171
L362.873 171
L365.23 170.352
L367.587 171
L369.943 170.352
L372.3 171
L374.657 169.704
L377.014 170.352
L379.37 170.352
L381.727 169.704
L384.084 170.352
L386.441 169.704
L388.797 166.463
L391.154 165.815
L393.511 165.166
L395.868 165.815
L398.224 164.518
L400.581 162.574
L402.938 155.444
L405.295 159.981
L407.651 152.203
L410.008 152.203
L412.365 151.555
L414.722 153.499
L417.078 150.258
L419.435 147.017
L421.792 143.776
L424.149 141.832
L426.505 142.48
L428.862 138.591
L431.219 138.591
L433.576 135.35
L435.932 147.665
L438.289 132.757
L440.646 145.073
L443.003 142.48
L445.359 149.61
L447.716 153.499
L450.073 156.092
L452.43 148.962
L454.786 158.036
L457.143 157.388
L459.5 158.685
L461.857 160.629
L464.213 160.629
L466.57 163.87
L468.927 167.111
L471.284 165.815
L473.64 170.352
L475.997 169.055
L478.354 170.352
L480.711 169.055
L483.067 171
L485.424 171
L487.781 171
L490.138 170.352
L492.494 171
L494.851 170.352
L497.208 171
L499.564 171
L501.921 171
L504.278 171
L506.635 171
L508.991 171
L511.348 171
L513.705 171
L516.062 171
L518.418 171
L520.775 171
L523.132 171
L525.489 171
L527.845 171
L530.202 171
L532.559 171
L534.916 171
L537.272 171
L539.629 171
L541.986 171
L544.343 171
L546.699 171
L549.056 171
L551.413 171
L553.77 171
L556.126 171
L558.483 171
L560.84 171
L563.197 171
L565.553 171
L567.91 171
L570.267 171" style="fill:none;stroke:#800080;stroke-linecap:square;stroke-width:2;"/>
   </g>
   <g id="line2d_26">
    <path clip-path="url(#p8fb62997d6)" d="
M334.592 171
L336.949 171
L339.306 171
L341.663 171
L344.019 171
L346.376 171
L348.733 171
L351.09 171
L353.446 171
L355.803 171
L358.16 171
L360.516 171
L362.873 171
L365.23 171
L367.587 171
L369.943 171
L372.3 171
L374.657 171
L377.014 170.352
L379.37 170.352
L381.727 167.759
L384.084 169.704
L386.441 171
L388.797 170.352
L391.154 169.055
L393.511 166.463
L395.868 169.055
L398.224 169.704
L400.581 168.407
L402.938 166.463
L405.295 166.463
L407.651 157.388
L410.008 159.333
L412.365 161.277
L414.722 154.795
L417.078 159.981
L419.435 152.203
L421.792 156.092
L424.149 155.444
L426.505 147.017
L428.862 156.74
L431.219 150.258
L433.576 143.776
L435.932 138.591
L438.289 145.073
L440.646 140.535
L443.003 144.425
L445.359 141.832
L447.716 148.314
L450.073 144.425
L452.43 146.369
L454.786 144.425
L457.143 148.962
L459.5 148.314
L461.857 158.685
L464.213 151.555
L466.57 159.333
L468.927 156.74
L471.284 156.74
L473.64 158.685
L475.997 158.036
L478.354 165.166
L480.711 164.518
L483.067 163.222
L485.424 166.463
L487.781 168.407
L490.138 169.055
L492.494 169.055
L494.851 169.055
L497.208 170.352
L499.564 171
L501.921 169.704
L504.278 171
L506.635 170.352
L508.991 171
L511.348 171
L513.705 171
L516.062 171
L518.418 171
L520.775 171
L523.132 171
L525.489 171
L527.845 171
L530.202 171
L532.559 171
L534.916 171
L537.272 171
L539.629 171
L541.986 171
L544.343 171
L546.699 171
L549.056 171
L551.413 171
L553.77 171
L556.126 171
L558.483 171
L560.84 171
L563.197 171
L565.553 171
L567.91 171
L570.267 171" style="fill:none;stroke:#aa0055;stroke-linecap:square;stroke-width:2;"/>
   </g>
   <g id="line2d_27">
    <path clip-path="url(#p8fb62997d6)" d="
M334.592 171
L336.949 171
L339.306 171
L341.663 171
L344.019 171
L346.376 171
L348.733 171
L351.09 171
L353.446 171
L355.803 171
L358.16 171
L360.516 171
L362.873 171
L365.23 171
L367.587 171
L369.943 171
L372.3 171
L374.657 171
L377.014 169.704
L379.37 170.352
L381.727 171
L384.084 171
L386.441 171
L388.797 169.055
L391.154 169.704
L393.511 169.055
L395.868 170.352
L398.224 168.407
L400.581 167.111
L402.938 169.055
L405.295 169.055
L407.651 166.463
L410.008 165.166
L412.365 164.518
L414.722 165.166
L417.078 161.277
L419.435 163.222
L421.792 156.74
L424.149 161.925
L426.505 156.74
L428.862 156.74
L431.219 158.685
L433.576 152.851
L435.932 151.555
L438.289 150.258
L440.646 148.962
L443.003 154.795
L445.359 150.906
L447.716 149.61
L450.073 144.425
L452.43 147.665
L454.786 150.906
L457.143 147.017
L459.5 148.314
L461.857 141.184
L464.213 147.665
L466.57 143.128
L468.927 148.962
L471.284 156.092
L473.64 151.555
L475.997 153.499
L478.354 158.036
L480.711 155.444
L483.067 159.981
L485.424 154.795
L487.781 159.333
L490.138 161.277
L492.494 165.815
L494.851 164.518
L497.208 163.222
L499.564 167.111
L501.921 165.815
L504.278 168.407
L506.635 167.759
L508.991 170.352
L511.348 170.352
L513.705 170.352
L516.062 171
L518.418 169.055
L520.775 170.352
L523.132 171
L525.489 171
L527.845 171
L530.202 171
L532.559 171
L534.916 171
L537.272 171
L539.629 171
L541.986 171
L544.343 171
L546.699 171
L549.056 171
L551.413 171
L553.77 171
L556.126 171
L558.483 171
L560.84 171
L563.197 171
L565.553 171
L567.91 171
L570.267 171" style="fill:none;stroke:#d4002b;stroke-linecap:square;stroke-width:2;"/>
   </g>
   <g id="line2d_28">
    <path clip-path="url(#p8fb62997d6)" d="
M334.592 171
L336.949 171
L339.306 171
L341.663 171
L344.019 171
L346.376 171
L348.733 171
L351.09 171
L353.446 171
L355.803 171
L358.16 171
L360.516 171
L362.873 171
L365.23 171
L367.587 171
L369.943 171
L372.3 170.352
L374.657 171
L377.014 170.352
L379.37 171
L381.727 170.352
L384.084 170.352
L386.441 170.352
L388.797 171
L391.154 169.704
L393.511 169.704
L395.868 171
L398.224 170.352
L400.581 169.704
L402.938 170.352
L405.295 169.055
L407.651 167.111
L410.008 169.055
L412.365 167.111
L414.722 167.759
L417.078 169.055
L419.435 165.815
L421.792 163.222
L424.149 165.166
L426.505 165.166
L428.862 161.925
L431.219 157.388
L433.576 156.092
L435.932 160.629
L438.289 152.851
L440.646 156.74
L443.003 157.388
L445.359 152.851
L447.716 152.851
L450.073 148.962
L452.43 154.147
L454.786 152.203
L457.143 149.61
L459.5 145.721
L461.857 150.258
L464.213 149.61
L466.57 147.017
L468.927 148.314
L471.284 147.665
L473.64 154.147
L475.997 154.147
L478.354 148.962
L480.711 153.499
L483.067 148.962
L485.424 157.388
L487.781 154.147
L490.138 160.629
L492.494 158.036
L494.851 155.444
L497.208 160.629
L499.564 156.092
L501.921 163.87
L504.278 165.166
L506.635 161.277
L508.991 161.925
L511.348 163.87
L513.705 165.815
L516.062 166.463
L518.418 168.407
L520.775 169.055
L523.132 169.055
L525.489 169.055
L527.845 169.704
L530.202 169.055
L532.559 171
L534.916 170.352
L537.272 171
L539.629 170.352
L541.986 171
L544.343 171
L546.699 171
L549.056 171
L551.413 171
L553.77 171
L556.126 171
L558.483 171
L560.84 171
L563.197 171
L565.553 171
L567.91 171
L570.267 171" style="fill:none;stroke:#ff0000;stroke-linecap:square;stroke-width:2;"/>
   </g>
   <g id="patch_8">
    <path d="
M335.081 28.4
L568.8 28.4" style="fill:none;stroke:#000000;stroke-linecap:square;stroke-linejoin:miter;"/>
   </g>
   <g id="patch_9">
    <path d="
M568.8 171
L568.8 28.4" style="fill:none;stroke:#000000;stroke-linecap:square;stroke-linejoin:miter;"/>
   </g>
   <g id="patch_10">
    <path d="
M335.081 171
L568.8 171" style="fill:none;stroke:#000000;stroke-linecap:square;stroke-linejoin:miter;"/>
   </g>
   <g id="patch_11">
    <path d="
M335.081 171
L335.081 28.4" style="fill:none;stroke:#000000;stroke-linecap:square;stroke-linejoin:miter;"/>
   </g>
   <g id="matplotlib.axis_3">
    <g id="xtick_6">
     <g id="line2d_29">
      <g>
       <use style="stroke:#000000;stroke-width:0.5;" x="346.7671875" xlink:href="#m93b0483c22" y="171.0"/>
      </g>
     </g>
     <g id="line2d_30">
      <g>
       <use style="stroke:#000000;stroke-width:0.5;" x="346.7671875" xlink:href="#m741efc42ff" y="28.4"/>
      </g>
     </g>
     <g id="text_11">
      <!-- −20 -->
      <g transform="translate(337.0765625 182.5984375)scale(0.1 -0.1)">
       <use xlink:href="#BitstreamVeraSans-Roman-2212"/>
       <use x="83.7890625" xlink:href="#BitstreamVeraSans-Roman-32"/>
       <use x="147.412109375" xlink:href="#BitstreamVeraSans-Roman-30"/>
      </g>
     </g>
    </g>
    <g id="xtick_7">
     <g id="line2d_31">
      <g>
       <use style="stroke:#000000;stroke-width:0.5;" x="393.5109375" xlink:href="#m93b0483c22" y="171.0"/>
      </g>
     </g>
     <g id="line2d_32">
      <g>
       <use style="stroke:#000000;stroke-width:0.5;" x="393.5109375" xlink:href="#m741efc42ff" y="28.4"/>
      </g>
     </g>
     <g id="text_12">
      <!-- 0 -->
      <g transform="translate(390.99140625 182.5984375)scale(0.1 -0.1)">
       <use xlink:href="#BitstreamVeraSans-Roman-30"/>
      </g>
     </g>
    </g>
    <g id="xtick_8">
     <g id="line2d_33">
      <g>
       <use style="stroke:#000000;stroke-width:0.5;" x="440.2546875" xlink:href="#m93b0483c22" y="171.0"/>
      </g>
     </g>
     <g id="line2d_34">
      <g>
       <use style="stroke:#000000;stroke-width:0.5;" x="440.2546875" xlink:href="#m741efc42ff" y="28.4"/>
      </g>
     </g>
     <g id="text_13">
      <!-- 20 -->
      <g transform="translate(434.590625 182.5984375)scale(0.1 -0.1)">
       <use xlink:href="#BitstreamVeraSans-Roman-32"/>
       <use x="63.623046875" xlink:href="#BitstreamVeraSans-Roman-30"/>
      </g>
     </g>
    </g>
    <g id="xtick_9">
     <g id="line2d_35">
      <g>
       <use style="stroke:#000000;stroke-width:0.5;" x="486.9984375" xlink:href="#m93b0483c22" y="171.0"/>
      </g>
     </g>
     <g id="line2d_36">
      <g>
       <use style="stroke:#000000;stroke-width:0.5;" x="486.9984375" xlink:href="#m741efc42ff" y="28.4"/>
      </g>
     </g>
     <g id="text_14">
      <!-- 40 -->
      <g transform="translate(481.2125 182.5984375)scale(0.1 -0.1)">
       <use xlink:href="#BitstreamVeraSans-Roman-34"/>
       <use x="63.623046875" xlink:href="#BitstreamVeraSans-Roman-30"/>
      </g>
     </g>
    </g>
    <g id="xtick_10">
     <g id="line2d_37">
      <g>
       <use style="stroke:#000000;stroke-width:0.5;" x="533.7421875" xlink:href="#m93b0483c22" y="171.0"/>
      </g>
     </g>
     <g id="line2d_38">
      <g>
       <use style="stroke:#000000;stroke-width:0.5;" x="533.7421875" xlink:href="#m741efc42ff" y="28.4"/>
      </g>
     </g>
     <g id="text_15">
      <!-- 60 -->
      <g transform="translate(528.0609375 182.5984375)scale(0.1 -0.1)">
       <use xlink:href="#BitstreamVeraSans-Roman-36"/>
       <use x="63.623046875" xlink:href="#BitstreamVeraSans-Roman-30"/>
      </g>
     </g>
    </g>
    <g id="text_16">
     <!-- position -->
     <g transform="translate(423.55078125 201.07578125)scale(0.15 -0.15)">
      <use xlink:href="#BitstreamVeraSans-Roman-70"/>
      <use x="63.4765625" xlink:href="#BitstreamVeraSans-Roman-6f"/>
      <use x="124.658203125" xlink:href="#BitstreamVeraSans-Roman-73"/>
      <use x="176.7578125" xlink:href="#BitstreamVeraSans-Roman-69"/>
      <use x="204.541015625" xlink:href="#BitstreamVeraSans-Roman-74"/>
      <use x="243.75" xlink:href="#BitstreamVeraSans-Roman-69"/>
      <use x="271.533203125" xlink:href="#BitstreamVeraSans-Roman-6f"/>
      <use x="332.71484375" xlink:href="#BitstreamVeraSans-Roman-6e"/>
     </g>
    </g>
   </g>
   <g id="matplotlib.axis_4">
    <g id="ytick_3">
     <g id="line2d_39">
      <g>
       <use style="stroke:#000000;stroke-width:0.5;" x="335.08125" xlink:href="#m728421d6d4" y="171.0"/>
      </g>
     </g>
     <g id="line2d_40">
      <g>
       <use style="stroke:#000000;stroke-width:0.5;" x="568.8" xlink:href="#mcb0005524f" y="171.0"/>
      </g>
     </g>
     <g id="text_17">
      <!-- 0.0 -->
      <g transform="translate(316.5015625 173.759375)scale(0.1 -0.1)">
       <use xlink:href="#BitstreamVeraSans-Roman-30"/>
       <use x="63.623046875" xlink:href="#BitstreamVeraSans-Roman-2e"/>
       <use x="95.41015625" xlink:href="#BitstreamVeraSans-Roman-30"/>
      </g>
     </g>
    </g>
    <g id="ytick_4">
     <g id="line2d_41">
      <g>
       <use style="stroke:#000000;stroke-width:0.5;" x="335.08125" xlink:href="#m728421d6d4" y="41.3636363636"/>
      </g>
     </g>
     <g id="line2d_42">
      <g>
       <use style="stroke:#000000;stroke-width:0.5;" x="568.8" xlink:href="#mcb0005524f" y="41.3636363636"/>
      </g>
     </g>
     <g id="text_18">
      <!-- 0.2 -->
      <g transform="translate(316.8390625 44.1230113636)scale(0.1 -0.1)">
       <use xlink:href="#BitstreamVeraSans-Roman-30"/>
       <use x="63.623046875" xlink:href="#BitstreamVeraSans-Roman-2e"/>
       <use x="95.41015625" xlink:href="#BitstreamVeraSans-Roman-32"/>
      </g>
     </g>
    </g>
    <g id="text_19">
     <!-- concentration -->
     <g transform="translate(308.38203125 150.593359375)rotate(-90.0)scale(0.15 -0.15)">
      <use xlink:href="#BitstreamVeraSans-Roman-63"/>
      <use x="54.98046875" xlink:href="#BitstreamVeraSans-Roman-6f"/>
      <use x="116.162109375" xlink:href="#BitstreamVeraSans-Roman-6e"/>
      <use x="179.541015625" xlink:href="#BitstreamVeraSans-Roman-63"/>
      <use x="234.521484375" xlink:href="#BitstreamVeraSans-Roman-65"/>
      <use x="296.044921875" xlink:href="#BitstreamVeraSans-Roman-6e"/>
      <use x="359.423828125" xlink:href="#BitstreamVeraSans-Roman-74"/>
      <use x="398.6328125" xlink:href="#BitstreamVeraSans-Roman-72"/>
      <use x="439.74609375" xlink:href="#BitstreamVeraSans-Roman-61"/>
      <use x="501.025390625" xlink:href="#BitstreamVeraSans-Roman-74"/>
      <use x="540.234375" xlink:href="#BitstreamVeraSans-Roman-69"/>
      <use x="568.017578125" xlink:href="#BitstreamVeraSans-Roman-6f"/>
      <use x="629.19921875" xlink:href="#BitstreamVeraSans-Roman-6e"/>
     </g>
    </g>
   </g>
   <g id="text_20">
    <!-- k = 0.3 -->
    <defs>
     <path d="
M46.5781 39.3125
Q53.9531 37.4062 57.7812 32.6875
Q61.625 27.9844 61.625 20.7031
Q61.625 9.85938 53.3125 4.21875
Q45.0156 -1.42188 29.1094 -1.42188
Q23.4844 -1.42188 17.8438 -0.515625
Q12.2031 0.390625 6.6875 2.20312
L6.6875 16.7031
Q11.9688 14.0625 17.1562 12.7188
Q22.3594 11.375 27.3906 11.375
Q34.8594 11.375 38.8438 13.9531
Q42.8281 16.5469 42.8281 21.3906
Q42.8281 26.375 38.75 28.9375
Q34.6719 31.5 26.7031 31.5
L19.1875 31.5
L19.1875 43.6094
L27.0938 43.6094
Q34.1875 43.6094 37.6406 45.8281
Q41.1094 48.0469 41.1094 52.5938
Q41.1094 56.7812 37.7344 59.0781
Q34.375 61.375 28.2188 61.375
Q23.6875 61.375 19.0469 60.3438
Q14.4062 59.3281 9.8125 57.3281
L9.8125 71.0938
Q15.375 72.6562 20.8438 73.4375
Q26.3125 74.2188 31.5938 74.2188
Q45.7969 74.2188 52.8438 69.5469
Q59.9062 64.8906 59.9062 55.5156
Q59.9062 49.125 56.5312 45.0469
Q53.1719 40.9688 46.5781 39.3125" id="BitstreamVeraSans-Bold-33"/>
    </defs>
    <g transform="translate(422.757421875 23.4)scale(0.15 -0.15)">
     <use xlink:href="#BitstreamVeraSans-Bold-6b"/>
     <use x="66.50390625" xlink:href="#BitstreamVeraSans-Bold-20"/>
     <use x="101.318359375" xlink:href="#BitstreamVeraSans-Bold-3d"/>
     <use x="185.107421875" xlink:href="#BitstreamVeraSans-Bold-20"/>
     <use x="219.921875" xlink:href="#BitstreamVeraSans-Bold-30"/>
     <use x="289.501953125" xlink:href="#BitstreamVeraSans-Bold-2e"/>
     <use x="327.490234375" xlink:href="#BitstreamVeraSans-Bold-33"/>
    </g>
   </g>
  </g>
  <g id="axes_3">
   <g id="patch_12">
    <path d="
M619.481 171
L853.2 171
L853.2 28.4
L619.481 28.4
z
" style="fill:#ffffff;"/>
   </g>
   <g id="line2d_43">
    <path clip-path="url(#p8486599d85)" d="
M618.992 171
L621.349 171
L623.706 171
L626.063 171
L628.419 171
L630.776 171
L633.133 171
L635.49 171
L637.846 171
L640.203 171
L642.56 171
L644.916 171
L647.273 171
L649.63 171
L651.987 171
L654.343 171
L656.7 171
L659.057 171
L661.414 171
L663.77 171
L666.127 158.685
L668.484 159.981
L670.841 143.776
L673.197 141.832
L675.554 114.608
L677.911 76.3655
L680.268 69.2355
L682.624 71.18
L684.981 69.8836
L687.338 113.312
L689.695 113.96
L692.051 171
L694.408 171
L696.765 171
L699.122 171
L701.478 171
L703.835 171
L706.192 171
L708.549 171
L710.905 171
L713.262 171
L715.619 171
L717.976 171
L720.332 171
L722.689 171
L725.046 171
L727.403 171
L729.759 171
L732.116 171
L734.473 171
L736.83 171
L739.186 171
L741.543 171
L743.9 171
L746.257 171
L748.613 171
L750.97 171
L753.327 171
L755.684 171
L758.04 171
L760.397 171
L762.754 171
L765.111 171
L767.467 171
L769.824 171
L772.181 171
L774.538 171
L776.894 171
L779.251 171
L781.608 171
L783.964 171
L786.321 171
L788.678 171
L791.035 171
L793.391 171
L795.748 171
L798.105 171
L800.462 171
L802.818 171
L805.175 171
L807.532 171
L809.889 171
L812.245 171
L814.602 171
L816.959 171
L819.316 171
L821.672 171
L824.029 171
L826.386 171
L828.743 171
L831.099 171
L833.456 171
L835.813 171
L838.17 171
L840.526 171
L842.883 171
L845.24 171
L847.597 171
L849.953 171
L852.31 171
L854.667 171" style="fill:none;stroke:#0000ff;stroke-linecap:square;stroke-width:2;"/>
   </g>
   <g id="line2d_44">
    <path clip-path="url(#p8486599d85)" d="
M618.992 171
L621.349 171
L623.706 171
L626.063 171
L628.419 171
L630.776 171
L633.133 171
L635.49 171
L637.846 170.352
L640.203 171
L642.56 171
L644.916 171
L647.273 169.704
L649.63 169.055
L651.987 171
L654.343 171
L656.7 169.704
L659.057 168.407
L661.414 165.166
L663.77 167.111
L666.127 164.518
L668.484 160.629
L670.841 158.036
L673.197 157.388
L675.554 144.425
L677.911 154.795
L680.268 148.962
L682.624 145.721
L684.981 134.702
L687.338 124.979
L689.695 117.849
L692.051 119.794
L694.408 122.386
L696.765 132.109
L699.122 128.868
L701.478 141.184
L703.835 129.516
L706.192 139.887
L708.549 152.203
L710.905 150.258
L713.262 156.092
L715.619 161.925
L717.976 163.222
L720.332 167.111
L722.689 168.407
L725.046 171
L727.403 171
L729.759 170.352
L732.116 171
L734.473 171
L736.83 171
L739.186 171
L741.543 171
L743.9 171
L746.257 171
L748.613 171
L750.97 171
L753.327 171
L755.684 171
L758.04 171
L760.397 171
L762.754 171
L765.111 171
L767.467 171
L769.824 171
L772.181 171
L774.538 171
L776.894 171
L779.251 171
L781.608 171
L783.964 171
L786.321 171
L788.678 171
L791.035 171
L793.391 171
L795.748 171
L798.105 171
L800.462 171
L802.818 171
L805.175 171
L807.532 171
L809.889 171
L812.245 171
L814.602 171
L816.959 171
L819.316 171
L821.672 171
L824.029 171
L826.386 171
L828.743 171
L831.099 171
L833.456 171
L835.813 171
L838.17 171
L840.526 171
L842.883 171
L845.24 171
L847.597 171
L849.953 171
L852.31 171
L854.667 171" style="fill:none;stroke:#2a00d4;stroke-linecap:square;stroke-width:2;"/>
   </g>
   <g id="line2d_45">
    <path clip-path="url(#p8486599d85)" d="
M618.992 171
L621.349 171
L623.706 171
L626.063 171
L628.419 171
L630.776 171
L633.133 171
L635.49 171
L637.846 169.704
L640.203 171
L642.56 171
L644.916 171
L647.273 171
L649.63 169.704
L651.987 171
L654.343 167.759
L656.7 169.704
L659.057 169.704
L661.414 170.352
L663.77 165.815
L666.127 167.759
L668.484 165.166
L670.841 160.629
L673.197 161.925
L675.554 159.333
L677.911 159.333
L680.268 155.444
L682.624 155.444
L684.981 158.685
L687.338 150.258
L689.695 149.61
L692.051 141.184
L694.408 138.591
L696.765 138.591
L699.122 140.535
L701.478 140.535
L703.835 136.646
L706.192 135.998
L708.549 141.832
L710.905 140.535
L713.262 132.757
L715.619 141.832
L717.976 149.61
L720.332 141.832
L722.689 151.555
L725.046 156.092
L727.403 154.795
L729.759 161.925
L732.116 161.925
L734.473 165.815
L736.83 165.815
L739.186 167.111
L741.543 167.111
L743.9 167.759
L746.257 168.407
L748.613 171
L750.97 170.352
L753.327 170.352
L755.684 171
L758.04 171
L760.397 171
L762.754 171
L765.111 171
L767.467 171
L769.824 171
L772.181 171
L774.538 171
L776.894 171
L779.251 171
L781.608 171
L783.964 171
L786.321 171
L788.678 171
L791.035 171
L793.391 171
L795.748 171
L798.105 171
L800.462 171
L802.818 171
L805.175 171
L807.532 171
L809.889 171
L812.245 171
L814.602 171
L816.959 171
L819.316 171
L821.672 171
L824.029 171
L826.386 171
L828.743 171
L831.099 171
L833.456 171
L835.813 171
L838.17 171
L840.526 171
L842.883 171
L845.24 171
L847.597 171
L849.953 171
L852.31 171
L854.667 171" style="fill:none;stroke:#5500aa;stroke-linecap:square;stroke-width:2;"/>
   </g>
   <g id="line2d_46">
    <path clip-path="url(#p8486599d85)" d="
M618.992 171
L621.349 171
L623.706 171
L626.063 171
L628.419 170.352
L630.776 171
L633.133 171
L635.49 170.352
L637.846 171
L640.203 171
L642.56 171
L644.916 170.352
L647.273 170.352
L649.63 171
L651.987 171
L654.343 171
L656.7 169.055
L659.057 170.352
L661.414 170.352
L663.77 169.055
L666.127 168.407
L668.484 167.111
L670.841 167.759
L673.197 166.463
L675.554 165.815
L677.911 158.685
L680.268 160.629
L682.624 161.277
L684.981 156.74
L687.338 160.629
L689.695 158.036
L692.051 158.036
L694.408 154.795
L696.765 156.74
L699.122 150.258
L701.478 153.499
L703.835 145.721
L706.192 147.665
L708.549 142.48
L710.905 141.832
L713.262 139.887
L715.619 144.425
L717.976 141.184
L720.332 139.239
L722.689 144.425
L725.046 145.073
L727.403 146.369
L729.759 148.962
L732.116 152.203
L734.473 147.665
L736.83 154.147
L739.186 155.444
L741.543 161.925
L743.9 157.388
L746.257 161.277
L748.613 163.87
L750.97 167.111
L753.327 162.574
L755.684 166.463
L758.04 165.815
L760.397 168.407
L762.754 171
L765.111 167.759
L767.467 169.704
L769.824 169.704
L772.181 171
L774.538 171
L776.894 171
L779.251 171
L781.608 171
L783.964 171
L786.321 171
L788.678 171
L791.035 171
L793.391 171
L795.748 171
L798.105 171
L800.462 171
L802.818 171
L805.175 171
L807.532 171
L809.889 171
L812.245 171
L814.602 171
L816.959 171
L819.316 171
L821.672 171
L824.029 171
L826.386 171
L828.743 171
L831.099 171
L833.456 171
L835.813 171
L838.17 171
L840.526 171
L842.883 171
L845.24 171
L847.597 171
L849.953 171
L852.31 171
L854.667 171" style="fill:none;stroke:#800080;stroke-linecap:square;stroke-width:2;"/>
   </g>
   <g id="line2d_47">
    <path clip-path="url(#p8486599d85)" d="
M618.992 171
L621.349 171
L623.706 171
L626.063 171
L628.419 171
L630.776 170.352
L633.133 171
L635.49 171
L637.846 171
L640.203 171
L642.56 170.352
L644.916 171
L647.273 171
L649.63 171
L651.987 171
L654.343 171
L656.7 171
L659.057 169.055
L661.414 171
L663.77 168.407
L666.127 169.055
L668.484 170.352
L670.841 169.055
L673.197 167.111
L675.554 167.759
L677.911 164.518
L680.268 167.759
L682.624 167.759
L684.981 163.87
L687.338 159.333
L689.695 164.518
L692.051 160.629
L694.408 165.166
L696.765 159.333
L699.122 156.74
L701.478 154.147
L703.835 157.388
L706.192 153.499
L708.549 157.388
L710.905 153.499
L713.262 145.721
L715.619 148.314
L717.976 154.795
L720.332 142.48
L722.689 139.887
L725.046 146.369
L727.403 144.425
L729.759 150.906
L732.116 150.906
L734.473 152.203
L736.83 141.184
L739.186 145.073
L741.543 148.962
L743.9 148.962
L746.257 154.147
L748.613 154.795
L750.97 161.925
L753.327 157.388
L755.684 161.277
L758.04 161.277
L760.397 160.629
L762.754 163.87
L765.111 158.036
L767.467 165.815
L769.824 165.815
L772.181 167.111
L774.538 168.407
L776.894 167.111
L779.251 166.463
L781.608 170.352
L783.964 168.407
L786.321 171
L788.678 171
L791.035 169.704
L793.391 170.352
L795.748 170.352
L798.105 170.352
L800.462 171
L802.818 171
L805.175 171
L807.532 171
L809.889 171
L812.245 171
L814.602 171
L816.959 171
L819.316 171
L821.672 171
L824.029 171
L826.386 171
L828.743 171
L831.099 171
L833.456 171
L835.813 171
L838.17 171
L840.526 171
L842.883 171
L845.24 171
L847.597 171
L849.953 171
L852.31 171
L854.667 171" style="fill:none;stroke:#aa0055;stroke-linecap:square;stroke-width:2;"/>
   </g>
   <g id="line2d_48">
    <path clip-path="url(#p8486599d85)" d="
M618.992 171
L621.349 171
L623.706 171
L626.063 171
L628.419 171
L630.776 170.352
L633.133 171
L635.49 171
L637.846 171
L640.203 171
L642.56 171
L644.916 171
L647.273 171
L649.63 171
L651.987 171
L654.343 171
L656.7 171
L659.057 168.407
L661.414 171
L663.77 169.055
L666.127 169.704
L668.484 170.352
L670.841 170.352
L673.197 169.055
L675.554 168.407
L677.911 169.704
L680.268 169.704
L682.624 166.463
L684.981 167.759
L687.338 166.463
L689.695 166.463
L692.051 167.759
L694.408 165.166
L696.765 161.277
L699.122 159.981
L701.478 160.629
L703.835 163.87
L706.192 161.277
L708.549 159.981
L710.905 159.981
L713.262 157.388
L715.619 154.795
L717.976 150.906
L720.332 148.962
L722.689 150.258
L725.046 152.203
L727.403 147.017
L729.759 154.795
L732.116 149.61
L734.473 152.851
L736.83 146.369
L739.186 147.665
L741.543 145.721
L743.9 148.962
L746.257 150.258
L748.613 153.499
L750.97 148.962
L753.327 150.258
L755.684 151.555
L758.04 154.147
L760.397 156.092
L762.754 155.444
L765.111 159.333
L767.467 161.925
L769.824 157.388
L772.181 162.574
L774.538 161.277
L776.894 164.518
L779.251 162.574
L781.608 168.407
L783.964 164.518
L786.321 165.166
L788.678 165.166
L791.035 168.407
L793.391 169.055
L795.748 169.055
L798.105 169.704
L800.462 169.704
L802.818 170.352
L805.175 168.407
L807.532 170.352
L809.889 171
L812.245 170.352
L814.602 170.352
L816.959 171
L819.316 170.352
L821.672 171
L824.029 171
L826.386 171
L828.743 171
L831.099 171
L833.456 171
L835.813 171
L838.17 171
L840.526 171
L842.883 171
L845.24 171
L847.597 171
L849.953 171
L852.31 171
L854.667 171" style="fill:none;stroke:#d4002b;stroke-linecap:square;stroke-width:2;"/>
   </g>
   <g id="line2d_49">
    <path clip-path="url(#p8486599d85)" d="
M618.992 171
L621.349 171
L623.706 171
L626.063 171
L628.419 171
L630.776 171
L633.133 171
L635.49 171
L637.846 171
L640.203 171
L642.56 171
L644.916 171
L647.273 169.704
L649.63 171
L651.987 171
L654.343 170.352
L656.7 171
L659.057 171
L661.414 171
L663.77 171
L666.127 169.704
L668.484 169.704
L670.841 169.704
L673.197 170.352
L675.554 170.352
L677.911 171
L680.268 167.111
L682.624 167.759
L684.981 169.055
L687.338 169.704
L689.695 169.055
L692.051 169.704
L694.408 164.518
L696.765 168.407
L699.122 167.111
L701.478 165.166
L703.835 165.166
L706.192 163.87
L708.549 161.925
L710.905 164.518
L713.262 158.036
L715.619 161.277
L717.976 155.444
L720.332 159.981
L722.689 158.685
L725.046 161.925
L727.403 151.555
L729.759 152.203
L732.116 154.147
L734.473 152.203
L736.83 154.795
L739.186 150.906
L741.543 150.258
L743.9 151.555
L746.257 151.555
L748.613 147.017
L750.97 150.258
L753.327 150.906
L755.684 150.258
L758.04 150.258
L760.397 152.851
L762.754 152.203
L765.111 156.74
L767.467 156.74
L769.824 156.74
L772.181 152.203
L774.538 158.685
L776.894 156.092
L779.251 159.333
L781.608 158.685
L783.964 154.147
L786.321 158.036
L788.678 162.574
L791.035 167.111
L793.391 165.815
L795.748 167.111
L798.105 163.87
L800.462 165.815
L802.818 167.111
L805.175 169.055
L807.532 169.704
L809.889 170.352
L812.245 169.055
L814.602 169.055
L816.959 169.055
L819.316 169.704
L821.672 169.704
L824.029 170.352
L826.386 170.352
L828.743 170.352
L831.099 170.352
L833.456 169.704
L835.813 171
L838.17 171
L840.526 171
L842.883 171
L845.24 171
L847.597 171
L849.953 171
L852.31 171
L854.667 171" style="fill:none;stroke:#ff0000;stroke-linecap:square;stroke-width:2;"/>
   </g>
   <g id="patch_13">
    <path d="
M619.481 28.4
L853.2 28.4" style="fill:none;stroke:#000000;stroke-linecap:square;stroke-linejoin:miter;"/>
   </g>
   <g id="patch_14">
    <path d="
M853.2 171
L853.2 28.4" style="fill:none;stroke:#000000;stroke-linecap:square;stroke-linejoin:miter;"/>
   </g>
   <g id="patch_15">
    <path d="
M619.481 171
L853.2 171" style="fill:none;stroke:#000000;stroke-linecap:square;stroke-linejoin:miter;"/>
   </g>
   <g id="patch_16">
    <path d="
M619.481 171
L619.481 28.4" style="fill:none;stroke:#000000;stroke-linecap:square;stroke-linejoin:miter;"/>
   </g>
   <g id="matplotlib.axis_5">
    <g id="xtick_11">
     <g id="line2d_50">
      <g>
       <use style="stroke:#000000;stroke-width:0.5;" x="631.1671875" xlink:href="#m93b0483c22" y="171.0"/>
      </g>
     </g>
     <g id="line2d_51">
      <g>
       <use style="stroke:#000000;stroke-width:0.5;" x="631.1671875" xlink:href="#m741efc42ff" y="28.4"/>
      </g>
     </g>
     <g id="text_21">
      <!-- −20 -->
      <g transform="translate(621.4765625 182.5984375)scale(0.1 -0.1)">
       <use xlink:href="#BitstreamVeraSans-Roman-2212"/>
       <use x="83.7890625" xlink:href="#BitstreamVeraSans-Roman-32"/>
       <use x="147.412109375" xlink:href="#BitstreamVeraSans-Roman-30"/>
      </g>
     </g>
    </g>
    <g id="xtick_12">
     <g id="line2d_52">
      <g>
       <use style="stroke:#000000;stroke-width:0.5;" x="677.9109375" xlink:href="#m93b0483c22" y="171.0"/>
      </g>
     </g>
     <g id="line2d_53">
      <g>
       <use style="stroke:#000000;stroke-width:0.5;" x="677.9109375" xlink:href="#m741efc42ff" y="28.4"/>
      </g>
     </g>
     <g id="text_22">
      <!-- 0 -->
      <g transform="translate(675.39140625 182.5984375)scale(0.1 -0.1)">
       <use xlink:href="#BitstreamVeraSans-Roman-30"/>
      </g>
     </g>
    </g>
    <g id="xtick_13">
     <g id="line2d_54">
      <g>
       <use style="stroke:#000000;stroke-width:0.5;" x="724.6546875" xlink:href="#m93b0483c22" y="171.0"/>
      </g>
     </g>
     <g id="line2d_55">
      <g>
       <use style="stroke:#000000;stroke-width:0.5;" x="724.6546875" xlink:href="#m741efc42ff" y="28.4"/>
      </g>
     </g>
     <g id="text_23">
      <!-- 20 -->
      <g transform="translate(718.990625 182.5984375)scale(0.1 -0.1)">
       <use xlink:href="#BitstreamVeraSans-Roman-32"/>
       <use x="63.623046875" xlink:href="#BitstreamVeraSans-Roman-30"/>
      </g>
     </g>
    </g>
    <g id="xtick_14">
     <g id="line2d_56">
      <g>
       <use style="stroke:#000000;stroke-width:0.5;" x="771.3984375" xlink:href="#m93b0483c22" y="171.0"/>
      </g>
     </g>
     <g id="line2d_57">
      <g>
       <use style="stroke:#000000;stroke-width:0.5;" x="771.3984375" xlink:href="#m741efc42ff" y="28.4"/>
      </g>
     </g>
     <g id="text_24">
      <!-- 40 -->
      <g transform="translate(765.6125 182.5984375)scale(0.1 -0.1)">
       <use xlink:href="#BitstreamVeraSans-Roman-34"/>
       <use x="63.623046875" xlink:href="#BitstreamVeraSans-Roman-30"/>
      </g>
     </g>
    </g>
    <g id="xtick_15">
     <g id="line2d_58">
      <g>
       <use style="stroke:#000000;stroke-width:0.5;" x="818.1421875" xlink:href="#m93b0483c22" y="171.0"/>
      </g>
     </g>
     <g id="line2d_59">
      <g>
       <use style="stroke:#000000;stroke-width:0.5;" x="818.1421875" xlink:href="#m741efc42ff" y="28.4"/>
      </g>
     </g>
     <g id="text_25">
      <!-- 60 -->
      <g transform="translate(812.4609375 182.5984375)scale(0.1 -0.1)">
       <use xlink:href="#BitstreamVeraSans-Roman-36"/>
       <use x="63.623046875" xlink:href="#BitstreamVeraSans-Roman-30"/>
      </g>
     </g>
    </g>
    <g id="text_26">
     <!-- position -->
     <g transform="translate(707.95078125 201.07578125)scale(0.15 -0.15)">
      <use xlink:href="#BitstreamVeraSans-Roman-70"/>
      <use x="63.4765625" xlink:href="#BitstreamVeraSans-Roman-6f"/>
      <use x="124.658203125" xlink:href="#BitstreamVeraSans-Roman-73"/>
      <use x="176.7578125" xlink:href="#BitstreamVeraSans-Roman-69"/>
      <use x="204.541015625" xlink:href="#BitstreamVeraSans-Roman-74"/>
      <use x="243.75" xlink:href="#BitstreamVeraSans-Roman-69"/>
      <use x="271.533203125" xlink:href="#BitstreamVeraSans-Roman-6f"/>
      <use x="332.71484375" xlink:href="#BitstreamVeraSans-Roman-6e"/>
     </g>
    </g>
   </g>
   <g id="matplotlib.axis_6">
    <g id="ytick_5">
     <g id="line2d_60">
      <g>
       <use style="stroke:#000000;stroke-width:0.5;" x="619.48125" xlink:href="#m728421d6d4" y="171.0"/>
      </g>
     </g>
     <g id="line2d_61">
      <g>
       <use style="stroke:#000000;stroke-width:0.5;" x="853.2" xlink:href="#mcb0005524f" y="171.0"/>
      </g>
     </g>
     <g id="text_27">
      <!-- 0.0 -->
      <g transform="translate(600.9015625 173.759375)scale(0.1 -0.1)">
       <use xlink:href="#BitstreamVeraSans-Roman-30"/>
       <use x="63.623046875" xlink:href="#BitstreamVeraSans-Roman-2e"/>
       <use x="95.41015625" xlink:href="#BitstreamVeraSans-Roman-30"/>
      </g>
     </g>
    </g>
    <g id="ytick_6">
     <g id="line2d_62">
      <g>
       <use style="stroke:#000000;stroke-width:0.5;" x="619.48125" xlink:href="#m728421d6d4" y="41.3636363636"/>
      </g>
     </g>
     <g id="line2d_63">
      <g>
       <use style="stroke:#000000;stroke-width:0.5;" x="853.2" xlink:href="#mcb0005524f" y="41.3636363636"/>
      </g>
     </g>
     <g id="text_28">
      <!-- 0.2 -->
      <g transform="translate(601.2390625 44.1230113636)scale(0.1 -0.1)">
       <use xlink:href="#BitstreamVeraSans-Roman-30"/>
       <use x="63.623046875" xlink:href="#BitstreamVeraSans-Roman-2e"/>
       <use x="95.41015625" xlink:href="#BitstreamVeraSans-Roman-32"/>
      </g>
     </g>
    </g>
    <g id="text_29">
     <!-- concentration -->
     <g transform="translate(592.78203125 150.593359375)rotate(-90.0)scale(0.15 -0.15)">
      <use xlink:href="#BitstreamVeraSans-Roman-63"/>
      <use x="54.98046875" xlink:href="#BitstreamVeraSans-Roman-6f"/>
      <use x="116.162109375" xlink:href="#BitstreamVeraSans-Roman-6e"/>
      <use x="179.541015625" xlink:href="#BitstreamVeraSans-Roman-63"/>
      <use x="234.521484375" xlink:href="#BitstreamVeraSans-Roman-65"/>
      <use x="296.044921875" xlink:href="#BitstreamVeraSans-Roman-6e"/>
      <use x="359.423828125" xlink:href="#BitstreamVeraSans-Roman-74"/>
      <use x="398.6328125" xlink:href="#BitstreamVeraSans-Roman-72"/>
      <use x="439.74609375" xlink:href="#BitstreamVeraSans-Roman-61"/>
      <use x="501.025390625" xlink:href="#BitstreamVeraSans-Roman-74"/>
      <use x="540.234375" xlink:href="#BitstreamVeraSans-Roman-69"/>
      <use x="568.017578125" xlink:href="#BitstreamVeraSans-Roman-6f"/>
      <use x="629.19921875" xlink:href="#BitstreamVeraSans-Roman-6e"/>
     </g>
    </g>
   </g>
   <g id="text_30">
    <!-- k = 0.4 -->
    <defs>
     <path d="
M36.8125 57.4219
L16.2188 26.9062
L36.8125 26.9062
z

M33.6875 72.9062
L54.5938 72.9062
L54.5938 26.9062
L64.9844 26.9062
L64.9844 13.2812
L54.5938 13.2812
L54.5938 0
L36.8125 0
L36.8125 13.2812
L4.5 13.2812
L4.5 29.3906
z
" id="BitstreamVeraSans-Bold-34"/>
    </defs>
    <g transform="translate(706.90546875 23.4)scale(0.15 -0.15)">
     <use xlink:href="#BitstreamVeraSans-Bold-6b"/>
     <use x="66.50390625" xlink:href="#BitstreamVeraSans-Bold-20"/>
     <use x="101.318359375" xlink:href="#BitstreamVeraSans-Bold-3d"/>
     <use x="185.107421875" xlink:href="#BitstreamVeraSans-Bold-20"/>
     <use x="219.921875" xlink:href="#BitstreamVeraSans-Bold-30"/>
     <use x="289.501953125" xlink:href="#BitstreamVeraSans-Bold-2e"/>
     <use x="327.490234375" xlink:href="#BitstreamVeraSans-Bold-34"/>
    </g>
   </g>
  </g>
 </g>
 <defs>
  <clipPath id="p8486599d85">
   <rect height="142.6" width="233.71875" x="619.48125" y="28.4"/>
  </clipPath>
  <clipPath id="p8fb62997d6">
   <rect height="142.6" width="233.71875" x="335.08125" y="28.4"/>
  </clipPath>
  <clipPath id="p8cb69eebd4">
   <rect height="142.6" width="233.71875" x="50.68125" y="28.4"/>
  </clipPath>
 </defs>
</svg>
