<?xml version="1.0" encoding="utf-8" standalone="no"?>
<!DOCTYPE svg PUBLIC "-//W3C//DTD SVG 1.1//EN"
  "http://www.w3.org/Graphics/SVG/1.1/DTD/svg11.dtd">
<!-- Created with matplotlib (http://matplotlib.org/) -->
<svg height="216pt" version="1.1" viewBox="0 0 864 216" width="864pt" xmlns="http://www.w3.org/2000/svg" xmlns:xlink="http://www.w3.org/1999/xlink">
 <defs>
  <style type="text/css">
*{stroke-linecap:butt;stroke-linejoin:round;}
  </style>
 </defs>
 <g id="figure_1">
  <g id="patch_1">
   <path d="
M0 216
L864 216
L864 0
L0 0
z
" style="fill:#ffffff;"/>
  </g>
  <g id="axes_1">
   <g id="patch_2">
    <path d="
M50.6813 171
L284.4 171
L284.4 28.4
L50.6813 28.4
z
" style="fill:#ffffff;"/>
   </g>
   <g id="line2d_1">
    <path clip-path="url(#p8cb69eebd4)" d="
M50.1923 171
L52.549 171
L54.9058 171
L57.2625 171
L59.6193 171
L61.976 171
L64.3328 171
L66.6895 171
L69.0463 171
L71.403 171
L73.7598 171
L76.1165 171
L78.4732 171
L80.83 171
L83.1867 171
L85.5435 171
L87.9002 171
L90.257 171
L92.6137 170.997
L94.9705 170.978
L97.3272 170.837
L99.684 169.977
L102.041 165.746
L104.397 149.78
L106.754 107.661
L109.111 43.2732
L111.468 13.8252
L113.824 40.3296
L116.181 90.7109
L118.538 132.216
L120.895 155.629
L123.251 165.846
L125.608 169.505
L127.965 170.618
L130.322 170.913
L132.678 170.982
L135.035 170.997
L137.392 170.999
L139.749 171
L142.105 171
L144.462 171
L146.819 171
L149.176 171
L151.532 171
L153.889 171
L156.246 171
L158.603 171
L160.959 171
L163.316 171
L165.673 171
L168.03 171
L170.386 171
L172.743 171
L175.1 171
L177.457 171
L179.813 171
L182.17 171
L184.527 171
L186.884 171
L189.24 171
L191.597 171
L193.954 171
L196.311 171
L198.667 171
L201.024 171
L203.381 171
L205.738 171
L208.094 171
L210.451 171
L212.808 171
L215.164 171
L217.521 171
L219.878 171
L222.235 171
L224.591 171
L226.948 171
L229.305 171
L231.662 171
L234.018 171
L236.375 171
L238.732 171
L241.089 171
L243.445 171
L245.802 171
L248.159 171
L250.516 171
L252.872 171
L255.229 171
L257.586 171
L259.943 171
L262.299 171
L264.656 171
L267.013 171
L269.37 171
L271.726 171
L274.083 171
L276.44 171
L278.797 171
L281.153 171
L283.51 171
L285.867 171" style="fill:none;stroke:#0000ff;stroke-linecap:square;stroke-width:2;"/>
   </g>
   <g id="line2d_2">
    <path clip-path="url(#p8cb69eebd4)" d="
M50.1923 171
L52.549 171
L54.9058 171
L57.2625 171
L59.6193 171
L61.976 171
L64.3328 171
L66.6895 171
L69.0463 171
L71.403 171
L73.7598 171
L76.1165 171
L78.4732 171
L80.83 171
L83.1867 170.999
L85.5435 170.996
L87.9002 170.986
L90.257 170.959
L92.6137 170.886
L94.9705 170.703
L97.3272 170.279
L99.684 169.373
L102.041 167.603
L104.397 164.446
L106.754 159.333
L109.111 151.856
L111.468 142.05
L113.824 130.642
L116.181 119.09
L118.538 109.305
L120.895 103.119
L123.251 101.707
L125.608 105.212
L127.965 112.758
L130.322 122.794
L132.678 133.598
L135.035 143.727
L137.392 152.263
L139.749 158.841
L142.105 163.531
L144.462 166.647
L146.819 168.588
L149.176 169.727
L151.532 170.359
L153.889 170.691
L156.246 170.858
L158.603 170.937
L160.959 170.973
L163.316 170.989
L165.673 170.996
L168.03 170.998
L170.386 170.999
L172.743 171
L175.1 171
L177.457 171
L179.813 171
L182.17 171
L184.527 171
L186.884 171
L189.24 171
L191.597 171
L193.954 171
L196.311 171
L198.667 171
L201.024 171
L203.381 171
L205.738 171
L208.094 171
L210.451 171
L212.808 171
L215.164 171
L217.521 171
L219.878 171
L222.235 171
L224.591 171
L226.948 171
L229.305 171
L231.662 171
L234.018 171
L236.375 171
L238.732 171
L241.089 171
L243.445 171
L245.802 171
L248.159 171
L250.516 171
L252.872 171
L255.229 171
L257.586 171
L259.943 171
L262.299 171
L264.656 171
L267.013 171
L269.37 171
L271.726 171
L274.083 171
L276.44 171
L278.797 171
L281.153 171
L283.51 171
L285.867 171" style="fill:none;stroke:#2a00d4;stroke-linecap:square;stroke-width:2;"/>
   </g>
   <g id="line2d_3">
    <path clip-path="url(#p8cb69eebd4)" d="
M50.1923 171
L52.549 171
L54.9058 171
L57.2625 171
L59.6193 171
L61.976 171
L64.3328 171
L66.6895 171
L69.0463 171
L71.403 171
L73.7598 171
L76.1165 171
L78.4732 171
L80.83 170.999
L83.1867 170.998
L85.5435 170.994
L87.9002 170.986
L90.257 170.968
L92.6137 170.931
L94.9705 170.855
L97.3272 170.709
L99.684 170.44
L102.041 169.969
L104.397 169.184
L106.754 167.941
L109.111 166.073
L111.468 163.41
L113.824 159.82
L116.181 155.248
L118.538 149.769
L120.895 143.615
L123.251 137.184
L125.608 131.006
L127.965 125.669
L130.322 121.732
L132.678 119.62
L135.035 119.55
L137.392 121.496
L139.749 125.196
L142.105 130.216
L144.462 136.026
L146.819 142.093
L149.176 147.953
L151.532 153.262
L153.889 157.811
L156.246 161.518
L158.603 164.405
L160.959 166.558
L163.316 168.101
L165.673 169.166
L168.03 169.874
L170.386 170.329
L172.743 170.611
L175.1 170.781
L177.457 170.88
L179.813 170.936
L182.17 170.967
L184.527 170.983
L186.884 170.992
L189.24 170.996
L191.597 170.998
L193.954 170.999
L196.311 171
L198.667 171
L201.024 171
L203.381 171
L205.738 171
L208.094 171
L210.451 171
L212.808 171
L215.164 171
L217.521 171
L219.878 171
L222.235 171
L224.591 171
L226.948 171
L229.305 171
L231.662 171
L234.018 171
L236.375 171
L238.732 171
L241.089 171
L243.445 171
L245.802 171
L248.159 171
L250.516 171
L252.872 171
L255.229 171
L257.586 171
L259.943 171
L262.299 171
L264.656 171
L267.013 171
L269.37 171
L271.726 171
L274.083 171
L276.44 171
L278.797 171
L281.153 171
L283.51 171
L285.867 171" style="fill:none;stroke:#5500aa;stroke-linecap:square;stroke-width:2;"/>
   </g>
   <g id="line2d_4">
    <path clip-path="url(#p8cb69eebd4)" d="
M50.1923 171
L52.549 171
L54.9058 171
L57.2625 171
L59.6193 171
L61.976 171
L64.3328 171
L66.6895 171
L69.0463 171
L71.403 171
L73.7598 171
L76.1165 171
L78.4732 171
L80.83 170.999
L83.1867 170.998
L85.5435 170.997
L87.9002 170.993
L90.257 170.986
L92.6137 170.972
L94.9705 170.947
L97.3272 170.9
L99.684 170.82
L102.041 170.684
L104.397 170.463
L106.754 170.114
L109.111 169.582
L111.468 168.801
L113.824 167.692
L116.181 166.176
L118.538 164.176
L120.895 161.637
L123.251 158.54
L125.608 154.912
L127.965 150.844
L130.322 146.491
L132.678 142.067
L135.035 137.834
L137.392 134.073
L139.749 131.053
L142.105 129.002
L144.462 128.072
L146.819 128.327
L149.176 129.733
L151.532 132.162
L153.889 135.415
L156.246 139.247
L158.603 143.395
L160.959 147.612
L163.316 151.68
L165.673 155.434
L168.03 158.764
L170.386 161.612
L172.743 163.967
L175.1 165.853
L177.457 167.32
L179.813 168.428
L182.17 169.243
L184.527 169.825
L186.884 170.232
L189.24 170.508
L191.597 170.692
L193.954 170.811
L196.311 170.886
L198.667 170.933
L201.024 170.961
L203.381 170.978
L205.738 170.988
L208.094 170.993
L210.451 170.996
L212.808 170.998
L215.164 170.999
L217.521 171
L219.878 171
L222.235 171
L224.591 171
L226.948 171
L229.305 171
L231.662 171
L234.018 171
L236.375 171
L238.732 171
L241.089 171
L243.445 171
L245.802 171
L248.159 171
L250.516 171
L252.872 171
L255.229 171
L257.586 171
L259.943 171
L262.299 171
L264.656 171
L267.013 171
L269.37 171
L271.726 171
L274.083 171
L276.44 171
L278.797 171
L281.153 171
L283.51 171
L285.867 171" style="fill:none;stroke:#800080;stroke-linecap:square;stroke-width:2;"/>
   </g>
   <g id="line2d_5">
    <path clip-path="url(#p8cb69eebd4)" d="
M50.1923 171
L52.549 171
L54.9058 171
L57.2625 171
L59.6193 171
L61.976 171
L64.3328 171
L66.6895 171
L69.0463 171
L71.403 171
L73.7598 171
L76.1165 171
L78.4732 171
L80.83 171
L83.1867 170.999
L85.5435 170.999
L87.9002 170.997
L90.257 170.995
L92.6137 170.991
L94.9705 170.983
L97.3272 170.969
L99.684 170.946
L102.041 170.907
L104.397 170.845
L106.754 170.747
L109.111 170.597
L111.468 170.372
L113.824 170.045
L116.181 169.581
L118.538 168.938
L120.895 168.074
L123.251 166.941
L125.608 165.499
L127.965 163.712
L130.322 161.562
L132.678 159.053
L135.035 156.214
L137.392 153.107
L139.749 149.826
L142.105 146.492
L144.462 143.252
L146.819 140.263
L149.176 137.684
L151.532 135.658
L153.889 134.301
L156.246 133.69
L158.603 133.857
L160.959 134.785
L163.316 136.409
L165.673 138.628
L168.03 141.31
L170.386 144.309
L172.743 147.476
L175.1 150.669
L177.457 153.765
L179.813 156.668
L182.17 159.305
L184.527 161.634
L186.884 163.638
L189.24 165.318
L191.597 166.693
L193.954 167.793
L196.311 168.655
L198.667 169.314
L201.024 169.809
L203.381 170.173
L205.738 170.435
L208.094 170.621
L210.451 170.75
L212.808 170.837
L215.164 170.896
L217.521 170.935
L219.878 170.959
L222.235 170.975
L224.591 170.985
L226.948 170.991
L229.305 170.995
L231.662 170.997
L234.018 170.998
L236.375 170.999
L238.732 170.999
L241.089 171
L243.445 171
L245.802 171
L248.159 171
L250.516 171
L252.872 171
L255.229 171
L257.586 171
L259.943 171
L262.299 171
L264.656 171
L267.013 171
L269.37 171
L271.726 171
L274.083 171
L276.44 171
L278.797 171
L281.153 171
L283.51 171
L285.867 171" style="fill:none;stroke:#aa0055;stroke-linecap:square;stroke-width:2;"/>
   </g>
   <g id="line2d_6">
    <path clip-path="url(#p8cb69eebd4)" d="
M50.1923 171
L52.549 171
L54.9058 171
L57.2625 171
L59.6193 171
L61.976 171
L64.3328 171
L66.6895 171
L69.0463 171
L71.403 171
L73.7598 171
L76.1165 171
L78.4732 171
L80.83 171
L83.1867 171
L85.5435 170.999
L87.9002 170.999
L90.257 170.998
L92.6137 170.997
L94.9705 170.994
L97.3272 170.99
L99.684 170.982
L102.041 170.97
L104.397 170.951
L106.754 170.921
L109.111 170.874
L111.468 170.804
L113.824 170.7
L116.181 170.549
L118.538 170.334
L120.895 170.037
L123.251 169.631
L125.608 169.091
L127.965 168.387
L130.322 167.489
L132.678 166.37
L135.035 165.005
L137.392 163.38
L139.749 161.489
L142.105 159.344
L144.462 156.973
L146.819 154.422
L149.176 151.755
L151.532 149.056
L153.889 146.42
L156.246 143.949
L158.603 141.748
L160.959 139.915
L163.316 138.536
L165.673 137.673
L168.03 137.368
L170.386 137.632
L172.743 138.446
L175.1 139.768
L177.457 141.528
L179.813 143.644
L182.17 146.019
L184.527 148.554
L186.884 151.153
L189.24 153.728
L191.597 156.205
L193.954 158.523
L196.311 160.64
L198.667 162.529
L201.024 164.178
L203.381 165.589
L205.738 166.771
L208.094 167.744
L210.451 168.53
L212.808 169.153
L215.164 169.639
L217.521 170.011
L219.878 170.291
L222.235 170.499
L224.591 170.651
L226.948 170.76
L229.305 170.838
L231.662 170.891
L234.018 170.928
L236.375 170.953
L238.732 170.97
L241.089 170.981
L243.445 170.988
L245.802 170.993
L248.159 170.996
L250.516 170.997
L252.872 170.998
L255.229 170.999
L257.586 170.999
L259.943 171
L262.299 171
L264.656 171
L267.013 171
L269.37 171
L271.726 171
L274.083 171
L276.44 171
L278.797 171
L281.153 171
L283.51 171
L285.867 171" style="fill:none;stroke:#d4002b;stroke-linecap:square;stroke-width:2;"/>
   </g>
   <g id="line2d_7">
    <path clip-path="url(#p8cb69eebd4)" d="
M50.1923 171
L52.549 171
L54.9058 171
L57.2625 171
L59.6193 171
L61.976 171
L64.3328 171
L66.6895 171
L69.0463 171
L71.403 171
L73.7598 171
L76.1165 171
L78.4732 171
L80.83 171
L83.1867 171
L85.5435 171
L87.9002 171
L90.257 170.999
L92.6137 170.999
L94.9705 170.998
L97.3272 170.997
L99.684 170.994
L102.041 170.991
L104.397 170.984
L106.754 170.975
L109.111 170.96
L111.468 170.938
L113.824 170.904
L116.181 170.855
L118.538 170.784
L120.895 170.683
L123.251 170.541
L125.608 170.348
L127.965 170.088
L130.322 169.743
L132.678 169.295
L135.035 168.722
L137.392 168.005
L139.749 167.123
L142.105 166.057
L144.462 164.796
L146.819 163.331
L149.176 161.664
L151.532 159.807
L153.889 157.782
L156.246 155.626
L158.603 153.385
L160.959 151.117
L163.316 148.89
L165.673 146.774
L168.03 144.845
L170.386 143.174
L172.743 141.825
L175.1 140.851
L177.457 140.29
L179.813 140.165
L182.17 140.476
L184.527 141.21
L186.884 142.332
L189.24 143.795
L191.597 145.539
L193.954 147.498
L196.311 149.601
L198.667 151.779
L201.024 153.967
L203.381 156.107
L205.738 158.151
L208.094 160.06
L210.451 161.806
L212.808 163.374
L215.164 164.756
L217.521 165.952
L219.878 166.971
L222.235 167.825
L224.591 168.529
L226.948 169.101
L229.305 169.558
L231.662 169.919
L234.018 170.199
L236.375 170.413
L238.732 170.576
L241.089 170.697
L243.445 170.786
L245.802 170.85
L248.159 170.897
L250.516 170.93
L252.872 170.953
L255.229 170.968
L257.586 170.979
L259.943 170.986
L262.299 170.991
L264.656 170.994
L267.013 170.996
L269.37 170.998
L271.726 170.999
L274.083 170.999
L276.44 170.999
L278.797 171
L281.153 171
L283.51 171
L285.867 171" style="fill:none;stroke:#ff0000;stroke-linecap:square;stroke-width:2;"/>
   </g>
   <g id="patch_3">
    <path d="
M50.6813 28.4
L284.4 28.4" style="fill:none;stroke:#000000;stroke-linecap:square;stroke-linejoin:miter;"/>
   </g>
   <g id="patch_4">
    <path d="
M284.4 171
L284.4 28.4" style="fill:none;stroke:#000000;stroke-linecap:square;stroke-linejoin:miter;"/>
   </g>
   <g id="patch_5">
    <path d="
M50.6813 171
L284.4 171" style="fill:none;stroke:#000000;stroke-linecap:square;stroke-linejoin:miter;"/>
   </g>
   <g id="patch_6">
    <path d="
M50.6813 171
L50.6813 28.4" style="fill:none;stroke:#000000;stroke-linecap:square;stroke-linejoin:miter;"/>
   </g>
   <g id="matplotlib.axis_1">
    <g id="xtick_1">
     <g id="line2d_8">
      <defs>
       <path d="
M0 0
L0 -4" id="m93b0483c22" style="stroke:#000000;stroke-width:0.5;"/>
      </defs>
      <g>
       <use style="stroke:#000000;stroke-width:0.5;" x="62.3671875" xlink:href="#m93b0483c22" y="171.0"/>
      </g>
     </g>
     <g id="line2d_9">
      <defs>
       <path d="
M0 0
L0 4" id="m741efc42ff" style="stroke:#000000;stroke-width:0.5;"/>
      </defs>
      <g>
       <use style="stroke:#000000;stroke-width:0.5;" x="62.3671875" xlink:href="#m741efc42ff" y="28.4"/>
      </g>
     </g>
     <g id="text_1">
      <!-- −20 -->
      <defs>
       <path d="
M10.5938 35.5
L73.1875 35.5
L73.1875 27.2031
L10.5938 27.2031
z
" id="BitstreamVeraSans-Roman-2212"/>
       <path d="
M19.1875 8.29688
L53.6094 8.29688
L53.6094 0
L7.32812 0
L7.32812 8.29688
Q12.9375 14.1094 22.625 23.8906
Q32.3281 33.6875 34.8125 36.5312
Q39.5469 41.8438 41.4219 45.5312
Q43.3125 49.2188 43.3125 52.7812
Q43.3125 58.5938 39.2344 62.25
Q35.1562 65.9219 28.6094 65.9219
Q23.9688 65.9219 18.8125 64.3125
Q13.6719 62.7031 7.8125 59.4219
L7.8125 69.3906
Q13.7656 71.7812 18.9375 73
Q24.125 74.2188 28.4219 74.2188
Q39.75 74.2188 46.4844 68.5469
Q53.2188 62.8906 53.2188 53.4219
Q53.2188 48.9219 51.5312 44.8906
Q49.8594 40.875 45.4062 35.4062
Q44.1875 33.9844 37.6406 27.2188
Q31.1094 20.4531 19.1875 8.29688" id="BitstreamVeraSans-Roman-32"/>
       <path d="
M31.7812 66.4062
Q24.1719 66.4062 20.3281 58.9062
Q16.5 51.4219 16.5 36.375
Q16.5 21.3906 20.3281 13.8906
Q24.1719 6.39062 31.7812 6.39062
Q39.4531 6.39062 43.2812 13.8906
Q47.125 21.3906 47.125 36.375
Q47.125 51.4219 43.2812 58.9062
Q39.4531 66.4062 31.7812 66.4062
M31.7812 74.2188
Q44.0469 74.2188 50.5156 64.5156
Q56.9844 54.8281 56.9844 36.375
Q56.9844 17.9688 50.5156 8.26562
Q44.0469 -1.42188 31.7812 -1.42188
Q19.5312 -1.42188 13.0625 8.26562
Q6.59375 17.9688 6.59375 36.375
Q6.59375 54.8281 13.0625 64.5156
Q19.5312 74.2188 31.7812 74.2188" id="BitstreamVeraSans-Roman-30"/>
      </defs>
      <g transform="translate(52.6765625 182.5984375)scale(0.1 -0.1)">
       <use xlink:href="#BitstreamVeraSans-Roman-2212"/>
       <use x="83.7890625" xlink:href="#BitstreamVeraSans-Roman-32"/>
       <use x="147.412109375" xlink:href="#BitstreamVeraSans-Roman-30"/>
      </g>
     </g>
    </g>
    <g id="xtick_2">
     <g id="line2d_10">
      <g>
       <use style="stroke:#000000;stroke-width:0.5;" x="109.1109375" xlink:href="#m93b0483c22" y="171.0"/>
      </g>
     </g>
     <g id="line2d_11">
      <g>
       <use style="stroke:#000000;stroke-width:0.5;" x="109.1109375" xlink:href="#m741efc42ff" y="28.4"/>
      </g>
     </g>
     <g id="text_2">
      <!-- 0 -->
      <g transform="translate(106.59140625 182.5984375)scale(0.1 -0.1)">
       <use xlink:href="#BitstreamVeraSans-Roman-30"/>
      </g>
     </g>
    </g>
    <g id="xtick_3">
     <g id="line2d_12">
      <g>
       <use style="stroke:#000000;stroke-width:0.5;" x="155.8546875" xlink:href="#m93b0483c22" y="171.0"/>
      </g>
     </g>
     <g id="line2d_13">
      <g>
       <use style="stroke:#000000;stroke-width:0.5;" x="155.8546875" xlink:href="#m741efc42ff" y="28.4"/>
      </g>
     </g>
     <g id="text_3">
      <!-- 20 -->
      <g transform="translate(150.190625 182.5984375)scale(0.1 -0.1)">
       <use xlink:href="#BitstreamVeraSans-Roman-32"/>
       <use x="63.623046875" xlink:href="#BitstreamVeraSans-Roman-30"/>
      </g>
     </g>
    </g>
    <g id="xtick_4">
     <g id="line2d_14">
      <g>
       <use style="stroke:#000000;stroke-width:0.5;" x="202.5984375" xlink:href="#m93b0483c22" y="171.0"/>
      </g>
     </g>
     <g id="line2d_15">
      <g>
       <use style="stroke:#000000;stroke-width:0.5;" x="202.5984375" xlink:href="#m741efc42ff" y="28.4"/>
      </g>
     </g>
     <g id="text_4">
      <!-- 40 -->
      <defs>
       <path d="
M37.7969 64.3125
L12.8906 25.3906
L37.7969 25.3906
z

M35.2031 72.9062
L47.6094 72.9062
L47.6094 25.3906
L58.0156 25.3906
L58.0156 17.1875
L47.6094 17.1875
L47.6094 0
L37.7969 0
L37.7969 17.1875
L4.89062 17.1875
L4.89062 26.7031
z
" id="BitstreamVeraSans-Roman-34"/>
      </defs>
      <g transform="translate(196.8125 182.5984375)scale(0.1 -0.1)">
       <use xlink:href="#BitstreamVeraSans-Roman-34"/>
       <use x="63.623046875" xlink:href="#BitstreamVeraSans-Roman-30"/>
      </g>
     </g>
    </g>
    <g id="xtick_5">
     <g id="line2d_16">
      <g>
       <use style="stroke:#000000;stroke-width:0.5;" x="249.3421875" xlink:href="#m93b0483c22" y="171.0"/>
      </g>
     </g>
     <g id="line2d_17">
      <g>
       <use style="stroke:#000000;stroke-width:0.5;" x="249.3421875" xlink:href="#m741efc42ff" y="28.4"/>
      </g>
     </g>
     <g id="text_5">
      <!-- 60 -->
      <defs>
       <path d="
M33.0156 40.375
Q26.375 40.375 22.4844 35.8281
Q18.6094 31.2969 18.6094 23.3906
Q18.6094 15.5312 22.4844 10.9531
Q26.375 6.39062 33.0156 6.39062
Q39.6562 6.39062 43.5312 10.9531
Q47.4062 15.5312 47.4062 23.3906
Q47.4062 31.2969 43.5312 35.8281
Q39.6562 40.375 33.0156 40.375
M52.5938 71.2969
L52.5938 62.3125
Q48.875 64.0625 45.0938 64.9844
Q41.3125 65.9219 37.5938 65.9219
Q27.8281 65.9219 22.6719 59.3281
Q17.5312 52.7344 16.7969 39.4062
Q19.6719 43.6562 24.0156 45.9219
Q28.375 48.1875 33.5938 48.1875
Q44.5781 48.1875 50.9531 41.5156
Q57.3281 34.8594 57.3281 23.3906
Q57.3281 12.1562 50.6875 5.35938
Q44.0469 -1.42188 33.0156 -1.42188
Q20.3594 -1.42188 13.6719 8.26562
Q6.98438 17.9688 6.98438 36.375
Q6.98438 53.6562 15.1875 63.9375
Q23.3906 74.2188 37.2031 74.2188
Q40.9219 74.2188 44.7031 73.4844
Q48.4844 72.75 52.5938 71.2969" id="BitstreamVeraSans-Roman-36"/>
      </defs>
      <g transform="translate(243.6609375 182.5984375)scale(0.1 -0.1)">
       <use xlink:href="#BitstreamVeraSans-Roman-36"/>
       <use x="63.623046875" xlink:href="#BitstreamVeraSans-Roman-30"/>
      </g>
     </g>
    </g>
    <g id="text_6">
     <!-- position -->
     <defs>
      <path d="
M54.8906 33.0156
L54.8906 0
L45.9062 0
L45.9062 32.7188
Q45.9062 40.4844 42.875 44.3281
Q39.8438 48.1875 33.7969 48.1875
Q26.5156 48.1875 22.3125 43.5469
Q18.1094 38.9219 18.1094 30.9062
L18.1094 0
L9.07812 0
L9.07812 54.6875
L18.1094 54.6875
L18.1094 46.1875
Q21.3438 51.125 25.7031 53.5625
Q30.0781 56 35.7969 56
Q45.2188 56 50.0469 50.1719
Q54.8906 44.3438 54.8906 33.0156" id="BitstreamVeraSans-Roman-6e"/>
      <path d="
M30.6094 48.3906
Q23.3906 48.3906 19.1875 42.75
Q14.9844 37.1094 14.9844 27.2969
Q14.9844 17.4844 19.1562 11.8438
Q23.3438 6.20312 30.6094 6.20312
Q37.7969 6.20312 41.9844 11.8594
Q46.1875 17.5312 46.1875 27.2969
Q46.1875 37.0156 41.9844 42.7031
Q37.7969 48.3906 30.6094 48.3906
M30.6094 56
Q42.3281 56 49.0156 48.375
Q55.7188 40.7656 55.7188 27.2969
Q55.7188 13.875 49.0156 6.21875
Q42.3281 -1.42188 30.6094 -1.42188
Q18.8438 -1.42188 12.1719 6.21875
Q5.51562 13.875 5.51562 27.2969
Q5.51562 40.7656 12.1719 48.375
Q18.8438 56 30.6094 56" id="BitstreamVeraSans-Roman-6f"/>
      <path d="
M9.42188 54.6875
L18.4062 54.6875
L18.4062 0
L9.42188 0
z

M9.42188 75.9844
L18.4062 75.9844
L18.4062 64.5938
L9.42188 64.5938
z
" id="BitstreamVeraSans-Roman-69"/>
      <path d="
M18.3125 70.2188
L18.3125 54.6875
L36.8125 54.6875
L36.8125 47.7031
L18.3125 47.7031
L18.3125 18.0156
Q18.3125 11.3281 20.1406 9.42188
Q21.9688 7.51562 27.5938 7.51562
L36.8125 7.51562
L36.8125 0
L27.5938 0
Q17.1875 0 13.2344 3.875
Q9.28125 7.76562 9.28125 18.0156
L9.28125 47.7031
L2.6875 47.7031
L2.6875 54.6875
L9.28125 54.6875
L9.28125 70.2188
z
" id="BitstreamVeraSans-Roman-74"/>
      <path d="
M44.2812 53.0781
L44.2812 44.5781
Q40.4844 46.5312 36.375 47.5
Q32.2812 48.4844 27.875 48.4844
Q21.1875 48.4844 17.8438 46.4375
Q14.5 44.3906 14.5 40.2812
Q14.5 37.1562 16.8906 35.375
Q19.2812 33.5938 26.5156 31.9844
L29.5938 31.2969
Q39.1562 29.25 43.1875 25.5156
Q47.2188 21.7812 47.2188 15.0938
Q47.2188 7.46875 41.1875 3.01562
Q35.1562 -1.42188 24.6094 -1.42188
Q20.2188 -1.42188 15.4531 -0.5625
Q10.6875 0.296875 5.42188 2
L5.42188 11.2812
Q10.4062 8.6875 15.2344 7.39062
Q20.0625 6.10938 24.8125 6.10938
Q31.1562 6.10938 34.5625 8.28125
Q37.9844 10.4531 37.9844 14.4062
Q37.9844 18.0625 35.5156 20.0156
Q33.0625 21.9688 24.7031 23.7812
L21.5781 24.5156
Q13.2344 26.2656 9.51562 29.9062
Q5.8125 33.5469 5.8125 39.8906
Q5.8125 47.6094 11.2812 51.7969
Q16.75 56 26.8125 56
Q31.7812 56 36.1719 55.2656
Q40.5781 54.5469 44.2812 53.0781" id="BitstreamVeraSans-Roman-73"/>
      <path d="
M18.1094 8.20312
L18.1094 -20.7969
L9.07812 -20.7969
L9.07812 54.6875
L18.1094 54.6875
L18.1094 46.3906
Q20.9531 51.2656 25.2656 53.625
Q29.5938 56 35.5938 56
Q45.5625 56 51.7812 48.0938
Q58.0156 40.1875 58.0156 27.2969
Q58.0156 14.4062 51.7812 6.48438
Q45.5625 -1.42188 35.5938 -1.42188
Q29.5938 -1.42188 25.2656 0.953125
Q20.9531 3.32812 18.1094 8.20312
M48.6875 27.2969
Q48.6875 37.2031 44.6094 42.8438
Q40.5312 48.4844 33.4062 48.4844
Q26.2656 48.4844 22.1875 42.8438
Q18.1094 37.2031 18.1094 27.2969
Q18.1094 17.3906 22.1875 11.75
Q26.2656 6.10938 33.4062 6.10938
Q40.5312 6.10938 44.6094 11.75
Q48.6875 17.3906 48.6875 27.2969" id="BitstreamVeraSans-Roman-70"/>
     </defs>
     <g transform="translate(139.15078125 201.07578125)scale(0.15 -0.15)">
      <use xlink:href="#BitstreamVeraSans-Roman-70"/>
      <use x="63.4765625" xlink:href="#BitstreamVeraSans-Roman-6f"/>
      <use x="124.658203125" xlink:href="#BitstreamVeraSans-Roman-73"/>
      <use x="176.7578125" xlink:href="#BitstreamVeraSans-Roman-69"/>
      <use x="204.541015625" xlink:href="#BitstreamVeraSans-Roman-74"/>
      <use x="243.75" xlink:href="#BitstreamVeraSans-Roman-69"/>
      <use x="271.533203125" xlink:href="#BitstreamVeraSans-Roman-6f"/>
      <use x="332.71484375" xlink:href="#BitstreamVeraSans-Roman-6e"/>
     </g>
    </g>
   </g>
   <g id="matplotlib.axis_2">
    <g id="ytick_1">
     <g id="line2d_18">
      <defs>
       <path d="
M0 0
L4 0" id="m728421d6d4" style="stroke:#000000;stroke-width:0.5;"/>
      </defs>
      <g>
       <use style="stroke:#000000;stroke-width:0.5;" x="50.68125" xlink:href="#m728421d6d4" y="171.0"/>
      </g>
     </g>
     <g id="line2d_19">
      <defs>
       <path d="
M0 0
L-4 0" id="mcb0005524f" style="stroke:#000000;stroke-width:0.5;"/>
      </defs>
      <g>
       <use style="stroke:#000000;stroke-width:0.5;" x="284.4" xlink:href="#mcb0005524f" y="171.0"/>
      </g>
     </g>
     <g id="text_7">
      <!-- 0.0 -->
      <defs>
       <path d="
M10.6875 12.4062
L21 12.4062
L21 0
L10.6875 0
z
" id="BitstreamVeraSans-Roman-2e"/>
      </defs>
      <g transform="translate(32.1015625 173.759375)scale(0.1 -0.1)">
       <use xlink:href="#BitstreamVeraSans-Roman-30"/>
       <use x="63.623046875" xlink:href="#BitstreamVeraSans-Roman-2e"/>
       <use x="95.41015625" xlink:href="#BitstreamVeraSans-Roman-30"/>
      </g>
     </g>
    </g>
    <g id="ytick_2">
     <g id="line2d_20">
      <g>
       <use style="stroke:#000000;stroke-width:0.5;" x="50.68125" xlink:href="#m728421d6d4" y="41.3636363636"/>
      </g>
     </g>
     <g id="line2d_21">
      <g>
       <use style="stroke:#000000;stroke-width:0.5;" x="284.4" xlink:href="#mcb0005524f" y="41.3636363636"/>
      </g>
     </g>
     <g id="text_8">
      <!-- 0.2 -->
      <g transform="translate(32.4390625 44.1230113636)scale(0.1 -0.1)">
       <use xlink:href="#BitstreamVeraSans-Roman-30"/>
       <use x="63.623046875" xlink:href="#BitstreamVeraSans-Roman-2e"/>
       <use x="95.41015625" xlink:href="#BitstreamVeraSans-Roman-32"/>
      </g>
     </g>
    </g>
    <g id="text_9">
     <!-- concentration -->
     <defs>
      <path d="
M56.2031 29.5938
L56.2031 25.2031
L14.8906 25.2031
Q15.4844 15.9219 20.4844 11.0625
Q25.4844 6.20312 34.4219 6.20312
Q39.5938 6.20312 44.4531 7.46875
Q49.3125 8.73438 54.1094 11.2812
L54.1094 2.78125
Q49.2656 0.734375 44.1875 -0.34375
Q39.1094 -1.42188 33.8906 -1.42188
Q20.7969 -1.42188 13.1562 6.1875
Q5.51562 13.8125 5.51562 26.8125
Q5.51562 40.2344 12.7656 48.1094
Q20.0156 56 32.3281 56
Q43.3594 56 49.7812 48.8906
Q56.2031 41.7969 56.2031 29.5938
M47.2188 32.2344
Q47.125 39.5938 43.0938 43.9844
Q39.0625 48.3906 32.4219 48.3906
Q24.9062 48.3906 20.3906 44.1406
Q15.875 39.8906 15.1875 32.1719
z
" id="BitstreamVeraSans-Roman-65"/>
      <path d="
M34.2812 27.4844
Q23.3906 27.4844 19.1875 25
Q14.9844 22.5156 14.9844 16.5
Q14.9844 11.7188 18.1406 8.90625
Q21.2969 6.10938 26.7031 6.10938
Q34.1875 6.10938 38.7031 11.4062
Q43.2188 16.7031 43.2188 25.4844
L43.2188 27.4844
z

M52.2031 31.2031
L52.2031 0
L43.2188 0
L43.2188 8.29688
Q40.1406 3.32812 35.5469 0.953125
Q30.9531 -1.42188 24.3125 -1.42188
Q15.9219 -1.42188 10.9531 3.29688
Q6 8.01562 6 15.9219
Q6 25.1406 12.1719 29.8281
Q18.3594 34.5156 30.6094 34.5156
L43.2188 34.5156
L43.2188 35.4062
Q43.2188 41.6094 39.1406 45
Q35.0625 48.3906 27.6875 48.3906
Q23 48.3906 18.5469 47.2656
Q14.1094 46.1406 10.0156 43.8906
L10.0156 52.2031
Q14.9375 54.1094 19.5781 55.0469
Q24.2188 56 28.6094 56
Q40.4844 56 46.3438 49.8438
Q52.2031 43.7031 52.2031 31.2031" id="BitstreamVeraSans-Roman-61"/>
      <path d="
M41.1094 46.2969
Q39.5938 47.1719 37.8125 47.5781
Q36.0312 48 33.8906 48
Q26.2656 48 22.1875 43.0469
Q18.1094 38.0938 18.1094 28.8125
L18.1094 0
L9.07812 0
L9.07812 54.6875
L18.1094 54.6875
L18.1094 46.1875
Q20.9531 51.1719 25.4844 53.5781
Q30.0312 56 36.5312 56
Q37.4531 56 38.5781 55.875
Q39.7031 55.7656 41.0625 55.5156
z
" id="BitstreamVeraSans-Roman-72"/>
      <path d="
M48.7812 52.5938
L48.7812 44.1875
Q44.9688 46.2969 41.1406 47.3438
Q37.3125 48.3906 33.4062 48.3906
Q24.6562 48.3906 19.8125 42.8438
Q14.9844 37.3125 14.9844 27.2969
Q14.9844 17.2812 19.8125 11.7344
Q24.6562 6.20312 33.4062 6.20312
Q37.3125 6.20312 41.1406 7.25
Q44.9688 8.29688 48.7812 10.4062
L48.7812 2.09375
Q45.0156 0.34375 40.9844 -0.53125
Q36.9688 -1.42188 32.4219 -1.42188
Q20.0625 -1.42188 12.7812 6.34375
Q5.51562 14.1094 5.51562 27.2969
Q5.51562 40.6719 12.8594 48.3281
Q20.2188 56 33.0156 56
Q37.1562 56 41.1094 55.1406
Q45.0625 54.2969 48.7812 52.5938" id="BitstreamVeraSans-Roman-63"/>
     </defs>
     <g transform="translate(23.98203125 150.593359375)rotate(-90.0)scale(0.15 -0.15)">
      <use xlink:href="#BitstreamVeraSans-Roman-63"/>
      <use x="54.98046875" xlink:href="#BitstreamVeraSans-Roman-6f"/>
      <use x="116.162109375" xlink:href="#BitstreamVeraSans-Roman-6e"/>
      <use x="179.541015625" xlink:href="#BitstreamVeraSans-Roman-63"/>
      <use x="234.521484375" xlink:href="#BitstreamVeraSans-Roman-65"/>
      <use x="296.044921875" xlink:href="#BitstreamVeraSans-Roman-6e"/>
      <use x="359.423828125" xlink:href="#BitstreamVeraSans-Roman-74"/>
      <use x="398.6328125" xlink:href="#BitstreamVeraSans-Roman-72"/>
      <use x="439.74609375" xlink:href="#BitstreamVeraSans-Roman-61"/>
      <use x="501.025390625" xlink:href="#BitstreamVeraSans-Roman-74"/>
      <use x="540.234375" xlink:href="#BitstreamVeraSans-Roman-69"/>
      <use x="568.017578125" xlink:href="#BitstreamVeraSans-Roman-6f"/>
      <use x="629.19921875" xlink:href="#BitstreamVeraSans-Roman-6e"/>
     </g>
    </g>
   </g>
   <g id="text_10">
    <!-- k = 0.0 -->
    <defs>
     <path d="
M8.40625 75.9844
L25.875 75.9844
L25.875 34.625
L46 54.6875
L66.3125 54.6875
L39.5938 29.5938
L68.4062 0
L47.2188 0
L25.875 22.7969
L25.875 0
L8.40625 0
z
" id="BitstreamVeraSans-Bold-6b"/>
     <path d="
M10.5938 48.1875
L73.1875 48.1875
L73.1875 36.7188
L10.5938 36.7188
z

M10.5938 25.9844
L73.1875 25.9844
L73.1875 14.4062
L10.5938 14.4062
z
" id="BitstreamVeraSans-Bold-3d"/>
     <path d="
M10.2031 18.8906
L27.7812 18.8906
L27.7812 0
L10.2031 0
z
" id="BitstreamVeraSans-Bold-2e"/>
     <path d="
M46 36.5312
Q46 50.2031 43.4375 55.7812
Q40.875 61.375 34.8125 61.375
Q28.7656 61.375 26.1719 55.7812
Q23.5781 50.2031 23.5781 36.5312
Q23.5781 22.7031 26.1719 17.0312
Q28.7656 11.375 34.8125 11.375
Q40.8281 11.375 43.4062 17.0312
Q46 22.7031 46 36.5312
M64.7969 36.375
Q64.7969 18.2656 56.9844 8.42188
Q49.1719 -1.42188 34.8125 -1.42188
Q20.4062 -1.42188 12.5938 8.42188
Q4.78125 18.2656 4.78125 36.375
Q4.78125 54.5469 12.5938 64.375
Q20.4062 74.2188 34.8125 74.2188
Q49.1719 74.2188 56.9844 64.375
Q64.7969 54.5469 64.7969 36.375" id="BitstreamVeraSans-Bold-30"/>
     <path id="BitstreamVeraSans-Bold-20"/>
    </defs>
    <g transform="translate(138.11953125 23.4)scale(0.15 -0.15)">
     <use xlink:href="#BitstreamVeraSans-Bold-6b"/>
     <use x="66.50390625" xlink:href="#BitstreamVeraSans-Bold-20"/>
     <use x="101.318359375" xlink:href="#BitstreamVeraSans-Bold-3d"/>
     <use x="185.107421875" xlink:href="#BitstreamVeraSans-Bold-20"/>
     <use x="219.921875" xlink:href="#BitstreamVeraSans-Bold-30"/>
     <use x="289.501953125" xlink:href="#BitstreamVeraSans-Bold-2e"/>
     <use x="327.490234375" xlink:href="#BitstreamVeraSans-Bold-30"/>
    </g>
   </g>
  </g>
  <g id="axes_2">
   <g id="patch_7">
    <path d="
M335.081 171
L568.8 171
L568.8 28.4
L335.081 28.4
z
" style="fill:#ffffff;"/>
   </g>
   <g id="line2d_22">
    <path clip-path="url(#p8fb62997d6)" d="
M334.592 171
L336.949 171
L339.306 171
L341.663 171
L344.019 171
L346.376 171
L348.733 171
L351.09 171
L353.446 171
L355.803 171
L358.16 171
L360.516 171
L362.873 171
L365.23 171
L367.587 171
L369.943 170.997
L372.3 170.987
L374.657 170.941
L377.014 170.758
L379.37 170.112
L381.727 168.112
L384.084 162.804
L386.441 151.002
L388.797 129.767
L391.154 100.408
L393.511 72.1432
L395.868 58.506
L398.224 66.2898
L400.581 90.0729
L402.938 118.143
L405.295 141.321
L407.651 156.452
L410.008 164.692
L412.365 168.553
L414.722 170.142
L417.078 170.726
L419.435 170.92
L421.792 170.978
L424.149 170.995
L426.505 170.999
L428.862 171
L431.219 171
L433.576 171
L435.932 171
L438.289 171
L440.646 171
L443.003 171
L445.359 171
L447.716 171
L450.073 171
L452.43 171
L454.786 171
L457.143 171
L459.5 171
L461.857 171
L464.213 171
L466.57 171
L468.927 171
L471.284 171
L473.64 171
L475.997 171
L478.354 171
L480.711 171
L483.067 171
L485.424 171
L487.781 171
L490.138 171
L492.494 171
L494.851 171
L497.208 171
L499.564 171
L501.921 171
L504.278 171
L506.635 171
L508.991 171
L511.348 171
L513.705 171
L516.062 171
L518.418 171
L520.775 171
L523.132 171
L525.489 171
L527.845 171
L530.202 171
L532.559 171
L534.916 171
L537.272 171
L539.629 171
L541.986 171
L544.343 171
L546.699 171
L549.056 171
L551.413 171
L553.77 171
L556.126 171
L558.483 171
L560.84 171
L563.197 171
L565.553 171
L567.91 171
L570.267 171" style="fill:none;stroke:#0000ff;stroke-linecap:square;stroke-width:2;"/>
   </g>
   <g id="line2d_23">
    <path clip-path="url(#p8fb62997d6)" d="
M334.592 171
L336.949 171
L339.306 171
L341.663 171
L344.019 171
L346.376 171
L348.733 171
L351.09 170.999
L353.446 170.998
L355.803 170.995
L358.16 170.99
L360.516 170.978
L362.873 170.953
L365.23 170.905
L367.587 170.815
L369.943 170.65
L372.3 170.362
L374.657 169.88
L377.014 169.107
L379.37 167.919
L381.727 166.175
L384.084 163.731
L386.441 160.467
L388.797 156.324
L391.154 151.343
L393.511 145.69
L395.868 139.675
L398.224 133.731
L400.581 128.373
L402.938 124.12
L405.295 121.415
L407.651 120.547
L410.008 121.598
L412.365 124.431
L414.722 128.721
L417.078 134.014
L419.435 139.808
L421.792 145.627
L424.149 151.081
L426.505 155.899
L428.862 159.939
L431.219 163.167
L433.576 165.634
L435.932 167.442
L438.289 168.715
L440.646 169.578
L443.003 170.141
L445.359 170.497
L447.716 170.714
L450.073 170.842
L452.43 170.915
L454.786 170.956
L457.143 170.977
L459.5 170.989
L461.857 170.995
L464.213 170.997
L466.57 170.999
L468.927 170.999
L471.284 171
L473.64 171
L475.997 171
L478.354 171
L480.711 171
L483.067 171
L485.424 171
L487.781 171
L490.138 171
L492.494 171
L494.851 171
L497.208 171
L499.564 171
L501.921 171
L504.278 171
L506.635 171
L508.991 171
L511.348 171
L513.705 171
L516.062 171
L518.418 171
L520.775 171
L523.132 171
L525.489 171
L527.845 171
L530.202 171
L532.559 171
L534.916 171
L537.272 171
L539.629 171
L541.986 171
L544.343 171
L546.699 171
L549.056 171
L551.413 171
L553.77 171
L556.126 171
L558.483 171
L560.84 171
L563.197 171
L565.553 171
L567.91 171
L570.267 171" style="fill:none;stroke:#2a00d4;stroke-linecap:square;stroke-width:2;"/>
   </g>
   <g id="line2d_24">
    <path clip-path="url(#p8fb62997d6)" d="
M334.592 171
L336.949 171
L339.306 171
L341.663 171
L344.019 170.999
L346.376 170.999
L348.733 170.997
L351.09 170.995
L353.446 170.991
L355.803 170.984
L358.16 170.971
L360.516 170.951
L362.873 170.917
L365.23 170.862
L367.587 170.777
L369.943 170.646
L372.3 170.451
L374.657 170.166
L377.014 169.76
L379.37 169.197
L381.727 168.434
L384.084 167.426
L386.441 166.13
L388.797 164.507
L391.154 162.531
L393.511 160.191
L395.868 157.503
L398.224 154.512
L400.581 151.293
L402.938 147.954
L405.295 144.629
L407.651 141.473
L410.008 138.649
L412.365 136.312
L414.722 134.599
L417.078 133.611
L419.435 133.408
L421.792 133.997
L424.149 135.339
L426.505 137.347
L428.862 139.898
L431.219 142.845
L433.576 146.033
L435.932 149.309
L438.289 152.533
L440.646 155.592
L443.003 158.398
L445.359 160.896
L447.716 163.056
L450.073 164.875
L452.43 166.367
L454.786 167.563
L457.143 168.497
L459.5 169.212
L461.857 169.746
L464.213 170.136
L466.57 170.416
L468.927 170.612
L471.284 170.747
L473.64 170.838
L475.997 170.898
L478.354 170.937
L480.711 170.962
L483.067 170.977
L485.424 170.986
L487.781 170.992
L490.138 170.996
L492.494 170.997
L494.851 170.999
L497.208 170.999
L499.564 171
L501.921 171
L504.278 171
L506.635 171
L508.991 171
L511.348 171
L513.705 171
L516.062 171
L518.418 171
L520.775 171
L523.132 171
L525.489 171
L527.845 171
L530.202 171
L532.559 171
L534.916 171
L537.272 171
L539.629 171
L541.986 171
L544.343 171
L546.699 171
L549.056 171
L551.413 171
L553.77 171
L556.126 171
L558.483 171
L560.84 171
L563.197 171
L565.553 171
L567.91 171
L570.267 171" style="fill:none;stroke:#5500aa;stroke-linecap:square;stroke-width:2;"/>
   </g>
   <g id="line2d_25">
    <path clip-path="url(#p8fb62997d6)" d="
M334.592 171
L336.949 171
L339.306 171
L341.663 170.999
L344.019 170.999
L346.376 170.998
L348.733 170.996
L351.09 170.993
L353.446 170.989
L355.803 170.982
L358.16 170.971
L360.516 170.955
L362.873 170.93
L365.23 170.894
L367.587 170.84
L369.943 170.764
L372.3 170.656
L374.657 170.507
L377.014 170.303
L379.37 170.03
L381.727 169.669
L384.084 169.202
L386.441 168.607
L388.797 167.863
L391.154 166.949
L393.511 165.847
L395.868 164.544
L398.224 163.033
L400.581 161.316
L402.938 159.405
L405.295 157.324
L407.651 155.112
L410.008 152.817
L412.365 150.501
L414.722 148.234
L417.078 146.092
L419.435 144.153
L421.792 142.491
L424.149 141.173
L426.505 140.253
L428.862 139.77
L431.219 139.743
L433.576 140.172
L435.932 141.036
L438.289 142.298
L440.646 143.902
L443.003 145.784
L445.359 147.871
L447.716 150.087
L450.073 152.358
L452.43 154.616
L454.786 156.803
L457.143 158.87
L459.5 160.779
L461.857 162.507
L464.213 164.04
L466.57 165.373
L468.927 166.513
L471.284 167.471
L473.64 168.261
L475.997 168.903
L478.354 169.415
L480.711 169.818
L483.067 170.13
L485.424 170.368
L487.781 170.547
L490.138 170.679
L492.494 170.776
L494.851 170.845
L497.208 170.895
L499.564 170.929
L501.921 170.953
L504.278 170.969
L506.635 170.98
L508.991 170.987
L511.348 170.992
L513.705 170.995
L516.062 170.997
L518.418 170.998
L520.775 170.999
L523.132 170.999
L525.489 171
L527.845 171
L530.202 171
L532.559 171
L534.916 171
L537.272 171
L539.629 171
L541.986 171
L544.343 171
L546.699 171
L549.056 171
L551.413 171
L553.77 171
L556.126 171
L558.483 171
L560.84 171
L563.197 171
L565.553 171
L567.91 171
L570.267 171" style="fill:none;stroke:#800080;stroke-linecap:square;stroke-width:2;"/>
   </g>
   <g id="line2d_26">
    <path clip-path="url(#p8fb62997d6)" d="
M334.592 171
L336.949 171
L339.306 170.999
L341.663 170.999
L344.019 170.998
L346.376 170.998
L348.733 170.996
L351.09 170.994
L353.446 170.991
L355.803 170.986
L358.16 170.979
L360.516 170.969
L362.873 170.954
L365.23 170.933
L367.587 170.904
L369.943 170.863
L372.3 170.807
L374.657 170.732
L377.014 170.631
L379.37 170.499
L381.727 170.326
L384.084 170.104
L386.441 169.823
L388.797 169.472
L391.154 169.038
L393.511 168.508
L395.868 167.873
L398.224 167.119
L400.581 166.239
L402.938 165.225
L405.295 164.074
L407.651 162.788
L410.008 161.374
L412.365 159.843
L414.722 158.215
L417.078 156.515
L419.435 154.774
L421.792 153.028
L424.149 151.318
L426.505 149.687
L428.862 148.179
L431.219 146.837
L433.576 145.702
L435.932 144.809
L438.289 144.185
L440.646 143.851
L443.003 143.816
L445.359 144.081
L447.716 144.637
L450.073 145.465
L452.43 146.536
L454.786 147.819
L457.143 149.273
L459.5 150.856
L461.857 152.526
L464.213 154.24
L466.57 155.957
L468.927 157.643
L471.284 159.267
L473.64 160.802
L475.997 162.23
L478.354 163.538
L480.711 164.717
L483.067 165.765
L485.424 166.683
L487.781 167.478
L490.138 168.155
L492.494 168.726
L494.851 169.201
L497.208 169.591
L499.564 169.908
L501.921 170.162
L504.278 170.364
L506.635 170.521
L508.991 170.644
L511.348 170.737
L513.705 170.808
L516.062 170.861
L518.418 170.901
L520.775 170.93
L523.132 170.951
L525.489 170.966
L527.845 170.976
L530.202 170.984
L532.559 170.989
L534.916 170.993
L537.272 170.995
L539.629 170.997
L541.986 170.998
L544.343 170.999
L546.699 170.999
L549.056 170.999
L551.413 171
L553.77 171
L556.126 171
L558.483 171
L560.84 171
L563.197 171
L565.553 171
L567.91 171
L570.267 171" style="fill:none;stroke:#aa0055;stroke-linecap:square;stroke-width:2;"/>
   </g>
   <g id="line2d_27">
    <path clip-path="url(#p8fb62997d6)" d="
M334.592 171
L336.949 171
L339.306 170.999
L341.663 170.999
L344.019 170.999
L346.376 170.998
L348.733 170.997
L351.09 170.996
L353.446 170.994
L355.803 170.991
L358.16 170.986
L360.516 170.98
L362.873 170.972
L365.23 170.96
L367.587 170.943
L369.943 170.921
L372.3 170.891
L374.657 170.852
L377.014 170.799
L379.37 170.731
L381.727 170.643
L384.084 170.53
L386.441 170.387
L388.797 170.208
L391.154 169.986
L393.511 169.714
L395.868 169.384
L398.224 168.989
L400.581 168.519
L402.938 167.968
L405.295 167.328
L407.651 166.595
L410.008 165.763
L412.365 164.832
L414.722 163.802
L417.078 162.677
L419.435 161.464
L421.792 160.174
L424.149 158.823
L426.505 157.429
L428.862 156.012
L431.219 154.599
L433.576 153.216
L435.932 151.892
L438.289 150.656
L440.646 149.536
L443.003 148.559
L445.359 147.751
L447.716 147.13
L450.073 146.713
L452.43 146.511
L454.786 146.529
L457.143 146.766
L459.5 147.215
L461.857 147.863
L464.213 148.694
L466.57 149.686
L468.927 150.814
L471.284 152.051
L473.64 153.369
L475.997 154.739
L478.354 156.134
L480.711 157.528
L483.067 158.897
L485.424 160.222
L487.781 161.485
L490.138 162.672
L492.494 163.774
L494.851 164.784
L497.208 165.699
L499.564 166.517
L501.921 167.241
L504.278 167.875
L506.635 168.424
L508.991 168.895
L511.348 169.294
L513.705 169.629
L516.062 169.907
L518.418 170.136
L520.775 170.323
L523.132 170.473
L525.489 170.594
L527.845 170.689
L530.202 170.764
L532.559 170.823
L534.916 170.868
L537.272 170.902
L539.629 170.928
L541.986 170.948
L544.343 170.962
L546.699 170.973
L549.056 170.981
L551.413 170.986
L553.77 170.99
L556.126 170.993
L558.483 170.995
L560.84 170.997
L563.197 170.998
L565.553 170.999
L567.91 170.999
L570.267 170.999" style="fill:none;stroke:#d4002b;stroke-linecap:square;stroke-width:2;"/>
   </g>
   <g id="line2d_28">
    <path clip-path="url(#p8fb62997d6)" d="
M334.592 171
L336.949 171
L339.306 171
L341.663 170.999
L344.019 170.999
L346.376 170.999
L348.733 170.998
L351.09 170.997
L353.446 170.996
L355.803 170.994
L358.16 170.991
L360.516 170.988
L362.873 170.983
L365.23 170.976
L367.587 170.967
L369.943 170.955
L372.3 170.939
L374.657 170.918
L377.014 170.891
L379.37 170.855
L381.727 170.809
L384.084 170.75
L386.441 170.676
L388.797 170.583
L391.154 170.467
L393.511 170.324
L395.868 170.15
L398.224 169.94
L400.581 169.688
L402.938 169.388
L405.295 169.035
L407.651 168.623
L410.008 168.147
L412.365 167.603
L414.722 166.986
L417.078 166.293
L419.435 165.524
L421.792 164.678
L424.149 163.757
L426.505 162.767
L428.862 161.714
L431.219 160.606
L433.576 159.455
L435.932 158.276
L438.289 157.084
L440.646 155.897
L443.003 154.734
L445.359 153.616
L447.716 152.562
L450.073 151.594
L452.43 150.731
L454.786 149.99
L457.143 149.387
L459.5 148.936
L461.857 148.646
L464.213 148.524
L466.57 148.571
L468.927 148.787
L471.284 149.166
L473.64 149.699
L475.997 150.376
L478.354 151.18
L480.711 152.094
L483.067 153.101
L485.424 154.18
L487.781 155.312
L490.138 156.475
L492.494 157.651
L494.851 158.823
L497.208 159.973
L499.564 161.088
L501.921 162.155
L504.278 163.165
L506.635 164.11
L508.991 164.985
L511.348 165.787
L513.705 166.515
L516.062 167.169
L518.418 167.751
L520.775 168.264
L523.132 168.713
L525.489 169.101
L527.845 169.435
L530.202 169.72
L532.559 169.96
L534.916 170.161
L537.272 170.327
L539.629 170.465
L541.986 170.577
L544.343 170.668
L546.699 170.742
L549.056 170.8
L551.413 170.846
L553.77 170.883
L556.126 170.911
L558.483 170.933
L560.84 170.95
L563.197 170.963
L565.553 170.973
L567.91 170.98
L570.267 170.985" style="fill:none;stroke:#ff0000;stroke-linecap:square;stroke-width:2;"/>
   </g>
   <g id="patch_8">
    <path d="
M335.081 28.4
L568.8 28.4" style="fill:none;stroke:#000000;stroke-linecap:square;stroke-linejoin:miter;"/>
   </g>
   <g id="patch_9">
    <path d="
M568.8 171
L568.8 28.4" style="fill:none;stroke:#000000;stroke-linecap:square;stroke-linejoin:miter;"/>
   </g>
   <g id="patch_10">
    <path d="
M335.081 171
L568.8 171" style="fill:none;stroke:#000000;stroke-linecap:square;stroke-linejoin:miter;"/>
   </g>
   <g id="patch_11">
    <path d="
M335.081 171
L335.081 28.4" style="fill:none;stroke:#000000;stroke-linecap:square;stroke-linejoin:miter;"/>
   </g>
   <g id="matplotlib.axis_3">
    <g id="xtick_6">
     <g id="line2d_29">
      <g>
       <use style="stroke:#000000;stroke-width:0.5;" x="346.7671875" xlink:href="#m93b0483c22" y="171.0"/>
      </g>
     </g>
     <g id="line2d_30">
      <g>
       <use style="stroke:#000000;stroke-width:0.5;" x="346.7671875" xlink:href="#m741efc42ff" y="28.4"/>
      </g>
     </g>
     <g id="text_11">
      <!-- −20 -->
      <g transform="translate(337.0765625 182.5984375)scale(0.1 -0.1)">
       <use xlink:href="#BitstreamVeraSans-Roman-2212"/>
       <use x="83.7890625" xlink:href="#BitstreamVeraSans-Roman-32"/>
       <use x="147.412109375" xlink:href="#BitstreamVeraSans-Roman-30"/>
      </g>
     </g>
    </g>
    <g id="xtick_7">
     <g id="line2d_31">
      <g>
       <use style="stroke:#000000;stroke-width:0.5;" x="393.5109375" xlink:href="#m93b0483c22" y="171.0"/>
      </g>
     </g>
     <g id="line2d_32">
      <g>
       <use style="stroke:#000000;stroke-width:0.5;" x="393.5109375" xlink:href="#m741efc42ff" y="28.4"/>
      </g>
     </g>
     <g id="text_12">
      <!-- 0 -->
      <g transform="translate(390.99140625 182.5984375)scale(0.1 -0.1)">
       <use xlink:href="#BitstreamVeraSans-Roman-30"/>
      </g>
     </g>
    </g>
    <g id="xtick_8">
     <g id="line2d_33">
      <g>
       <use style="stroke:#000000;stroke-width:0.5;" x="440.2546875" xlink:href="#m93b0483c22" y="171.0"/>
      </g>
     </g>
     <g id="line2d_34">
      <g>
       <use style="stroke:#000000;stroke-width:0.5;" x="440.2546875" xlink:href="#m741efc42ff" y="28.4"/>
      </g>
     </g>
     <g id="text_13">
      <!-- 20 -->
      <g transform="translate(434.590625 182.5984375)scale(0.1 -0.1)">
       <use xlink:href="#BitstreamVeraSans-Roman-32"/>
       <use x="63.623046875" xlink:href="#BitstreamVeraSans-Roman-30"/>
      </g>
     </g>
    </g>
    <g id="xtick_9">
     <g id="line2d_35">
      <g>
       <use style="stroke:#000000;stroke-width:0.5;" x="486.9984375" xlink:href="#m93b0483c22" y="171.0"/>
      </g>
     </g>
     <g id="line2d_36">
      <g>
       <use style="stroke:#000000;stroke-width:0.5;" x="486.9984375" xlink:href="#m741efc42ff" y="28.4"/>
      </g>
     </g>
     <g id="text_14">
      <!-- 40 -->
      <g transform="translate(481.2125 182.5984375)scale(0.1 -0.1)">
       <use xlink:href="#BitstreamVeraSans-Roman-34"/>
       <use x="63.623046875" xlink:href="#BitstreamVeraSans-Roman-30"/>
      </g>
     </g>
    </g>
    <g id="xtick_10">
     <g id="line2d_37">
      <g>
       <use style="stroke:#000000;stroke-width:0.5;" x="533.7421875" xlink:href="#m93b0483c22" y="171.0"/>
      </g>
     </g>
     <g id="line2d_38">
      <g>
       <use style="stroke:#000000;stroke-width:0.5;" x="533.7421875" xlink:href="#m741efc42ff" y="28.4"/>
      </g>
     </g>
     <g id="text_15">
      <!-- 60 -->
      <g transform="translate(528.0609375 182.5984375)scale(0.1 -0.1)">
       <use xlink:href="#BitstreamVeraSans-Roman-36"/>
       <use x="63.623046875" xlink:href="#BitstreamVeraSans-Roman-30"/>
      </g>
     </g>
    </g>
    <g id="text_16">
     <!-- position -->
     <g transform="translate(423.55078125 201.07578125)scale(0.15 -0.15)">
      <use xlink:href="#BitstreamVeraSans-Roman-70"/>
      <use x="63.4765625" xlink:href="#BitstreamVeraSans-Roman-6f"/>
      <use x="124.658203125" xlink:href="#BitstreamVeraSans-Roman-73"/>
      <use x="176.7578125" xlink:href="#BitstreamVeraSans-Roman-69"/>
      <use x="204.541015625" xlink:href="#BitstreamVeraSans-Roman-74"/>
      <use x="243.75" xlink:href="#BitstreamVeraSans-Roman-69"/>
      <use x="271.533203125" xlink:href="#BitstreamVeraSans-Roman-6f"/>
      <use x="332.71484375" xlink:href="#BitstreamVeraSans-Roman-6e"/>
     </g>
    </g>
   </g>
   <g id="matplotlib.axis_4">
    <g id="ytick_3">
     <g id="line2d_39">
      <g>
       <use style="stroke:#000000;stroke-width:0.5;" x="335.08125" xlink:href="#m728421d6d4" y="171.0"/>
      </g>
     </g>
     <g id="line2d_40">
      <g>
       <use style="stroke:#000000;stroke-width:0.5;" x="568.8" xlink:href="#mcb0005524f" y="171.0"/>
      </g>
     </g>
     <g id="text_17">
      <!-- 0.0 -->
      <g transform="translate(316.5015625 173.759375)scale(0.1 -0.1)">
       <use xlink:href="#BitstreamVeraSans-Roman-30"/>
       <use x="63.623046875" xlink:href="#BitstreamVeraSans-Roman-2e"/>
       <use x="95.41015625" xlink:href="#BitstreamVeraSans-Roman-30"/>
      </g>
     </g>
    </g>
    <g id="ytick_4">
     <g id="line2d_41">
      <g>
       <use style="stroke:#000000;stroke-width:0.5;" x="335.08125" xlink:href="#m728421d6d4" y="41.3636363636"/>
      </g>
     </g>
     <g id="line2d_42">
      <g>
       <use style="stroke:#000000;stroke-width:0.5;" x="568.8" xlink:href="#mcb0005524f" y="41.3636363636"/>
      </g>
     </g>
     <g id="text_18">
      <!-- 0.2 -->
      <g transform="translate(316.8390625 44.1230113636)scale(0.1 -0.1)">
       <use xlink:href="#BitstreamVeraSans-Roman-30"/>
       <use x="63.623046875" xlink:href="#BitstreamVeraSans-Roman-2e"/>
       <use x="95.41015625" xlink:href="#BitstreamVeraSans-Roman-32"/>
      </g>
     </g>
    </g>
    <g id="text_19">
     <!-- concentration -->
     <g transform="translate(308.38203125 150.593359375)rotate(-90.0)scale(0.15 -0.15)">
      <use xlink:href="#BitstreamVeraSans-Roman-63"/>
      <use x="54.98046875" xlink:href="#BitstreamVeraSans-Roman-6f"/>
      <use x="116.162109375" xlink:href="#BitstreamVeraSans-Roman-6e"/>
      <use x="179.541015625" xlink:href="#BitstreamVeraSans-Roman-63"/>
      <use x="234.521484375" xlink:href="#BitstreamVeraSans-Roman-65"/>
      <use x="296.044921875" xlink:href="#BitstreamVeraSans-Roman-6e"/>
      <use x="359.423828125" xlink:href="#BitstreamVeraSans-Roman-74"/>
      <use x="398.6328125" xlink:href="#BitstreamVeraSans-Roman-72"/>
      <use x="439.74609375" xlink:href="#BitstreamVeraSans-Roman-61"/>
      <use x="501.025390625" xlink:href="#BitstreamVeraSans-Roman-74"/>
      <use x="540.234375" xlink:href="#BitstreamVeraSans-Roman-69"/>
      <use x="568.017578125" xlink:href="#BitstreamVeraSans-Roman-6f"/>
      <use x="629.19921875" xlink:href="#BitstreamVeraSans-Roman-6e"/>
     </g>
    </g>
   </g>
   <g id="text_20">
    <!-- k = 0.3 -->
    <defs>
     <path d="
M46.5781 39.3125
Q53.9531 37.4062 57.7812 32.6875
Q61.625 27.9844 61.625 20.7031
Q61.625 9.85938 53.3125 4.21875
Q45.0156 -1.42188 29.1094 -1.42188
Q23.4844 -1.42188 17.8438 -0.515625
Q12.2031 0.390625 6.6875 2.20312
L6.6875 16.7031
Q11.9688 14.0625 17.1562 12.7188
Q22.3594 11.375 27.3906 11.375
Q34.8594 11.375 38.8438 13.9531
Q42.8281 16.5469 42.8281 21.3906
Q42.8281 26.375 38.75 28.9375
Q34.6719 31.5 26.7031 31.5
L19.1875 31.5
L19.1875 43.6094
L27.0938 43.6094
Q34.1875 43.6094 37.6406 45.8281
Q41.1094 48.0469 41.1094 52.5938
Q41.1094 56.7812 37.7344 59.0781
Q34.375 61.375 28.2188 61.375
Q23.6875 61.375 19.0469 60.3438
Q14.4062 59.3281 9.8125 57.3281
L9.8125 71.0938
Q15.375 72.6562 20.8438 73.4375
Q26.3125 74.2188 31.5938 74.2188
Q45.7969 74.2188 52.8438 69.5469
Q59.9062 64.8906 59.9062 55.5156
Q59.9062 49.125 56.5312 45.0469
Q53.1719 40.9688 46.5781 39.3125" id="BitstreamVeraSans-Bold-33"/>
    </defs>
    <g transform="translate(422.757421875 23.4)scale(0.15 -0.15)">
     <use xlink:href="#BitstreamVeraSans-Bold-6b"/>
     <use x="66.50390625" xlink:href="#BitstreamVeraSans-Bold-20"/>
     <use x="101.318359375" xlink:href="#BitstreamVeraSans-Bold-3d"/>
     <use x="185.107421875" xlink:href="#BitstreamVeraSans-Bold-20"/>
     <use x="219.921875" xlink:href="#BitstreamVeraSans-Bold-30"/>
     <use x="289.501953125" xlink:href="#BitstreamVeraSans-Bold-2e"/>
     <use x="327.490234375" xlink:href="#BitstreamVeraSans-Bold-33"/>
    </g>
   </g>
  </g>
  <g id="axes_3">
   <g id="patch_12">
    <path d="
M619.481 171
L853.2 171
L853.2 28.4
L619.481 28.4
z
" style="fill:#ffffff;"/>
   </g>
   <g id="line2d_43">
    <path clip-path="url(#p8486599d85)" d="
M618.992 171
L621.349 171
L623.706 171
L626.063 171
L628.419 171
L630.776 171
L633.133 171
L635.49 171
L637.846 171
L640.203 171
L642.56 171
L644.916 171
L647.273 171
L649.63 170.999
L651.987 170.997
L654.343 170.987
L656.7 170.949
L659.057 170.812
L661.414 170.374
L663.77 169.118
L666.127 165.94
L668.484 158.964
L670.841 145.942
L673.197 125.839
L675.554 101.277
L677.911 79.5087
L680.268 69.2704
L682.624 74.8601
L684.981 93.1676
L687.338 116.456
L689.695 137.542
L692.051 152.839
L694.408 162.19
L696.765 167.145
L699.122 169.467
L701.478 170.442
L703.835 170.813
L706.192 170.942
L708.549 170.983
L710.905 170.995
L713.262 170.999
L715.619 171
L717.976 171
L720.332 171
L722.689 171
L725.046 171
L727.403 171
L729.759 171
L732.116 171
L734.473 171
L736.83 171
L739.186 171
L741.543 171
L743.9 171
L746.257 171
L748.613 171
L750.97 171
L753.327 171
L755.684 171
L758.04 171
L760.397 171
L762.754 171
L765.111 171
L767.467 171
L769.824 171
L772.181 171
L774.538 171
L776.894 171
L779.251 171
L781.608 171
L783.964 171
L786.321 171
L788.678 171
L791.035 171
L793.391 171
L795.748 171
L798.105 171
L800.462 171
L802.818 171
L805.175 171
L807.532 171
L809.889 171
L812.245 171
L814.602 171
L816.959 171
L819.316 171
L821.672 171
L824.029 171
L826.386 171
L828.743 171
L831.099 171
L833.456 171
L835.813 171
L838.17 171
L840.526 171
L842.883 171
L845.24 171
L847.597 171
L849.953 171
L852.31 171
L854.667 171" style="fill:none;stroke:#0000ff;stroke-linecap:square;stroke-width:2;"/>
   </g>
   <g id="line2d_44">
    <path clip-path="url(#p8486599d85)" d="
M618.992 171
L621.349 171
L623.706 171
L626.063 171
L628.419 170.999
L630.776 170.999
L633.133 170.997
L635.49 170.995
L637.846 170.989
L640.203 170.977
L642.56 170.956
L644.916 170.916
L647.273 170.846
L649.63 170.724
L651.987 170.521
L654.343 170.194
L656.7 169.685
L659.057 168.919
L661.414 167.808
L663.77 166.255
L666.127 164.165
L668.484 161.463
L670.841 158.11
L673.197 154.127
L675.554 149.612
L677.911 144.746
L680.268 139.794
L682.624 135.081
L684.981 130.964
L687.338 127.78
L689.695 125.809
L692.051 125.224
L694.408 126.072
L696.765 128.266
L699.122 131.598
L701.478 135.774
L703.835 140.455
L706.192 145.304
L708.549 150.02
L710.905 154.37
L713.262 158.198
L715.619 161.425
L717.976 164.039
L720.332 166.08
L722.689 167.618
L725.046 168.737
L727.403 169.527
L729.759 170.066
L732.116 170.423
L734.473 170.652
L736.83 170.796
L739.186 170.883
L741.543 170.935
L743.9 170.964
L746.257 170.981
L748.613 170.99
L750.97 170.995
L753.327 170.997
L755.684 170.999
L758.04 170.999
L760.397 171
L762.754 171
L765.111 171
L767.467 171
L769.824 171
L772.181 171
L774.538 171
L776.894 171
L779.251 171
L781.608 171
L783.964 171
L786.321 171
L788.678 171
L791.035 171
L793.391 171
L795.748 171
L798.105 171
L800.462 171
L802.818 171
L805.175 171
L807.532 171
L809.889 171
L812.245 171
L814.602 171
L816.959 171
L819.316 171
L821.672 171
L824.029 171
L826.386 171
L828.743 171
L831.099 171
L833.456 171
L835.813 171
L838.17 171
L840.526 171
L842.883 171
L845.24 171
L847.597 171
L849.953 171
L852.31 171
L854.667 171" style="fill:none;stroke:#2a00d4;stroke-linecap:square;stroke-width:2;"/>
   </g>
   <g id="line2d_45">
    <path clip-path="url(#p8486599d85)" d="
M618.992 171
L621.349 170.999
L623.706 170.998
L626.063 170.997
L628.419 170.995
L630.776 170.992
L633.133 170.986
L635.49 170.976
L637.846 170.961
L640.203 170.937
L642.56 170.9
L644.916 170.844
L647.273 170.76
L649.63 170.639
L651.987 170.465
L654.343 170.222
L656.7 169.888
L659.057 169.437
L661.414 168.843
L663.77 168.076
L666.127 167.104
L668.484 165.902
L670.841 164.445
L673.197 162.722
L675.554 160.73
L677.911 158.483
L680.268 156.015
L682.624 153.378
L684.981 150.641
L687.338 147.895
L689.695 145.241
L692.051 142.788
L694.408 140.644
L696.765 138.909
L699.122 137.669
L701.478 136.984
L703.835 136.89
L706.192 137.388
L708.549 138.451
L710.905 140.023
L713.262 142.024
L715.619 144.359
L717.976 146.921
L720.332 149.605
L722.689 152.309
L725.046 154.945
L727.403 157.438
L729.759 159.733
L732.116 161.794
L734.473 163.601
L736.83 165.149
L739.186 166.449
L741.543 167.516
L743.9 168.375
L746.257 169.054
L748.613 169.58
L750.97 169.98
L753.327 170.278
L755.684 170.497
L758.04 170.655
L760.397 170.767
L762.754 170.845
L765.111 170.898
L767.467 170.934
L769.824 170.958
L772.181 170.974
L774.538 170.984
L776.894 170.99
L779.251 170.994
L781.608 170.996
L783.964 170.998
L786.321 170.999
L788.678 170.999
L791.035 171
L793.391 171
L795.748 171
L798.105 171
L800.462 171
L802.818 171
L805.175 171
L807.532 171
L809.889 171
L812.245 171
L814.602 171
L816.959 171
L819.316 171
L821.672 171
L824.029 171
L826.386 171
L828.743 171
L831.099 171
L833.456 171
L835.813 171
L838.17 171
L840.526 171
L842.883 171
L845.24 171
L847.597 171
L849.953 171
L852.31 171
L854.667 171" style="fill:none;stroke:#5500aa;stroke-linecap:square;stroke-width:2;"/>
   </g>
   <g id="line2d_46">
    <path clip-path="url(#p8486599d85)" d="
M618.992 170.999
L621.349 170.998
L623.706 170.997
L626.063 170.995
L628.419 170.992
L630.776 170.987
L633.133 170.98
L635.49 170.97
L637.846 170.955
L640.203 170.933
L642.56 170.902
L644.916 170.858
L647.273 170.798
L649.63 170.715
L651.987 170.604
L654.343 170.456
L656.7 170.261
L659.057 170.009
L661.414 169.688
L663.77 169.283
L666.127 168.78
L668.484 168.166
L670.841 167.425
L673.197 166.547
L675.554 165.521
L677.911 164.341
L680.268 163.006
L682.624 161.521
L684.981 159.897
L687.338 158.155
L689.695 156.322
L692.051 154.432
L694.408 152.527
L696.765 150.655
L699.122 148.867
L701.478 147.214
L703.835 145.749
L706.192 144.519
L708.549 143.567
L710.905 142.923
L713.262 142.612
L715.619 142.643
L717.976 143.014
L720.332 143.712
L722.689 144.711
L725.046 145.975
L727.403 147.462
L729.759 149.123
L732.116 150.908
L734.473 152.764
L736.83 154.643
L739.186 156.501
L741.543 158.297
L743.9 160
L746.257 161.585
L748.613 163.035
L750.97 164.339
L753.327 165.493
L755.684 166.499
L758.04 167.363
L760.397 168.094
L762.754 168.705
L765.111 169.207
L767.467 169.615
L769.824 169.942
L772.181 170.201
L774.538 170.403
L776.894 170.559
L779.251 170.678
L781.608 170.767
L783.964 170.833
L786.321 170.882
L788.678 170.917
L791.035 170.943
L793.391 170.961
L795.748 170.973
L798.105 170.982
L800.462 170.988
L802.818 170.992
L805.175 170.995
L807.532 170.997
L809.889 170.998
L812.245 170.999
L814.602 170.999
L816.959 170.999
L819.316 171
L821.672 171
L824.029 171
L826.386 171
L828.743 171
L831.099 171
L833.456 171
L835.813 171
L838.17 171
L840.526 171
L842.883 171
L845.24 171
L847.597 171
L849.953 171
L852.31 171
L854.667 171" style="fill:none;stroke:#800080;stroke-linecap:square;stroke-width:2;"/>
   </g>
   <g id="line2d_47">
    <path clip-path="url(#p8486599d85)" d="
M618.992 170.998
L621.349 170.997
L623.706 170.996
L626.063 170.994
L628.419 170.991
L630.776 170.987
L633.133 170.981
L635.49 170.973
L637.846 170.962
L640.203 170.946
L642.56 170.925
L644.916 170.897
L647.273 170.859
L649.63 170.808
L651.987 170.742
L654.343 170.657
L656.7 170.547
L659.057 170.408
L661.414 170.233
L663.77 170.016
L666.127 169.749
L668.484 169.424
L670.841 169.033
L673.197 168.569
L675.554 168.022
L677.911 167.386
L680.268 166.655
L682.624 165.824
L684.981 164.892
L687.338 163.858
L689.695 162.727
L692.051 161.506
L694.408 160.205
L696.765 158.839
L699.122 157.427
L701.478 155.991
L703.835 154.557
L706.192 153.151
L708.549 151.803
L710.905 150.544
L713.262 149.403
L715.619 148.407
L717.976 147.581
L720.332 146.948
L722.689 146.523
L725.046 146.318
L727.403 146.338
L729.759 146.583
L732.116 147.044
L734.473 147.709
L736.83 148.561
L739.186 149.576
L741.543 150.73
L743.9 151.994
L746.257 153.339
L748.613 154.736
L750.97 156.155
L753.327 157.572
L755.684 158.961
L758.04 160.302
L760.397 161.577
L762.754 162.774
L765.111 163.882
L767.467 164.894
L769.824 165.808
L772.181 166.624
L774.538 167.344
L776.894 167.971
L779.251 168.513
L781.608 168.975
L783.964 169.366
L786.321 169.692
L788.678 169.962
L791.035 170.184
L793.391 170.363
L795.748 170.507
L798.105 170.622
L800.462 170.713
L802.818 170.783
L805.175 170.838
L807.532 170.88
L809.889 170.912
L812.245 170.935
L814.602 170.953
L816.959 170.966
L819.316 170.976
L821.672 170.983
L824.029 170.988
L826.386 170.992
L828.743 170.994
L831.099 170.996
L833.456 170.997
L835.813 170.998
L838.17 170.999
L840.526 170.999
L842.883 170.999
L845.24 171
L847.597 171
L849.953 171
L852.31 171
L854.667 171" style="fill:none;stroke:#aa0055;stroke-linecap:square;stroke-width:2;"/>
   </g>
   <g id="line2d_48">
    <path clip-path="url(#p8486599d85)" d="
M618.992 170.998
L621.349 170.997
L623.706 170.996
L626.063 170.995
L628.419 170.993
L630.776 170.989
L633.133 170.985
L635.49 170.98
L637.846 170.972
L640.203 170.961
L642.56 170.948
L644.916 170.929
L647.273 170.906
L649.63 170.875
L651.987 170.835
L654.343 170.784
L656.7 170.72
L659.057 170.639
L661.414 170.539
L663.77 170.415
L666.127 170.263
L668.484 170.08
L670.841 169.858
L673.197 169.595
L675.554 169.283
L677.911 168.919
L680.268 168.495
L682.624 168.009
L684.981 167.454
L687.338 166.829
L689.695 166.13
L692.051 165.356
L694.408 164.51
L696.765 163.592
L699.122 162.607
L701.478 161.564
L703.835 160.47
L706.192 159.337
L708.549 158.18
L710.905 157.013
L713.262 155.854
L715.619 154.721
L717.976 153.635
L720.332 152.614
L722.689 151.679
L725.046 150.847
L727.403 150.136
L729.759 149.56
L732.116 149.131
L734.473 148.859
L736.83 148.75
L739.186 148.806
L741.543 149.025
L743.9 149.402
L746.257 149.929
L748.613 150.594
L750.97 151.383
L753.327 152.28
L755.684 153.266
L758.04 154.323
L760.397 155.432
L762.754 156.572
L765.111 157.726
L767.467 158.876
L769.824 160.006
L772.181 161.103
L774.538 162.155
L776.894 163.152
L779.251 164.086
L781.608 164.953
L783.964 165.748
L786.321 166.472
L788.678 167.124
L791.035 167.705
L793.391 168.219
L795.748 168.669
L798.105 169.06
L800.462 169.397
L802.818 169.685
L805.175 169.928
L807.532 170.133
L809.889 170.303
L812.245 170.444
L814.602 170.559
L816.959 170.653
L819.316 170.729
L821.672 170.79
L824.029 170.838
L826.386 170.876
L828.743 170.906
L831.099 170.929
L833.456 170.946
L835.813 170.96
L838.17 170.97
L840.526 170.978
L842.883 170.984
L845.24 170.989
L847.597 170.992
L849.953 170.994
L852.31 170.996
L854.667 170.997" style="fill:none;stroke:#d4002b;stroke-linecap:square;stroke-width:2;"/>
   </g>
   <g id="line2d_49">
    <path clip-path="url(#p8486599d85)" d="
M618.992 170.999
L621.349 170.998
L623.706 170.997
L626.063 170.996
L628.419 170.994
L630.776 170.992
L633.133 170.989
L635.49 170.985
L637.846 170.98
L640.203 170.974
L642.56 170.965
L644.916 170.953
L647.273 170.939
L649.63 170.92
L651.987 170.896
L654.343 170.866
L656.7 170.828
L659.057 170.78
L661.414 170.722
L663.77 170.649
L666.127 170.562
L668.484 170.455
L670.841 170.327
L673.197 170.174
L675.554 169.993
L677.911 169.779
L680.268 169.53
L682.624 169.242
L684.981 168.909
L687.338 168.53
L689.695 168.101
L692.051 167.618
L694.408 167.08
L696.765 166.486
L699.122 165.834
L701.478 165.125
L703.835 164.361
L706.192 163.545
L708.549 162.682
L710.905 161.777
L713.262 160.839
L715.619 159.875
L717.976 158.897
L720.332 157.916
L722.689 156.944
L725.046 155.995
L727.403 155.083
L729.759 154.221
L732.116 153.423
L734.473 152.703
L736.83 152.072
L739.186 151.542
L741.543 151.123
L743.9 150.821
L746.257 150.642
L748.613 150.589
L750.97 150.664
L753.327 150.864
L755.684 151.186
L758.04 151.623
L760.397 152.168
L762.754 152.811
L765.111 153.541
L767.467 154.344
L769.824 155.209
L772.181 156.12
L774.538 157.065
L776.894 158.03
L779.251 159.002
L781.608 159.969
L783.964 160.919
L786.321 161.844
L788.678 162.735
L791.035 163.584
L793.391 164.386
L795.748 165.137
L798.105 165.835
L800.462 166.476
L802.818 167.062
L805.175 167.593
L807.532 168.069
L809.889 168.494
L812.245 168.87
L814.602 169.201
L816.959 169.489
L819.316 169.739
L821.672 169.953
L824.029 170.137
L826.386 170.292
L828.743 170.423
L831.099 170.532
L833.456 170.623
L835.813 170.698
L838.17 170.759
L840.526 170.81
L842.883 170.85
L845.24 170.883
L847.597 170.909
L849.953 170.929
L852.31 170.946
L854.667 170.958" style="fill:none;stroke:#ff0000;stroke-linecap:square;stroke-width:2;"/>
   </g>
   <g id="patch_13">
    <path d="
M619.481 28.4
L853.2 28.4" style="fill:none;stroke:#000000;stroke-linecap:square;stroke-linejoin:miter;"/>
   </g>
   <g id="patch_14">
    <path d="
M853.2 171
L853.2 28.4" style="fill:none;stroke:#000000;stroke-linecap:square;stroke-linejoin:miter;"/>
   </g>
   <g id="patch_15">
    <path d="
M619.481 171
L853.2 171" style="fill:none;stroke:#000000;stroke-linecap:square;stroke-linejoin:miter;"/>
   </g>
   <g id="patch_16">
    <path d="
M619.481 171
L619.481 28.4" style="fill:none;stroke:#000000;stroke-linecap:square;stroke-linejoin:miter;"/>
   </g>
   <g id="matplotlib.axis_5">
    <g id="xtick_11">
     <g id="line2d_50">
      <g>
       <use style="stroke:#000000;stroke-width:0.5;" x="631.1671875" xlink:href="#m93b0483c22" y="171.0"/>
      </g>
     </g>
     <g id="line2d_51">
      <g>
       <use style="stroke:#000000;stroke-width:0.5;" x="631.1671875" xlink:href="#m741efc42ff" y="28.4"/>
      </g>
     </g>
     <g id="text_21">
      <!-- −20 -->
      <g transform="translate(621.4765625 182.5984375)scale(0.1 -0.1)">
       <use xlink:href="#BitstreamVeraSans-Roman-2212"/>
       <use x="83.7890625" xlink:href="#BitstreamVeraSans-Roman-32"/>
       <use x="147.412109375" xlink:href="#BitstreamVeraSans-Roman-30"/>
      </g>
     </g>
    </g>
    <g id="xtick_12">
     <g id="line2d_52">
      <g>
       <use style="stroke:#000000;stroke-width:0.5;" x="677.9109375" xlink:href="#m93b0483c22" y="171.0"/>
      </g>
     </g>
     <g id="line2d_53">
      <g>
       <use style="stroke:#000000;stroke-width:0.5;" x="677.9109375" xlink:href="#m741efc42ff" y="28.4"/>
      </g>
     </g>
     <g id="text_22">
      <!-- 0 -->
      <g transform="translate(675.39140625 182.5984375)scale(0.1 -0.1)">
       <use xlink:href="#BitstreamVeraSans-Roman-30"/>
      </g>
     </g>
    </g>
    <g id="xtick_13">
     <g id="line2d_54">
      <g>
       <use style="stroke:#000000;stroke-width:0.5;" x="724.6546875" xlink:href="#m93b0483c22" y="171.0"/>
      </g>
     </g>
     <g id="line2d_55">
      <g>
       <use style="stroke:#000000;stroke-width:0.5;" x="724.6546875" xlink:href="#m741efc42ff" y="28.4"/>
      </g>
     </g>
     <g id="text_23">
      <!-- 20 -->
      <g transform="translate(718.990625 182.5984375)scale(0.1 -0.1)">
       <use xlink:href="#BitstreamVeraSans-Roman-32"/>
       <use x="63.623046875" xlink:href="#BitstreamVeraSans-Roman-30"/>
      </g>
     </g>
    </g>
    <g id="xtick_14">
     <g id="line2d_56">
      <g>
       <use style="stroke:#000000;stroke-width:0.5;" x="771.3984375" xlink:href="#m93b0483c22" y="171.0"/>
      </g>
     </g>
     <g id="line2d_57">
      <g>
       <use style="stroke:#000000;stroke-width:0.5;" x="771.3984375" xlink:href="#m741efc42ff" y="28.4"/>
      </g>
     </g>
     <g id="text_24">
      <!-- 40 -->
      <g transform="translate(765.6125 182.5984375)scale(0.1 -0.1)">
       <use xlink:href="#BitstreamVeraSans-Roman-34"/>
       <use x="63.623046875" xlink:href="#BitstreamVeraSans-Roman-30"/>
      </g>
     </g>
    </g>
    <g id="xtick_15">
     <g id="line2d_58">
      <g>
       <use style="stroke:#000000;stroke-width:0.5;" x="818.1421875" xlink:href="#m93b0483c22" y="171.0"/>
      </g>
     </g>
     <g id="line2d_59">
      <g>
       <use style="stroke:#000000;stroke-width:0.5;" x="818.1421875" xlink:href="#m741efc42ff" y="28.4"/>
      </g>
     </g>
     <g id="text_25">
      <!-- 60 -->
      <g transform="translate(812.4609375 182.5984375)scale(0.1 -0.1)">
       <use xlink:href="#BitstreamVeraSans-Roman-36"/>
       <use x="63.623046875" xlink:href="#BitstreamVeraSans-Roman-30"/>
      </g>
     </g>
    </g>
    <g id="text_26">
     <!-- position -->
     <g transform="translate(707.95078125 201.07578125)scale(0.15 -0.15)">
      <use xlink:href="#BitstreamVeraSans-Roman-70"/>
      <use x="63.4765625" xlink:href="#BitstreamVeraSans-Roman-6f"/>
      <use x="124.658203125" xlink:href="#BitstreamVeraSans-Roman-73"/>
      <use x="176.7578125" xlink:href="#BitstreamVeraSans-Roman-69"/>
      <use x="204.541015625" xlink:href="#BitstreamVeraSans-Roman-74"/>
      <use x="243.75" xlink:href="#BitstreamVeraSans-Roman-69"/>
      <use x="271.533203125" xlink:href="#BitstreamVeraSans-Roman-6f"/>
      <use x="332.71484375" xlink:href="#BitstreamVeraSans-Roman-6e"/>
     </g>
    </g>
   </g>
   <g id="matplotlib.axis_6">
    <g id="ytick_5">
     <g id="line2d_60">
      <g>
       <use style="stroke:#000000;stroke-width:0.5;" x="619.48125" xlink:href="#m728421d6d4" y="171.0"/>
      </g>
     </g>
     <g id="line2d_61">
      <g>
       <use style="stroke:#000000;stroke-width:0.5;" x="853.2" xlink:href="#mcb0005524f" y="171.0"/>
      </g>
     </g>
     <g id="text_27">
      <!-- 0.0 -->
      <g transform="translate(600.9015625 173.759375)scale(0.1 -0.1)">
       <use xlink:href="#BitstreamVeraSans-Roman-30"/>
       <use x="63.623046875" xlink:href="#BitstreamVeraSans-Roman-2e"/>
       <use x="95.41015625" xlink:href="#BitstreamVeraSans-Roman-30"/>
      </g>
     </g>
    </g>
    <g id="ytick_6">
     <g id="line2d_62">
      <g>
       <use style="stroke:#000000;stroke-width:0.5;" x="619.48125" xlink:href="#m728421d6d4" y="41.3636363636"/>
      </g>
     </g>
     <g id="line2d_63">
      <g>
       <use style="stroke:#000000;stroke-width:0.5;" x="853.2" xlink:href="#mcb0005524f" y="41.3636363636"/>
      </g>
     </g>
     <g id="text_28">
      <!-- 0.2 -->
      <g transform="translate(601.2390625 44.1230113636)scale(0.1 -0.1)">
       <use xlink:href="#BitstreamVeraSans-Roman-30"/>
       <use x="63.623046875" xlink:href="#BitstreamVeraSans-Roman-2e"/>
       <use x="95.41015625" xlink:href="#BitstreamVeraSans-Roman-32"/>
      </g>
     </g>
    </g>
    <g id="text_29">
     <!-- concentration -->
     <g transform="translate(592.78203125 150.593359375)rotate(-90.0)scale(0.15 -0.15)">
      <use xlink:href="#BitstreamVeraSans-Roman-63"/>
      <use x="54.98046875" xlink:href="#BitstreamVeraSans-Roman-6f"/>
      <use x="116.162109375" xlink:href="#BitstreamVeraSans-Roman-6e"/>
      <use x="179.541015625" xlink:href="#BitstreamVeraSans-Roman-63"/>
      <use x="234.521484375" xlink:href="#BitstreamVeraSans-Roman-65"/>
      <use x="296.044921875" xlink:href="#BitstreamVeraSans-Roman-6e"/>
      <use x="359.423828125" xlink:href="#BitstreamVeraSans-Roman-74"/>
      <use x="398.6328125" xlink:href="#BitstreamVeraSans-Roman-72"/>
      <use x="439.74609375" xlink:href="#BitstreamVeraSans-Roman-61"/>
      <use x="501.025390625" xlink:href="#BitstreamVeraSans-Roman-74"/>
      <use x="540.234375" xlink:href="#BitstreamVeraSans-Roman-69"/>
      <use x="568.017578125" xlink:href="#BitstreamVeraSans-Roman-6f"/>
      <use x="629.19921875" xlink:href="#BitstreamVeraSans-Roman-6e"/>
     </g>
    </g>
   </g>
   <g id="text_30">
    <!-- k = 0.4 -->
    <defs>
     <path d="
M36.8125 57.4219
L16.2188 26.9062
L36.8125 26.9062
z

M33.6875 72.9062
L54.5938 72.9062
L54.5938 26.9062
L64.9844 26.9062
L64.9844 13.2812
L54.5938 13.2812
L54.5938 0
L36.8125 0
L36.8125 13.2812
L4.5 13.2812
L4.5 29.3906
z
" id="BitstreamVeraSans-Bold-34"/>
    </defs>
    <g transform="translate(706.90546875 23.4)scale(0.15 -0.15)">
     <use xlink:href="#BitstreamVeraSans-Bold-6b"/>
     <use x="66.50390625" xlink:href="#BitstreamVeraSans-Bold-20"/>
     <use x="101.318359375" xlink:href="#BitstreamVeraSans-Bold-3d"/>
     <use x="185.107421875" xlink:href="#BitstreamVeraSans-Bold-20"/>
     <use x="219.921875" xlink:href="#BitstreamVeraSans-Bold-30"/>
     <use x="289.501953125" xlink:href="#BitstreamVeraSans-Bold-2e"/>
     <use x="327.490234375" xlink:href="#BitstreamVeraSans-Bold-34"/>
    </g>
   </g>
  </g>
 </g>
 <defs>
  <clipPath id="p8486599d85">
   <rect height="142.6" width="233.71875" x="619.48125" y="28.4"/>
  </clipPath>
  <clipPath id="p8fb62997d6">
   <rect height="142.6" width="233.71875" x="335.08125" y="28.4"/>
  </clipPath>
  <clipPath id="p8cb69eebd4">
   <rect height="142.6" width="233.71875" x="50.68125" y="28.4"/>
  </clipPath>
 </defs>
</svg>
